<svg xmlns="http://www.w3.org/2000/svg" height="512" width="512" version="1.1" viewBox="0 0 511.99999 511.99999">
 <g transform="translate(0 194.4)" class="derive-logo">
  <path stroke-width="2.789" d="m318.34-56.097v-13.387c0-24.544-2.5101-39.604-7.8093-45.74-5.2992-6.1359-15.619-9.2038-31.237-9.2038h-20.36c-8.646 0-14.782-1.6734-18.687-4.7414-3.9047-3.068-5.857-8.0882-5.857-14.782 0-6.9726 2.2312-12.272 6.6937-16.176 4.4625-3.9047 11.156-5.857 19.802-5.857 0.83671 0 4.7414 0.5578 11.714 1.6734s13.387 1.6734 19.244 1.6734c15.34 0 30.679-0.83671 46.298-2.789 3.3468-0.2789 5.2992-0.5578 6.1359-0.5578 9.2038 0 15.619 1.9523 18.687 5.5781 3.3468 3.6258 4.7414 11.435 4.7414 23.428v335.24c0 21.197 1.9523 33.747 6.1359 38.21 4.1836 4.4625 12.551 6.6937 25.101 6.6937h17.013c9.4827 0 16.455 1.6734 20.918 5.2992 4.4625 3.6258 6.6937 8.646 6.6937 15.619 0 6.6937-2.2312 11.714-6.4148 14.782-4.1836 3.0679-10.877 4.4625-20.081 4.4625-2.789 0-9.2038-0.55781-18.965-1.6734-9.7616-1.1156-18.129-1.6734-25.38-1.6734-4.1836 0-10.877 0.55781-20.081 1.6734-8.9249 1.1156-16.176 1.6734-20.918 1.6734-6.1359 0-10.319-1.3945-12.551-4.4625-2.2312-2.789-3.3468-9.7616-3.3468-20.639v-5.857c-12.272 11.993-26.496 20.918-42.951 27.333-16.176 6.1359-34.026 9.4827-53.271 9.4827-46.577 0-83.671-15.061-111-44.904-26.496-29.843-40.162-70.005-40.162-120.77 0-54.386 13.108-97.616 39.604-129.69s61.917-47.971 106.82-47.971c23.149 0 42.951 4.1836 59.685 12.83 16.734 8.646 31.237 22.312 44.067 40.72zm0 199.42v-41.557c0-34.584-8.3671-61.917-25.101-81.44-16.74-19.8-39.89-29.562-68.9-29.562-30.958 0-55.781 11.435-74.188 34.305-18.408 22.87-27.611 53.828-27.611 93.154 0 40.999 9.2038 72.794 27.611 95.106 18.408 22.312 44.346 33.468 78.093 33.468 30.958 0 53.828-8.3671 68.331-24.822 14.503-16.734 21.755-42.951 21.755-78.651z"/>
 </g>
</svg>
