<?xml version="1.0" encoding="UTF-8"?>
<svg width="701.2" height="190.6" version="1.1" viewBox="0 0 701.2 190.6" xmlns="http://www.w3.org/2000/svg">
 <g class="derive-logo">
  <path d="m89.6 59.6v-4.8c0-8.8-0.9-14.2-2.8-16.4s-5.6-3.3-11.2-3.3h-7.3c-3.1 0-5.3-0.6-6.7-1.7s-2.1-2.9-2.1-5.3c0-2.5 0.8-4.4 2.4-5.8s4-2.1 7.1-2.1c0.3 0 1.7 0.2 4.2 0.6s4.8 0.6 6.9 0.6c5.5 0 11-0.3 16.6-1 1.2-0.1 1.9-0.2 2.2-0.2 3.3 0 5.6 0.7 6.7 2 1.2 1.3 1.7 4.1 1.7 8.4v120.2c0 7.6 0.7 12.1 2.2 13.7s4.5 2.4 9 2.4h6.1c3.4 0 5.9 0.6 7.5 1.9s2.4 3.1 2.4 5.6c0 2.4-0.8 4.2-2.3 5.3s-3.9 1.6-7.2 1.6c-1 0-3.3-0.2-6.8-0.6s-6.5-0.6-9.1-0.6c-1.5 0-3.9 0.2-7.2 0.6-3.2 0.4-5.8 0.6-7.5 0.6-2.2 0-3.7-0.5-4.5-1.6-0.8-1-1.2-3.5-1.2-7.4v-2.1c-4.4 4.3-9.5 7.5-15.4 9.8-5.8 2.2-12.2 3.4-19.1 3.4-16.7 0-30-5.4-39.8-16.1-9.5-10.7-14.4-25.1-14.4-43.3 0-19.5 4.7-35 14.2-46.5s22.2-17.2 38.3-17.2c8.3 0 15.4 1.5 21.4 4.6s11.2 8 15.8 14.6zm0 71.5v-14.9c0-12.4-3-22.2-9-29.2-6-7.1-14.3-10.6-24.7-10.6-11.1 0-20 4.1-26.6 12.3s-9.9 19.3-9.9 33.4c0 14.7 3.3 26.1 9.9 34.1s15.9 12 28 12c11.1 0 19.3-3 24.5-8.9 5.2-6 7.8-15.4 7.8-28.2zm73.6-6.8v0.7c0 13.1 3.2 23.7 9.7 31.6s15.1 11.9 25.8 11.9c6.5 0 12-1.2 16.5-3.5s8.5-6.1 12.2-11.3c1.4-2.1 2.9-5.3 4.4-9.5 2.4-6.4 5.4-9.5 9.1-9.5 2.3 0 4.3 0.8 5.8 2.4 1.6 1.6 2.3 3.6 2.3 6 0 2.8-0.9 6.2-2.8 10.4-1.9 4.1-4.3 8.3-7.4 12.3-4.8 6.2-10.5 10.7-17.2 13.7-6.6 2.9-14.6 4.4-23.8 4.4-16.4 0-29.5-5.5-39.1-16.6-9.7-11.1-14.5-26.1-14.5-45 0-18.8 4.8-33.7 14.5-44.8s22.7-16.7 39.1-16.7c15.8 0 28.5 4.7 37.9 14.2 9.5 9.5 14.2 22.1 14.2 38 0 4.6-0.8 7.6-2.3 9.2-1.6 1.5-4.6 2.3-9.1 2.3h-4.1zm1.1-15.2h65.8v-1.5c0-9.4-3-17-8.9-22.8s-13.7-8.8-23.2-8.8c-9.4 0-17.1 3-23.1 8.9s-9.5 14-10.6 24.2zm21.7-73.5 18.5-19.6c3.7-4 6.7-6.7 8.9-8.1s4.4-2.1 6.6-2.1c2.4 0 4.4 0.9 6.1 2.6s2.5 3.9 2.5 6.5c0 3.7-4.2 8.2-12.5 13.4l-0.2 0.1-22.4 14.1-1.3 0.8c-5.5 3.4-9.1 5.1-10.8 5.1-1.1 0-2-0.3-2.8-0.9s-1.2-1.2-1.2-1.9 1.3-2.4 3.8-5c1.9-2.1 3.5-3.7 4.8-5zm121.8 114.5c0 7.1 0.6 11.6 1.8 13.7s3.7 3.1 7.5 3.1c0.3 0 1.5-0.2 3.6-0.6s4.1-0.6 5.9-0.6c3.6 0 6.3 0.6 8 1.9s2.5 3.3 2.5 6c0 2.3-0.8 4.1-2.5 5.4s-4 1.9-7 1.9c-0.5 0-4.3-0.2-11.2-0.6s-13.6-0.6-19.9-0.6c-5.1 0-10.5 0.2-16.3 0.6s-8.9 0.6-9.4 0.6c-3.3 0-5.5-0.5-6.9-1.6-1.3-1.1-2-2.9-2-5.5 0-2.7 0.8-4.8 2.3-6.1 1.5-1.4 3.9-2 7.2-2 0.8 0 1.9 0.2 3.2 0.6s2.4 0.6 3.1 0.6c4.7 0 7.8-0.9 9.2-2.9 1.4-1.9 2.1-6.6 2.1-13.9v-49.3c0-10.4-0.8-16.7-2.3-19.1s-4.6-3.6-9-3.6h-7.3c-3.1 0-5.3-0.5-6.6-1.5s-2-2.6-2-4.9c0-2.6 0.8-4.6 2.4-6s3.9-2.1 6.9-2.1c0.4 0 1.7 0.2 3.9 0.6s4.3 0.6 6.3 0.6c4.8 0 9.6-0.3 14.5-1 1-0.1 1.6-0.2 1.9-0.2 3 0 5.1 0.7 6.2 2.1s1.7 4.2 1.7 8.5l-0.2 6.4c3.2-6.4 7.4-11.2 12.6-14.5s11.3-4.9 18.3-4.9c9.7 0 17.7 3 23.9 9.1 6.3 6.1 9.4 13.9 9.4 23.5 0 6.8-1.7 12.2-5 16-3.3 3.9-7.8 5.8-13.6 5.8-4.1 0-7.3-1-9.5-3.1s-3.4-5-3.4-8.7c0-2.2 0.6-4.1 1.8-5.5s3-2.5 5.4-3.3c0.5-0.2 1-0.3 1.8-0.5 2.9-0.6 4.3-2.4 4.3-5.4 0-3.2-1.8-6.3-5.4-9.2s-7.6-4.3-12.1-4.3c-9.5 0-16.3 3.9-20.3 11.8s-6 21.8-6 41.7zm100.3-0.3v-47.1c0-10.8-0.8-17.6-2.3-20.3s-4.7-4-9.5-4h-8.7c-2.9 0-4.9-0.5-6-1.6-1.1-1-1.6-2.9-1.6-5.4 0-2.2 0.8-4 2.4-5.6 1.6-1.5 3.5-2.3 5.9-2.3 0.5 0 2.2 0.2 5.3 0.6s5.9 0.6 8.6 0.6c4.4 0 9-0.3 13.9-1 1.2-0.1 1.9-0.2 2.1-0.2 3.3 0 5.4 0.6 6.5 1.8s1.6 4.1 1.6 8.5v75.9c0 7.3 0.7 12 2.1 14s4.4 3 9 3c1 0 2.2-0.2 3.5-0.6s2.2-0.6 2.8-0.6c3.3 0 5.8 0.7 7.4 2 1.7 1.3 2.5 3.4 2.5 6s-0.7 4.5-2.1 5.6-3.8 1.7-7.1 1.7c-0.9 0-4.2-0.2-9.8-0.6s-10.6-0.6-15.2-0.6c-8.6 0-17.3 0.3-26.1 1-1.9 0.2-3.1 0.2-3.6 0.2-3.4 0-5.8-0.6-7.3-1.7s-2.2-3-2.2-5.5c0-2.7 0.8-4.7 2.5-6s4.2-2 7.5-2c0.8 0 1.9 0.2 3.4 0.6s2.6 0.6 3.3 0.6c4.7 0 7.8-1 9.3-2.9 1.2-1.9 1.9-6.6 1.9-14.1zm-7-108.4c0-3.6 1.2-6.7 3.7-9.2s5.5-3.7 9.2-3.7c3.5 0 6.4 1.2 8.8 3.7s3.5 5.6 3.5 9.2c0 3.5-1.2 6.5-3.6 9s-5.3 3.7-8.7 3.7c-3.6 0-6.7-1.2-9.2-3.7-2.5-2.4-3.7-5.4-3.7-9zm131.9 133.3c-1.1 2.8-2.7 4.9-4.7 6.2-2.1 1.4-4.6 2.1-7.7 2.1-3.2 0-5.7-0.6-7.6-1.9s-3.4-3.4-4.5-6.4l-32.9-83.3c-0.2-0.4-0.3-1-0.6-1.7-2.9-7.7-7-11.6-12.2-11.6-0.2 0-1.3 0.2-3.1 0.6-1.9 0.4-3.7 0.6-5.5 0.6-3.1 0-5.5-0.6-7.3-1.8s-2.7-2.9-2.7-5.1c0-2.3 1-4.1 2.9-5.5 1.9-1.3 4.5-2 7.8-2 1.5 0 5.7 0.2 12.3 0.6 6.7 0.4 12.6 0.6 17.7 0.6 4 0 8.4-0.2 13.1-0.6s7.5-0.6 8.3-0.6c2.4 0 4.3 0.6 5.8 1.9 1.4 1.3 2.1 3 2.1 5.2 0 2.5-0.7 4.4-2 5.6s-3.4 1.8-6.1 1.8c-0.7 0-2-0.2-3.9-0.6s-3.4-0.6-4.6-0.6c-1.3 0-2.5 0.6-3.5 1.8s-1.5 2.6-1.5 4.2c0 0.6 0.1 1.2 0.2 2 0.2 0.8 0.4 1.5 0.7 2.3l27.1 74.3 27-74.3c0.3-0.8 0.5-1.6 0.7-2.3 0.2-0.8 0.2-1.4 0.2-2 0-1.6-0.5-3-1.5-4.2s-2.1-1.8-3.3-1.8-2.7 0.2-4.6 0.6-3.3 0.6-4 0.6c-2.7 0-4.7-0.6-6-1.8s-2-3.1-2-5.6c0-2.2 0.7-3.9 2.1-5.2s3.3-1.9 5.7-1.9c0.9 0 3.6 0.2 8.3 0.6s9 0.6 13.1 0.6c5.1 0 11-0.2 17.7-0.6s10.8-0.6 12.3-0.6c3.3 0 6 0.7 7.9 2s2.9 3.2 2.9 5.5c0 2.2-0.9 3.9-2.7 5.1s-4.2 1.8-7.3 1.8c-1.7 0-3.5-0.2-5.4-0.6s-3-0.6-3.2-0.6c-5.3 0-9.5 4.2-12.7 12.7l-0.1 0.5zm81.4-50.4v0.7c0 13.1 3.2 23.7 9.7 31.6s15.1 11.9 25.8 11.9c6.5 0 12-1.2 16.5-3.5s8.5-6.1 12.2-11.3c1.4-2.1 2.9-5.3 4.4-9.5 2.4-6.4 5.4-9.5 9.1-9.5 2.3 0 4.3 0.8 5.8 2.4 1.6 1.6 2.3 3.6 2.3 6 0 2.8-0.9 6.2-2.8 10.4-1.9 4.1-4.3 8.3-7.4 12.3-4.8 6.2-10.5 10.7-17.2 13.7-6.6 2.9-14.6 4.4-23.8 4.4-16.4 0-29.5-5.5-39.1-16.6-9.7-11.1-14.5-26.1-14.5-45 0-18.8 4.8-33.7 14.5-44.8s22.7-16.7 39.1-16.7c15.8 0 28.5 4.7 37.9 14.2 9.5 9.5 14.2 22.1 14.2 38 0 4.6-0.8 7.6-2.3 9.2-1.6 1.5-4.6 2.3-9.1 2.3h-4.1zm1.2-15.2h65.8v-1.5c0-9.4-3-17-8.9-22.8s-13.7-8.8-23.2-8.8c-9.4 0-17.1 3-23.1 8.9-6.1 5.9-9.6 14-10.6 24.2z"/>
 </g>
</svg>
