<svg width="701.08" height="223.24" version="1.1" viewBox="0 0 701.08 223.24" xmlns="http://www.w3.org/2000/svg">
    <path d="m555.1 222.76c-4.0937-0.77875-6.2669-1.5775-11.332-4.1647-7.8745-4.0225-13.858-9.9412-17.385-17.195-2.0528-4.2226-4.6232-13.346-3.9394-13.983 0.63402-0.59005 12.155-3.6456 12.633-3.3504 0.23869 0.14753 0.43402 0.62457 0.43402 1.0601 0 1.8193 1.886 8.0447 3.3135 10.938 8.775 17.783 34.853 18.248 44.159 0.78779 4.8704-9.1379 3.0733-20.699-4.3811-28.185-6.3338-6.3604-14.95-8.3638-26.436-6.1471-2.602 0.50213-4.883 0.85225-5.0691 0.77806-0.18603-0.0742 9.0813-10.072 20.594-22.217l20.932-22.083 37.116 18.647-2.9799 5.9788c-1.6388 3.2884-3.14 5.9788-3.3362 5.9788-0.19619 0-6.5772-3.1205-14.18-6.9344-13.37-6.7069-13.849-6.9074-14.606-6.1134-0.43021 0.45154-3.8144 4.2013-7.5203 8.3327l-6.7381 7.5118 4.0297 1.9149c8.8994 4.229 13.178 8.1152 16.837 15.294 3.0499 5.9835 3.7976 9.6197 3.5084 17.061-0.26412 6.7976-1.1162 10.037-4.1543 15.794-5.198 9.8502-14.023 16.821-24.853 19.631-4.6387 1.2036-12.225 1.5071-16.646 0.66604zm-419.45-29.851c-7.1327-1.2886-13.048-4.4173-18.34-9.7003-5.6096-5.5998-9.1159-12.404-11.132-21.601-1.1764-5.3667-1.1715-20.328 8e-3 -25.787 3.4818-16.111 13.101-26.994 27.174-30.741 5.1932-1.3831 16.163-1.401 21.657-0.0353 12.955 3.2204 22.308 12.24 25.697 24.779 1.3096 4.8453 1.7477 14.828 0.75458 17.194-1.4185 3.3795-0.0149 3.2361-33.165 3.3902l-29.517 0.13728 0.29917 3.9631c0.67802 8.9816 3.4462 15.624 8.7086 20.898 3.7396 3.7477 6.7809 5.456 11.491 6.4542 11.854 2.5125 22.676-2.5195 27.573-12.821 0.95484-2.0086 2.1916-4.694 2.7485-5.9674 1.1284-2.5808 2.6884-4.2796 4.5894-4.9978 2.8538-1.0783 6.5867 1.3182 7.2075 4.6272 1.2546 6.6875-7.8945 21.003-16.713 26.151-7.209 4.2081-19.051 5.8628-29.04 4.0579zm31.95-56.97c-0.7414-6.9231-3.6838-12.492-8.5544-16.191-8.8724-6.7383-22.889-6.137-30.928 1.3269-4.0836 3.7912-7.0382 9.6272-8.0845 15.969l-0.31177 1.8896h48.2zm297.14 56.984c-11.62-2.1026-20.852-9.4204-26.133-20.714-3.086-6.5999-4.473-13.937-4.4686-23.638 9e-3 -23.017 10.122-38.591 28.23-43.479 5.1754-1.3969 16.133-1.4213 21.657-0.0481 13.23 3.2889 22.19 12.065 25.746 25.219 1.3325 4.9291 1.4882 15.819 0.25209 17.64-1.5923 2.3457-1.4062 2.3316-32.937 2.49l-29.298 0.1471 0.27566 3.8667c0.64086 8.9889 3.4492 15.77 8.7059 21.021 3.7596 3.7556 6.7399 5.4189 11.528 6.4337 9.8608 2.09 19.259-1.0683 24.887-8.3631 1.0455-1.3551 2.8899-4.7192 4.0988-7.4759 2.3805-5.4283 3.4186-6.8596 5.6711-7.819 3.0695-1.3074 6.8122 1.0246 7.4019 4.6119 0.80051 4.8701-4.3 15.039-10.657 21.246-3.8303 3.74-6.9651 5.683-11.873 7.3589-6.4607 2.2062-15.832 2.8165-23.087 1.5037zm31.842-56.992c-0.91429-8.732-5.4535-15.432-12.65-18.673-1.3449-0.6056-4.0459-1.3914-6.0022-1.7462-14.447-2.6203-26.577 6.4142-28.909 21.531l-0.29144 1.8896h48.167zm-464.6 56.951c-8.3807-1.3151-15.398-5.0356-21.269-11.276-2.6558-2.8232-3.8421-4.5686-5.8104-8.5496-2.898-5.8611-4.0917-10.386-4.718-17.885-0.4911-5.8801-0.028487-13.95 1.1178-19.5 3.2115-15.548 12.337-26.47 25.566-30.601 2.9781-0.92993 4.19-1.0412 11.338-1.0408 7.6078 4.5e-4 8.1748 0.0613 11.483 1.2312 5.6469 1.9968 9.8216 4.9891 13.69 9.8124l1.7257 2.1518v-11.8c0-13.461-0.31446-15.804-2.4009-17.891-1.7907-1.7907-4.5817-2.4009-10.981-2.4009-6.828 0-8.4036-0.96824-8.4036-5.164 0-2.1781 1.0361-3.9302 2.8264-4.7797 1.8094-0.85862 3.9012-0.91114 8.579-0.21541 2.6581 0.39534 5.3303 0.37928 11.77-0.07072 7.6185-0.53239 8.4279-0.5191 9.4574 0.15546 2.366 1.5503 2.2527-0.83967 2.4909 52.535 0.18411 41.241 0.32817 50.002 0.83845 50.995 0.95364 1.8551 3.3731 2.5802 8.6185 2.5831 7.82 5e-3 10.106 1.2803 10.106 5.6413 0 4.5846-2.4295 5.4899-12.214 4.551-4.7422-0.45508-6.9533-0.46499-10.564-0.0474-6.4757 0.74912-8.1813 0.6872-9.2025-0.334-0.75667-0.75667-0.98192-1.6246-1.4711-5.6684-0.10904-0.90198-0.29456-0.83338-2.7202 1.0061-3.062 2.322-7.8818 4.7077-11.624 5.7537-2.6401 0.7379-15.142 1.2912-18.229 0.80677zm17.786-11.712c6.2098-1.5882 9.9494-4.5677 12.468-9.9338 2.5696-5.4747 2.9674-8.7572 2.7677-22.839-0.16159-11.396-0.25414-12.597-1.1918-15.467-3.9617-12.129-12.89-18.311-25.158-17.42-6.3184 0.45867-11.062 2.5953-15.377 6.9265-4.3268 4.343-6.8508 9.4559-8.4726 17.163-0.83349 3.9608-0.68691 15.212 0.25489 19.563 2.649 12.238 9.1697 19.76 19.245 22.201 3.9542 0.95804 11.321 0.86586 15.463-0.19351zm326.62 11.585c-2.076-0.52609-3.66-1.7932-4.8046-3.8436-0.53394-0.95649-6.6552-16.144-13.603-33.751-6.9476-17.607-12.95-32.627-13.339-33.379-0.92723-1.793-3.9876-4.5342-5.4804-4.9089-0.64966-0.16306-2.8209-0.0525-4.8249 0.24562-6.8598 1.0206-10.422-0.61381-10.453-4.7957-0.0106-1.6064 0.23522-2.1834 1.4576-3.4058 2.0133-2.0133 3.9899-2.2328 14.514-1.6116 10.868 0.64141 16.011 0.64237 23.433 4e-3 6.7579-0.5809 8.4991-0.36747 10.105 1.2387 0.98169 0.9817 1.1614 1.5553 1.1614 3.7078 0 2.1388-0.18207 2.7285-1.1374 3.6839-1.4111 1.4111-3.6949 1.8205-6.8151 1.2218-3.7148-0.71285-5.112-0.58598-6.1907 0.56218-2.1747 2.3149-2.2933 1.8764 8.6342 31.91 5.5975 15.385 10.277 27.97 10.4 27.967 0.48455-9e-3 20.185-55.322 20.185-56.672 0-1.5899-1.1595-3.6756-2.283-4.1067-0.39579-0.15186-2.3537-0.0399-4.351 0.24893-4.3044 0.62236-6.0327 0.35851-7.5427-1.1515-0.93381-0.9339-1.1178-1.5372-1.1178-3.6643 0-2.1634 0.17766-2.7241 1.1811-3.7276 1.6869-1.6868 2.6643-1.808 9.9071-1.228 8.1539 0.65289 12.152 0.65204 23.86-6e-3 7.6228-0.42787 9.7726-0.41753 11.461 0.055 2.7679 0.77497 4.2817 2.5687 4.2628 5.0509-0.0311 4.0995-3.6444 5.7301-10.453 4.7172-2.004-0.29815-4.1665-0.41086-4.8056-0.25048-1.5905 0.39918-4.1078 2.6919-5.3767 4.897-0.57876 1.0057-6.5997 16.034-13.38 33.396-6.7802 17.362-12.625 32.167-12.988 32.901-0.87335 1.7641-2.2789 3.2743-3.7686 4.0494-1.5192 0.79041-5.864 1.147-7.8484 0.64409zm-183.08-1.7998c-1.5796-0.63746-2.3818-2.2328-2.3818-4.737 0-4.5045 3.3258-6.5384 8.9586-5.4787 5.7679 1.0852 8.9568-0.0539 10.116-3.6136 0.83771-2.5725 1.2439-40.551 0.53056-49.604-0.76521-9.7113-1.7628-10.811-9.8237-10.831-7.9168-0.0192-9.7814-0.9247-9.7814-4.7503 0-2.4527 1.0624-4.3465 2.9376-5.2363 1.7122-0.8125 3.2075-0.83962 8.0096-0.1453 2.8693 0.41484 5.0777 0.40684 10.249-0.0371 7.2913-0.62601 8.469-0.43827 9.7775 1.5588 0.60675 0.92603 0.79019 2.1467 0.80132 5.3327 8e-3 2.2725 0.12991 3.9919 0.27092 3.8208 0.14103-0.17107 1.2033-1.664 2.3606-3.3177 4.4828-6.4055 11.154-9.6516 19.836-9.6516 7.2993 0 12.968 2.2016 17.603 6.8371 3.3955 3.3955 5.404 7.25 6.2657 12.024 1.1931 6.6107-0.0296 12.876-3.2459 16.634-2.3886 2.7905-4.5767 3.7442-9.0632 3.9502-3.2879 0.15099-4.0388 0.0394-5.7763-0.85771-2.4175-1.2483-3.8552-3.2853-4.2698-6.0495-0.61679-4.1131 1.418-6.9796 5.7783-8.14 2.3313-0.62045 3.2933-1.4963 3.6331-3.3078 0.56297-3.0009-2.2011-6.8554-6.6026-9.2074-1.606-0.85816-2.5517-1.0031-6.5456-1.0031-3.8095 0-5.0407 0.17225-6.6917 0.9362-6.1512 2.8462-9.2328 8.4874-10.939 20.026-1.0091 6.8221-1.1927 38.275-0.24177 41.415 1.0258 3.3874 3.6055 4.2227 9.7411 3.1542 4.3167-0.75171 7.5273-0.19998 9.3307 1.6035 1.2675 1.2675 1.4688 1.7712 1.4688 3.6763 0 1.5217-0.2716 2.5528-0.87414 3.3189-1.7659 2.245-2.5086 2.3206-16.85 1.7148-9.8344-0.41542-15.036-0.43502-20.512-0.0772-8.6062 0.56225-12.75 0.57477-14.069 0.0425zm85.996-0.22403c-1.6626-0.94088-2.1231-1.9817-2.1231-4.7986 0-1.9241 0.21399-2.6406 1.0621-3.5556 1.4066-1.5178 4.3581-2.2926 6.9363-1.8209 1.103 0.20179 3.4458 0.36903 5.2064 0.37164 3.9032 6e-3 5.3637-0.87429 6.3091-3.8018 0.83154-2.5748 1.2434-38.962 0.54707-48.327-0.81421-10.95-1.4892-11.629-11.987-12.059-6.0082-0.24606-6.4249-0.32165-7.2249-1.3108-1.0329-1.277-1.1493-4.8607-0.21644-6.6646 0.3479-0.67278 1.3281-1.5978 2.1782-2.0556 1.4584-0.78538 1.878-0.79847 7.4354-0.23186 4.8435 0.49384 7.0212 0.50073 12.259 0.0388 7.1791-0.63325 8.6693-0.45874 9.9464 1.1648 0.87663 1.1144 0.89471 1.7516 0.89802 31.644 5e-3 30.696 0.24 36.638 1.5605 39.192 1.2435 2.4047 5.4773 3.3467 9.7319 2.1654 2.7084-0.752 5.5107-0.13491 7.2398 1.5941 1.2861 1.2861 1.4718 1.7616 1.4718 3.7685 0 2.797-0.48645 3.7856-2.3326 4.7403-1.2514 0.64712-2.354 0.68662-9.4348 0.33806-9.8523-0.485-17.284-0.49799-29.137-0.0508-7.8289 0.2953-9.2854 0.24711-10.326-0.3418zm403.58-42.999c-0.7336-0.25643-2.0341-0.98587-2.89-1.621-8.357-6.2012-6.8767-17.755 2.8329-22.112 9.0632-4.0673 18.204 1.6482 18.237 11.403 0.0138 2.3694-0.21286 3.297-1.1763 4.9409-1.2766 2.1783-3.559 4.3907-5.6393 5.4665-1.505 0.7782-0.9045 1.546-6.2468-7.9891-1.7811-3.179-3.529-6.2504-3.8844-6.8254l-0.64593-1.0454-1.2735 1.2201c-2.9294 2.8065-3.3061 6.0107-1.054 8.9634 1.3006 1.7052 4.1446 3.2197 6.0752 3.2351 1.1843 9e-3 1.2227 0.0863 1.2227 2.4551v2.4454l-2.1119-0.035c-1.1616-0.0194-2.7121-0.24492-3.4457-0.50135zm12.748-11.023c2.1605-3.9673-1.4963-9.1816-6.1828-8.8165l-1.8822 0.14664 2.9771 5.2386c1.8796 3.3072 3.2101 5.1923 3.6088 5.113 0.3475-0.069 1.013-0.82581 1.4792-1.6817zm-33.555-13.69-1.6463-1.686 8.7809-9.0298 8.781-9.0298 3.8289 3.3145-1.9832 2.1111 1.5225 0.01c2.4604 0.0158 5.048 1.4621 6.5678 3.6712l1.3712 1.993-2.2672 0.94223c-2.9471 1.2248-3.2701 1.1943-3.9181-0.36995-0.70095-1.6922-2.2496-2.6893-4.1771-2.6893-1.9359 0-4.2997 1.8411-10.194 7.9396-2.3971 2.4802-4.5074 4.5094-4.6894 4.5094-0.18201 0-1.0719-0.75868-1.9773-1.686zm-6.7604-5.9307c-1.2223-0.70769-2.1583-1.5343-2.0802-1.8369 0.0778-0.3026 1.8725-3.6513 3.9877-7.4416 3.085-5.5283 3.8485-7.2581 3.8595-8.7452 0.0167-2.1762-1.3666-3.9565-3.5185-4.5298-3.4366-0.91559-5.6352 1.1093-10.178 9.3737-1.6719 3.0415-3.1994 5.7882-3.3945 6.1039-0.5181 0.83818-5.0103-1.7145-4.6587-2.6472 0.61718-1.6368 20.779-37.347 21.085-37.347 0.65679 0 4.4572 2.3015 4.4572 2.6992 0 0.22006-2.0003 3.987-4.4453 8.3709-2.4448 4.3839-4.5485 8.24-4.6748 8.5689-0.17659 0.46028 0.23607 0.5611 1.7907 0.43745 1.5226-0.12116 2.6246 0.13505 4.4751 1.0405 3.1077 1.5205 4.7087 3.7897 4.9798 7.0581 0.17937 2.1622 0 2.7091-2.4702 7.4204-1.4651 2.7974-3.6379 6.8132-4.8286 8.9239l-2.1647 3.8376zm-131.38-15.268c-16.995-7.9223-31.16-14.567-31.476-14.767-0.38591-0.24282 0.568-0.86496 2.89-1.8848 3.4343-1.5084 32.581-15.616 49.705-24.059 16.162-7.968 25.289-14.458 28.83-20.5 1.8303-3.1233 2.6779-7.1103 2.1474-10.101-0.7637-4.3057-2.2054-7.4435-4.6482-10.116-2.8313-3.0979-4.667-4.2756-8.5192-5.4654-3.7257-1.1508-6.4901-1.1762-9.974-0.09183-4.1192 1.282-6.4113 2.8594-9.393 6.4641l-2.7276 3.2975-4.7493-2.2345c-2.6121-1.229-5.6203-2.6152-6.6849-3.0805-2.2827-0.9977-2.2884-0.96225 0.90318-5.5791 4.3548-6.2994 9.949-10.401 17.261-12.656 4.5441-1.4015 12.743-1.3974 18.007 0.00833 17.568 4.6942 28.573 20.056 25.816 36.036-1.8368 10.644-7.2716 18.294-17.964 25.287-5.777 3.7782-26.366 14.213-40.179 20.363-4.3308 1.9282-7.8821 3.633-7.8918 3.7884-9e-3 0.15539 8.0354 4.027 17.878 8.6035 9.8425 4.5765 18.021 8.4509 18.174 8.6097 0.4102 0.42505-5.2679 12.277-5.9349 12.388-0.31252 0.052-14.473-6.3874-31.469-14.31zm107.21 4.3304c-1.4643-0.17911-1.4938-0.22378-1.2658-1.923l0.23328-1.7396-2.0687 1.2161c-5.5657 3.2718-13.052-0.14983-15.002-6.8564-2.1822-7.5068 1.8328-15.8 8.6024-17.767 3.9624-1.1519 7.4614-0.2988 10.083 2.4583 1.591 1.6733 2.0288 1.7222 2.0288 0.22667 0-1.0135 0.14213-1.1187 1.2227-0.90442 0.67248 0.13338 1.9712 0.37126 2.8861 0.52871 1.4148 0.24348 1.6307 0.42858 1.4436 1.2379-0.12089 0.52339-1.0233 5.6533-2.0052 11.4-0.98176 5.7466-1.8853 10.898-2.0077 11.449-0.23148 1.0403-0.63066 1.1052-4.1503 0.6747zm-2.5378-7.2107c2.2571-1.395 3.5726-4.1778 3.5833-7.5803 0-2.3234-0.19382-3.1746-1.0264-4.3417-2.9112-4.0817-8.6775-3.8741-11.516 0.41458-1.6512 2.4951-1.9429 7.0023-0.59258 9.1553 1.951 3.1107 6.5081 4.2329 9.5513 2.3521zm-34.199 5.4632c-0.48907-0.11948-1.6264-0.40638-2.5274-0.63747l-1.6382-0.42015 0.91222-2.1026c1.2145-2.7994 1.35-2.9062 3.0889-2.4334 2.927 0.79582 5.9098-0.96044 6.4411-3.7925 0.16881-0.89942-0.50296-7.9632-1.6212-17.049-1.0501-8.5321-1.8107-15.611-1.6902-15.732 0.12088-0.12046 1.4989-0.2695 3.0631-0.33119l2.8441-0.11213 1.6759 14.45c2.014 17.364 2.0487 21.231 0.21494 23.876-2.0452 2.9496-7.4392 5.0965-10.763 4.284zm-297.43-6.4966c-7.1824-4.0681-5.6227-15.286 2.3927-17.209 6.0081-1.4413 11.149 2.6087 11.149 8.783 0 3.3062-0.51435 4.7649-2.3614 6.697-2.0683 2.1635-3.4689 2.7418-6.6198 2.7336-2.0721-0.0055-3.2588-0.2667-4.5608-1.0042zm-166.87-3.6821c-0.54348-0.38067-0.98815-0.98703-0.98815-1.3475 0-0.63971 19.585-21.629 23.745-25.449 4.9983-4.5883 10.07-4.7539 12.715-0.41504 1.8784 3.0808 0.52327 6.8008-3.6468 10.011-3.2316 2.4878-23.97 15.525-26.767 16.828-2.6597 1.2384-3.7108 1.3158-5.058 0.37215z"/>
</svg>
