<?xml version="1.0" standalone="no"?>
<!DOCTYPE svg PUBLIC "-//W3C//DTD SVG 20010904//EN"
 "http://www.w3.org/TR/2001/REC-SVG-20010904/DTD/svg10.dtd">
<svg version="1.0" xmlns="http://www.w3.org/2000/svg"
 width="700.000000pt" height="700.000000pt" viewBox="0 0 700.000000 700.000000"
 preserveAspectRatio="xMidYMid meet">
<metadata>
Created by potrace 1.11, written by Peter Selinger 2001-2013
</metadata>
<g transform="translate(0.000000,700.000000) scale(0.100000,-0.100000)"
fill="#000000" stroke="none">
<path d="M3443 6599 c-125 -24 -209 -106 -230 -225 -27 -153 27 -261 152 -305
53 -19 86 -22 285 -24 274 -4 354 -11 439 -37 122 -38 185 -102 217 -220 12
-47 17 -75 30 -168 10 -80 15 -292 18 -751 l2 -516 -34 46 c-125 165 -247 289
-385 391 -84 63 -235 149 -287 165 -14 4 -38 13 -55 20 -101 44 -297 86 -470
100 -77 7 -313 6 -385 0 -90 -8 -235 -32 -311 -50 -35 -9 -71 -17 -79 -19 -52
-13 -202 -71 -282 -109 -414 -199 -764 -602 -943 -1087 -15 -41 -31 -84 -35
-95 -16 -43 -41 -132 -67 -240 -10 -43 -22 -102 -28 -145 -3 -25 -10 -63 -15
-85 -4 -22 -11 -69 -15 -105 -4 -36 -9 -81 -11 -100 -21 -177 -20 -574 1 -740
2 -19 6 -57 10 -85 14 -133 85 -444 115 -510 5 -11 25 -63 45 -115 43 -113
116 -254 193 -370 31 -47 58 -87 61 -90 3 -3 24 -27 45 -55 48 -61 192 -205
261 -261 208 -169 513 -314 780 -370 184 -39 280 -48 520 -48 229 -1 271 3
451 40 307 62 596 203 821 401 l62 54 0 -79 c0 -230 32 -308 134 -333 46 -11
217 -8 302 5 17 3 62 8 100 12 39 4 81 9 95 10 38 5 311 4 345 0 17 -3 68 -8
115 -11 47 -4 108 -11 135 -15 28 -5 109 -7 180 -6 106 2 140 7 186 24 100 40
150 115 150 228 0 103 -21 155 -86 212 -72 63 -129 75 -395 79 -124 2 -250 8
-280 13 -60 11 -62 12 -103 28 -16 7 -31 12 -35 12 -4 0 -22 14 -39 30 -48 45
-74 141 -89 325 -3 44 -7 1173 -8 2510 -2 1337 -6 2446 -10 2465 -23 114 -70
169 -170 198 -32 9 -223 10 -278 1 -143 -23 -653 -40 -724 -25 -11 2 -45 7
-75 10 -30 4 -67 9 -84 12 -57 9 -200 12 -242 3z m-168 -2145 c33 -4 62 -8 65
-9 3 -1 32 -7 65 -14 117 -26 257 -85 367 -157 83 -55 213 -176 266 -248 20
-28 39 -53 42 -56 11 -9 77 -123 107 -185 66 -133 134 -382 148 -542 3 -39 8
-85 10 -104 5 -38 6 -859 1 -954 -4 -70 -15 -174 -21 -195 -2 -8 -6 -37 -10
-65 -21 -175 -113 -416 -210 -550 -69 -96 -185 -198 -293 -258 -96 -54 -296
-116 -432 -134 -71 -9 -429 -9 -498 0 -208 28 -411 103 -572 210 -67 45 -221
188 -276 257 -173 217 -299 560 -340 925 -29 268 -21 576 22 830 121 711 566
1188 1169 1251 33 4 61 8 63 9 6 6 272 -3 327 -11z"/>
</g>
</svg>
