<svg xmlns="http://www.w3.org/2000/svg" viewBox="0 0 701.2 317.6">
<g class="derive-logo">
	<path d="M89.6,59.6v-4.8c0-8.8-0.9-14.2-2.8-16.4c-1.9-2.2-5.6-3.3-11.2-3.3h-7.3c-3.1,0-5.3-0.6-6.7-1.7c-1.4-1.1-2.1-2.9-2.1-5.3
		c0-2.5,0.8-4.4,2.4-5.8c1.6-1.4,4-2.1,7.1-2.1c0.3,0,1.7,0.2,4.2,0.6c2.5,0.4,4.8,0.6,6.9,0.6c5.5,0,11-0.3,16.6-1
		c1.2-0.1,1.9-0.2,2.2-0.2c3.3,0,5.6,0.7,6.7,2c1.2,1.3,1.7,4.1,1.7,8.4v120.2c0,7.6,0.7,12.1,2.2,13.7c1.5,1.6,4.5,2.4,9,2.4h6.1
		c3.4,0,5.9,0.6,7.5,1.9c1.6,1.3,2.4,3.1,2.4,5.6c0,2.4-0.8,4.2-2.3,5.3c-1.5,1.1-3.9,1.6-7.2,1.6c-1,0-3.3-0.2-6.8-0.6
		c-3.5-0.4-6.5-0.6-9.1-0.6c-1.5,0-3.9,0.2-7.2,0.6c-3.2,0.4-5.8,0.6-7.5,0.6c-2.2,0-3.7-0.5-4.5-1.6c-0.8-1-1.2-3.5-1.2-7.4v-2.1
		c-4.4,4.3-9.5,7.5-15.4,9.8c-5.8,2.2-12.2,3.4-19.1,3.4c-16.7,0-30-5.4-39.8-16.1C4.9,156.6,0,142.2,0,124c0-19.5,4.7-35,14.2-46.5
		c9.5-11.5,22.2-17.2,38.3-17.2c8.3,0,15.4,1.5,21.4,4.6c6,3.1,11.2,8,15.8,14.6L89.6,59.6L89.6,59.6z M89.6,131.1v-14.9
		c0-12.4-3-22.2-9-29.2c-6-7.1-14.3-10.6-24.7-10.6c-11.1,0-20,4.1-26.6,12.3c-6.6,8.2-9.9,19.3-9.9,33.4c0,14.7,3.3,26.1,9.9,34.1
		c6.6,8,15.9,12,28,12c11.1,0,19.3-3,24.5-8.9C87,153.3,89.6,143.9,89.6,131.1z M163.2,124.3v0.7c0,13.1,3.2,23.7,9.7,31.6
		c6.5,7.9,15.1,11.9,25.8,11.9c6.5,0,12-1.2,16.5-3.5c4.5-2.3,8.5-6.1,12.2-11.3c1.4-2.1,2.9-5.3,4.4-9.5c2.4-6.4,5.4-9.5,9.1-9.5
		c2.3,0,4.3,0.8,5.8,2.4c1.6,1.6,2.3,3.6,2.3,6c0,2.8-0.9,6.2-2.8,10.4c-1.9,4.1-4.3,8.3-7.4,12.3c-4.8,6.2-10.5,10.7-17.2,13.7
		c-6.6,2.9-14.6,4.4-23.8,4.4c-16.4,0-29.5-5.5-39.1-16.6c-9.7-11.1-14.5-26.1-14.5-45c0-18.8,4.8-33.7,14.5-44.8
		c9.7-11.1,22.7-16.7,39.1-16.7c15.8,0,28.5,4.7,37.9,14.2c9.5,9.5,14.2,22.1,14.2,38c0,4.6-0.8,7.6-2.3,9.2
		c-1.6,1.5-4.6,2.3-9.1,2.3h-4.1L163.2,124.3L163.2,124.3z M164.3,109.1h65.8v-1.5c0-9.4-3-17-8.9-22.8c-5.9-5.8-13.7-8.8-23.2-8.8
		c-9.4,0-17.1,3-23.1,8.9C168.9,90.8,165.4,98.9,164.3,109.1z M186,35.6L204.5,16c3.7-4,6.7-6.7,8.9-8.1c2.2-1.4,4.4-2.1,6.6-2.1
		c2.4,0,4.4,0.9,6.1,2.6c1.7,1.7,2.5,3.9,2.5,6.5c0,3.7-4.2,8.2-12.5,13.4l-0.2,0.1l-22.4,14.1l-1.3,0.8c-5.5,3.4-9.1,5.1-10.8,5.1
		c-1.1,0-2-0.3-2.8-0.9c-0.8-0.6-1.2-1.2-1.2-1.9s1.3-2.4,3.8-5C183.1,38.5,184.7,36.9,186,35.6z M307.8,150.1
		c0,7.1,0.6,11.6,1.8,13.7c1.2,2.1,3.7,3.1,7.5,3.1c0.3,0,1.5-0.2,3.6-0.6s4.1-0.6,5.9-0.6c3.6,0,6.3,0.6,8,1.9
		c1.7,1.3,2.5,3.3,2.5,6c0,2.3-0.8,4.1-2.5,5.4c-1.7,1.3-4,1.9-7,1.9c-0.5,0-4.3-0.2-11.2-0.6c-6.9-0.4-13.6-0.6-19.9-0.6
		c-5.1,0-10.5,0.2-16.3,0.6s-8.9,0.6-9.4,0.6c-3.3,0-5.5-0.5-6.9-1.6c-1.3-1.1-2-2.9-2-5.5c0-2.7,0.8-4.8,2.3-6.1
		c1.5-1.4,3.9-2,7.2-2c0.8,0,1.9,0.2,3.2,0.6s2.4,0.6,3.1,0.6c4.7,0,7.8-0.9,9.2-2.9c1.4-1.9,2.1-6.6,2.1-13.9v-49.3
		c0-10.4-0.8-16.7-2.3-19.1c-1.5-2.4-4.6-3.6-9-3.6h-7.3c-3.1,0-5.3-0.5-6.6-1.5c-1.3-1-2-2.6-2-4.9c0-2.6,0.8-4.6,2.4-6
		s3.9-2.1,6.9-2.1c0.4,0,1.7,0.2,3.9,0.6c2.2,0.4,4.3,0.6,6.3,0.6c4.8,0,9.6-0.3,14.5-1c1-0.1,1.6-0.2,1.9-0.2c3,0,5.1,0.7,6.2,2.1
		c1.1,1.4,1.7,4.2,1.7,8.5l-0.2,6.4c3.2-6.4,7.4-11.2,12.6-14.5c5.2-3.3,11.3-4.9,18.3-4.9c9.7,0,17.7,3,23.9,9.1
		c6.3,6.1,9.4,13.9,9.4,23.5c0,6.8-1.7,12.2-5,16c-3.3,3.9-7.8,5.8-13.6,5.8c-4.1,0-7.3-1-9.5-3.1c-2.2-2.1-3.4-5-3.4-8.7
		c0-2.2,0.6-4.1,1.8-5.5c1.2-1.4,3-2.5,5.4-3.3c0.5-0.2,1-0.3,1.8-0.5c2.9-0.6,4.3-2.4,4.3-5.4c0-3.2-1.8-6.3-5.4-9.2
		c-3.6-2.9-7.6-4.3-12.1-4.3c-9.5,0-16.3,3.9-20.3,11.8c-4,7.9-6,21.8-6,41.7L307.8,150.1L307.8,150.1z M408.1,149.8v-47.1
		c0-10.8-0.8-17.6-2.3-20.3c-1.5-2.7-4.7-4-9.5-4h-8.7c-2.9,0-4.9-0.5-6-1.6c-1.1-1-1.6-2.9-1.6-5.4c0-2.2,0.8-4,2.4-5.6
		c1.6-1.5,3.5-2.3,5.9-2.3c0.5,0,2.2,0.2,5.3,0.6c3.1,0.4,5.9,0.6,8.6,0.6c4.4,0,9-0.3,13.9-1c1.2-0.1,1.9-0.2,2.1-0.2
		c3.3,0,5.4,0.6,6.5,1.8c1.1,1.2,1.6,4.1,1.6,8.5v75.9c0,7.3,0.7,12,2.1,14c1.4,2,4.4,3,9,3c1,0,2.2-0.2,3.5-0.6
		c1.3-0.4,2.2-0.6,2.8-0.6c3.3,0,5.8,0.7,7.4,2c1.7,1.3,2.5,3.4,2.5,6c0,2.6-0.7,4.5-2.1,5.6c-1.4,1.1-3.8,1.7-7.1,1.7
		c-0.9,0-4.2-0.2-9.8-0.6c-5.6-0.4-10.6-0.6-15.2-0.6c-8.6,0-17.3,0.3-26.1,1c-1.9,0.2-3.1,0.2-3.6,0.2c-3.4,0-5.8-0.6-7.3-1.7
		s-2.2-3-2.2-5.5c0-2.7,0.8-4.7,2.5-6c1.7-1.3,4.2-2,7.5-2c0.8,0,1.9,0.2,3.4,0.6c1.5,0.4,2.6,0.6,3.3,0.6c4.7,0,7.8-1,9.3-2.9
		C407.4,162,408.1,157.3,408.1,149.8z M401.1,41.4c0-3.6,1.2-6.7,3.7-9.2c2.5-2.5,5.5-3.7,9.2-3.7c3.5,0,6.4,1.2,8.8,3.7
		c2.4,2.5,3.5,5.6,3.5,9.2c0,3.5-1.2,6.5-3.6,9c-2.4,2.5-5.3,3.7-8.7,3.7c-3.6,0-6.7-1.2-9.2-3.7C402.3,48,401.1,45,401.1,41.4z
		 M533,174.7c-1.1,2.8-2.7,4.9-4.7,6.2c-2.1,1.4-4.6,2.1-7.7,2.1c-3.2,0-5.7-0.6-7.6-1.9c-1.9-1.3-3.4-3.4-4.5-6.4l-32.9-83.3
		c-0.2-0.4-0.3-1-0.6-1.7c-2.9-7.7-7-11.6-12.2-11.6c-0.2,0-1.3,0.2-3.1,0.6c-1.9,0.4-3.7,0.6-5.5,0.6c-3.1,0-5.5-0.6-7.3-1.8
		c-1.8-1.2-2.7-2.9-2.7-5.1c0-2.3,1-4.1,2.9-5.5c1.9-1.3,4.5-2,7.8-2c1.5,0,5.7,0.2,12.3,0.6c6.7,0.4,12.6,0.6,17.7,0.6
		c4,0,8.4-0.2,13.1-0.6c4.7-0.4,7.5-0.6,8.3-0.6c2.4,0,4.3,0.6,5.8,1.9c1.4,1.3,2.1,3,2.1,5.2c0,2.5-0.7,4.4-2,5.6
		c-1.3,1.2-3.4,1.8-6.1,1.8c-0.7,0-2-0.2-3.9-0.6c-1.9-0.4-3.4-0.6-4.6-0.6c-1.3,0-2.5,0.6-3.5,1.8s-1.5,2.6-1.5,4.2
		c0,0.6,0.1,1.2,0.2,2c0.2,0.8,0.4,1.5,0.7,2.3l27.1,74.3l27-74.3c0.3-0.8,0.5-1.6,0.7-2.3c0.2-0.8,0.2-1.4,0.2-2
		c0-1.6-0.5-3-1.5-4.2c-1-1.2-2.1-1.8-3.3-1.8c-1.2,0-2.7,0.2-4.6,0.6c-1.9,0.4-3.3,0.6-4,0.6c-2.7,0-4.7-0.6-6-1.8
		c-1.3-1.2-2-3.1-2-5.6c0-2.2,0.7-3.9,2.1-5.2c1.4-1.3,3.3-1.9,5.7-1.9c0.9,0,3.6,0.2,8.3,0.6c4.7,0.4,9,0.6,13.1,0.6
		c5.1,0,11-0.2,17.7-0.6c6.7-0.4,10.8-0.6,12.3-0.6c3.3,0,6,0.7,7.9,2c1.9,1.3,2.9,3.2,2.9,5.5c0,2.2-0.9,3.9-2.7,5.1
		c-1.8,1.2-4.2,1.8-7.3,1.8c-1.7,0-3.5-0.2-5.4-0.6c-1.9-0.4-3-0.6-3.2-0.6c-5.3,0-9.5,4.2-12.7,12.7l-0.1,0.5L533,174.7z
		 M614.4,124.3v0.7c0,13.1,3.2,23.7,9.7,31.6c6.5,7.9,15.1,11.9,25.8,11.9c6.5,0,12-1.2,16.5-3.5c4.5-2.3,8.5-6.1,12.2-11.3
		c1.4-2.1,2.9-5.3,4.4-9.5c2.4-6.4,5.4-9.5,9.1-9.5c2.3,0,4.3,0.8,5.8,2.4c1.6,1.6,2.3,3.6,2.3,6c0,2.8-0.9,6.2-2.8,10.4
		c-1.9,4.1-4.3,8.3-7.4,12.3c-4.8,6.2-10.5,10.7-17.2,13.7c-6.6,2.9-14.6,4.4-23.8,4.4c-16.4,0-29.5-5.5-39.1-16.6
		c-9.7-11.1-14.5-26.1-14.5-45c0-18.8,4.8-33.7,14.5-44.8c9.7-11.1,22.7-16.7,39.1-16.7c15.8,0,28.5,4.7,37.9,14.2
		c9.5,9.5,14.2,22.1,14.2,38c0,4.6-0.8,7.6-2.3,9.2c-1.6,1.5-4.6,2.3-9.1,2.3h-4.1L614.4,124.3L614.4,124.3z M615.6,109.1h65.8v-1.5
		c0-9.4-3-17-8.9-22.8c-5.9-5.8-13.7-8.8-23.2-8.8c-9.4,0-17.1,3-23.1,8.9C620.1,90.8,616.6,98.9,615.6,109.1z"/>
	<line fill="none" stroke="#000000" stroke-width="4" stroke-miterlimit="10" x1="0" y1="221" x2="701.2" y2="221"/>
	<g class="stadtforschung">
		<path d="M173.6,255.7v11.5h-1.2c-0.9-3.2-2.5-5.6-4.6-7.3c-2.1-1.7-4.7-2.5-7.6-2.5c-2.3,0-4.2,0.6-5.7,1.9s-2.2,2.9-2.2,4.9
			c0,3.1,3.5,6.5,10.5,10.1c1.3,0.7,2.2,1.2,2.9,1.5c4.3,2.4,7.2,4.5,8.7,6.4s2.2,4.4,2.2,7.3c0,4-1.4,7.4-4.2,10.1
			c-2.8,2.7-6.4,4-10.7,4c-2,0-4.2-0.4-6.7-1.1c-2.5-0.7-4-1.1-4.6-1.1c-0.6,0-1.2,0.1-1.8,0.4c-0.6,0.3-1.2,0.8-1.9,1.5v-16.3h1.3
			c0.9,4.2,2.6,7.5,5,9.7c2.4,2.3,5.4,3.4,8.9,3.4c2.7,0,4.9-0.8,6.6-2.4c1.8-1.6,2.6-3.6,2.6-6c0-1.9-0.5-3.6-1.6-4.9
			c-1.1-1.3-3.5-2.9-7.2-4.9l-2.4-1.3c-4.6-2.5-7.3-4-8-4.5c-1.8-1.4-3.1-2.9-3.9-4.4c-0.8-1.5-1.2-3.3-1.2-5.2
			c0-3.5,1.3-6.3,3.9-8.5c2.6-2.2,5.9-3.3,10.1-3.3c1.7,0,3.7,0.3,5.8,0.8s3.4,0.8,3.9,0.8c0.4,0,0.8-0.1,1.3-0.2
			C172.1,256.3,172.7,256,173.6,255.7z"/>
		<path d="M192.1,262h1.2V272h7.7v2.3h-7.7v20.1c0,1.9,0.3,3.2,0.8,4c0.5,0.8,1.4,1.2,2.5,1.2c0.6,0,1.2-0.2,1.8-0.5
			c0.7-0.3,1.4-0.8,2.1-1.5l0.9,1.2c-1.3,1.5-2.7,2.7-4,3.5s-2.7,1.2-4.1,1.2c-2.1,0-3.5-0.6-4.3-1.8s-1.2-3.9-1.2-8.1v-19.4h-4.1
			v-1.5c2.1-0.8,3.9-2.1,5.4-4C190.6,267,191.6,264.7,192.1,262z"/>
		<path d="M228.7,281.7v16.5c0,0.6,0.1,1,0.2,1.3c0.2,0.3,0.4,0.4,0.7,0.4c0.4,0,0.9-0.1,1.3-0.3s0.9-0.5,1.3-1l0.6,1.2
			c-1,1.2-2,2.1-3,2.7c-1,0.6-2,0.9-2.9,0.9c-1.3,0-2.2-0.4-2.8-1.3s-0.9-2.2-0.9-4V298c-2.1,1.8-4,3.2-5.8,4.2
			c-1.8,0.9-3.4,1.4-4.9,1.4c-2.4,0-4.3-0.7-5.7-2.1c-1.4-1.4-2.1-3.2-2.1-5.4c0-3.1,1.6-5.8,4.7-7.9c3.1-2.1,7.7-3.6,13.9-4.6v-5.8
			c0-1.4-0.4-2.5-1.3-3.4c-0.9-0.9-2.1-1.3-3.5-1.3c-2,0-3.5,0.4-4.6,1.2c-1,0.8-1.5,2-1.5,3.6c0,0,0,0.1,0,0.3
			c0,0.6,0.1,1.2,0.1,1.7c0,0.7-0.2,1.2-0.7,1.5s-1.3,0.4-2.6,0.4c-0.8,0-1.4-0.2-1.8-0.6c-0.4-0.4-0.5-1.1-0.5-2.1
			c0-2.4,1-4.3,3.1-5.8s4.7-2.2,8-2.2c4,0,6.8,0.8,8.4,2.4C227.9,275.1,228.7,277.8,228.7,281.7z M223.2,285.2
			c-4.2,1.1-7.3,2.4-9.4,3.9c-2,1.5-3,3.2-3,5.2c0,1.6,0.4,2.8,1.3,3.6c0.9,0.8,2.2,1.2,3.8,1.2c1.1,0,2.2-0.2,3.4-0.7
			c1.2-0.5,2.5-1.2,3.8-2.2L223.2,285.2L223.2,285.2z"/>
		<path d="M263.1,253.2h0.9v41.1c0,2,0.3,3.3,0.8,4c0.5,0.7,1.4,1,2.8,1c0.1,0,0.2,0,0.4,0c0.2,0,0.3,0,0.4,0v1.5
			c-1.4,0.3-2.7,0.6-4,1c-1.2,0.4-2.4,0.8-3.6,1.4H259v-4.9c-1.3,1.9-2.7,3.2-4.3,4.1s-3.2,1.3-5.2,1.3c-3.8,0-6.9-1.5-9.4-4.4
			c-2.4-2.9-3.7-6.7-3.7-11.4c0-2.4,0.3-4.6,1-6.6s1.7-3.8,3.2-5.3c1.3-1.5,2.8-2.6,4.5-3.4c1.7-0.8,3.5-1.2,5.2-1.2
			c1.7,0,3.2,0.3,4.5,0.9c1.3,0.6,2.5,1.6,3.6,2.9v-12.5c0-2.1-0.3-3.3-0.8-3.8c-0.5-0.5-1.5-0.7-3.1-0.7h-0.3v-1.4
			c1.3-0.4,2.7-0.8,4.1-1.4C259.8,254.8,261.4,254,263.1,253.2z M258.5,279.9c0-1.6-0.7-3.1-2.2-4.4c-1.5-1.4-3.1-2.1-5-2.1
			c-2.7,0-4.9,1.2-6.7,3.6c-1.8,2.4-2.7,5.4-2.7,9.1c0,3.8,1,7,2.9,9.6c1.9,2.6,4.3,3.9,7,3.9c1.8,0,3.4-0.6,4.8-1.8
			c1.3-1.2,2-2.6,2-4.3L258.5,279.9L258.5,279.9z"/>
		<path d="M280.2,262h1.2V272h7.7v2.3h-7.7v20.1c0,1.9,0.3,3.2,0.8,4c0.5,0.8,1.4,1.2,2.5,1.2c0.6,0,1.2-0.2,1.8-0.5
			c0.7-0.3,1.4-0.8,2.1-1.5l0.9,1.2c-1.3,1.5-2.7,2.7-4,3.5s-2.7,1.2-4.1,1.2c-2.1,0-3.5-0.6-4.3-1.8s-1.2-3.9-1.2-8.1v-19.4h-4.1
			v-1.5c2.1-0.8,3.9-2.1,5.4-4C278.7,267,279.6,264.7,280.2,262z"/>
		<path d="M303,264.3v7.8h6.2v2.1H303v22.7c0,2.1,0.3,3.4,1,3.9c0.7,0.5,2.2,0.8,4.5,0.8v1.2c-1.5-0.1-2.8-0.1-4.1-0.2
			c-1.3,0-2.5-0.1-3.7-0.1c-1.1,0-2.3,0-3.7,0.1c-1.3,0-2.7,0.1-4.2,0.2v-1.2c1.9,0,3.2-0.3,3.7-0.8c0.6-0.5,0.9-1.8,0.9-3.9v-22.7
			h-4.7V272h4.7v-1.7c0-5.9,1-10.2,2.9-12.9c2-2.8,5-4.2,9.1-4.2c1.9,0,3.3,0.4,4.2,1.2c1,0.8,1.4,2,1.4,3.6c0,0.8-0.2,1.4-0.6,1.8
			s-1,0.6-1.9,0.6c-0.9,0-1.6-0.2-2-0.5c-0.4-0.3-0.7-0.9-0.8-1.8c0-0.2-0.1-0.4-0.1-0.8c-0.1-1.5-0.9-2.2-2.3-2.2
			c-1.5,0-2.6,0.8-3.4,2.3C303.3,258.9,303,261.2,303,264.3z"/>
		<path d="M330,271.2c4.3,0,7.8,1.5,10.6,4.5c2.8,3,4.1,6.8,4.1,11.5c0,4.9-1.4,8.8-4.3,11.8c-2.9,3-6.7,4.5-11.4,4.5
			c-4.4,0-7.9-1.4-10.6-4.3c-2.7-2.9-4.1-6.6-4.1-11.2c0-5,1.5-9,4.4-12.2C321.6,272.7,325.4,271.2,330,271.2z M328.9,273.1
			c-2.8,0-5,1.1-6.8,3.4s-2.7,5.1-2.7,8.6c0,4.3,1.1,7.9,3.4,10.9s5,4.5,8.1,4.5c2.7,0,4.8-1,6.3-3.1c1.5-2.1,2.3-5,2.3-8.7
			c0-4.5-1-8.2-3-11.2C334.5,274.5,332,273.1,328.9,273.1z"/>
		<path d="M356.8,271.2h1.3v8.2c2.5-3.2,4.4-5.3,5.5-6.1c1.2-0.8,2.4-1.2,3.7-1.2c1.1,0,1.9,0.4,2.4,1.1c0.5,0.7,0.8,1.9,0.8,3.5
			c0,1.1-0.2,1.9-0.5,2.3c-0.3,0.4-0.9,0.6-1.7,0.6c-1,0-1.7-0.1-2-0.3s-0.6-0.6-0.8-1.4c-0.2-0.8-0.4-1.3-0.6-1.5
			c-0.2-0.2-0.4-0.4-0.6-0.4c-0.4,0-1.1,0.5-2.1,1.5s-2.2,2.4-3.5,4.2v15.1c0,2.2,0.3,3.5,0.8,4c0.5,0.4,2,0.7,4.5,0.8v1.2
			c-1.6-0.1-3-0.1-4.2-0.2c-1.3,0-2.3-0.1-3.2-0.1c-1.4,0-2.8,0-4.1,0.1c-1.3,0-2.5,0.1-3.7,0.2l0-1.2c1.8,0,3-0.3,3.5-0.8
			c0.5-0.5,0.8-1.8,0.8-3.9v-17.4c0-1.5-0.2-2.4-0.7-2.9c-0.4-0.5-1.3-0.7-2.6-0.7c-0.1,0-0.3,0-0.6,0c-0.3,0-0.5,0-0.7,0v-1.4
			c1.9-0.6,4.2-1.5,7.1-2.9C356.2,271.4,356.5,271.3,356.8,271.2z"/>
		<path d="M393.8,272c0,0.5,0,1.7,0.1,3.6s0.1,3.4,0.2,4.4h-1.4c-0.3-2.2-1.2-3.9-2.5-5.2c-1.3-1.3-3-1.9-5.1-1.9
			c-1.5,0-2.7,0.4-3.6,1.2c-0.9,0.8-1.4,1.8-1.4,3c0,1.1,0.4,2.1,1.2,3s2,1.8,3.7,2.6c0.6,0.3,1.4,0.7,2.4,1.2
			c2.5,1.3,4.1,2.2,4.7,2.7c1.4,1.1,2.4,2.3,3,3.4c0.6,1.1,0.8,2.5,0.8,4.2c0,2.6-0.9,4.8-2.7,6.6c-1.8,1.8-4,2.7-6.6,2.7
			c-1.2,0-2.9-0.3-5.1-0.9s-3.9-0.9-4.9-0.9h-0.6c0-1.8,0-3.5,0.1-5.3c0-1.7,0.1-3.5,0.1-5.1h1.4c0.3,3.2,1.2,5.6,2.8,7.2
			c1.5,1.6,3.6,2.5,6.2,2.5c1.7,0,3-0.4,4-1.3c1-0.9,1.5-2.1,1.5-3.6c0-1.2-0.3-2.1-0.8-3c-0.5-0.8-1.3-1.5-2.3-2
			c-5.6-2.5-9.1-4.5-10.5-6.1s-2.2-3.4-2.2-5.5c0-2.5,0.8-4.5,2.5-5.9c1.6-1.5,3.9-2.2,6.6-2.2c0.7,0,1.9,0.1,3.5,0.4
			c1.6,0.3,2.9,0.4,3.8,0.4c0.2,0,0.4,0,0.6,0C393.3,272.1,393.5,272,393.8,272z"/>
		<path d="M426.7,291.7l1.2,0.4c-0.9,3.5-2.5,6.3-4.8,8.3c-2.3,2-4.9,3-8,3c-4,0-7.3-1.5-9.7-4.4c-2.5-2.9-3.7-6.7-3.7-11.5
			c0-5,1.4-9,4.1-12c2.7-3,6.4-4.5,10.9-4.5c2.8,0,5,0.6,6.6,1.9c1.6,1.3,2.5,2.9,2.5,5.1c0,0.8-0.2,1.4-0.6,1.8s-1,0.6-1.8,0.6
			c-1,0-1.7-0.2-2.1-0.5c-0.4-0.3-0.7-0.9-0.8-1.8c-0.3-2.2-0.8-3.6-1.5-4.2s-1.7-1-3.2-1c-2.6,0-4.8,1.1-6.5,3.4
			c-1.8,2.3-2.6,5.2-2.6,8.7c0,4,1,7.2,3,9.6c2,2.5,4.5,3.7,7.7,3.7c1.9,0,3.6-0.6,5.3-1.8C424.2,295.5,425.6,293.8,426.7,291.7z"/>
		<path d="M439.7,253.2h1.2v23.6c2-2,3.8-3.4,5.5-4.3c1.7-0.9,3.4-1.3,5.2-1.3c2.8,0,5,0.9,6.3,2.7c1.4,1.8,2.1,4.5,2.1,8.3v14.8
			c0,2.1,0.3,3.4,0.8,3.9s1.7,0.7,3.6,0.8v1.2c-1.3-0.1-2.6-0.1-3.7-0.2c-1.2,0-2.3-0.1-3.3-0.1c-1,0-2.1,0-3.3,0.1
			c-1.2,0-2.5,0.1-3.8,0.2v-1.2c1.8,0,2.9-0.3,3.5-0.8c0.6-0.5,0.9-1.8,0.9-3.9v-15.3c0-2.3-0.4-3.9-1.2-5c-0.8-1-2.1-1.5-4-1.5
			c-1.3,0-2.7,0.3-4.1,1c-1.4,0.7-2.8,1.6-4.3,2.9v17.9c0,2.2,0.2,3.5,0.7,3.9c0.5,0.4,1.7,0.7,3.5,0.8v1.2
			c-1.3-0.1-2.6-0.1-3.7-0.2c-1.2,0-2.3-0.1-3.3-0.1c-1,0-2.2,0-3.3,0.1c-1.2,0-2.4,0.1-3.7,0.2v-1.2c1.8,0,2.9-0.3,3.5-0.8
			c0.6-0.5,0.8-1.8,0.8-3.9v-35.8c0-1.2-0.3-2-0.8-2.4c-0.5-0.4-1.7-0.6-3.6-0.6v-1.3c1.9-0.6,3.6-1.2,5-1.8
			C437.4,254.4,438.6,253.8,439.7,253.2z"/>
		<path d="M475.7,271.2h0.9v20.2c0,2.8,0.5,4.8,1.6,6.2s2.6,2.1,4.7,2.1c1.3,0,2.6-0.3,3.8-1c1.2-0.6,2.4-1.6,3.4-2.8v-15.2
			c0-2.1-0.3-3.4-0.8-3.9c-0.5-0.4-1.7-0.7-3.4-0.7v-1.3c1.3-0.3,2.7-0.8,4.1-1.4c1.5-0.6,3-1.3,4.7-2.2h0.9v24.4
			c0,1.4,0.2,2.3,0.7,2.7s1.4,0.7,2.8,0.7h0.7v1.3c-1.2,0.3-2.3,0.7-3.6,1.1c-1.2,0.4-2.5,0.9-3.8,1.5h-2v-5
			c-1.5,1.8-3.1,3.2-4.9,4.2c-1.7,0.9-3.6,1.4-5.5,1.4c-3.1,0-5.4-0.8-6.9-2.4c-1.5-1.6-2.3-4.1-2.3-7.4v-13c0-2.1-0.3-3.4-0.8-3.8
			c-0.6-0.4-1.7-0.7-3.4-0.7v-1.3c1.3-0.3,2.6-0.8,4.1-1.4C472.4,272.8,474,272.1,475.7,271.2z"/>
		<path d="M511.7,271.2h1.3v6.2c2.2-2.2,4.2-3.8,6-4.8c1.8-1,3.6-1.5,5.4-1.5c2.9,0,5,0.9,6.4,2.7c1.4,1.8,2.1,4.5,2.1,8.3v14.8
			c0,2.1,0.3,3.4,0.8,3.9s1.7,0.7,3.5,0.8l0,1.2c-1.3-0.1-2.6-0.1-3.8-0.2c-1.2,0-2.3-0.1-3.4-0.1c-1,0-2.1,0-3.3,0.1
			c-1.2,0-2.5,0.1-3.8,0.2l0-1.2c1.8,0,2.9-0.3,3.4-0.8s0.8-1.8,0.8-3.9v-15.3c0-2.3-0.4-4-1.2-5c-0.8-1-2.1-1.5-3.9-1.5
			c-1.3,0-2.7,0.3-4.1,1c-1.4,0.7-2.8,1.6-4.3,2.9v17.9c0,2.2,0.2,3.5,0.8,3.9c0.5,0.4,1.7,0.7,3.6,0.8l0,1.2
			c-1.3-0.1-2.6-0.1-3.8-0.2c-1.2,0-2.3-0.1-3.4-0.1c-1,0-2.1,0-3.3,0.1c-1.2,0-2.4,0.1-3.7,0.2l0-1.2c1.8,0,2.9-0.3,3.5-0.8
			c0.5-0.5,0.8-1.8,0.8-3.9v-17.4c0-1.5-0.2-2.4-0.7-2.9c-0.4-0.5-1.3-0.7-2.5-0.7c-0.1,0-0.3,0-0.6,0c-0.3,0-0.5,0-0.7,0v-1.4
			c1-0.3,2.1-0.7,3.3-1.2C508.1,272.9,509.7,272.2,511.7,271.2z"/>
		<path d="M563.3,275.4c0.8,1.3,1.4,2.6,1.8,3.8c0.4,1.2,0.6,2.4,0.6,3.6c0,3.2-1.1,5.9-3.2,7.9c-2.1,2.1-4.8,3.1-8.2,3.1
			c-0.6,0-1.3-0.1-2-0.2c-0.7-0.1-1.4-0.3-2-0.4c-0.9,0.8-1.6,1.5-2.2,2.2c-0.5,0.7-0.8,1.1-0.8,1.5c0,0.7,1.8,1.2,5.5,1.5
			c0.5,0,0.9,0.1,1.2,0.1c0.5,0,1.2,0.1,2.1,0.2c4.5,0.4,7.3,0.8,8.2,1.2c1.5,0.6,2.7,1.4,3.3,2.4c0.7,1,1,2.2,1,3.6
			c0,1.2-0.2,2.3-0.7,3.4c-0.5,1.1-1.2,2.2-2.1,3.2c-1.3,1.5-3.3,2.7-5.9,3.6c-2.6,1-5.2,1.4-7.9,1.4c-3.7,0-6.6-0.7-8.7-2
			c-2.1-1.3-3.2-3.1-3.2-5.4c0-1.5,0.6-2.9,1.8-4.2s2.9-2.5,5.1-3.6c-1.5-0.4-2.6-0.9-3.3-1.5c-0.7-0.6-1-1.3-1-2.2
			c0-0.8,0.4-1.7,1.3-2.6c0.9-1,2.3-2.2,4.3-3.6c-1.9-1.1-3.3-2.4-4.3-4.1c-1-1.7-1.4-3.6-1.4-5.9c0-3.3,1-6,3.1-8.1
			c2.1-2.1,4.8-3.2,8-3.2c1.7,0,3.3,0.3,4.7,0.8c1.4,0.5,2.7,1.3,3.9,2.4c1.4-1.3,2.5-2.2,3.3-2.6c0.8-0.5,1.5-0.7,2.1-0.7
			c1,0,1.7,0.2,2.3,0.7c0.5,0.5,0.8,1.2,0.8,2c0,0.7-0.2,1.3-0.7,1.7c-0.4,0.5-1,0.7-1.7,0.7c-0.6,0-1.3-0.3-2-0.9s-1.2-0.9-1.4-0.9
			c-0.3,0-0.8,0.2-1.7,0.7C563.5,275.3,563.4,275.3,563.3,275.4z M549.4,302.7c-1.2,0.9-2.2,1.8-2.8,2.7c-0.6,0.9-0.9,1.8-0.9,2.8
			c0,1.7,0.9,3.1,2.8,4.3c1.9,1.2,4.2,1.8,6.9,1.8c3,0,5.5-0.6,7.5-1.9c2-1.2,3-2.7,3-4.4c0-2.7-4.8-4.5-14.5-5.2
			C550.5,302.8,549.9,302.7,549.4,302.7z M561,284.9c0-2.9-0.8-5.5-2.5-7.8c-1.7-2.3-3.5-3.5-5.4-3.5c-1.6,0-2.9,0.6-4,1.8
			s-1.6,2.7-1.6,4.6c0,0.9,0.1,1.8,0.3,2.6c0.2,0.9,0.5,1.7,0.9,2.6c0.8,1.9,1.8,3.3,2.9,4.2c1.1,0.9,2.4,1.3,3.8,1.3
			c1.6,0,2.9-0.6,4-1.7C560.5,287.9,561,286.5,561,284.9z"/>
	</g>
</g>
</svg>
