<svg width="64" height="64" version="1.1" viewBox="0 0 64 64" xmlns="http://www.w3.org/2000/svg">
	<title>Instagram</title>
	<path d="m31.927 6.4978c-3.9577 0.0016-7.9144 0.08803-11.863 0.25663-8.0852 0.34602-13.139 5.525-13.447 13.65-0.29559 7.8027-0.31982 15.631-0.0417 23.434 0.2781 7.8749 5.7317 13.118 13.659 13.521 3.9002 0.19918 7.819 0.03401 11.728 0.03401v0.08013c3.2761 0 6.554 0.07257 9.8258-0.01134 10.141-0.26494 15.329-5.1569 15.683-15.257 0.25183-7.1698 0.15568-14.366-0.0962-21.538-0.28686-8.1071-5.4795-13.555-13.582-13.909-3.9484-0.17325-7.9083-0.25826-11.866-0.25663zm-0.14445 4.4975c3.8663-0.01172 7.7337 0.06765 11.59 0.23414 5.9194 0.25618 9.1305 3.4083 9.4152 9.3189 0.37444 7.7983 0.3244 15.641-0.014 23.443-0.23437 5.4178-3.8793 8.5637-9.5884 8.8987-3.7163 0.21883-7.4565 0.04157-11.186 0.04157v0.02268c-3.6374 0-7.2846 0.14098-10.913-0.03402-6.3858-0.30425-9.758-3.5729-9.9573-9.9477-0.22333-7.2683-0.23032-14.553-0.0771-21.823 0.12476-5.9719 3.2264-9.533 9.1457-9.8418 3.8542-0.20039 7.7174-0.30263 11.584-0.31434zm13.897 4.2505a3.1058 3.1058 0 0 0-3.1052 3.1052 3.1058 3.1058 0 0 0 3.1052 3.1052 3.1058 3.1058 0 0 0 3.1052-3.1052 3.1058 3.1058 0 0 0-3.1052-3.1052zm-14.002 3.673c-6.9049 0.06021-12.556 5.5626-12.909 12.729-0.35036 7.0931 5.3862 13.162 12.771 13.508 7.0296 0.33067 13.194-5.2951 13.601-12.415 0.4139-7.2377-5.3868-13.5-12.793-13.813-0.22522-0.0094-0.4477-0.01172-0.67045-0.0098zm0.22776 4.5584c4.658-0.05027 8.5874 3.7576 8.6356 8.363 0.0503 4.8047-3.8166 8.7621-8.549 8.7511-4.8748-0.01134-8.579-3.7223-8.6228-8.6453-0.039-4.5966 3.8104-8.4185 8.5362-8.4688z"/>
</svg>
