<svg width="64" height="64" version="1.1" viewBox="0 0 64 64" xmlns="http://www.w3.org/2000/svg">
    <title>LinkedIn</title>
    <path d="m13.604 7.8971c-3.1864-0.09634-5.9879 2.6395-5.9507 5.8127 0.0378 3.1382 2.5825 5.6397 5.771 5.6748 3.2324 0.03288 5.7425-2.4059 5.771-5.601 0.03024-3.136-2.4926-5.7901-5.5913-5.8865zm30.574 15.263c-3.6914 0.05647-6.8693 1.6477-9.6077 4.9305-0.12472-1.5965-0.21279-2.7243-0.30463-3.8783h-9.165l3e-3 31.864h9.7712c0-5.2821-0.05594-10.373 0.03024-15.462 0.03024-1.7081 0.19502-3.4788 0.68973-5.1038 0.7753-2.5491 2.9634-3.7475 5.7774-3.5832 2.6694 0.15553 4.1743 1.6396 4.6386 4.1799 0.2279 1.2417 0.30539 2.526 0.31408 3.7917 0.03024 5.35 0.01512 10.701 0.01512 16.206h9.9766c0-3.8192 0.08391-7.4493-0.02646-11.074-0.12472-4.4499-0.04951-8.9468-0.70575-13.329-0.76207-5.1025-3.6832-7.5029-8.7704-8.3373-0.90746-0.14823-1.7882-0.21827-2.6401-0.2053zm-35.499 1.0554v31.877h9.6173v-31.877z"/>
</svg>
