<svg width="64" height="64" version="1.1" viewBox="0 0 64 64" xmlns="http://www.w3.org/2000/svg">
    <title>Menu</title>
    <path d="m5.9219 7.1721c-0.63702 0-1.1484 0.51337-1.1484 1.1504v7.355c0 0.63702 0.51141 1.1504 1.1484 1.1504h52.156c0.63702 0 1.1484-0.51337 1.1484-1.1504v-7.355c0-0.63702-0.51141-1.1504-1.1484-1.1504z"/>
    <path d="m5.9219 27.172c-0.63702 0-1.1484 0.51337-1.1484 1.1504v7.355c0 0.63702 0.51141 1.1504 1.1484 1.1504h52.156c0.63702 0 1.1484-0.51337 1.1484-1.1504v-7.355c0-0.63702-0.51141-1.1504-1.1484-1.1504z"/>
    <path d="m5.9219 47.172c-0.63702 0-1.1484 0.51337-1.1484 1.1504v7.355c0 0.63702 0.51141 1.1504 1.1484 1.1504h52.156c0.63702 0 1.1484-0.51337 1.1484-1.1504v-7.355c0-0.63702-0.51141-1.1504-1.1484-1.1504z"/>
</svg>
