<svg width="170" height="170" version="1.1" viewBox="0 0 170 170" xmlns="http://www.w3.org/2000/svg">
    <path d="m149.94 4.9492c-6.4226 0.58219-10.375 4.6854-12.012 12.068l-4.0547 18.283c-4.7803 21.563-3.6871 18.853-5.959 55.727-0.25733 7.8136 0.8927 15.936 6.0488 17.08 5.6253 1.2463 9.8939-4.6918 13.17-12.818 13.055-34.483 13.162-30.524 21.371-67.557 3.3267-15.001-1.4685-19.999-11.312-22.182-2.6953-0.59733-5.1111-0.79563-7.252-0.60156zm-137.34 36.738c-6.5458 0-12.156 4.6762-12.156 13.092v75.744c0 21.507 12.156 34.6 35.066 34.6 18.703 0 17.768-6.0781 31.795-6.0781 9.3505 0 9.3518 2.8047 22.443 2.8047 9.8188 0 16.832-4.208 16.832-13.092v-92.576c0-9.8181-4.2074-14.494-13.092-14.494h-5.1445c-9.8183 0-14.494 4.2079-14.494 13.092v49.094c0 22.444-7.4814 33.664-21.975 33.664-14.028 0-18.703-9.8186-18.703-29.924v-52.834c0-8.8839-6.0782-13.092-13.092-13.092zm121.38 85.023c-10.084 0-16.326 2.8818-16.326 18.727 0 13.444 2.402 19.686 16.326 19.686 8.1626 0 15.844-1.44 15.844-19.205 0-12.484-2.3998-19.207-15.844-19.207z" fill="#37a93f"/>
</svg>
