<?xml version="1.0" encoding="UTF-8" standalone="no"?>
<!-- Created with Inkscape (http://www.inkscape.org/) -->

<svg
   xmlns:dc="http://purl.org/dc/elements/1.1/"
   xmlns:cc="http://creativecommons.org/ns#"
   xmlns:rdf="http://www.w3.org/1999/02/22-rdf-syntax-ns#"
   xmlns:svg="http://www.w3.org/2000/svg"
   xmlns="http://www.w3.org/2000/svg"
   xmlns:sodipodi="http://sodipodi.sourceforge.net/DTD/sodipodi-0.dtd"
   xmlns:inkscape="http://www.inkscape.org/namespaces/inkscape"
   width="268.84454mm"
   height="117.2193mm"
   viewBox="0 0 268.84454 117.2193"
   version="1.1"
   id="svg1367"
   inkscape:version="0.92.4 (5da689c313, 2019-01-14)"
   sodipodi:docname="alle_tage_wohnungsfrage.svg">
  <defs
     id="defs1361">
    <clipPath
       clipPathUnits="userSpaceOnUse"
       id="clipPath522">
      <path
         d="M 0,0 H 1683.78 V 2383.937 H 0 Z"
         id="path520"
         inkscape:connector-curvature="0" />
    </clipPath>
  </defs>
  <sodipodi:namedview
     id="base"
     pagecolor="#ffffff"
     bordercolor="#666666"
     borderopacity="1.0"
     inkscape:pageopacity="0.0"
     inkscape:pageshadow="2"
     inkscape:zoom="1.4"
     inkscape:cx="459.00071"
     inkscape:cy="211.42435"
     inkscape:document-units="mm"
     inkscape:current-layer="layer1"
     showgrid="false"
     inkscape:pagecheckerboard="true"
     fit-margin-top="0"
     fit-margin-left="0"
     fit-margin-right="0"
     fit-margin-bottom="0"
     inkscape:window-width="2560"
     inkscape:window-height="1376"
     inkscape:window-x="0"
     inkscape:window-y="27"
     inkscape:window-maximized="1" />
  <metadata
     id="metadata1364">
    <rdf:RDF>
      <cc:Work
         rdf:about="">
        <dc:format>image/svg+xml</dc:format>
        <dc:type
           rdf:resource="http://purl.org/dc/dcmitype/StillImage" />
        <dc:title></dc:title>
      </cc:Work>
    </rdf:RDF>
  </metadata>
  <g
     inkscape:label="Layer 1"
     inkscape:groupmode="layer"
     id="layer1"
     transform="translate(20.810463,-63.414465)">
    <g
       transform="matrix(0.35277777,0,0,-0.35277777,-201.58815,676.66446)"
       id="g516"
       style="fill:#ffffff">
      <g
         id="g518"
         clip-path="url(#clipPath522)"
         style="fill:#ffffff">
        <g
           id="g524"
           transform="translate(636.1791,1597.9556)"
           style="fill:#ffffff">
          <path
             d="M 0,0 -15.018,17.568 -8.242,25.06 10.44,2.826 -8.09,-28.815 l -7.16,4.274 z M 17.882,4.84 2.761,22.38 9.537,29.873 28.219,7.638 9.689,-24.003 2.632,-19.7 Z m 39.747,13.754 19.019,5.149 -9.381,22.089 z M 54.259,6.699 46.176,-15.458 32.118,-19.263 67.208,72.33 101.167,-0.573 87.832,-4.182 79.893,13.638 Z m 55.16,81.495 11.164,3.022 -0.502,-86.669 -10.956,-2.966 z m 25.427,6.883 11.164,3.021 -0.501,-86.668 -10.957,-2.966 z m 33.882,-46.299 23.877,6.463 c -0.364,3.156 -1.484,5.645 -3.359,7.467 -1.876,1.822 -4.536,2.266 -7.982,1.334 -3.445,-0.933 -6.272,-2.807 -8.479,-5.624 -2.208,-2.816 -3.56,-6.029 -4.057,-9.64 m -0.164,-8.365 c 0.525,-3.704 1.819,-6.608 3.884,-8.711 2.064,-2.104 4.963,-2.688 8.695,-1.751 3.113,0.768 5.735,2.236 7.867,4.403 2.132,2.168 3.889,4.547 5.269,7.14 l 9.97,-1.628 c -2.278,-4.61 -5.27,-8.693 -8.977,-12.248 -3.706,-3.555 -8.316,-6.078 -13.829,-7.571 -4.766,-1.216 -8.937,-1.106 -12.512,0.33 -3.575,1.436 -6.397,3.889 -8.466,7.36 -2.069,3.471 -3.199,7.584 -3.389,12.34 -0.01,0.959 0.002,1.887 0.037,2.784 0.036,0.897 0.123,1.808 0.261,2.733 0.544,4.215 1.829,8.187 3.853,11.915 2.025,3.728 4.686,6.963 7.984,9.705 3.298,2.742 7.118,4.7 11.46,5.875 4.823,1.306 8.98,1.285 12.469,-0.064 3.489,-1.348 6.211,-3.736 8.165,-7.164 1.954,-3.428 3.032,-7.555 3.234,-12.382 0.011,-0.515 0.007,-1.052 -0.01,-1.611 -0.018,-0.56 -0.05,-1.142 -0.097,-1.746 z m 72.07,62.22 0.081,12.225 49.305,13.346 -0.184,-12.253 -18.399,-4.98 -0.446,-65.575 -12.197,-3.302 0.446,65.575 z m 43.373,-28.198 c -0.087,5.006 0.816,9.78 2.71,14.324 1.893,4.543 4.555,8.444 7.986,11.702 3.43,3.258 7.317,5.475 11.658,6.65 3.859,1.045 7.137,0.897 9.834,-0.444 2.697,-1.341 4.853,-3.457 6.469,-6.348 l -0.007,10.094 10.957,2.966 -0.396,-51.139 -10.647,-2.882 0.026,8.549 c -1.611,-3.395 -3.73,-6.316 -6.356,-8.765 -2.626,-2.449 -5.731,-4.158 -9.314,-5.128 -4.341,-1.175 -8.213,-1.022 -11.616,0.461 -3.403,1.482 -6.108,3.986 -8.113,7.511 -2.006,3.525 -3.07,7.675 -3.191,12.449 m 11.37,3.078 c 0.032,-2.876 0.615,-5.381 1.749,-7.514 1.135,-2.134 2.695,-3.672 4.68,-4.613 1.986,-0.942 4.322,-1.049 7.01,-0.322 2.411,0.653 4.646,1.96 6.703,3.923 2.058,1.962 3.708,4.331 4.95,7.108 1.243,2.777 1.838,5.675 1.783,8.692 -0.089,2.787 -0.681,5.234 -1.775,7.341 -1.094,2.108 -2.568,3.669 -4.421,4.683 -1.854,1.015 -3.992,1.231 -6.415,0.649 -2.699,-0.657 -5.129,-1.98 -7.29,-3.97 -2.16,-1.99 -3.859,-4.391 -5.096,-7.204 -1.237,-2.813 -1.863,-5.737 -1.878,-8.773 m 48.444,13.335 c -0.086,5.005 0.82,9.762 2.719,14.27 1.899,4.508 4.567,8.373 8.003,11.596 3.436,3.223 7.325,5.422 11.667,6.597 3.652,0.989 6.812,0.901 9.481,-0.262 2.668,-1.164 4.827,-3.076 6.478,-5.735 l 0.13,9.243 10.853,2.938 -0.257,-49.992 c 0.086,-5.45 -0.831,-10.469 -2.754,-15.057 -1.922,-4.588 -4.641,-8.467 -8.158,-11.638 -3.517,-3.171 -7.652,-5.4 -12.407,-6.687 -7.098,-1.921 -12.881,-1.397 -17.351,1.572 -4.469,2.969 -7.01,7.698 -7.624,14.189 l 10.768,2.803 c 0.456,-3.278 1.753,-5.756 3.893,-7.433 2.14,-1.676 5.105,-2.002 8.895,-0.976 2.687,0.728 5.08,2.059 7.177,3.995 2.098,1.937 3.745,4.324 4.942,7.162 1.197,2.839 1.751,5.874 1.662,9.104 l -0.044,6.977 c -1.657,-3.111 -3.764,-5.771 -6.321,-7.979 -2.557,-2.208 -5.523,-3.769 -8.9,-4.683 -4.341,-1.176 -8.208,-1.057 -11.599,0.354 -3.392,1.412 -6.085,3.845 -8.079,7.299 -1.994,3.454 -3.052,7.568 -3.174,12.343 m 11.474,3.105 c 0.042,-4.278 1.284,-7.64 3.727,-10.085 2.443,-2.445 5.663,-3.126 9.66,-2.044 2.274,0.615 4.385,1.797 6.333,3.544 1.948,1.748 3.552,3.846 4.812,6.295 1.259,2.449 1.988,5.068 2.186,7.858 l 0.02,2.557 c -0.294,4.063 -1.594,7.224 -3.9,9.484 -2.305,2.26 -5.187,2.96 -8.644,2.098 -2.767,-0.675 -5.214,-2.003 -7.341,-3.984 -2.126,-1.981 -3.796,-4.337 -5.01,-7.07 -1.214,-2.732 -1.828,-5.616 -1.843,-8.653 m 58.51,21.163 23.877,6.463 c -0.364,3.156 -1.484,5.645 -3.359,7.467 -1.876,1.822 -4.536,2.267 -7.982,1.334 -3.445,-0.933 -6.272,-2.807 -8.479,-5.623 -2.208,-2.817 -3.56,-6.03 -4.057,-9.641 m -0.164,-8.365 c 0.525,-3.704 1.819,-6.607 3.884,-8.711 2.064,-2.104 4.963,-2.687 8.696,-1.751 3.112,0.768 5.734,2.236 7.866,4.404 2.132,2.167 3.889,4.547 5.269,7.139 l 9.971,-1.628 c -2.279,-4.61 -5.271,-8.693 -8.978,-12.248 -3.706,-3.555 -8.316,-6.078 -13.828,-7.57 -4.767,-1.217 -8.937,-1.107 -12.513,0.329 -3.575,1.436 -6.397,3.889 -8.466,7.36 -2.069,3.471 -3.198,7.584 -3.389,12.34 -0.01,0.959 0.002,1.887 0.037,2.784 0.036,0.897 0.123,1.808 0.262,2.733 0.543,4.215 1.828,8.187 3.852,11.915 2.025,3.728 4.686,6.963 7.984,9.705 3.299,2.742 7.118,4.7 11.46,5.875 4.823,1.306 8.98,1.285 12.469,-0.064 3.489,-1.348 6.211,-3.736 8.165,-7.164 1.954,-3.428 3.032,-7.555 3.234,-12.382 0.011,-0.515 0.007,-1.052 -0.01,-1.611 -0.018,-0.56 -0.05,-1.142 -0.097,-1.746 z"
             style="fill:#ffffff;fill-opacity:1;fill-rule:nonzero;stroke:none"
             id="path526"
             inkscape:connector-curvature="0" />
        </g>
        <g
           id="g528"
           transform="translate(583.6237,1446.7213)"
           style="fill:#ffffff">
          <path
             d="m 0,0 15.644,56.931 14.265,3.861 -28.061,-89.691 -22.099,48.822 -21.315,-60.573 -29.617,74.078 13.851,3.749 16.606,-48.201 19.955,62.314 z m 26.79,7.806 c -0.156,4.987 0.799,9.776 2.865,14.366 2.066,4.59 4.969,8.556 8.71,11.898 3.74,3.342 8.023,5.666 12.846,6.972 4.755,1.287 9.041,1.245 12.857,-0.125 3.816,-1.371 6.862,-3.764 9.138,-7.179 2.276,-3.414 3.48,-7.544 3.613,-12.39 0.156,-4.987 -0.799,-9.775 -2.865,-14.365 -2.066,-4.59 -4.969,-8.556 -8.71,-11.899 -3.74,-3.342 -8.023,-5.666 -12.846,-6.972 -4.686,-1.268 -8.955,-1.222 -12.805,0.14 -3.851,1.361 -6.915,3.749 -9.19,7.164 -2.276,3.415 -3.48,7.545 -3.613,12.39 m 11.37,3.078 c 0.078,-2.716 0.667,-5.145 1.767,-7.288 1.1,-2.143 2.643,-3.685 4.628,-4.627 1.985,-0.941 4.328,-1.084 7.027,-0.427 2.756,0.746 5.177,2.122 7.263,4.129 2.086,2.007 3.716,4.39 4.89,7.148 1.174,2.758 1.745,5.576 1.714,8.452 -0.02,2.805 -0.595,5.256 -1.724,7.354 -1.129,2.098 -2.706,3.631 -4.731,4.599 -2.026,0.968 -4.382,1.088 -7.07,0.361 -2.699,-0.657 -5.089,-2.006 -7.169,-4.049 -2.08,-2.042 -3.71,-4.424 -4.89,-7.147 -1.179,-2.723 -1.748,-5.558 -1.705,-8.505 m 78.632,26.831 c -0.124,2.999 -0.753,5.454 -1.887,7.366 -1.135,1.912 -3.224,2.492 -6.268,1.743 -3.192,-0.717 -5.663,-2.458 -7.411,-5.224 -1.748,-2.766 -2.773,-5.668 -3.074,-8.709 L 97.913,1.542 86.75,-1.48 87.251,85.189 98.414,88.21 98.182,45.436 c 1.323,2.946 3.105,5.5 5.346,7.66 2.242,2.159 4.947,3.668 8.117,4.526 3.583,0.97 6.543,0.902 8.878,-0.204 2.336,-1.105 4.111,-2.973 5.325,-5.603 1.214,-2.63 1.866,-5.781 1.954,-9.456 L 127.682,9.6 116.519,6.578 Z m 55.196,14.941 c -0.124,2.999 -0.753,5.454 -1.887,7.366 -1.135,1.911 -3.224,2.492 -6.268,1.742 -3.124,-0.697 -5.583,-2.398 -7.376,-5.103 -1.794,-2.704 -2.842,-5.576 -3.144,-8.616 l -0.204,-31.562 -11.164,-3.022 0.397,51.139 11.163,3.022 -0.076,-7.565 c 1.323,2.947 3.085,5.513 5.286,7.699 2.201,2.186 4.887,3.708 8.057,4.566 3.583,0.97 6.577,0.912 8.981,-0.176 2.405,-1.087 4.234,-2.958 5.489,-5.614 1.254,-2.656 1.926,-5.821 2.014,-9.495 l -0.171,-32.44 -11.37,-3.078 z M 208.74,51.51 c 0.181,-2.909 0.856,-5.315 2.025,-7.218 1.169,-1.902 3.247,-2.523 6.233,-1.863 3.043,0.75 5.468,2.442 7.273,5.076 1.805,2.633 2.865,5.434 3.178,8.403 l 0.273,31.803 11.163,3.022 -0.396,-51.139 -11.163,-3.022 0.093,7.458 c -1.334,-2.876 -3.102,-5.407 -5.303,-7.593 -2.201,-2.186 -4.921,-3.717 -8.16,-4.594 -3.583,-0.97 -6.56,-0.906 -8.93,0.19 -2.37,1.097 -4.165,2.978 -5.385,5.643 -1.22,2.665 -1.909,5.825 -2.066,9.481 l 0.171,32.44 11.267,3.05 z m 74.056,31.14 c -0.124,2.998 -0.753,5.454 -1.887,7.365 -1.135,1.912 -3.224,2.493 -6.268,1.743 -3.124,-0.698 -5.582,-2.399 -7.376,-5.103 -1.794,-2.704 -2.842,-5.577 -3.144,-8.617 l -0.204,-31.562 -11.163,-3.021 0.396,51.139 11.163,3.022 -0.076,-7.565 c 1.323,2.947 3.086,5.513 5.287,7.699 2.201,2.186 4.886,3.708 8.056,4.566 3.583,0.97 6.577,0.911 8.981,-0.176 2.405,-1.087 4.234,-2.958 5.489,-5.614 1.254,-2.656 1.926,-5.821 2.014,-9.495 l -0.171,-32.441 -11.37,-3.077 z m 22.011,0.633 c -0.087,5.005 0.82,9.762 2.719,14.27 1.899,4.508 4.567,8.373 8.003,11.596 3.436,3.223 7.325,5.422 11.666,6.597 3.653,0.989 6.813,0.901 9.481,-0.262 2.669,-1.164 4.828,-3.076 6.479,-5.735 l 0.13,9.243 10.853,2.938 -0.257,-49.993 c 0.086,-5.449 -0.832,-10.468 -2.754,-15.056 -1.922,-4.588 -4.641,-8.468 -8.158,-11.638 -3.517,-3.171 -7.652,-5.4 -12.407,-6.687 -7.098,-1.921 -12.881,-1.397 -17.351,1.572 -4.469,2.969 -7.01,7.698 -7.624,14.189 l 10.767,2.803 c 0.456,-3.279 1.754,-5.756 3.894,-7.433 2.14,-1.676 5.105,-2.002 8.895,-0.976 2.687,0.728 5.08,2.059 7.177,3.995 2.097,1.936 3.745,4.324 4.942,7.162 1.197,2.839 1.751,5.873 1.662,9.104 l -0.044,6.977 c -1.657,-3.111 -3.764,-5.771 -6.321,-7.979 -2.557,-2.208 -5.523,-3.77 -8.9,-4.684 -4.341,-1.175 -8.208,-1.056 -11.599,0.355 -3.392,1.412 -6.085,3.845 -8.079,7.299 -1.994,3.454 -3.052,7.568 -3.174,12.343 m 11.474,3.105 c 0.041,-4.278 1.284,-7.64 3.727,-10.085 2.443,-2.445 5.663,-3.126 9.66,-2.044 2.274,0.615 4.385,1.797 6.333,3.544 1.948,1.748 3.552,3.846 4.811,6.295 1.26,2.449 1.989,5.068 2.187,7.858 l 0.02,2.557 c -0.294,4.062 -1.594,7.224 -3.9,9.484 -2.306,2.26 -5.187,2.96 -8.644,2.098 -2.768,-0.675 -5.215,-2.003 -7.341,-3.984 -2.126,-1.981 -3.796,-4.338 -5.01,-7.07 -1.214,-2.732 -1.829,-5.616 -1.843,-8.653 m 53.949,7.281 c 2.041,-1.962 4.285,-3.61 6.729,-4.946 2.444,-1.335 4.838,-1.685 7.181,-1.051 1.791,0.485 3.322,1.361 4.592,2.63 1.27,1.268 1.883,2.71 1.839,4.325 -0.033,1.544 -0.563,2.713 -1.59,3.508 -1.027,0.794 -2.303,1.355 -3.83,1.681 -1.527,0.326 -3.065,0.613 -4.615,0.859 -2.285,0.343 -4.46,0.9 -6.526,1.672 -2.066,0.773 -3.77,1.975 -5.111,3.609 -1.342,1.634 -2.063,3.879 -2.164,6.737 -0.111,2.928 0.537,5.599 1.946,8.015 1.409,2.415 3.323,4.486 5.742,6.213 2.418,1.727 5.075,2.983 7.969,3.766 3.652,0.989 7.074,1.064 10.265,0.227 3.191,-0.837 5.888,-2.289 8.091,-4.356 l -5.865,-8.465 c -1.572,1.275 -3.333,2.278 -5.284,3.007 -1.951,0.729 -3.926,0.823 -5.925,0.282 -1.653,-0.447 -3.147,-1.221 -4.48,-2.322 -1.333,-1.1 -1.983,-2.423 -1.95,-3.967 0.021,-1.473 0.657,-2.521 1.908,-3.144 1.251,-0.623 2.752,-1.012 4.503,-1.167 1.751,-0.154 3.367,-0.364 4.848,-0.629 3.386,-0.488 6.373,-1.621 8.961,-3.399 2.587,-1.777 3.994,-4.706 4.219,-8.787 0.236,-5.039 -1.16,-9.318 -4.19,-12.838 -3.029,-3.519 -7.024,-5.95 -11.985,-7.293 -4.411,-1.194 -8.452,-0.994 -12.125,0.601 -3.672,1.594 -6.787,3.857 -9.345,6.789 z m 63.004,72.302 c -0.757,0.683 -1.503,1.184 -2.237,1.503 -0.735,0.318 -1.55,0.357 -2.446,0.114 -1.791,-0.485 -3.082,-1.74 -3.87,-3.765 -0.789,-2.026 -1.167,-4.255 -1.135,-6.687 l -0.154,-16.461 10.853,2.938 -0.218,-10.709 -10.646,-2.882 -0.282,-40.458 -10.957,-2.966 0.179,40.431 -4.962,-1.343 0.011,10.653 4.961,1.343 0.192,18.911 c 0.017,5.256 1.241,9.933 3.674,14.03 2.433,4.098 6.141,6.747 11.125,7.948 2.412,0.653 4.508,0.703 6.287,0.149 1.779,-0.554 3.323,-1.32 4.631,-2.297 z m 34.832,-26.072 c -1.022,0.537 -2,0.919 -2.936,1.147 -0.935,0.227 -1.989,0.183 -3.16,-0.135 -2.768,-0.675 -4.75,-2.321 -5.947,-4.937 -1.197,-2.617 -1.883,-5.391 -2.058,-8.323 l -0.271,-29.805 -10.957,-2.966 0.396,51.139 10.957,2.966 -0.006,-5.992 c 1.254,2.484 2.746,4.607 4.476,6.37 1.729,1.762 3.663,2.933 5.799,3.511 1.722,0.466 3.31,0.545 4.762,0.235 1.452,-0.309 2.827,-0.917 4.123,-1.824 z m 7.841,-10.524 c -0.087,5.005 0.817,9.78 2.71,14.323 1.893,4.543 4.556,8.444 7.986,11.703 3.431,3.258 7.317,5.475 11.658,6.65 3.859,1.044 7.137,0.896 9.834,-0.445 2.697,-1.34 4.853,-3.456 6.469,-6.347 l -0.007,10.094 10.957,2.965 -0.396,-51.139 -10.647,-2.882 0.026,8.549 c -1.611,-3.394 -3.729,-6.316 -6.355,-8.765 -2.626,-2.448 -5.731,-4.158 -9.314,-5.128 -4.342,-1.175 -8.214,-1.021 -11.617,0.461 -3.403,1.483 -6.107,3.987 -8.113,7.511 -2.006,3.525 -3.069,7.675 -3.191,12.45 m 11.37,3.077 c 0.032,-2.876 0.615,-5.38 1.75,-7.514 1.134,-2.134 2.694,-3.671 4.68,-4.613 1.985,-0.942 4.321,-1.049 7.009,-0.321 2.412,0.652 4.646,1.96 6.704,3.922 2.057,1.962 3.707,4.332 4.95,7.109 1.243,2.777 1.837,5.674 1.783,8.692 -0.089,2.786 -0.681,5.233 -1.776,7.341 -1.094,2.107 -2.568,3.668 -4.421,4.682 -1.853,1.015 -3.992,1.231 -6.415,0.649 -2.699,-0.656 -5.129,-1.98 -7.289,-3.97 -2.161,-1.99 -3.86,-4.391 -5.097,-7.204 -1.237,-2.812 -1.863,-5.736 -1.878,-8.773 m 48.445,13.335 c -0.087,5.006 0.819,9.763 2.718,14.271 1.899,4.507 4.567,8.373 8.003,11.596 3.437,3.223 7.326,5.422 11.667,6.597 3.652,0.988 6.813,0.901 9.481,-0.263 2.668,-1.164 4.828,-3.075 6.479,-5.735 l 0.129,9.244 10.854,2.937 -0.257,-49.992 c 0.086,-5.45 -0.832,-10.468 -2.754,-15.057 -1.922,-4.588 -4.642,-8.467 -8.158,-11.638 -3.517,-3.17 -7.653,-5.399 -12.408,-6.686 -7.097,-1.922 -12.881,-1.398 -17.35,1.571 -4.469,2.969 -7.011,7.699 -7.624,14.189 l 10.767,2.804 c 0.456,-3.279 1.754,-5.757 3.893,-7.433 2.14,-1.677 5.105,-2.002 8.895,-0.976 2.688,0.727 5.08,2.059 7.177,3.995 2.098,1.936 3.745,4.323 4.942,7.162 1.197,2.839 1.751,5.873 1.663,9.103 l -0.045,6.977 c -1.656,-3.111 -3.763,-5.77 -6.32,-7.979 -2.557,-2.208 -5.524,-3.769 -8.901,-4.683 -4.341,-1.175 -8.207,-1.057 -11.599,0.355 -3.391,1.412 -6.084,3.844 -8.078,7.298 -1.995,3.454 -3.053,7.569 -3.174,12.343 m 11.473,3.106 c 0.042,-4.279 1.284,-7.64 3.727,-10.085 2.444,-2.445 5.664,-3.127 9.661,-2.045 2.274,0.616 4.385,1.797 6.333,3.545 1.947,1.747 3.551,3.846 4.811,6.295 1.26,2.448 1.989,5.068 2.187,7.858 l 0.02,2.557 c -0.295,4.062 -1.595,7.223 -3.9,9.483 -2.306,2.261 -5.187,2.96 -8.644,2.098 -2.768,-0.675 -5.215,-2.003 -7.341,-3.984 -2.126,-1.98 -3.797,-4.337 -5.011,-7.069 -1.214,-2.733 -1.828,-5.617 -1.843,-8.653 m 57.476,20.883 23.878,6.463 c -0.364,3.156 -1.484,5.644 -3.36,7.466 -1.875,1.823 -4.536,2.267 -7.981,1.335 -3.446,-0.933 -6.272,-2.807 -8.479,-5.624 -2.208,-2.816 -3.56,-6.03 -4.058,-9.64 m -0.163,-8.365 c 0.524,-3.704 1.819,-6.608 3.883,-8.711 2.065,-2.104 4.964,-2.688 8.696,-1.751 3.113,0.768 5.735,2.236 7.867,4.403 2.132,2.167 3.888,4.547 5.269,7.14 l 9.97,-1.628 c -2.278,-4.61 -5.27,-8.693 -8.977,-12.248 -3.706,-3.555 -8.316,-6.079 -13.829,-7.571 -4.766,-1.216 -8.937,-1.106 -12.512,0.33 -3.575,1.436 -6.397,3.889 -8.466,7.36 -2.069,3.471 -3.199,7.584 -3.389,12.34 -0.011,0.958 0.002,1.886 0.037,2.783 0.036,0.897 0.123,1.809 0.261,2.734 0.544,4.215 1.828,8.186 3.853,11.915 2.025,3.728 4.686,6.963 7.984,9.705 3.298,2.741 7.118,4.7 11.459,5.875 4.824,1.306 8.98,1.284 12.47,-0.064 3.489,-1.348 6.21,-3.736 8.165,-7.164 1.954,-3.428 3.032,-7.555 3.234,-12.382 0.011,-0.515 0.007,-1.052 -0.011,-1.612 -0.017,-0.559 -0.05,-1.141 -0.096,-1.745 z m 71.034,25.108 15.018,-17.569 -6.673,-7.464 -18.785,22.207 18.633,31.669 7.161,-4.275 z m -17.882,-4.841 15.121,-17.54 -6.776,-7.492 -18.682,22.234 18.53,31.641 7.16,-4.274 z"
             style="fill:#ffffff;fill-opacity:1;fill-rule:nonzero;stroke:none"
             id="path530"
             inkscape:connector-curvature="0" />
        </g>
      </g>
    </g>
  </g>
</svg>
