<svg width="10.83mm" height="13.835mm" version="1.1" viewBox="0 0 10.83 13.835" xmlns="http://www.w3.org/2000/svg">
    <defs>
        <clipPath id="clipPath748">
            <path d="m0 0h1280v3100h-1280z"/>
        </clipPath>
    </defs>
    <g transform="translate(68.915 -12.454)">
        <g transform="matrix(.35278 0 0 -.35278 -261.85 303.29)">
            <g clip-path="url(#clipPath748)">
                <g transform="translate(551.37 815.77)">
                    <path d="m0 0s-3.037 0-3.037-3.037v-23.08s0-3.037 3.037-3.037h21.79s3.037 0 3.037 3.037v23.08s0 3.037-3.037 3.037z" fill="#ffff00"/>
                </g>
                <g transform="translate(576.2 805.45)">
                    <path d="m0 0v7.289s0 3.037-3.037 3.037h-21.79s-3.037 0-3.037-3.037v-7.289z" fill="#e87fc9"/>
                </g>
                <g transform="translate(554.58 807.91)">
                    <path d="m0 0c1.686 0 3.052 1.366 3.052 3.052s-1.366 3.052-3.052 3.052-3.052-1.366-3.052-3.052 1.366-3.052 3.052-3.052" fill="#dd57b5"/>
                </g>
                <g transform="translate(569.95 807.91)">
                    <path d="m0 0c1.686 0 3.052 1.366 3.052 3.052s-1.366 3.052-3.052 3.052-3.052-1.366-3.052-3.052 1.366-3.052 3.052-3.052" fill="#dd57b5"/>
                </g>
            </g>
        </g>
        <g transform="matrix(.35278 0 0 -.35278 -60.79 17.163)">
            <path d="m0 0v10.325" fill="none" stroke="#ae368b" stroke-linecap="round" stroke-width="3.214"/>
        </g>
        <g transform="matrix(.35278 0 0 -.35278 -66.211 17.163)">
            <path d="m0 0v10.325" stroke="#ae368b" stroke-linecap="round" stroke-width="3.214"/>
        </g>
        <g fill="none" stroke="#ae368b" stroke-width=".17639">
            <path d="m-68.415 20.646h9.8298"/>
            <path d="m-68.415 22.41h9.8298"/>
            <path d="m-68.415 24.174h9.8298"/>
            <path d="m-67.028 19.146v6.6428"/>
            <path d="m-65.264 19.146v6.6428"/>
            <path d="m-63.5 19.146v6.6428"/>
            <path d="m-61.736 19.146v6.6428"/>
            <path d="m-59.972 19.146v6.6428"/>
        </g>
    </g>
</svg>
