<?xml version="1.0" encoding="UTF-8" standalone="no"?>
<svg
   xmlns:dc="http://purl.org/dc/elements/1.1/"
   xmlns:cc="http://creativecommons.org/ns#"
   xmlns:rdf="http://www.w3.org/1999/02/22-rdf-syntax-ns#"
   xmlns:svg="http://www.w3.org/2000/svg"
   xmlns="http://www.w3.org/2000/svg"
   xmlns:sodipodi="http://sodipodi.sourceforge.net/DTD/sodipodi-0.dtd"
   xmlns:inkscape="http://www.inkscape.org/namespaces/inkscape"
   sodipodi:docname="calendar.svg"
   inkscape:version="1.0alpha2 (1:0.92.0+devel+201909041849+703f1f3)"
   id="svg856"
   version="1.1"
   viewBox="0 0 10.829936 13.834963"
   height="13.834964mm"
   width="10.829936mm">
  <defs
     id="defs850">
    <clipPath
       clipPathUnits="userSpaceOnUse"
       id="clipPath748">
      <path
         d="M 0,0 H 1280 V 3100 H 0 Z"
         id="path746"
         inkscape:connector-curvature="0" />
    </clipPath>
  </defs>
  <sodipodi:namedview
     inkscape:window-maximized="1"
     inkscape:window-y="27"
     inkscape:window-x="0"
     inkscape:window-height="1376"
     inkscape:window-width="2560"
     lock-margins="true"
     fit-margin-bottom="0.5"
     fit-margin-right="0.5"
     fit-margin-left="0.5"
     fit-margin-top="0.5"
     showgrid="false"
     inkscape:document-rotation="0"
     inkscape:current-layer="layer1"
     inkscape:document-units="mm"
     inkscape:cy="25.798445"
     inkscape:cx="46.855626"
     inkscape:zoom="7.9195959"
     inkscape:pageshadow="2"
     inkscape:pageopacity="0.0"
     borderopacity="1.0"
     bordercolor="#666666"
     pagecolor="#ffffff"
     id="base" />
  <metadata
     id="metadata853">
    <rdf:RDF>
      <cc:Work
         rdf:about="">
        <dc:format>image/svg+xml</dc:format>
        <dc:type
           rdf:resource="http://purl.org/dc/dcmitype/StillImage" />
        <dc:title></dc:title>
      </cc:Work>
    </rdf:RDF>
  </metadata>
  <g
     transform="translate(68.914967,-12.453823)"
     id="layer1"
     inkscape:groupmode="layer"
     inkscape:label="Layer 1">
    <g
       transform="matrix(0.35277777,0,0,-0.35277777,-261.85466,303.28987)"
       id="g742">
      <g
         id="g744"
         clip-path="url(#clipPath748)">
        <g
           id="g750"
           transform="translate(551.3702,815.772)">
          <path
             d="m 0,0 c 0,0 -3.037,0 -3.037,-3.037 v -23.08 c 0,0 0,-3.037 3.037,-3.037 h 21.79 c 0,0 3.037,0 3.037,3.037 v 23.08 c 0,0 0,3.037 -3.037,3.037 z"
             style="fill:#e7eb13;fill-opacity:1;fill-rule:nonzero;stroke:none"
             id="path752"
             inkscape:connector-curvature="0" />
        </g>
        <g
           id="g754"
           transform="translate(576.197,805.4463)">
          <path
             d="m 0,0 v 7.289 c 0,0 0,3.037 -3.037,3.037 h -21.79 c 0,0 -3.037,0 -3.037,-3.037 V 0 Z"
             style="fill:#f362a0;fill-opacity:1;fill-rule:nonzero;stroke:none"
             id="path756"
             inkscape:connector-curvature="0" />
        </g>
        <g
           id="g758"
           transform="translate(554.5818,807.9067)">
          <path
             d="M 0,0 C 1.686,0 3.052,1.366 3.052,3.052 3.052,4.738 1.686,6.104 0,6.104 -1.686,6.104 -3.052,4.738 -3.052,3.052 -3.052,1.366 -1.686,0 0,0"
             style="fill:#f0357b;fill-opacity:1;fill-rule:nonzero;stroke:none"
             id="path760"
             inkscape:connector-curvature="0" />
        </g>
        <g
           id="g762"
           transform="translate(569.9486,807.9067)">
          <path
             d="M 0,0 C 1.686,0 3.052,1.366 3.052,3.052 3.052,4.738 1.686,6.104 0,6.104 -1.686,6.104 -3.052,4.738 -3.052,3.052 -3.052,1.366 -1.686,0 0,0"
             style="fill:#f0357b;fill-opacity:1;fill-rule:nonzero;stroke:none"
             id="path764"
             inkscape:connector-curvature="0" />
        </g>
      </g>
    </g>
    <g
       id="g766"
       transform="matrix(0.35277777,0,0,-0.35277777,-60.789505,17.163167)">
      <path
         d="M 0,0 V 10.325"
         style="fill:none;stroke:#ee1f5d;stroke-width:3.214;stroke-linecap:round;stroke-linejoin:miter;stroke-miterlimit:4;stroke-dasharray:none;stroke-opacity:1"
         id="path768"
         inkscape:connector-curvature="0" />
    </g>
    <g
       id="g770"
       transform="matrix(0.35277777,0,0,-0.35277777,-66.210534,17.163167)">
      <path
         d="M 0,0 V 10.325"
         style="fill:none;stroke:#ee1f5d;stroke-width:3.214;stroke-linecap:round;stroke-linejoin:miter;stroke-miterlimit:4;stroke-dasharray:none;stroke-opacity:1"
         id="path772"
         inkscape:connector-curvature="0" />
    </g>
    <g
       id="g774"
       transform="matrix(0.35277777,0,0,-0.35277777,-68.414831,20.645984)">
      <path
         d="M 0,0 H 27.864"
         style="fill:none;stroke:#ee1f5d;stroke-width:0.5;stroke-linecap:butt;stroke-linejoin:miter;stroke-miterlimit:4;stroke-dasharray:none;stroke-opacity:1"
         id="path776"
         inkscape:connector-curvature="0" />
    </g>
    <g
       id="g778"
       transform="matrix(0.35277777,0,0,-0.35277777,-68.414831,22.409881)">
      <path
         d="M 0,0 H 27.864"
         style="fill:none;stroke:#ee1f5d;stroke-width:0.5;stroke-linecap:butt;stroke-linejoin:miter;stroke-miterlimit:4;stroke-dasharray:none;stroke-opacity:1"
         id="path780"
         inkscape:connector-curvature="0" />
    </g>
    <g
       id="g782"
       transform="matrix(0.35277777,0,0,-0.35277777,-68.414831,24.173779)">
      <path
         d="M 0,0 H 27.864"
         style="fill:none;stroke:#ee1f5d;stroke-width:0.5;stroke-linecap:butt;stroke-linejoin:miter;stroke-miterlimit:4;stroke-dasharray:none;stroke-opacity:1"
         id="path784"
         inkscape:connector-curvature="0" />
    </g>
    <g
       id="g786"
       transform="matrix(0.35277777,0,0,-0.35277777,-67.027779,19.145981)">
      <path
         d="M 0,0 V -18.83"
         style="fill:none;stroke:#ee1f5d;stroke-width:0.5;stroke-linecap:butt;stroke-linejoin:miter;stroke-miterlimit:4;stroke-dasharray:none;stroke-opacity:1"
         id="path788"
         inkscape:connector-curvature="0" />
    </g>
    <g
       id="g790"
       transform="matrix(0.35277777,0,0,-0.35277777,-65.263889,19.145981)">
      <path
         d="M 0,0 V -18.83"
         style="fill:none;stroke:#ee1f5d;stroke-width:0.5;stroke-linecap:butt;stroke-linejoin:miter;stroke-miterlimit:4;stroke-dasharray:none;stroke-opacity:1"
         id="path792"
         inkscape:connector-curvature="0" />
    </g>
    <g
       id="g794"
       transform="matrix(0.35277777,0,0,-0.35277777,-63.500002,19.145981)">
      <path
         d="M 0,0 V -18.83"
         style="fill:none;stroke:#ee1f5d;stroke-width:0.5;stroke-linecap:butt;stroke-linejoin:miter;stroke-miterlimit:4;stroke-dasharray:none;stroke-opacity:1"
         id="path796"
         inkscape:connector-curvature="0" />
    </g>
    <g
       id="g798"
       transform="matrix(0.35277777,0,0,-0.35277777,-61.736113,19.145981)">
      <path
         d="M 0,0 V -18.83"
         style="fill:none;stroke:#ee1f5d;stroke-width:0.5;stroke-linecap:butt;stroke-linejoin:miter;stroke-miterlimit:4;stroke-dasharray:none;stroke-opacity:1"
         id="path800"
         inkscape:connector-curvature="0" />
    </g>
    <g
       id="g802"
       transform="matrix(0.35277777,0,0,-0.35277777,-59.972223,19.145981)">
      <path
         d="M 0,0 V -18.83"
         style="fill:none;stroke:#ee1f5d;stroke-width:0.5;stroke-linecap:butt;stroke-linejoin:miter;stroke-miterlimit:4;stroke-dasharray:none;stroke-opacity:1"
         id="path804"
         inkscape:connector-curvature="0" />
    </g>
  </g>
</svg>
