<svg width="10.83mm" height="13.835mm" version="1.1" viewBox="0 0 10.83 13.835" xmlns="http://www.w3.org/2000/svg">
    <path d="m1.5773 3.0487s-1.0714 0-1.0714 1.0714v8.1422s0 1.0714 1.0714 1.0714h7.6871s1.0714 0 1.0714-1.0714v-8.1422s0-1.0714-1.0714-1.0714z" fill="#ff0"/>
    <g fill="#37a93f">
        <path d="m10.337 6.6893v-2.5714s0-1.0714-1.0714-1.0714h-7.6871s-1.0714 0-1.0714 1.0714v2.5714z" opacity=".56"/>
        <path d="m2.7099 3.668c-0.59479 0-1.0769 0.48215-1.0769 1.0769 0 0.59479 0.48215 1.0764 1.0769 1.0764s1.0764-0.48163 1.0764-1.0764c0-0.59479-0.48163-1.0769-1.0764-1.0769zm5.4219 0c-0.59479 0-1.0764 0.48215-1.0764 1.0769 0 0.59479 0.48163 1.0764 1.0764 1.0764s1.0769-0.48163 1.0769-1.0764c0-0.59479-0.48215-1.0769-1.0769-1.0769z" opacity=".65"/>
        <path d="m2.7032 0.50023a0.56691 0.56691 0 0 0-0.56637 0.56637v3.6422a0.56691 0.56691 0 0 0 0.56637 0.56689 0.56691 0.56691 0 0 0 0.56844-0.56689v-3.6422a0.56691 0.56691 0 0 0-0.56844-0.56637zm5.4219 0a0.56691 0.56691 0 0 0-0.56637 0.56637v3.6422a0.56691 0.56691 0 0 0 0.56637 0.56689 0.56691 0.56691 0 0 0 0.56637-0.56689v-3.6422a0.56691 0.56691 0 0 0-0.56637-0.56637z"/>
        <path d="m2.704 4.709v-3.6425"/>
        <path d="m1.7989 6.6916v1.4118h-1.2986v0.1757h1.2986v1.588h-1.2986v0.17777h1.2986v1.586h-1.2986v0.17777h1.2986v1.5255h0.1757v-1.5255h1.588v1.5255h0.1757v-1.5255h1.588v1.5255h0.17777v-1.5255h1.5859v1.5255h0.17777v-1.5255h1.5875v1.5255h0.17622v-1.5255h1.2986v-0.17777h-1.2986v-1.586h1.2986v-0.17777h-1.2986v-1.588h1.2986v-0.1757h-1.2986v-1.4118h-0.17622v1.4118h-1.5875v-1.4118h-0.17777v1.4118h-1.5859v-1.4118h-0.17777v1.4118h-1.588v-1.4118h-0.1757v1.4118h-1.588v-1.4118h-0.1757zm0.1757 1.5875h1.588v1.588h-1.588v-1.588zm1.7637 0h1.588v1.588h-1.588v-1.588zm1.7658 0h1.5859v1.588h-1.5859v-1.588zm1.7637 0h1.5875v1.588h-1.5875v-1.588zm-5.2932 1.7658h1.588v1.586h-1.588v-1.586zm1.7637 0h1.588v1.586h-1.588v-1.586zm1.7658 0h1.5859v1.586h-1.5859v-1.586zm1.7637 0h1.5875v1.586h-1.5875v-1.586z"/>
    </g>
</svg>
