<?xml version="1.0" encoding="UTF-8" standalone="no"?>
<svg
   xmlns:dc="http://purl.org/dc/elements/1.1/"
   xmlns:cc="http://creativecommons.org/ns#"
   xmlns:rdf="http://www.w3.org/1999/02/22-rdf-syntax-ns#"
   xmlns:svg="http://www.w3.org/2000/svg"
   xmlns="http://www.w3.org/2000/svg"
   xmlns:sodipodi="http://sodipodi.sourceforge.net/DTD/sodipodi-0.dtd"
   xmlns:inkscape="http://www.inkscape.org/namespaces/inkscape"
   width="268.84454mm"
   height="117.2193mm"
   viewBox="0 0 268.84454 117.2193"
   version="1.1"
   id="svg1367"
   inkscape:version="1.0 (4035a4fb49, 2020-05-01)"
   sodipodi:docname="common_spaces_hybrid_places_accent.svg">
  <defs
     id="defs1361">
    <clipPath
       clipPathUnits="userSpaceOnUse"
       id="clipPath522">
      <path
         d="M 0,0 H 1683.78 V 2383.937 H 0 Z"
         id="path520"
         inkscape:connector-curvature="0" />
    </clipPath>
    <clipPath
       id="clipPath428"
       clipPathUnits="userSpaceOnUse">
      <path
         id="path426"
         d="M 0,0 H 1280 V 1900 H 0 Z" />
    </clipPath>
  </defs>
  <sodipodi:namedview
     id="base"
     pagecolor="#ffffff"
     bordercolor="#666666"
     borderopacity="1.0"
     inkscape:pageopacity="0.0"
     inkscape:pageshadow="2"
     inkscape:zoom="0.7"
     inkscape:cx="466.17506"
     inkscape:cy="276.45101"
     inkscape:document-units="mm"
     inkscape:current-layer="g438"
     showgrid="false"
     inkscape:pagecheckerboard="true"
     fit-margin-top="0"
     fit-margin-left="0"
     fit-margin-right="0"
     fit-margin-bottom="0"
     inkscape:window-width="1532"
     inkscape:window-height="1201"
     inkscape:window-x="937"
     inkscape:window-y="129"
     inkscape:window-maximized="0"
     inkscape:document-rotation="0" />
  <metadata
     id="metadata1364">
    <rdf:RDF>
      <cc:Work
         rdf:about="">
        <dc:format>image/svg+xml</dc:format>
        <dc:type
           rdf:resource="http://purl.org/dc/dcmitype/StillImage" />
        <dc:title></dc:title>
      </cc:Work>
    </rdf:RDF>
  </metadata>
  <g
     inkscape:label="Layer 1"
     inkscape:groupmode="layer"
     id="layer1"
     transform="translate(20.810463,-63.414465)">
    <g
       id="g422"
       transform="matrix(0.49279918,0,0,-0.49279918,-120.83665,721.68927)">
      <g
         clip-path="url(#clipPath428)"
         id="g424">
        <g
           transform="translate(220.9203,1185.3878)"
           id="g430">
          <path
             id="path432"
             style="fill:#ffff00;fill-opacity:1;fill-rule:nonzero;stroke:none"
             d="m 0,0 -11.052,10.961 4.013,4.735 13.772,-13.873 -10.269,-19.952 -5.01,2.65 -1.794,1.786 z M 11.533,3.122 0.414,14.065 4.427,18.8 18.2,4.926 7.931,-15.026 l -4.944,2.669 -1.759,1.676 z m 14.965,11.063 c 0.338,-3.01 1.273,-5.63 2.808,-7.862 1.534,-2.232 3.509,-3.844 5.924,-4.836 2.415,-0.992 5.095,-1.114 8.041,-0.364 3.167,0.81 5.862,2.219 8.085,4.228 1.29,1.165 3.8,8.187 3.8,8.187 l 1.813,-1.695 1.126,-9.713 c -1.724,-2.088 -3.677,-3.905 -5.859,-5.449 -2.181,-1.545 -4.828,-2.738 -7.939,-3.58 -3.378,-0.914 -6.574,-1.088 -9.59,-0.521 -3.015,0.567 -5.691,1.727 -8.025,3.48 -2.335,1.753 -4.252,3.989 -5.751,6.708 -1.499,2.718 -2.466,5.76 -2.9,9.125 -0.393,3.566 -0.183,7.022 0.629,10.366 0.812,3.344 2.153,6.45 4.025,9.318 1.871,2.867 4.185,5.33 6.943,7.389 2.759,2.058 5.871,3.556 9.338,4.495 2.933,0.794 5.619,1.092 8.058,0.893 1.609,-0.131 5.284,-0.293 5.284,-0.293 l 1.86,-1.78 1.059,-9.73 c -1.919,1.627 -4.127,2.734 -6.623,3.323 -2.497,0.588 -5.19,0.491 -8.079,-0.291 -2.977,-0.806 -5.582,-2.286 -7.813,-4.44 -2.231,-2.154 -3.899,-4.717 -5.003,-7.687 -1.104,-2.97 -1.508,-6.06 -1.211,-9.271 m 37.699,1.618 c -0.418,3.13 -0.089,6.141 0.989,9.033 1.078,2.891 2.749,5.395 5.015,7.51 2.265,2.116 4.954,3.595 8.065,4.437 3.066,0.83 5.906,0.824 8.52,-0.019 2.613,-0.843 4.781,-2.331 6.503,-4.465 1.722,-2.133 2.78,-4.721 3.174,-7.762 0.418,-3.131 0.089,-6.142 -0.989,-9.033 C 94.396,12.613 92.725,10.109 90.459,7.993 88.194,5.877 85.505,4.398 82.394,3.556 79.372,2.738 76.543,2.748 73.908,3.584 71.272,4.421 69.094,5.907 67.371,8.04 c -1.722,2.134 -2.78,4.721 -3.174,7.763 m 7.333,1.985 c 0.223,-1.705 0.766,-3.227 1.63,-4.568 0.864,-1.34 1.982,-2.301 3.356,-2.883 1.374,-0.582 2.934,-0.661 4.679,-0.236 1.778,0.481 3.294,1.356 4.548,2.626 1.255,1.27 2.183,2.773 2.786,4.51 0.603,1.738 0.804,3.509 0.601,5.315 -0.19,1.761 -0.726,3.297 -1.605,4.609 -0.88,1.313 -2.021,2.268 -3.424,2.866 -1.402,0.598 -2.969,0.663 -4.703,0.194 -1.745,-0.425 -3.242,-1.283 -4.49,-2.575 -1.249,-1.292 -2.177,-2.795 -2.786,-4.511 -0.609,-1.715 -0.806,-3.497 -0.592,-5.347 m 73.814,24.416 1.936,-20.369 -7.2,-1.949 -1.719,19.569 c -0.18,1.192 -0.452,2.287 -0.818,3.285 -0.366,0.998 -0.913,1.744 -1.643,2.238 -0.73,0.494 -1.724,0.595 -2.98,0.303 -1.935,-0.429 -3.325,-1.508 -4.168,-3.239 -0.843,-1.731 -1.252,-3.523 -1.228,-5.377 l 1.889,-19.666 -7.2,-1.949 -1.786,19.551 c -0.179,1.192 -0.452,2.286 -0.817,3.285 -0.366,0.998 -0.903,1.747 -1.61,2.247 -0.708,0.5 -1.69,0.604 -2.947,0.312 -1.891,-0.417 -3.261,-1.432 -4.113,-3.046 -0.851,-1.613 -1.292,-3.331 -1.324,-5.152 l 1.931,-20.084 -7.067,-1.913 -2.968,32.11 7,1.895 0.404,-4.398 c 0.637,1.698 1.588,3.208 2.852,4.528 1.265,1.32 2.853,2.239 4.764,2.756 2.267,0.614 4.138,0.572 5.615,-0.125 1.477,-0.698 2.65,-1.859 3.519,-3.484 0.743,2.014 1.839,3.777 3.29,5.291 1.451,1.513 3.265,2.565 5.443,3.155 2.311,0.625 4.211,0.567 5.699,-0.175 1.489,-0.742 2.655,-1.965 3.498,-3.668 0.842,-1.704 1.425,-3.681 1.748,-5.931 m 51.999,14.075 1.936,-20.369 -7.2,-1.948 -1.719,19.569 c -0.18,1.191 -0.452,2.286 -0.818,3.284 -0.365,0.998 -0.913,1.744 -1.643,2.239 -0.73,0.494 -1.723,0.594 -2.98,0.302 -1.935,-0.428 -3.324,-1.508 -4.168,-3.239 -0.843,-1.731 -1.252,-3.523 -1.227,-5.377 l 1.889,-19.666 -7.201,-1.949 -1.786,19.551 c -0.179,1.192 -0.452,2.287 -0.817,3.285 -0.366,0.998 -0.902,1.747 -1.61,2.247 -0.708,0.5 -1.69,0.604 -2.947,0.312 -1.89,-0.417 -3.261,-1.432 -4.112,-3.045 -0.851,-1.614 -1.293,-3.331 -1.325,-5.153 l 1.931,-20.084 -7.067,-1.913 -2.967,32.111 7,1.894 0.403,-4.398 c 0.637,1.699 1.588,3.208 2.853,4.528 1.264,1.321 2.852,2.239 4.763,2.757 2.267,0.613 4.138,0.571 5.615,-0.126 1.477,-0.698 2.65,-1.859 3.519,-3.484 0.743,2.014 1.84,3.778 3.29,5.291 1.451,1.514 3.265,2.565 5.443,3.155 2.311,0.625 4.211,0.567 5.7,-0.175 1.488,-0.741 2.654,-1.964 3.497,-3.668 0.843,-1.704 1.425,-3.681 1.748,-5.931 m 7.785,-2.329 c -0.418,3.131 -0.088,6.142 0.989,9.033 1.078,2.892 2.75,5.395 5.015,7.511 2.266,2.116 4.954,3.595 8.065,4.437 3.067,0.83 5.907,0.824 8.52,-0.019 2.613,-0.843 4.781,-2.331 6.503,-4.465 1.722,-2.133 2.781,-4.721 3.175,-7.763 0.418,-3.13 0.088,-6.141 -0.99,-9.032 -1.078,-2.892 -2.749,-5.395 -5.015,-7.511 -2.265,-2.116 -4.953,-3.595 -8.064,-4.437 -3.023,-0.818 -5.852,-0.809 -8.487,0.028 -2.635,0.837 -4.814,2.322 -6.537,4.456 -1.722,2.133 -2.78,4.721 -3.174,7.762 m 7.333,1.985 c 0.223,-1.704 0.766,-3.227 1.63,-4.567 0.864,-1.34 1.983,-2.302 3.357,-2.884 1.373,-0.582 2.933,-0.661 4.678,-0.236 1.778,0.481 3.294,1.357 4.549,2.627 1.254,1.269 2.183,2.773 2.786,4.51 0.603,1.737 0.803,3.509 0.6,5.314 -0.19,1.761 -0.725,3.298 -1.605,4.61 -0.88,1.312 -2.021,2.268 -3.423,2.866 -1.403,0.598 -2.97,0.663 -4.704,0.194 -1.745,-0.425 -3.242,-1.284 -4.49,-2.575 -1.248,-1.292 -2.177,-2.796 -2.786,-4.511 -0.609,-1.715 -0.806,-3.498 -0.592,-5.348 m 50.364,17.211 c -0.271,1.882 -0.843,3.421 -1.715,4.616 -0.872,1.195 -2.291,1.55 -4.259,1.065 -2.024,-0.453 -3.544,-1.532 -4.561,-3.238 -1.017,-1.707 -1.529,-3.515 -1.537,-5.425 l 1.858,-19.818 -7.2,-1.948 -2.968,32.11 7.2,1.949 0.428,-4.75 c 0.69,1.856 1.694,3.476 3.013,4.858 1.319,1.383 3.001,2.351 5.046,2.904 2.311,0.626 4.297,0.603 5.957,-0.068 1.661,-0.672 2.99,-1.839 3.988,-3.5 0.999,-1.662 1.643,-3.646 1.933,-5.952 l 1.936,-20.369 -7.333,-1.985 z m 39.966,7.669 c 1.091,-1.565 2.244,-2.958 3.457,-4.18 1.213,-1.222 2.537,-2.104 3.972,-2.645 1.434,-0.542 3.063,-0.567 4.885,-0.073 2.133,0.577 3.788,1.645 4.964,3.204 1.176,1.558 1.661,3.335 1.455,5.331 -0.146,1.773 -0.758,3.11 -1.837,4.01 -1.079,0.901 -2.409,1.542 -3.991,1.925 -1.583,0.383 -3.213,0.681 -4.893,0.894 -1.893,0.298 -3.808,0.805 -5.743,1.522 -1.935,0.716 -3.606,1.826 -5.015,3.329 -1.408,1.503 -2.294,3.541 -2.657,6.114 -0.273,2.597 0.118,5.029 1.174,7.294 1.057,2.266 2.616,4.214 4.679,5.846 2.062,1.631 4.427,2.808 7.094,3.53 2.533,0.686 4.84,0.797 6.921,0.335 2.081,-0.462 3.918,-1.301 5.511,-2.515 1.592,-1.215 2.896,-2.639 3.911,-4.272 l -5.523,-5.502 c -1.205,1.63 -2.59,2.96 -4.157,3.991 -1.567,1.03 -3.417,1.257 -5.55,0.68 -1.867,-0.506 -3.362,-1.459 -4.485,-2.86 -1.124,-1.401 -1.59,-2.982 -1.4,-4.743 0.119,-1.495 0.752,-2.6 1.899,-3.315 1.148,-0.715 2.556,-1.204 4.225,-1.467 1.67,-0.264 3.3,-0.514 4.89,-0.752 2.084,-0.294 4.063,-0.868 5.94,-1.719 1.876,-0.852 3.457,-2.069 4.745,-3.653 1.287,-1.583 2.106,-3.639 2.456,-6.168 0.346,-2.864 0.01,-5.543 -1.008,-8.036 -1.019,-2.494 -2.608,-4.642 -4.768,-6.443 -2.16,-1.801 -4.773,-3.116 -7.84,-3.946 -2.622,-0.71 -5.106,-0.786 -7.451,-0.228 -2.345,0.557 -4.479,1.613 -6.403,3.168 -1.923,1.554 -3.549,3.463 -4.877,5.727 z m 65.841,17.393 c 0.43,-3.175 0.154,-6.207 -0.829,-9.097 -0.982,-2.889 -2.495,-5.362 -4.539,-7.417 -2.043,-2.056 -4.487,-3.469 -7.331,-4.239 -2.457,-0.617 -4.603,-0.53 -6.439,0.261 -1.836,0.791 -3.368,2.046 -4.596,3.764 l 2.122,-21.32 -7.334,-1.985 -4.404,47.463 7.067,1.912 0.517,-5.083 c 0.832,2.038 2.04,3.832 3.624,5.382 1.583,1.549 3.509,2.631 5.775,3.244 2.845,0.77 5.432,0.684 7.763,-0.26 2.33,-0.943 4.248,-2.523 5.754,-4.739 1.506,-2.215 2.456,-4.844 2.85,-7.886 m -7.333,-1.985 c -0.202,1.806 -0.744,3.365 -1.623,4.677 -0.88,1.312 -2.004,2.248 -3.372,2.808 -1.368,0.56 -2.919,0.605 -4.652,0.136 -1.556,-0.421 -2.955,-1.241 -4.2,-2.461 -1.244,-1.219 -2.192,-2.692 -2.846,-4.419 -0.653,-1.727 -0.867,-3.538 -0.64,-5.433 0.386,-2.662 1.429,-4.752 3.129,-6.272 1.699,-1.52 3.694,-2.017 5.985,-1.493 1.745,0.425 3.27,1.267 4.575,2.527 1.305,1.259 2.295,2.756 2.97,4.489 0.676,1.733 0.901,3.547 0.674,5.441 m 12.067,3.267 c -0.374,3.142 -0.077,6.144 0.889,9.005 0.967,2.862 2.483,5.323 4.548,7.385 2.066,2.061 4.499,3.471 7.298,4.229 2.489,0.674 4.669,0.596 6.539,-0.233 1.87,-0.83 3.432,-2.148 4.684,-3.956 l -0.642,6.338 7.067,1.912 2.967,-32.11 -6.866,-1.859 -0.523,5.368 c -0.852,-2.138 -2.07,-3.983 -3.654,-5.532 -1.584,-1.55 -3.532,-2.638 -5.843,-3.263 -2.8,-0.758 -5.373,-0.68 -7.72,0.236 -2.346,0.915 -4.295,2.474 -5.845,4.678 -1.551,2.204 -2.517,4.804 -2.899,7.802 m 7.333,1.984 c 0.203,-1.805 0.747,-3.375 1.633,-4.709 0.886,-1.335 2.015,-2.293 3.389,-2.875 1.374,-0.582 2.928,-0.639 4.661,-0.169 1.556,0.421 2.953,1.252 4.191,2.493 1.238,1.242 2.181,2.737 2.828,4.487 0.648,1.749 0.858,3.571 0.631,5.465 -0.235,1.749 -0.781,3.283 -1.638,4.601 -0.858,1.318 -1.932,2.291 -3.224,2.92 -1.291,0.628 -2.72,0.754 -4.288,0.377 -1.745,-0.424 -3.27,-1.266 -4.575,-2.526 -1.304,-1.259 -2.278,-2.775 -2.919,-4.546 -0.641,-1.772 -0.871,-3.611 -0.689,-5.518 m 38.733,10.485 c 0.203,-1.806 0.769,-3.37 1.7,-4.692 0.93,-1.322 2.127,-2.262 3.589,-2.82 1.463,-0.558 3.09,-0.619 4.879,-0.182 2.19,0.545 4.069,1.578 5.637,3.1 1.567,1.521 2.765,3.133 3.592,4.836 l 1.063,-8.156 c -1.045,-1.427 -2.361,-2.69 -3.948,-3.787 -1.587,-1.098 -3.425,-1.929 -5.514,-2.495 -3.067,-0.83 -5.918,-0.826 -8.553,0.011 -2.636,0.837 -4.826,2.319 -6.57,4.446 -1.745,2.128 -2.814,4.712 -3.208,7.754 -0.43,3.175 -0.092,6.2 1.014,9.075 1.106,2.875 2.791,5.371 5.057,7.487 2.265,2.115 4.954,3.594 8.065,4.437 2,0.541 3.906,0.723 5.719,0.546 1.813,-0.177 3.464,-0.637 4.953,-1.378 l 1.014,-8.241 c -1.177,1.351 -2.669,2.283 -4.478,2.795 -1.808,0.513 -3.712,0.498 -5.712,-0.043 -1.822,-0.494 -3.402,-1.398 -4.739,-2.714 -1.337,-1.316 -2.318,-2.846 -2.944,-4.589 -0.625,-1.744 -0.83,-3.54 -0.616,-5.39 m 31.898,12.212 15.4,4.168 c -0.441,1.98 -1.339,3.537 -2.696,4.672 -1.357,1.136 -3.146,1.403 -5.368,0.801 -2.223,-0.601 -3.976,-1.791 -5.259,-3.57 -1.284,-1.778 -1.976,-3.802 -2.077,-6.071 m 0.42,-5.253 c 0.581,-2.323 1.621,-4.14 3.121,-5.452 1.5,-1.311 3.456,-1.664 5.868,-1.059 2.012,0.497 3.655,1.431 4.93,2.801 1.275,1.371 2.287,2.873 3.037,4.507 l 6.704,-0.975 c -1.217,-2.906 -2.94,-5.483 -5.17,-7.732 -2.229,-2.249 -5.121,-3.855 -8.677,-4.817 -3.079,-0.786 -5.847,-0.736 -8.305,0.149 -2.457,0.885 -4.481,2.412 -6.07,4.582 -1.589,2.169 -2.596,4.747 -3.023,7.732 -0.067,0.601 -0.118,1.184 -0.151,1.748 -0.033,0.563 -0.033,1.135 0,1.717 0.094,2.649 0.694,5.148 1.799,7.499 1.105,2.35 2.662,4.393 4.673,6.13 2.01,1.737 4.415,2.984 7.215,3.742 3.111,0.842 5.864,0.848 8.26,0.017 2.395,-0.83 4.347,-2.317 5.858,-4.46 1.51,-2.143 2.484,-4.729 2.923,-7.759 0.04,-0.323 0.071,-0.66 0.095,-1.012 0.023,-0.351 0.039,-0.717 0.046,-1.096 z m 31.569,5.755 c 1.476,-1.223 3.065,-2.247 4.768,-3.074 1.703,-0.828 3.309,-1.036 4.82,-0.627 1.156,0.312 2.114,0.87 2.875,1.672 0.761,0.802 1.075,1.71 0.944,2.724 -0.119,0.97 -0.544,1.701 -1.274,2.195 -0.73,0.494 -1.611,0.84 -2.642,1.038 -1.031,0.198 -2.068,0.371 -3.11,0.518 -1.534,0.205 -3.009,0.545 -4.426,1.02 -1.416,0.475 -2.62,1.222 -3.612,2.242 -0.991,1.02 -1.61,2.426 -1.857,4.22 -0.259,1.837 10e-4,3.518 0.782,5.041 0.78,1.523 1.916,2.832 3.408,3.928 1.493,1.095 3.172,1.896 5.039,2.401 2.355,0.638 4.616,0.701 6.781,0.19 2.166,-0.511 4.043,-1.41 5.632,-2.697 l -3.348,-5.343 c -1.121,0.794 -2.351,1.415 -3.689,1.864 -1.337,0.449 -2.651,0.499 -3.94,0.15 -1.066,-0.289 -2.006,-0.782 -2.819,-1.479 -0.813,-0.697 -1.16,-1.53 -1.041,-2.5 0.107,-0.924 0.595,-1.58 1.462,-1.965 0.868,-0.385 1.886,-0.622 3.055,-0.711 1.169,-0.089 2.252,-0.214 3.249,-0.373 2.273,-0.291 4.322,-0.989 6.148,-2.093 1.825,-1.103 2.941,-2.936 3.348,-5.497 0.474,-3.163 -0.18,-5.856 -1.963,-8.08 -1.783,-2.224 -4.275,-3.769 -7.475,-4.635 -2.844,-0.77 -5.532,-0.663 -8.065,0.321 -2.532,0.984 -4.737,2.391 -6.615,4.22 z m 31.028,4.32 7.644,-0.221 -5.942,-19.281 -5.664,0.041 z" />
        </g>
        <g
           transform="translate(219.1405,1187.1676)"
           id="g434">
          <path
             id="path436"
             style="fill:#e84b25;fill-opacity:1;fill-rule:nonzero;stroke:none"
             d="m 0,0 -11.052,10.961 4.013,4.735 13.772,-13.873 -10.269,-19.952 -5.01,2.65 z M 11.533,3.122 0.414,14.065 4.427,18.8 18.2,4.926 7.931,-15.026 2.987,-12.357 Z m 14.965,11.063 c 0.338,-3.01 1.273,-5.63 2.808,-7.862 1.534,-2.232 3.509,-3.844 5.924,-4.836 2.415,-0.992 5.095,-1.114 8.041,-0.364 3.167,0.81 5.862,2.219 8.085,4.228 2.223,2.009 4.094,4.173 5.613,6.492 L 58.095,2.13 c -1.724,-2.088 -3.677,-3.905 -5.859,-5.449 -2.181,-1.545 -4.828,-2.738 -7.939,-3.58 -3.378,-0.914 -6.574,-1.088 -9.59,-0.521 -3.015,0.567 -5.691,1.727 -8.025,3.48 -2.335,1.753 -4.252,3.989 -5.751,6.708 -1.499,2.718 -2.466,5.76 -2.9,9.125 -0.393,3.566 -0.183,7.022 0.629,10.366 0.812,3.344 2.153,6.45 4.025,9.318 1.871,2.867 4.185,5.33 6.943,7.389 2.759,2.058 5.871,3.556 9.338,4.495 2.933,0.794 5.619,1.092 8.058,0.893 2.438,-0.198 4.82,-0.889 7.144,-2.073 l 1.059,-9.73 c -1.919,1.627 -4.127,2.734 -6.623,3.323 -2.497,0.588 -5.19,0.491 -8.079,-0.291 -2.977,-0.806 -5.582,-2.286 -7.813,-4.44 -2.231,-2.154 -3.899,-4.717 -5.003,-7.687 -1.104,-2.97 -1.508,-6.06 -1.211,-9.271 m 37.699,1.618 c -0.418,3.13 -0.089,6.141 0.989,9.033 1.078,2.891 2.749,5.395 5.015,7.51 2.265,2.116 4.954,3.595 8.065,4.437 3.066,0.83 5.906,0.824 8.52,-0.019 2.613,-0.843 4.781,-2.331 6.503,-4.465 1.722,-2.133 2.78,-4.721 3.174,-7.762 0.418,-3.131 0.089,-6.142 -0.989,-9.033 C 94.396,12.613 92.725,10.109 90.459,7.993 88.194,5.877 85.505,4.398 82.394,3.556 79.372,2.738 76.543,2.748 73.908,3.584 71.272,4.421 69.094,5.907 67.371,8.04 c -1.722,2.134 -2.78,4.721 -3.174,7.763 m 7.333,1.985 c 0.223,-1.705 0.766,-3.227 1.63,-4.568 0.864,-1.34 1.982,-2.301 3.356,-2.883 1.374,-0.582 2.934,-0.661 4.679,-0.236 1.778,0.481 3.294,1.356 4.548,2.626 1.255,1.27 2.183,2.773 2.786,4.51 0.603,1.738 0.804,3.509 0.601,5.315 -0.19,1.761 -0.726,3.297 -1.605,4.609 -0.88,1.313 -2.021,2.268 -3.424,2.866 -1.402,0.598 -2.969,0.663 -4.703,0.194 -1.745,-0.425 -3.242,-1.283 -4.49,-2.575 -1.249,-1.292 -2.177,-2.795 -2.786,-4.511 -0.609,-1.715 -0.806,-3.497 -0.592,-5.347 m 73.814,24.416 1.936,-20.369 -7.2,-1.949 -1.719,19.569 c -0.18,1.192 -0.452,2.287 -0.818,3.285 -0.366,0.998 -0.913,1.744 -1.643,2.238 -0.73,0.494 -1.724,0.595 -2.98,0.303 -1.935,-0.429 -3.325,-1.508 -4.168,-3.239 -0.843,-1.731 -1.252,-3.523 -1.228,-5.377 l 1.889,-19.666 -7.2,-1.949 -1.786,19.551 c -0.179,1.192 -0.452,2.286 -0.817,3.285 -0.366,0.998 -0.903,1.747 -1.61,2.247 -0.708,0.5 -1.69,0.604 -2.947,0.312 -1.891,-0.417 -3.261,-1.432 -4.113,-3.046 -0.851,-1.613 -1.292,-3.331 -1.324,-5.152 l 1.931,-20.084 -7.067,-1.913 -2.968,32.11 7,1.895 0.404,-4.398 c 0.637,1.698 1.588,3.208 2.852,4.528 1.265,1.32 2.853,2.239 4.764,2.756 2.267,0.614 4.138,0.572 5.615,-0.125 1.477,-0.698 2.65,-1.859 3.519,-3.484 0.743,2.014 1.839,3.777 3.29,5.291 1.451,1.513 3.265,2.565 5.443,3.155 2.311,0.625 4.211,0.567 5.699,-0.175 1.489,-0.742 2.655,-1.965 3.498,-3.668 0.842,-1.704 1.425,-3.681 1.748,-5.931 m 51.999,14.075 1.936,-20.369 -7.2,-1.948 -1.719,19.569 c -0.18,1.191 -0.452,2.286 -0.818,3.284 -0.365,0.998 -0.913,1.744 -1.643,2.239 -0.73,0.494 -1.723,0.594 -2.98,0.302 -1.935,-0.428 -3.324,-1.508 -4.168,-3.239 -0.843,-1.731 -1.252,-3.523 -1.227,-5.377 l 1.889,-19.666 -7.201,-1.949 -1.786,19.551 c -0.179,1.192 -0.452,2.287 -0.817,3.285 -0.366,0.998 -0.902,1.747 -1.61,2.247 -0.708,0.5 -1.69,0.604 -2.947,0.312 -1.89,-0.417 -3.261,-1.432 -4.112,-3.045 -0.851,-1.614 -1.293,-3.331 -1.325,-5.153 l 1.931,-20.084 -7.067,-1.913 -2.967,32.111 7,1.894 0.403,-4.398 c 0.637,1.699 1.588,3.208 2.853,4.528 1.264,1.321 2.852,2.239 4.763,2.757 2.267,0.613 4.138,0.571 5.615,-0.126 1.477,-0.698 2.65,-1.859 3.519,-3.484 0.743,2.014 1.84,3.778 3.29,5.291 1.451,1.514 3.265,2.565 5.443,3.155 2.311,0.625 4.211,0.567 5.7,-0.175 1.488,-0.741 2.654,-1.964 3.497,-3.668 0.843,-1.704 1.425,-3.681 1.748,-5.931 m 7.785,-2.329 c -0.418,3.131 -0.088,6.142 0.989,9.033 1.078,2.892 2.75,5.395 5.015,7.511 2.266,2.116 4.954,3.595 8.065,4.437 3.067,0.83 5.907,0.824 8.52,-0.019 2.613,-0.843 4.781,-2.331 6.503,-4.465 1.722,-2.133 2.781,-4.721 3.175,-7.763 0.418,-3.13 0.088,-6.141 -0.99,-9.032 -1.078,-2.892 -2.749,-5.395 -5.015,-7.511 -2.265,-2.116 -4.953,-3.595 -8.064,-4.437 -3.023,-0.818 -5.852,-0.809 -8.487,0.028 -2.635,0.837 -4.814,2.322 -6.537,4.456 -1.722,2.133 -2.78,4.721 -3.174,7.762 m 7.333,1.985 c 0.223,-1.704 0.766,-3.227 1.63,-4.567 0.864,-1.34 1.983,-2.302 3.357,-2.884 1.373,-0.582 2.933,-0.661 4.678,-0.236 1.778,0.481 3.294,1.357 4.549,2.627 1.254,1.269 2.183,2.773 2.786,4.51 0.603,1.737 0.803,3.509 0.6,5.314 -0.19,1.761 -0.725,3.298 -1.605,4.61 -0.88,1.312 -2.021,2.268 -3.423,2.866 -1.403,0.598 -2.97,0.663 -4.704,0.194 -1.745,-0.425 -3.242,-1.284 -4.49,-2.575 -1.248,-1.292 -2.177,-2.796 -2.786,-4.511 -0.609,-1.715 -0.806,-3.498 -0.592,-5.348 m 50.364,17.211 c -0.271,1.882 -0.843,3.421 -1.715,4.616 -0.872,1.195 -2.291,1.55 -4.259,1.065 -2.024,-0.453 -3.544,-1.532 -4.561,-3.238 -1.017,-1.707 -1.529,-3.515 -1.537,-5.425 l 1.858,-19.818 -7.2,-1.948 -2.968,32.11 7.2,1.949 0.428,-4.75 c 0.69,1.856 1.694,3.476 3.013,4.858 1.319,1.383 3.001,2.351 5.046,2.904 2.311,0.626 4.297,0.603 5.957,-0.068 1.661,-0.672 2.99,-1.839 3.988,-3.5 0.999,-1.662 1.643,-3.646 1.933,-5.952 l 1.936,-20.369 -7.333,-1.985 z m 39.966,7.669 c 1.091,-1.565 2.244,-2.958 3.457,-4.18 1.213,-1.222 2.537,-2.104 3.972,-2.645 1.434,-0.542 3.063,-0.567 4.885,-0.073 2.133,0.577 3.788,1.645 4.964,3.204 1.176,1.558 1.661,3.335 1.455,5.331 -0.146,1.773 -0.758,3.11 -1.837,4.01 -1.079,0.901 -2.409,1.542 -3.991,1.925 -1.583,0.383 -3.213,0.681 -4.893,0.894 -1.893,0.298 -3.808,0.805 -5.743,1.522 -1.935,0.716 -3.606,1.826 -5.015,3.329 -1.408,1.503 -2.294,3.541 -2.657,6.114 -0.273,2.597 0.118,5.029 1.174,7.294 1.057,2.266 2.616,4.214 4.679,5.846 2.062,1.631 4.427,2.808 7.094,3.53 2.533,0.686 4.84,0.797 6.921,0.335 2.081,-0.462 3.918,-1.301 5.511,-2.515 1.592,-1.215 2.896,-2.639 3.911,-4.272 l -5.523,-5.502 c -1.205,1.63 -2.59,2.96 -4.157,3.991 -1.567,1.03 -3.417,1.257 -5.55,0.68 -1.867,-0.506 -3.362,-1.459 -4.485,-2.86 -1.124,-1.401 -1.59,-2.982 -1.4,-4.743 0.119,-1.495 0.752,-2.6 1.899,-3.315 1.148,-0.715 2.556,-1.204 4.225,-1.467 1.67,-0.264 3.3,-0.514 4.89,-0.752 2.084,-0.294 4.063,-0.868 5.94,-1.719 1.876,-0.852 3.457,-2.069 4.745,-3.653 1.287,-1.583 2.106,-3.639 2.456,-6.168 0.346,-2.864 0.01,-5.543 -1.008,-8.036 -1.019,-2.494 -2.608,-4.642 -4.768,-6.443 -2.16,-1.801 -4.773,-3.116 -7.84,-3.946 -2.622,-0.71 -5.106,-0.786 -7.451,-0.228 -2.345,0.557 -4.479,1.613 -6.403,3.168 -1.923,1.554 -3.549,3.463 -4.877,5.727 z m 65.841,17.393 c 0.43,-3.175 0.154,-6.207 -0.829,-9.097 -0.982,-2.889 -2.495,-5.362 -4.539,-7.417 -2.043,-2.056 -4.487,-3.469 -7.331,-4.239 -2.457,-0.617 -4.603,-0.53 -6.439,0.261 -1.836,0.791 -3.368,2.046 -4.596,3.764 l 2.122,-21.32 -7.334,-1.985 -4.404,47.463 7.067,1.912 0.517,-5.083 c 0.832,2.038 2.04,3.832 3.624,5.382 1.583,1.549 3.509,2.631 5.775,3.244 2.845,0.77 5.432,0.684 7.763,-0.26 2.33,-0.943 4.248,-2.523 5.754,-4.739 1.506,-2.215 2.456,-4.844 2.85,-7.886 m -7.333,-1.985 c -0.202,1.806 -0.744,3.365 -1.623,4.677 -0.88,1.312 -2.004,2.248 -3.372,2.808 -1.368,0.56 -2.919,0.605 -4.652,0.136 -1.556,-0.421 -2.955,-1.241 -4.2,-2.461 -1.244,-1.219 -2.192,-2.692 -2.846,-4.419 -0.653,-1.727 -0.867,-3.538 -0.64,-5.433 0.386,-2.662 1.429,-4.752 3.129,-6.272 1.699,-1.52 3.694,-2.017 5.985,-1.493 1.745,0.425 3.27,1.267 4.575,2.527 1.305,1.259 2.295,2.756 2.97,4.489 0.676,1.733 0.901,3.547 0.674,5.441 m 12.067,3.267 c -0.374,3.142 -0.077,6.144 0.889,9.005 0.967,2.862 2.483,5.323 4.548,7.385 2.066,2.061 4.499,3.471 7.298,4.229 2.489,0.674 4.669,0.596 6.539,-0.233 1.87,-0.83 3.432,-2.148 4.684,-3.956 l -0.642,6.338 7.067,1.912 2.967,-32.11 -6.866,-1.859 -0.523,5.368 c -0.852,-2.138 -2.07,-3.983 -3.654,-5.532 -1.584,-1.55 -3.532,-2.638 -5.843,-3.263 -2.8,-0.758 -5.373,-0.68 -7.72,0.236 -2.346,0.915 -4.295,2.474 -5.845,4.678 -1.551,2.204 -2.517,4.804 -2.899,7.802 m 7.333,1.984 c 0.203,-1.805 0.747,-3.375 1.633,-4.709 0.886,-1.335 2.015,-2.293 3.389,-2.875 1.374,-0.582 2.928,-0.639 4.661,-0.169 1.556,0.421 2.953,1.252 4.191,2.493 1.238,1.242 2.181,2.737 2.828,4.487 0.648,1.749 0.858,3.571 0.631,5.465 -0.235,1.749 -0.781,3.283 -1.638,4.601 -0.858,1.318 -1.932,2.291 -3.224,2.92 -1.291,0.628 -2.72,0.754 -4.288,0.377 -1.745,-0.424 -3.27,-1.266 -4.575,-2.526 -1.304,-1.259 -2.278,-2.775 -2.919,-4.546 -0.641,-1.772 -0.871,-3.611 -0.689,-5.518 m 38.733,10.485 c 0.203,-1.806 0.769,-3.37 1.7,-4.692 0.93,-1.322 2.127,-2.262 3.589,-2.82 1.463,-0.558 3.09,-0.619 4.879,-0.182 2.19,0.545 4.069,1.578 5.637,3.1 1.567,1.521 2.765,3.133 3.592,4.836 l 1.063,-8.156 c -1.045,-1.427 -2.361,-2.69 -3.948,-3.787 -1.587,-1.098 -3.425,-1.929 -5.514,-2.495 -3.067,-0.83 -5.918,-0.826 -8.553,0.011 -2.636,0.837 -4.826,2.319 -6.57,4.446 -1.745,2.128 -2.814,4.712 -3.208,7.754 -0.43,3.175 -0.092,6.2 1.014,9.075 1.106,2.875 2.791,5.371 5.057,7.487 2.265,2.115 4.954,3.594 8.065,4.437 2,0.541 3.906,0.723 5.719,0.546 1.813,-0.177 3.464,-0.637 4.953,-1.378 l 1.014,-8.241 c -1.177,1.351 -2.669,2.283 -4.478,2.795 -1.808,0.513 -3.712,0.498 -5.712,-0.043 -1.822,-0.494 -3.402,-1.398 -4.739,-2.714 -1.337,-1.316 -2.318,-2.846 -2.944,-4.589 -0.625,-1.744 -0.83,-3.54 -0.616,-5.39 m 31.898,12.212 15.4,4.168 c -0.441,1.98 -1.339,3.537 -2.696,4.672 -1.357,1.136 -3.146,1.403 -5.368,0.801 -2.223,-0.601 -3.976,-1.791 -5.259,-3.57 -1.284,-1.778 -1.976,-3.802 -2.077,-6.071 m 0.42,-5.253 c 0.581,-2.323 1.621,-4.14 3.121,-5.452 1.5,-1.311 3.456,-1.664 5.868,-1.059 2.012,0.497 3.655,1.431 4.93,2.801 1.275,1.371 2.287,2.873 3.037,4.507 l 6.704,-0.975 c -1.217,-2.906 -2.94,-5.483 -5.17,-7.732 -2.229,-2.249 -5.121,-3.855 -8.677,-4.817 -3.079,-0.786 -5.847,-0.736 -8.305,0.149 -2.457,0.885 -4.481,2.412 -6.07,4.582 -1.589,2.169 -2.596,4.747 -3.023,7.732 -0.067,0.601 -0.118,1.184 -0.151,1.748 -0.033,0.563 -0.033,1.135 0,1.717 0.094,2.649 0.694,5.148 1.799,7.499 1.105,2.35 2.662,4.393 4.673,6.13 2.01,1.737 4.415,2.984 7.215,3.742 3.111,0.842 5.864,0.848 8.26,0.017 2.395,-0.83 4.347,-2.317 5.858,-4.46 1.51,-2.143 2.484,-4.729 2.923,-7.759 0.04,-0.323 0.071,-0.66 0.095,-1.012 0.023,-0.351 0.039,-0.717 0.046,-1.096 z m 31.569,5.755 c 1.476,-1.223 3.065,-2.247 4.768,-3.074 1.703,-0.828 3.309,-1.036 4.82,-0.627 1.156,0.312 2.114,0.87 2.875,1.672 0.761,0.802 1.075,1.71 0.944,2.724 -0.119,0.97 -0.544,1.701 -1.274,2.195 -0.73,0.494 -1.611,0.84 -2.642,1.038 -1.031,0.198 -2.068,0.371 -3.11,0.518 -1.534,0.205 -3.009,0.545 -4.426,1.02 -1.416,0.475 -2.62,1.222 -3.612,2.242 -0.991,1.02 -1.61,2.426 -1.857,4.22 -0.259,1.837 10e-4,3.518 0.782,5.041 0.78,1.523 1.916,2.832 3.408,3.928 1.493,1.095 3.172,1.896 5.039,2.401 2.355,0.638 4.616,0.701 6.781,0.19 2.166,-0.511 4.043,-1.41 5.632,-2.697 l -3.348,-5.343 c -1.121,0.794 -2.351,1.415 -3.689,1.864 -1.337,0.449 -2.651,0.499 -3.94,0.15 -1.066,-0.289 -2.006,-0.782 -2.819,-1.479 -0.813,-0.697 -1.16,-1.53 -1.041,-2.5 0.107,-0.924 0.595,-1.58 1.462,-1.965 0.868,-0.385 1.886,-0.622 3.055,-0.711 1.169,-0.089 2.252,-0.214 3.249,-0.373 2.273,-0.291 4.322,-0.989 6.148,-2.093 1.825,-1.103 2.941,-2.936 3.348,-5.497 0.474,-3.163 -0.18,-5.856 -1.963,-8.08 -1.783,-2.224 -4.275,-3.769 -7.475,-4.635 -2.844,-0.77 -5.532,-0.663 -8.065,0.321 -2.532,0.984 -4.737,2.391 -6.615,4.22 z m 31.028,4.32 7.644,-0.221 -5.942,-19.281 -5.664,0.041 z" />
        </g>
        <g
           transform="translate(287.8716,1149.4449)"
           id="g438">
          <path
             id="path440"
             style="fill:#ffff00;fill-opacity:1;fill-rule:nonzero;stroke:none"
             d="m 0,0 7.933,2.147 1.739,-18.848 22.6,6.118 -1.872,18.812 8,2.165 4.499,-48.868 -7.734,-2.093 -2.192,22.374 -22.6,-6.117 2.126,-22.393 -7.734,-2.093 z m 76.331,3.489 -14.93,-52.696 -7.8,-2.111 6.202,21.498 -14.739,24.846 7.8,2.111 9.893,-18.573 5.774,22.814 z m 37.55,-6.293 c 0.418,-3.13 0.132,-6.129 -0.857,-8.996 -0.988,-2.868 -2.504,-5.329 -4.548,-7.385 -2.043,-2.056 -4.487,-3.468 -7.331,-4.238 -2.356,-0.638 -4.457,-0.587 -6.303,0.154 -1.846,0.741 -3.399,1.942 -4.66,3.604 l 0.582,-5.853 -7.266,-1.967 -5.143,54.419 7.267,1.967 2.571,-27.21 c 0.888,2.006 2.114,3.733 3.678,5.182 1.563,1.448 3.434,2.468 5.612,3.057 2.8,0.758 5.373,0.679 7.72,-0.236 2.346,-0.915 4.281,-2.466 5.803,-4.654 1.522,-2.187 2.481,-4.802 2.875,-7.844 m -7.334,-1.985 c -0.202,1.806 -0.735,3.379 -1.599,4.719 -0.864,1.341 -1.994,2.299 -3.39,2.875 -1.396,0.576 -2.961,0.629 -4.694,0.16 -1.467,-0.397 -2.787,-1.16 -3.96,-2.288 -1.173,-1.129 -2.094,-2.487 -2.761,-4.075 -0.667,-1.587 -1.001,-3.264 -1,-5.028 l 0.167,-1.673 c 0.483,-2.492 1.563,-4.454 3.238,-5.885 1.675,-1.43 3.614,-1.895 5.816,-1.395 1.745,0.425 3.267,1.278 4.566,2.56 1.299,1.282 2.283,2.8 2.953,4.556 0.669,1.755 0.891,3.58 0.664,5.474 m 29.743,16.208 c -0.71,0.333 -1.382,0.568 -2.016,0.706 -0.634,0.139 -1.328,0.106 -2.084,-0.099 -1.79,-0.436 -2.998,-1.479 -3.625,-3.127 -0.627,-1.649 -0.906,-3.394 -0.837,-5.235 l 1.703,-18.715 -7.067,-1.913 -2.967,32.11 7.066,1.913 0.375,-3.762 c 0.673,1.565 1.527,2.905 2.561,4.02 1.034,1.115 2.239,1.858 3.617,2.231 1.111,0.301 2.157,0.358 3.138,0.17 0.981,-0.188 1.93,-0.563 2.845,-1.126 z m 6.088,22.97 c -0.349,1.289 -0.19,2.465 0.476,3.528 0.667,1.063 1.622,1.763 2.866,2.099 1.289,0.349 2.478,0.23 3.568,-0.358 1.089,-0.587 1.808,-1.526 2.157,-2.814 0.337,-1.245 0.183,-2.396 -0.461,-3.452 -0.644,-1.057 -1.611,-1.76 -2.9,-2.109 -1.244,-0.337 -2.422,-0.214 -3.533,0.367 -1.112,0.582 -1.836,1.495 -2.173,2.739 m 2.151,-12.44 7.133,1.931 3.101,-32.074 -7.066,-1.913 z m 16.35,-12.031 c -0.373,3.143 -0.077,6.144 0.89,9.006 0.966,2.861 2.482,5.323 4.548,7.384 2.065,2.062 4.498,3.472 7.298,4.23 2.356,0.637 4.456,0.586 6.303,-0.155 1.846,-0.74 3.399,-1.941 4.66,-3.604 l -2.757,28.161 7.267,1.967 5.142,-54.418 -7.134,-1.931 -0.481,4.95 c -0.888,-2.006 -2.1,-3.741 -3.635,-5.206 -1.535,-1.465 -3.414,-2.498 -5.636,-3.1 -2.8,-0.758 -5.374,-0.679 -7.72,0.236 -2.347,0.915 -4.295,2.475 -5.846,4.679 -1.55,2.203 -2.517,4.804 -2.899,7.801 m 7.334,1.985 c 0.202,-1.805 0.746,-3.375 1.632,-4.71 0.886,-1.334 2.016,-2.292 3.39,-2.874 1.374,-0.583 2.928,-0.639 4.661,-0.17 1.555,0.421 2.933,1.235 4.133,2.443 1.199,1.207 2.132,2.652 2.797,4.335 0.666,1.682 0.92,3.432 0.762,5.25 l -0.06,0.485 c -0.235,1.749 -0.781,3.282 -1.639,4.6 -0.858,1.318 -1.929,2.281 -3.214,2.887 -1.285,0.606 -2.711,0.721 -4.279,0.344 -1.745,-0.425 -3.27,-1.267 -4.575,-2.526 -1.305,-1.26 -2.278,-2.775 -2.919,-4.547 -0.642,-1.771 -0.872,-3.61 -0.689,-5.517 m 61.557,26.608 5.667,1.534 c 2.509,0.775 4.551,2.043 6.125,3.805 1.574,1.761 2.253,3.925 2.036,6.489 -0.238,2.464 -1.218,4.191 -2.94,5.179 -1.723,0.989 -3.829,1.146 -6.318,0.473 l -6.066,-1.643 z m 0.695,-7.325 1.697,-18.43 -7.733,-2.093 -4.765,48.796 4.666,1.263 3.267,0.885 5.667,1.533 c 3.111,0.843 5.951,0.967 8.52,0.375 2.57,-0.593 4.693,-1.83 6.372,-3.713 1.678,-1.883 2.714,-4.346 3.108,-7.387 0.406,-3.086 0.037,-5.953 -1.106,-8.6 -1.144,-2.647 -2.89,-4.92 -5.238,-6.82 -2.348,-1.899 -5.122,-3.282 -8.322,-4.148 z m 26.088,43.982 7.2,1.949 5.142,-54.418 -7.067,-1.913 z m 17.791,-34.537 c -0.374,3.143 -0.077,6.144 0.889,9.006 0.967,2.861 2.483,5.323 4.548,7.384 2.066,2.062 4.499,3.472 7.299,4.23 2.489,0.673 4.668,0.596 6.538,-0.234 1.87,-0.829 3.432,-2.148 4.684,-3.955 l -0.642,6.337 7.067,1.913 2.967,-32.11 -6.866,-1.859 -0.523,5.368 c -0.852,-2.139 -2.07,-3.983 -3.654,-5.533 -1.584,-1.549 -3.532,-2.637 -5.843,-3.263 -2.8,-0.758 -5.373,-0.679 -7.72,0.236 -2.346,0.915 -4.295,2.475 -5.845,4.678 -1.551,2.204 -2.517,4.805 -2.899,7.802 m 7.333,1.985 c 0.203,-1.806 0.747,-3.375 1.633,-4.71 0.886,-1.334 2.016,-2.292 3.39,-2.875 1.374,-0.582 2.927,-0.638 4.661,-0.169 1.555,0.421 2.952,1.253 4.19,2.494 1.238,1.241 2.181,2.737 2.828,4.486 0.648,1.75 0.858,3.571 0.632,5.466 -0.235,1.749 -0.782,3.282 -1.639,4.601 -0.858,1.318 -1.932,2.291 -3.223,2.919 -1.291,0.629 -2.721,0.755 -4.288,0.378 -1.746,-0.425 -3.271,-1.267 -4.576,-2.526 -1.304,-1.26 -2.277,-2.775 -2.919,-4.547 -0.641,-1.772 -0.871,-3.611 -0.689,-5.517 M 320.411,53.1 c 0.202,-1.805 0.769,-3.369 1.699,-4.691 0.93,-1.323 2.127,-2.263 3.59,-2.821 1.462,-0.558 3.089,-0.619 4.879,-0.182 2.189,0.545 4.068,1.578 5.636,3.1 1.568,1.521 2.765,3.134 3.592,4.836 l 1.063,-8.155 c -1.045,-1.428 -2.361,-2.69 -3.948,-3.788 -1.587,-1.097 -3.425,-1.929 -5.514,-2.494 -3.066,-0.83 -5.918,-0.827 -8.553,0.01 -2.635,0.837 -4.825,2.319 -6.57,4.447 -1.745,2.127 -2.814,4.712 -3.208,7.753 -0.43,3.175 -0.092,6.2 1.014,9.076 1.106,2.875 2.792,5.37 5.057,7.486 2.266,2.116 4.954,3.595 8.065,4.437 2,0.541 3.906,0.724 5.719,0.546 1.813,-0.177 3.464,-0.636 4.953,-1.378 l 1.014,-8.24 c -1.177,1.351 -2.669,2.283 -4.477,2.795 -1.809,0.512 -3.713,0.498 -5.713,-0.044 -1.822,-0.493 -3.402,-1.398 -4.739,-2.714 -1.337,-1.316 -2.318,-2.845 -2.943,-4.589 -0.626,-1.743 -0.831,-3.54 -0.616,-5.39 m 31.897,12.212 15.4,4.169 c -0.441,1.979 -1.339,3.537 -2.696,4.672 -1.357,1.135 -3.146,1.402 -5.368,0.801 -2.223,-0.602 -3.975,-1.792 -5.259,-3.57 -1.283,-1.779 -1.976,-3.803 -2.077,-6.072 m 0.42,-5.253 c 0.581,-2.323 1.622,-4.14 3.121,-5.451 1.5,-1.311 3.456,-1.665 5.868,-1.059 2.012,0.497 3.655,1.43 4.93,2.801 1.275,1.371 2.287,2.873 3.037,4.507 l 6.704,-0.976 c -1.217,-2.905 -2.94,-5.482 -5.169,-7.732 -2.23,-2.249 -5.122,-3.854 -8.678,-4.817 -3.079,-0.785 -5.847,-0.736 -8.304,0.149 -2.458,0.885 -4.481,2.413 -6.07,4.582 -1.589,2.17 -2.597,4.747 -3.023,7.732 -0.068,0.602 -0.118,1.185 -0.152,1.748 -0.033,0.563 -0.033,1.136 10e-4,1.717 0.094,2.649 0.693,5.149 1.798,7.499 1.105,2.35 2.662,4.394 4.673,6.131 2.01,1.736 4.415,2.984 7.215,3.741 3.111,0.843 5.865,0.848 8.26,0.018 2.395,-0.83 4.348,-2.317 5.858,-4.46 1.51,-2.144 2.485,-4.73 2.923,-7.76 0.04,-0.323 0.071,-0.66 0.095,-1.011 0.024,-0.352 0.039,-0.717 0.046,-1.097 z m 31.57,5.755 c 1.475,-1.222 3.065,-2.247 4.767,-3.074 1.703,-0.827 3.31,-1.036 4.821,-0.627 1.155,0.313 2.113,0.87 2.874,1.673 0.761,0.802 1.076,1.71 0.944,2.724 -0.119,0.969 -0.544,1.701 -1.274,2.195 -0.73,0.494 -1.61,0.84 -2.642,1.038 -1.031,0.197 -2.068,0.37 -3.109,0.517 -1.535,0.205 -3.01,0.545 -4.426,1.021 -1.417,0.475 -2.621,1.222 -3.613,2.242 -0.991,1.019 -1.61,2.426 -1.857,4.219 -0.259,1.838 10e-4,3.518 0.782,5.041 0.78,1.523 1.916,2.833 3.408,3.928 1.493,1.096 3.172,1.896 5.039,2.402 2.355,0.637 4.616,0.701 6.782,0.19 2.165,-0.511 4.042,-1.41 5.631,-2.698 l -3.348,-5.342 c -1.121,0.794 -2.351,1.415 -3.688,1.864 -1.338,0.448 -2.652,0.498 -3.941,0.149 -1.066,-0.288 -2.006,-0.781 -2.819,-1.478 -0.813,-0.697 -1.16,-1.531 -1.041,-2.5 0.108,-0.925 0.595,-1.58 1.463,-1.965 0.867,-0.386 1.885,-0.623 3.054,-0.712 1.169,-0.089 2.252,-0.213 3.249,-0.373 2.273,-0.291 4.322,-0.988 6.148,-2.092 1.825,-1.104 2.941,-2.936 3.348,-5.498 0.475,-3.162 -0.18,-5.856 -1.963,-8.08 -1.783,-2.223 -4.274,-3.768 -7.474,-4.634 -2.845,-0.77 -5.533,-0.663 -8.065,0.321 -2.533,0.984 -4.738,2.391 -6.616,4.219 z m 41.739,17.881 11.052,-10.961 -3.946,-4.717 -13.84,13.855 10.336,19.971 5.011,-2.651 z m -11.534,-3.122 11.119,-10.943 -4.013,-4.735 -13.772,13.874 10.269,19.952 5.01,-2.651 z" />
        </g>
        <g
           transform="translate(286.0918,1151.2247)"
           id="g442">
          <path
             id="path444"
             style="fill:#e84b25;fill-opacity:1;fill-rule:nonzero;stroke:none"
             d="m 0,0 7.933,2.147 1.739,-18.848 22.6,6.118 -1.872,18.812 8,2.165 4.499,-48.868 -7.734,-2.093 -2.192,22.374 -22.6,-6.117 2.126,-22.393 -7.734,-2.093 z m 76.331,3.489 -14.93,-52.696 -7.8,-2.111 6.202,21.498 -14.739,24.846 7.8,2.111 9.893,-18.573 5.774,22.814 z m 37.55,-6.293 c 0.418,-3.13 0.132,-6.129 -0.857,-8.996 -0.988,-2.868 -2.504,-5.329 -4.548,-7.385 -2.043,-2.056 -4.487,-3.468 -7.331,-4.238 -2.356,-0.638 -4.457,-0.587 -6.303,0.154 -1.846,0.741 -3.399,1.942 -4.66,3.604 l 0.582,-5.853 -7.266,-1.967 -5.143,54.419 7.267,1.967 2.571,-27.21 c 0.888,2.006 2.114,3.733 3.678,5.182 1.563,1.448 3.434,2.468 5.612,3.057 2.8,0.758 5.373,0.679 7.72,-0.236 2.346,-0.915 4.281,-2.466 5.803,-4.654 1.522,-2.187 2.481,-4.802 2.875,-7.844 m -7.334,-1.985 c -0.202,1.806 -0.735,3.379 -1.599,4.719 -0.864,1.341 -1.994,2.299 -3.39,2.875 -1.396,0.576 -2.961,0.629 -4.694,0.16 -1.467,-0.397 -2.787,-1.16 -3.96,-2.288 -1.173,-1.129 -2.094,-2.487 -2.761,-4.075 -0.667,-1.587 -1.001,-3.264 -1,-5.028 l 0.167,-1.673 c 0.483,-2.492 1.563,-4.454 3.238,-5.885 1.675,-1.43 3.614,-1.895 5.816,-1.395 1.745,0.425 3.267,1.278 4.566,2.56 1.299,1.282 2.283,2.8 2.953,4.556 0.669,1.755 0.891,3.58 0.664,5.474 m 29.743,16.208 c -0.71,0.333 -1.382,0.568 -2.016,0.706 -0.634,0.139 -1.328,0.106 -2.084,-0.099 -1.79,-0.436 -2.998,-1.479 -3.625,-3.127 -0.627,-1.649 -0.906,-3.394 -0.837,-5.235 l 1.703,-18.715 -7.067,-1.913 -2.967,32.11 7.066,1.913 0.375,-3.762 c 0.673,1.565 1.527,2.905 2.561,4.02 1.034,1.115 2.239,1.858 3.617,2.231 1.111,0.301 2.157,0.358 3.138,0.17 0.981,-0.188 1.93,-0.563 2.845,-1.126 z m 6.088,22.97 c -0.349,1.289 -0.19,2.465 0.476,3.528 0.667,1.063 1.622,1.763 2.866,2.099 1.289,0.349 2.478,0.23 3.568,-0.358 1.089,-0.587 1.808,-1.526 2.157,-2.814 0.337,-1.245 0.183,-2.396 -0.461,-3.452 -0.644,-1.057 -1.611,-1.76 -2.9,-2.109 -1.244,-0.337 -2.422,-0.214 -3.533,0.367 -1.112,0.582 -1.836,1.495 -2.173,2.739 m 2.151,-12.44 7.133,1.931 3.101,-32.074 -7.066,-1.913 z m 16.35,-12.031 c -0.373,3.143 -0.077,6.144 0.89,9.006 0.966,2.861 2.482,5.323 4.548,7.384 2.065,2.062 4.498,3.472 7.298,4.23 2.356,0.637 4.456,0.586 6.303,-0.155 1.846,-0.74 3.399,-1.941 4.66,-3.604 l -2.757,28.161 7.267,1.967 5.142,-54.418 -7.134,-1.931 -0.481,4.95 c -0.888,-2.006 -2.1,-3.741 -3.635,-5.206 -1.535,-1.465 -3.414,-2.498 -5.636,-3.1 -2.8,-0.758 -5.374,-0.679 -7.72,0.236 -2.347,0.915 -4.295,2.475 -5.846,4.679 -1.55,2.203 -2.517,4.804 -2.899,7.801 m 7.334,1.985 c 0.202,-1.805 0.746,-3.375 1.632,-4.71 0.886,-1.334 2.016,-2.292 3.39,-2.874 1.374,-0.583 2.928,-0.639 4.661,-0.17 1.555,0.421 2.933,1.235 4.133,2.443 1.199,1.207 2.132,2.652 2.797,4.335 0.666,1.682 0.92,3.432 0.762,5.25 l -0.06,0.485 c -0.235,1.749 -0.781,3.282 -1.639,4.6 -0.858,1.318 -1.929,2.281 -3.214,2.887 -1.285,0.606 -2.711,0.721 -4.279,0.344 -1.745,-0.425 -3.27,-1.267 -4.575,-2.526 -1.305,-1.26 -2.278,-2.775 -2.919,-4.547 -0.642,-1.771 -0.872,-3.61 -0.689,-5.517 m 61.557,26.608 5.667,1.534 c 2.509,0.775 4.551,2.043 6.125,3.805 1.574,1.761 2.253,3.925 2.036,6.489 -0.238,2.464 -1.218,4.191 -2.94,5.179 -1.723,0.989 -3.829,1.146 -6.318,0.473 l -6.066,-1.643 z m 0.695,-7.325 1.697,-18.43 -7.733,-2.093 -4.765,48.796 4.666,1.263 3.267,0.885 5.667,1.533 c 3.111,0.843 5.951,0.967 8.52,0.375 2.57,-0.593 4.693,-1.83 6.372,-3.713 1.678,-1.883 2.714,-4.346 3.108,-7.387 0.406,-3.086 0.037,-5.953 -1.106,-8.6 -1.144,-2.647 -2.89,-4.92 -5.238,-6.82 -2.348,-1.899 -5.122,-3.282 -8.322,-4.148 z m 26.088,43.982 7.2,1.949 5.142,-54.418 -7.067,-1.913 z m 17.791,-34.537 c -0.374,3.143 -0.077,6.144 0.889,9.006 0.967,2.861 2.483,5.323 4.548,7.384 2.066,2.062 4.499,3.472 7.299,4.23 2.489,0.673 4.668,0.596 6.538,-0.234 1.87,-0.829 3.432,-2.148 4.684,-3.955 l -0.642,6.337 7.067,1.913 2.967,-32.11 -6.866,-1.859 -0.523,5.368 c -0.852,-2.139 -2.07,-3.983 -3.654,-5.533 -1.584,-1.549 -3.532,-2.637 -5.843,-3.263 -2.8,-0.758 -5.373,-0.679 -7.72,0.236 -2.346,0.915 -4.295,2.475 -5.845,4.678 -1.551,2.204 -2.517,4.805 -2.899,7.802 m 7.333,1.985 c 0.203,-1.806 0.747,-3.375 1.633,-4.71 0.886,-1.334 2.016,-2.292 3.39,-2.875 1.374,-0.582 2.927,-0.638 4.661,-0.169 1.555,0.421 2.952,1.253 4.19,2.494 1.238,1.241 2.181,2.737 2.828,4.486 0.648,1.75 0.858,3.571 0.632,5.466 -0.235,1.749 -0.782,3.282 -1.639,4.601 -0.858,1.318 -1.932,2.291 -3.223,2.919 -1.291,0.629 -2.721,0.755 -4.288,0.378 -1.746,-0.425 -3.271,-1.267 -4.576,-2.526 -1.304,-1.26 -2.277,-2.775 -2.919,-4.547 -0.641,-1.772 -0.871,-3.611 -0.689,-5.517 M 320.411,53.1 c 0.202,-1.805 0.768,-3.369 1.699,-4.691 0.93,-1.323 2.127,-2.263 3.59,-2.821 1.462,-0.558 3.089,-0.619 4.879,-0.182 2.189,0.545 4.068,1.578 5.636,3.1 1.568,1.521 2.765,3.134 3.592,4.836 l 1.063,-8.155 c -1.045,-1.428 -2.361,-2.69 -3.948,-3.788 -1.587,-1.097 -3.425,-1.929 -5.514,-2.494 -3.067,-0.83 -5.918,-0.827 -8.553,0.01 -2.635,0.837 -4.825,2.319 -6.57,4.447 -1.745,2.127 -2.814,4.712 -3.208,7.753 -0.43,3.175 -0.092,6.2 1.014,9.076 1.106,2.875 2.792,5.37 5.057,7.486 2.266,2.116 4.954,3.595 8.065,4.437 2,0.541 3.906,0.724 5.719,0.546 1.813,-0.177 3.464,-0.636 4.953,-1.378 l 1.014,-8.24 c -1.177,1.351 -2.669,2.283 -4.477,2.795 -1.809,0.512 -3.713,0.498 -5.713,-0.044 -1.822,-0.493 -3.402,-1.398 -4.739,-2.714 -1.337,-1.316 -2.318,-2.845 -2.943,-4.589 -0.626,-1.743 -0.831,-3.54 -0.616,-5.39 m 31.897,12.212 15.4,4.169 c -0.441,1.979 -1.339,3.537 -2.696,4.672 -1.357,1.135 -3.146,1.402 -5.368,0.801 -2.223,-0.602 -3.975,-1.792 -5.259,-3.57 -1.283,-1.779 -1.976,-3.803 -2.077,-6.072 m 0.42,-5.253 c 0.581,-2.323 1.622,-4.14 3.121,-5.451 1.5,-1.311 3.456,-1.665 5.868,-1.059 2.012,0.497 3.655,1.43 4.93,2.801 1.275,1.371 2.287,2.873 3.037,4.507 l 6.704,-0.976 c -1.217,-2.905 -2.94,-5.482 -5.169,-7.732 -2.23,-2.249 -5.122,-3.854 -8.678,-4.817 -3.079,-0.785 -5.847,-0.736 -8.304,0.149 -2.458,0.885 -4.481,2.413 -6.07,4.582 -1.589,2.17 -2.597,4.747 -3.023,7.732 -0.068,0.602 -0.118,1.185 -0.152,1.748 -0.033,0.563 -0.033,1.136 10e-4,1.717 0.094,2.649 0.693,5.149 1.798,7.499 1.105,2.35 2.662,4.394 4.673,6.131 2.01,1.736 4.415,2.984 7.215,3.741 3.111,0.843 5.865,0.848 8.26,0.018 2.395,-0.83 4.348,-2.317 5.858,-4.46 1.51,-2.144 2.485,-4.73 2.923,-7.76 0.04,-0.323 0.071,-0.66 0.095,-1.011 0.024,-0.352 0.039,-0.717 0.046,-1.097 z m 31.57,5.755 c 1.475,-1.222 3.065,-2.247 4.767,-3.074 1.703,-0.827 3.31,-1.036 4.821,-0.627 1.155,0.313 2.113,0.87 2.874,1.673 0.761,0.802 1.076,1.71 0.944,2.724 -0.119,0.969 -0.544,1.701 -1.274,2.195 -0.73,0.494 -1.61,0.84 -2.642,1.038 -1.031,0.197 -2.068,0.37 -3.109,0.517 -1.535,0.205 -3.01,0.545 -4.426,1.021 -1.417,0.475 -2.621,1.222 -3.613,2.242 -0.991,1.019 -1.61,2.426 -1.857,4.219 -0.259,1.838 10e-4,3.518 0.782,5.041 0.78,1.523 1.916,2.833 3.408,3.928 1.493,1.096 3.172,1.896 5.039,2.402 2.355,0.637 4.616,0.701 6.782,0.19 2.165,-0.511 4.042,-1.41 5.631,-2.698 l -3.348,-5.342 c -1.121,0.794 -2.351,1.415 -3.688,1.864 -1.338,0.448 -2.652,0.498 -3.941,0.149 -1.066,-0.288 -2.006,-0.781 -2.819,-1.478 -0.813,-0.697 -1.16,-1.531 -1.041,-2.5 0.108,-0.925 0.595,-1.58 1.463,-1.965 0.867,-0.386 1.885,-0.623 3.054,-0.712 1.169,-0.089 2.252,-0.213 3.249,-0.373 2.273,-0.291 4.322,-0.988 6.148,-2.092 1.825,-1.104 2.941,-2.936 3.348,-5.498 0.475,-3.162 -0.18,-5.856 -1.963,-8.08 -1.783,-2.223 -4.274,-3.768 -7.474,-4.634 -2.845,-0.77 -5.533,-0.663 -8.065,0.321 -2.533,0.984 -4.738,2.391 -6.616,4.219 z m 41.739,17.881 11.052,-10.961 -3.946,-4.717 -13.84,13.855 10.336,19.971 5.011,-2.651 z m -11.534,-3.122 11.119,-10.943 -4.013,-4.735 -13.772,13.874 10.269,19.952 5.01,-2.651 z" />
        </g>
      </g>
    </g>
  </g>
</svg>
