<?xml version="1.0" encoding="UTF-8" standalone="no"?>
<svg
   xmlns:dc="http://purl.org/dc/elements/1.1/"
   xmlns:cc="http://creativecommons.org/ns#"
   xmlns:rdf="http://www.w3.org/1999/02/22-rdf-syntax-ns#"
   xmlns:svg="http://www.w3.org/2000/svg"
   xmlns="http://www.w3.org/2000/svg"
   xmlns:sodipodi="http://sodipodi.sourceforge.net/DTD/sodipodi-0.dtd"
   xmlns:inkscape="http://www.inkscape.org/namespaces/inkscape"
   viewBox="0 0 701.2 178.1"
   version="1.1"
   id="svg38"
   sodipodi:docname="derive.svg"
   width="701.20001"
   height="178.10001"
   inkscape:version="0.92.4 (5da689c313, 2019-01-14)">
  <metadata
     id="metadata44">
    <rdf:RDF>
      <cc:Work
         rdf:about="">
        <dc:format>image/svg+xml</dc:format>
        <dc:type
           rdf:resource="http://purl.org/dc/dcmitype/StillImage" />
        <dc:title></dc:title>
      </cc:Work>
    </rdf:RDF>
  </metadata>
  <defs
     id="defs42" />
  <sodipodi:namedview
     pagecolor="#ffffff"
     bordercolor="#666666"
     borderopacity="1"
     objecttolerance="10"
     gridtolerance="10"
     guidetolerance="10"
     inkscape:pageopacity="0"
     inkscape:pageshadow="2"
     inkscape:window-width="2560"
     inkscape:window-height="1376"
     id="namedview40"
     showgrid="false"
     inkscape:pagecheckerboard="true"
     fit-margin-top="0"
     fit-margin-left="0"
     fit-margin-right="0"
     fit-margin-bottom="0"
     inkscape:zoom="1.9851682"
     inkscape:cx="393.54012"
     inkscape:cy="35.837529"
     inkscape:window-x="0"
     inkscape:window-y="27"
     inkscape:window-maximized="1"
     inkscape:current-layer="g36" />
  <g
     class="derive-logo"
     id="g36"
     transform="translate(0,-5.7999961)">
    <path
       d="M 89.6,59.6 V 54.8 C 89.6,46 88.7,40.6 86.8,38.4 84.9,36.2 81.2,35.1 75.6,35.1 h -7.3 c -3.1,0 -5.3,-0.6 -6.7,-1.7 -1.4,-1.1 -2.1,-2.9 -2.1,-5.3 0,-2.5 0.8,-4.4 2.4,-5.8 1.6,-1.4 4,-2.1 7.1,-2.1 0.3,0 1.7,0.2 4.2,0.6 2.5,0.4 4.8,0.6 6.9,0.6 5.5,0 11,-0.3 16.6,-1 1.2,-0.1 1.9,-0.2 2.2,-0.2 3.3,0 5.6,0.7 6.7,2 1.2,1.3 1.7,4.1 1.7,8.4 v 120.2 c 0,7.6 0.7,12.1 2.2,13.7 1.5,1.6 4.5,2.4 9,2.4 h 6.1 c 3.4,0 5.9,0.6 7.5,1.9 1.6,1.3 2.4,3.1 2.4,5.6 0,2.4 -0.8,4.2 -2.3,5.3 -1.5,1.1 -3.9,1.6 -7.2,1.6 -1,0 -3.3,-0.2 -6.8,-0.6 -3.5,-0.4 -6.5,-0.6 -9.1,-0.6 -1.5,0 -3.9,0.2 -7.2,0.6 -3.2,0.4 -5.8,0.6 -7.5,0.6 -2.2,0 -3.7,-0.5 -4.5,-1.6 -0.8,-1 -1.2,-3.5 -1.2,-7.4 v -2.1 c -4.4,4.3 -9.5,7.5 -15.4,9.8 -5.8,2.2 -12.2,3.4 -19.1,3.4 -16.7,0 -30,-5.4 -39.8,-16.1 C 4.9,156.6 0,142.2 0,124 0,104.5 4.7,89 14.2,77.5 23.7,66 36.4,60.3 52.5,60.3 c 8.3,0 15.4,1.5 21.4,4.6 6,3.1 11.2,8 15.8,14.6 z m 0,71.5 v -14.9 c 0,-12.4 -3,-22.2 -9,-29.2 -6,-7.1 -14.3,-10.6 -24.7,-10.6 -11.1,0 -20,4.1 -26.6,12.3 -6.6,8.2 -9.9,19.3 -9.9,33.4 0,14.7 3.3,26.1 9.9,34.1 6.6,8 15.9,12 28,12 11.1,0 19.3,-3 24.5,-8.9 5.2,-6 7.8,-15.4 7.8,-28.2 z m 73.6,-6.8 v 0.7 c 0,13.1 3.2,23.7 9.7,31.6 6.5,7.9 15.1,11.9 25.8,11.9 6.5,0 12,-1.2 16.5,-3.5 4.5,-2.3 8.5,-6.1 12.2,-11.3 1.4,-2.1 2.9,-5.3 4.4,-9.5 2.4,-6.4 5.4,-9.5 9.1,-9.5 2.3,0 4.3,0.8 5.8,2.4 1.6,1.6 2.3,3.6 2.3,6 0,2.8 -0.9,6.2 -2.8,10.4 -1.9,4.1 -4.3,8.3 -7.4,12.3 -4.8,6.2 -10.5,10.7 -17.2,13.7 -6.6,2.9 -14.6,4.4 -23.8,4.4 -16.4,0 -29.5,-5.5 -39.1,-16.6 -9.7,-11.1 -14.5,-26.1 -14.5,-45 0,-18.8 4.8,-33.7 14.5,-44.8 9.7,-11.1 22.7,-16.7 39.1,-16.7 15.8,0 28.5,4.7 37.9,14.2 9.5,9.5 14.2,22.1 14.2,38 0,4.6 -0.8,7.6 -2.3,9.2 -1.6,1.5 -4.6,2.3 -9.1,2.3 h -4.1 z m 1.1,-15.2 h 65.8 v -1.5 c 0,-9.4 -3,-17 -8.9,-22.8 C 215.3,79 207.5,76 198,76 c -9.4,0 -17.1,3 -23.1,8.9 -6,5.9 -9.5,14 -10.6,24.2 z M 186,35.6 204.5,16 c 3.7,-4 6.7,-6.7 8.9,-8.1 2.2,-1.4 4.4,-2.1 6.6,-2.1 2.4,0 4.4,0.9 6.1,2.6 1.7,1.7 2.5,3.9 2.5,6.5 0,3.7 -4.2,8.2 -12.5,13.4 l -0.2,0.1 -22.4,14.1 -1.3,0.8 c -5.5,3.4 -9.1,5.1 -10.8,5.1 -1.1,0 -2,-0.3 -2.8,-0.9 -0.8,-0.6 -1.2,-1.2 -1.2,-1.9 0,-0.7 1.3,-2.4 3.8,-5 1.9,-2.1 3.5,-3.7 4.8,-5 z m 121.8,114.5 c 0,7.1 0.6,11.6 1.8,13.7 1.2,2.1 3.7,3.1 7.5,3.1 0.3,0 1.5,-0.2 3.6,-0.6 2.1,-0.4 4.1,-0.6 5.9,-0.6 3.6,0 6.3,0.6 8,1.9 1.7,1.3 2.5,3.3 2.5,6 0,2.3 -0.8,4.1 -2.5,5.4 -1.7,1.3 -4,1.9 -7,1.9 -0.5,0 -4.3,-0.2 -11.2,-0.6 -6.9,-0.4 -13.6,-0.6 -19.9,-0.6 -5.1,0 -10.5,0.2 -16.3,0.6 -5.8,0.4 -8.9,0.6 -9.4,0.6 -3.3,0 -5.5,-0.5 -6.9,-1.6 -1.3,-1.1 -2,-2.9 -2,-5.5 0,-2.7 0.8,-4.8 2.3,-6.1 1.5,-1.4 3.9,-2 7.2,-2 0.8,0 1.9,0.2 3.2,0.6 1.3,0.4 2.4,0.6 3.1,0.6 4.7,0 7.8,-0.9 9.2,-2.9 1.4,-1.9 2.1,-6.6 2.1,-13.9 v -49.3 c 0,-10.4 -0.8,-16.7 -2.3,-19.1 -1.5,-2.4 -4.6,-3.6 -9,-3.6 h -7.3 c -3.1,0 -5.3,-0.5 -6.6,-1.5 -1.3,-1 -2,-2.6 -2,-4.9 0,-2.6 0.8,-4.6 2.4,-6 1.6,-1.4 3.9,-2.1 6.9,-2.1 0.4,0 1.7,0.2 3.9,0.6 2.2,0.4 4.3,0.6 6.3,0.6 4.8,0 9.6,-0.3 14.5,-1 1,-0.1 1.6,-0.2 1.9,-0.2 3,0 5.1,0.7 6.2,2.1 1.1,1.4 1.7,4.2 1.7,8.5 l -0.2,6.4 c 3.2,-6.4 7.4,-11.2 12.6,-14.5 5.2,-3.3 11.3,-4.9 18.3,-4.9 9.7,0 17.7,3 23.9,9.1 6.3,6.1 9.4,13.9 9.4,23.5 0,6.8 -1.7,12.2 -5,16 -3.3,3.9 -7.8,5.8 -13.6,5.8 -4.1,0 -7.3,-1 -9.5,-3.1 -2.2,-2.1 -3.4,-5 -3.4,-8.7 0,-2.2 0.6,-4.1 1.8,-5.5 1.2,-1.4 3,-2.5 5.4,-3.3 0.5,-0.2 1,-0.3 1.8,-0.5 2.9,-0.6 4.3,-2.4 4.3,-5.4 0,-3.2 -1.8,-6.3 -5.4,-9.2 -3.6,-2.9 -7.6,-4.3 -12.1,-4.3 -9.5,0 -16.3,3.9 -20.3,11.8 -4,7.9 -6,21.8 -6,41.7 z m 100.3,-0.3 v -47.1 c 0,-10.8 -0.8,-17.6 -2.3,-20.3 -1.5,-2.7 -4.7,-4 -9.5,-4 h -8.7 c -2.9,0 -4.9,-0.5 -6,-1.6 -1.1,-1 -1.6,-2.9 -1.6,-5.4 0,-2.2 0.8,-4 2.4,-5.6 1.6,-1.5 3.5,-2.3 5.9,-2.3 0.5,0 2.2,0.2 5.3,0.6 3.1,0.4 5.9,0.6 8.6,0.6 4.4,0 9,-0.3 13.9,-1 1.2,-0.1 1.9,-0.2 2.1,-0.2 3.3,0 5.4,0.6 6.5,1.8 1.1,1.2 1.6,4.1 1.6,8.5 v 75.9 c 0,7.3 0.7,12 2.1,14 1.4,2 4.4,3 9,3 1,0 2.2,-0.2 3.5,-0.6 1.3,-0.4 2.2,-0.6 2.8,-0.6 3.3,0 5.8,0.7 7.4,2 1.7,1.3 2.5,3.4 2.5,6 0,2.6 -0.7,4.5 -2.1,5.6 -1.4,1.1 -3.8,1.7 -7.1,1.7 -0.9,0 -4.2,-0.2 -9.8,-0.6 -5.6,-0.4 -10.6,-0.6 -15.2,-0.6 -8.6,0 -17.3,0.3 -26.1,1 -1.9,0.2 -3.1,0.2 -3.6,0.2 -3.4,0 -5.8,-0.6 -7.3,-1.7 -1.5,-1.1 -2.2,-3 -2.2,-5.5 0,-2.7 0.8,-4.7 2.5,-6 1.7,-1.3 4.2,-2 7.5,-2 0.8,0 1.9,0.2 3.4,0.6 1.5,0.4 2.6,0.6 3.3,0.6 4.7,0 7.8,-1 9.3,-2.9 1.2,-1.9 1.9,-6.6 1.9,-14.1 z m -7,-108.4 c 0,-3.6 1.2,-6.7 3.7,-9.2 2.5,-2.5 5.5,-3.7 9.2,-3.7 3.5,0 6.4,1.2 8.8,3.7 2.4,2.5 3.5,5.6 3.5,9.2 0,3.5 -1.2,6.5 -3.6,9 -2.4,2.5 -5.3,3.7 -8.7,3.7 -3.6,0 -6.7,-1.2 -9.2,-3.7 -2.5,-2.4 -3.7,-5.4 -3.7,-9 z M 533,174.7 c -1.1,2.8 -2.7,4.9 -4.7,6.2 -2.1,1.4 -4.6,2.1 -7.7,2.1 -3.2,0 -5.7,-0.6 -7.6,-1.9 -1.9,-1.3 -3.4,-3.4 -4.5,-6.4 L 475.6,91.4 c -0.2,-0.4 -0.3,-1 -0.6,-1.7 -2.9,-7.7 -7,-11.6 -12.2,-11.6 -0.2,0 -1.3,0.2 -3.1,0.6 -1.9,0.4 -3.7,0.6 -5.5,0.6 -3.1,0 -5.5,-0.6 -7.3,-1.8 -1.8,-1.2 -2.7,-2.9 -2.7,-5.1 0,-2.3 1,-4.1 2.9,-5.5 1.9,-1.3 4.5,-2 7.8,-2 1.5,0 5.7,0.2 12.3,0.6 6.7,0.4 12.6,0.6 17.7,0.6 4,0 8.4,-0.2 13.1,-0.6 4.7,-0.4 7.5,-0.6 8.3,-0.6 2.4,0 4.3,0.6 5.8,1.9 1.4,1.3 2.1,3 2.1,5.2 0,2.5 -0.7,4.4 -2,5.6 -1.3,1.2 -3.4,1.8 -6.1,1.8 -0.7,0 -2,-0.2 -3.9,-0.6 -1.9,-0.4 -3.4,-0.6 -4.6,-0.6 -1.3,0 -2.5,0.6 -3.5,1.8 -1,1.2 -1.5,2.6 -1.5,4.2 0,0.6 0.1,1.2 0.2,2 0.2,0.8 0.4,1.5 0.7,2.3 l 27.1,74.3 27,-74.3 c 0.3,-0.8 0.5,-1.6 0.7,-2.3 0.2,-0.8 0.2,-1.4 0.2,-2 0,-1.6 -0.5,-3 -1.5,-4.2 -1,-1.2 -2.1,-1.8 -3.3,-1.8 -1.2,0 -2.7,0.2 -4.6,0.6 -1.9,0.4 -3.3,0.6 -4,0.6 -2.7,0 -4.7,-0.6 -6,-1.8 -1.3,-1.2 -2,-3.1 -2,-5.6 0,-2.2 0.7,-3.9 2.1,-5.2 1.4,-1.3 3.3,-1.9 5.7,-1.9 0.9,0 3.6,0.2 8.3,0.6 4.7,0.4 9,0.6 13.1,0.6 5.1,0 11,-0.2 17.7,-0.6 6.7,-0.4 10.8,-0.6 12.3,-0.6 3.3,0 6,0.7 7.9,2 1.9,1.3 2.9,3.2 2.9,5.5 0,2.2 -0.9,3.9 -2.7,5.1 -1.8,1.2 -4.2,1.8 -7.3,1.8 -1.7,0 -3.5,-0.2 -5.4,-0.6 -1.9,-0.4 -3,-0.6 -3.2,-0.6 -5.3,0 -9.5,4.2 -12.7,12.7 l -0.1,0.5 z m 81.4,-50.4 v 0.7 c 0,13.1 3.2,23.7 9.7,31.6 6.5,7.9 15.1,11.9 25.8,11.9 6.5,0 12,-1.2 16.5,-3.5 4.5,-2.3 8.5,-6.1 12.2,-11.3 1.4,-2.1 2.9,-5.3 4.4,-9.5 2.4,-6.4 5.4,-9.5 9.1,-9.5 2.3,0 4.3,0.8 5.8,2.4 1.6,1.6 2.3,3.6 2.3,6 0,2.8 -0.9,6.2 -2.8,10.4 -1.9,4.1 -4.3,8.3 -7.4,12.3 -4.8,6.2 -10.5,10.7 -17.2,13.7 -6.6,2.9 -14.6,4.4 -23.8,4.4 -16.4,0 -29.5,-5.5 -39.1,-16.6 -9.7,-11.1 -14.5,-26.1 -14.5,-45 0,-18.8 4.8,-33.7 14.5,-44.8 9.7,-11.1 22.7,-16.7 39.1,-16.7 15.8,0 28.5,4.7 37.9,14.2 9.5,9.5 14.2,22.1 14.2,38 0,4.6 -0.8,7.6 -2.3,9.2 -1.6,1.5 -4.6,2.3 -9.1,2.3 h -4.1 z m 1.2,-15.2 h 65.8 v -1.5 c 0,-9.4 -3,-17 -8.9,-22.8 C 666.6,79 658.8,76 649.3,76 c -9.4,0 -17.1,3 -23.1,8.9 -6.1,5.9 -9.6,14 -10.6,24.2 z"
       id="path2"
       style="fill:#ffffff"
       inkscape:connector-curvature="0" />
  </g>
</svg>
