<svg width="268.84mm" height="117.22mm" version="1.1" viewBox="0 0 268.84 117.22" xmlns="http://www.w3.org/2000/svg">
    <g transform="matrix(.94269 0 0 -.94269 -200.73 1228.8)">
        <g transform="translate(229.44,1208)">
            <path d="m0 0 22.951 5.089-0.327 8.146-22.951-5.089-0.681 13.819 24.595 5.454-0.405 8.129-33.29-7.382 2.524-56.968 33.29 7.382-0.327 8.146-24.517-5.437zm43.106 6.107c0.115 5.039 4.268 8.918 8.811 9.925 4.308 0.956 6.77-0.882 7.072-7.06l1.025-22.784 8.382 1.859-1.043 23.601c-0.456 11.322-5.963 14.292-14.188 12.468-3.603-0.799-7.851-4.617-10.473-9.472l-0.224 5.457-8.381-1.859 1.645-37.439 8.381 1.859zm59.669 13.314-19.661-4.36c0.917 5.134 5.609 9.544 10.387 10.603 5.248 1.164 8.18-1.309 9.274-6.243m-19.611-11.253 28.59 6.34c0.201 2.428 0.011 4.769-0.528 7.197-1.98 8.93-9.262 13.232-18.818 11.113-12.376-2.744-20.362-14.541-17.357-28.092 2.119-9.556 8.966-14.859 19.462-12.532 9.321 2.067 14.38 7.051 17.707 13.542l-7.405 2.632c-2.264-4.612-6.939-7.621-11.404-8.611-5.248-1.163-8.754 1.675-10.039 7.472zm55.549 25.221 3.128 7.761c-1.914 1.219-5.021 1.517-7.606 0.943-2.35-0.521-5.092-3.348-7.008-7.307l-0.164 4.073-8.851-1.962 1.645-37.439 8.851 1.963-1.077 23.758c-6e-3 4.847 1.675 8.014 5.748 8.917 2.036 0.452 3.568 0.216 5.334-0.707m15.45-11.12c-2.032 9.164 3.263 17.16 10.469 18.757 4.778 1.06 9.825-0.944 11.232-7.288 2.188-9.87-4.124-16.612-10.155-17.949-5.797-1.285-10.243 0.605-11.546 6.48m-7.545-19.342c2.241-10.105 8.426-15.39 19.784-12.871 10.574 2.344 19.507 10.982 18.921 24.741l-1.628 36.62-8.224-1.823 0.301-6.919c-2.991 4.596-7.62 6.939-13.025 5.741-11.436-2.536-20.274-13.454-16.956-28.415 2.171-9.791 9.27-14.38 18.669-12.296 5.327 1.181 9.828 4.973 12.423 10.315l0.216-5.047c0.353-8.633-6.403-13.747-11.886-14.963-7.05-1.563-9.319 2.371-10.292 6.758zm45.073 65.056c0.625-2.82 3.478-4.57 6.455-3.91 2.976 0.66 4.823 3.452 4.197 6.272-0.625 2.82-3.479 4.571-6.455 3.91-2.977-0.66-4.823-3.452-4.197-6.272m1.794-14.395 1.646-37.438 8.459 1.876-1.645 37.438zm44.329-4.223-19.661-4.36c0.916 5.134 5.608 9.544 10.387 10.604 5.248 1.163 8.179-1.309 9.274-6.244m-19.612-11.252 28.59 6.34c0.202 2.427 0.011 4.769-0.527 7.197-1.98 8.929-9.262 13.232-18.819 11.113-12.376-2.745-20.361-14.542-17.356-28.093 2.119-9.556 8.965-14.859 19.461-12.531 9.322 2.067 14.38 7.051 17.707 13.541l-7.404 2.632c-2.265-4.611-6.94-7.62-11.404-8.61-5.249-1.164-8.754 1.674-10.04 7.471zm37.565-5.23c0.625-2.82 3.479-4.571 6.455-3.911 2.977 0.66 4.823 3.453 4.198 6.273s-3.479 4.57-6.456 3.91c-2.976-0.66-4.822-3.452-4.197-6.272m-1.594 53.886 2.966-40.433 6.267 1.39 0.95 41.301z" fill="#ff0"/>
        </g>
    </g>
    <g transform="matrix(.94269 0 0 -.94269 -203.49 1224)">
        <g transform="translate(229.44,1208)">
            <path d="m0 0 22.951 5.089-0.327 8.146-22.951-5.089-0.681 13.819 24.595 5.454-0.405 8.129-33.29-7.382 2.524-56.968 33.29 7.382-0.327 8.146-24.517-5.437zm43.106 6.107c0.115 5.039 4.268 8.918 8.811 9.925 4.308 0.956 6.77-0.882 7.072-7.06l1.025-22.784 8.382 1.859-1.043 23.601c-0.456 11.322-5.963 14.292-14.188 12.468-3.603-0.799-7.851-4.617-10.473-9.472l-0.224 5.457-8.381-1.859 1.645-37.439 8.381 1.859zm59.669 13.314-19.661-4.36c0.917 5.134 5.609 9.544 10.387 10.603 5.248 1.164 8.18-1.309 9.274-6.243m-19.611-11.253 28.59 6.34c0.201 2.428 0.011 4.769-0.528 7.197-1.98 8.93-9.262 13.232-18.818 11.113-12.376-2.744-20.362-14.541-17.357-28.092 2.119-9.556 8.966-14.859 19.462-12.532 9.321 2.067 14.38 7.051 17.707 13.542l-7.405 2.632c-2.264-4.612-6.939-7.621-11.404-8.611-5.248-1.163-8.754 1.675-10.039 7.472zm55.549 25.221 3.128 7.761c-1.914 1.219-5.021 1.517-7.606 0.943-2.35-0.521-5.092-3.348-7.008-7.307l-0.164 4.073-8.851-1.962 1.645-37.439 8.851 1.963-1.077 23.758c-6e-3 4.847 1.675 8.014 5.748 8.917 2.036 0.452 3.568 0.216 5.334-0.707m15.45-11.12c-2.032 9.164 3.263 17.16 10.469 18.757 4.778 1.06 9.825-0.944 11.232-7.288 2.188-9.87-4.124-16.612-10.155-17.949-5.797-1.285-10.243 0.605-11.546 6.48m-7.545-19.342c2.241-10.105 8.426-15.39 19.784-12.871 10.574 2.344 19.507 10.982 18.921 24.741l-1.628 36.62-8.224-1.823 0.301-6.919c-2.991 4.596-7.62 6.939-13.025 5.741-11.436-2.536-20.274-13.454-16.956-28.415 2.171-9.791 9.27-14.38 18.669-12.296 5.327 1.181 9.828 4.973 12.423 10.315l0.216-5.047c0.353-8.633-6.403-13.747-11.886-14.963-7.05-1.563-9.319 2.371-10.292 6.758zm45.073 65.056c0.625-2.82 3.478-4.57 6.455-3.91 2.976 0.66 4.823 3.452 4.197 6.272-0.625 2.82-3.479 4.571-6.455 3.91-2.977-0.66-4.823-3.452-4.197-6.272m1.794-14.395 1.646-37.438 8.459 1.876-1.645 37.438zm44.329-4.223-19.661-4.36c0.916 5.134 5.608 9.544 10.387 10.604 5.248 1.163 8.179-1.309 9.274-6.244m-19.612-11.252 28.59 6.34c0.202 2.427 0.011 4.769-0.527 7.197-1.98 8.929-9.262 13.232-18.819 11.113-12.376-2.745-20.361-14.542-17.356-28.093 2.119-9.556 8.965-14.859 19.461-12.531 9.322 2.067 14.38 7.051 17.707 13.541l-7.404 2.632c-2.265-4.611-6.94-7.62-11.404-8.61-5.249-1.164-8.754 1.674-10.04 7.471zm37.565-5.23c0.625-2.82 3.479-4.571 6.455-3.911 2.977 0.66 4.823 3.453 4.198 6.273s-3.479 4.57-6.456 3.91c-2.976-0.66-4.822-3.452-4.197-6.272m-1.594 53.886 2.966-40.433 6.267 1.39 0.95 41.301z" fill="#ae358b"/>
        </g>
    </g>
</svg>
