<svg width="268.84mm" height="117.22mm" version="1.1" viewBox="0 0 268.84 117.22" xmlns="http://www.w3.org/2000/svg">
    <path transform="matrix(.54682 0 0 -.54682 3.9037 67.576)" d="m0 0-0.451-55.74 8.741 1.464 0.451 55.739zm19.523-3.094-0.094-12.739-5.647-0.945-0.085-7.568 5.647 0.945-0.224-29.063 8.431 1.412 0.225 29.062 5.646 0.945 0.085 7.569-5.646-0.945 0.094 12.739zm24.954 10.539-4.757-19.086 5.415 0.907 8.238 19.668zm10.924-41.033-6.624-4.13c1.048-5.789 7.189-10.168 16.084-8.679 8.2 1.372 14.166 6.108 12.729 14.695-1.127 6.729-6.35 8.479-10.889 9.469-4.462 1.002-7.402 1.941-7.713 3.798-0.389 2.32 2.124 3.934 4.6 4.348 2.862 0.479 5.467-0.834 6.99-2.805l6.508 4.349c-1.356 3.829-7.869 6.635-14.29 5.56-6.807-1.139-13.186-6.262-11.994-13.379 1.061-6.343 6.671-8.028 11.159-8.708 3.843-0.629 6.835-1.878 7.275-4.508 0.492-2.939-1.737-4.823-5.45-5.445-3.636-0.608-7.505 1.129-8.385 5.435m59.018 11.788c-1.515 9.05 4.063 16.584 11.179 17.775 4.719 0.79 9.543-1.424 10.591-7.69 0.143-0.851 0.208-1.714 0.26-2.501l0.027-1.109c-0.304-7.685-5.936-12.524-11.118-13.391-5.724-0.958-9.968 1.115-10.939 6.916m22.198 25.584-0.06-6.769c-2.685 4.64-7.084 7.164-12.421 6.27-11.293-1.89-20.479-12.096-18.006-26.87 1.618-9.669 8.313-14.513 17.596-12.959 5.183 0.868 9.848 4.352 12.655 9.435l-0.074-5.738 8.277 1.385 0.31 36.631zm26.062-25.537c2.685-4.64 7.071-7.087 12.408-6.193 11.294 1.89 20.48 12.096 18.007 26.87-1.619 9.669-8.314 14.512-17.597 12.959-5.182-0.868-9.77-4.34-12.577-9.422l0.261 31.216-8.354-1.398-0.575-62.122 8.354 1.398zm22.125 18.892c1.515-9.05-4.063-16.584-11.179-17.776-4.719-0.789-9.542 1.425-10.591 7.69-0.13 0.774-0.246 1.47-0.285 2.179l0.024 1.754c0.498 7.479 5.987 12.214 11.092 13.069 5.724 0.958 9.968-1.115 10.939-6.916m32.153 21.684c-10.829-1.813-21.111-12.122-18.78-26.046 1.709-10.21 11.099-15 19.917-13.524 12.299 2.059 21.059 12.908 18.858 26.058-1.58 9.438-8.856 15.376-19.995 13.512m-10.568-24.274c-1.437 8.587 4.141 15.643 11.257 16.835 5.802 0.971 10.162-2.275 11.107-7.922 1.437-8.586-4.231-15.579-11.347-16.77-5.724-0.958-10.072 2.211-11.017 7.857m61.587 8.322c-0.371-4.913-4.623-8.488-9.11-9.239-4.254-0.712-6.563 1.208-6.542 7.255l0.165 22.293-8.277-1.385-0.19-23.093c-0.134-11.076 5.09-14.257 13.212-12.897 3.559 0.595 7.901 4.105 10.709 8.711l-0.061-5.339 8.277 1.386 0.309 36.631-8.276-1.385zm19.106 38.823-0.094-12.739-5.647-0.945-0.085-7.569 5.647 0.945-0.225-29.062 8.432 1.411 0.224 29.063 5.647 0.945 0.085 7.569-5.647-0.946 0.094 12.739zm42.929 7.186-0.094-12.739-5.647-0.945-0.085-7.569 5.647 0.945-0.224-29.062 8.431 1.411 0.225 29.063 5.646 0.945 0.085 7.569-5.647-0.946 0.095 12.74zm17.609 4.538c0.466-2.785 3.162-4.639 6.101-4.147 2.94 0.492 4.885 3.123 4.419 5.908s-3.162 4.639-6.102 4.148c-2.939-0.493-4.884-3.124-4.418-5.909m1.015-14.144-0.309-36.631 8.354 1.399 0.31 36.631zm25.897-9.342c0.333 4.191 3.231 8.254 8.336 9.109 4.255 0.712 5.997-2.098 5.924-7.358l-0.165-22.294 8.122 1.36 0.229 22.861c0.319 4.268 3.14 8.318 8.323 9.186 4.254 0.712 5.997-2.098 5.923-7.358l-0.165-22.294 8.122 1.36 0.215 23.892c0.084 9.477-4.341 13.587-12.463 12.227-4.642-0.777-8.804-4.415-11.276-9.123-1.834 4.305-5.665 6.288-11.157 5.368-3.79-0.634-7.501-3.641-9.91-7.782l0.036 4.539-8.122-1.359-0.309-36.632 8.122 1.36zm79.816 13.44-19.416-3.25c1.157 4.965 5.963 9.03 10.682 9.82 5.183 0.867 7.918-1.697 8.734-6.57m-19.721-9.981 28.234 4.726c0.321 2.36 0.255 4.655-0.147 7.053-1.476 8.818-8.364 13.391-17.801 11.811-12.222-2.046-20.621-13.153-18.381-26.535 1.58-9.437 7.992-14.964 18.357-13.229 9.205 1.541 14.398 6.147 17.978 12.313l-7.093 2.948c-2.447-4.386-7.164-7.084-11.573-7.822-5.183-0.868-8.46 2.083-9.418 7.807zm36.403-7.027c0.466-2.785 3.162-4.64 6.102-4.148 2.939 0.492 4.884 3.124 4.418 5.909s-3.162 4.639-6.101 4.147c-2.94-0.492-4.885-3.123-4.419-5.908m1.201 52.684 0.827-39.621 6.188 1.036 3.041 40.269z" fill="#ffff00"/>
    <path transform="matrix(.54682 0 0 -.54682 1.6335 64.365)" d="m0 0-0.451-55.74 8.741 1.464 0.451 55.739zm19.523-3.094-0.094-12.739-5.647-0.945-0.085-7.568 5.647 0.945-0.224-29.063 8.431 1.412 0.225 29.062 5.646 0.945 0.085 7.569-5.646-0.945 0.094 12.739zm24.954 10.539-4.757-19.086 5.415 0.907 8.238 19.668zm10.924-41.033-6.624-4.13c1.048-5.789 7.189-10.168 16.084-8.679 8.2 1.372 14.166 6.108 12.729 14.695-1.127 6.729-6.35 8.479-10.889 9.469-4.462 1.002-7.402 1.941-7.713 3.798-0.389 2.32 2.124 3.934 4.6 4.348 2.862 0.479 5.467-0.834 6.99-2.805l6.508 4.349c-1.356 3.829-7.869 6.635-14.29 5.56-6.807-1.139-13.186-6.262-11.994-13.379 1.061-6.343 6.671-8.028 11.159-8.708 3.843-0.629 6.835-1.878 7.275-4.508 0.492-2.939-1.737-4.823-5.45-5.445-3.636-0.608-7.505 1.129-8.385 5.435m59.018 11.788c-1.515 9.05 4.063 16.584 11.179 17.775 4.719 0.79 9.543-1.424 10.591-7.69 0.143-0.851 0.208-1.714 0.26-2.501l0.027-1.109c-0.304-7.685-5.936-12.524-11.118-13.391-5.724-0.958-9.968 1.115-10.939 6.916m22.198 25.584-0.06-6.769c-2.685 4.64-7.084 7.164-12.421 6.27-11.293-1.89-20.479-12.096-18.006-26.87 1.618-9.669 8.313-14.513 17.596-12.959 5.183 0.868 9.848 4.352 12.655 9.435l-0.074-5.738 8.277 1.385 0.31 36.631zm26.062-25.537c2.685-4.64 7.071-7.087 12.408-6.193 11.294 1.89 20.48 12.096 18.007 26.87-1.619 9.669-8.314 14.512-17.597 12.959-5.182-0.868-9.77-4.34-12.577-9.422l0.261 31.216-8.354-1.398-0.575-62.122 8.354 1.398zm22.125 18.892c1.515-9.05-4.063-16.584-11.179-17.776-4.719-0.789-9.542 1.425-10.591 7.69-0.13 0.774-0.246 1.47-0.285 2.179l0.024 1.754c0.498 7.479 5.987 12.214 11.092 13.069 5.724 0.958 9.968-1.115 10.939-6.916m32.153 21.684c-10.829-1.813-21.111-12.122-18.78-26.046 1.709-10.21 11.099-15 19.917-13.524 12.299 2.059 21.059 12.908 18.858 26.058-1.58 9.438-8.856 15.376-19.995 13.512m-10.568-24.274c-1.437 8.587 4.141 15.643 11.257 16.835 5.802 0.971 10.162-2.275 11.107-7.922 1.437-8.586-4.231-15.579-11.347-16.77-5.724-0.958-10.072 2.211-11.017 7.857m61.587 8.322c-0.371-4.913-4.623-8.488-9.11-9.239-4.254-0.712-6.563 1.208-6.542 7.255l0.165 22.293-8.277-1.385-0.19-23.093c-0.134-11.076 5.09-14.257 13.212-12.897 3.559 0.595 7.901 4.105 10.709 8.711l-0.061-5.339 8.277 1.386 0.309 36.631-8.276-1.385zm19.106 38.823-0.094-12.739-5.647-0.945-0.085-7.569 5.647 0.945-0.225-29.062 8.432 1.411 0.224 29.063 5.647 0.945 0.085 7.569-5.647-0.946 0.094 12.739zm42.929 7.186-0.094-12.739-5.647-0.945-0.085-7.569 5.647 0.945-0.224-29.062 8.431 1.411 0.225 29.063 5.646 0.945 0.085 7.569-5.647-0.946 0.095 12.74zm17.609 4.538c0.466-2.785 3.162-4.639 6.101-4.147 2.94 0.492 4.885 3.123 4.419 5.908s-3.162 4.639-6.102 4.148c-2.939-0.493-4.884-3.124-4.418-5.909m1.015-14.144-0.309-36.631 8.354 1.399 0.31 36.631zm25.897-9.342c0.333 4.191 3.231 8.254 8.336 9.109 4.255 0.712 5.997-2.098 5.924-7.358l-0.165-22.294 8.122 1.36 0.229 22.861c0.319 4.268 3.14 8.318 8.323 9.186 4.254 0.712 5.997-2.098 5.923-7.358l-0.165-22.294 8.122 1.36 0.215 23.892c0.084 9.477-4.341 13.587-12.463 12.227-4.642-0.777-8.804-4.415-11.276-9.123-1.834 4.305-5.665 6.288-11.157 5.368-3.79-0.634-7.501-3.641-9.91-7.782l0.036 4.539-8.122-1.359-0.309-36.632 8.122 1.36zm79.816 13.44-19.416-3.25c1.157 4.965 5.963 9.03 10.682 9.82 5.183 0.867 7.918-1.697 8.734-6.57m-19.721-9.981 28.234 4.726c0.321 2.36 0.255 4.655-0.147 7.053-1.476 8.818-8.364 13.391-17.801 11.811-12.222-2.046-20.621-13.153-18.381-26.535 1.58-9.437 7.992-14.964 18.357-13.229 9.205 1.541 14.398 6.147 17.978 12.313l-7.093 2.948c-2.447-4.386-7.164-7.084-11.573-7.822-5.183-0.868-8.46 2.083-9.418 7.807zm36.403-7.027c0.466-2.785 3.162-4.64 6.102-4.148 2.939 0.492 4.884 3.124 4.418 5.909s-3.162 4.639-6.101 4.147c-2.94-0.492-4.885-3.123-4.419-5.908m1.201 52.684 0.827-39.621 6.188 1.036 3.041 40.269z" fill="#fff"/>
</svg>
