<svg width="268.84mm" height="80mm" version="1.1" viewBox="0 0 268.84 80" xmlns="http://www.w3.org/2000/svg">
    <defs>
        <clipPath id="clipPath45">
            <path transform="translate(-394.6 -1288.7)" d="m0 0h1280v1900h-1280z"/>
        </clipPath>
        <clipPath id="clipPath47">
            <path transform="translate(-394.6 -1288.7)" d="m0 0h1280v1900h-1280z"/>
        </clipPath>
        <clipPath id="clipPath49">
            <path transform="translate(-391.48 -1291.8)" d="m0 0h1280v1900h-1280z"/>
        </clipPath>
        <clipPath id="clipPath51">
            <path transform="translate(-391.48 -1291.8)" d="m0 0h1280v1900h-1280z"/>
        </clipPath>
    </defs>
    <path transform="matrix(.54581 0 0 -.54663 2.6502 47.767)" d="m0 0-0.454-56.208 8.814 1.475 0.454 56.208zm19.687-3.12-0.095-12.846-5.694-0.953-0.085-7.632 5.694 0.953-0.226-29.307 8.502 1.423 0.226 29.307 5.694 0.953 0.086 7.633-5.694-0.953 0.095 12.846zm25.164 10.628-4.797-19.247 5.46 0.914 8.308 19.834zm11.016-41.378-6.68-4.166c1.057-5.837 7.249-10.253 16.22-8.752 8.268 1.384 14.285 6.161 12.835 14.819-1.136 6.786-6.403 8.551-10.98 9.549-4.5 1.011-7.465 1.958-7.778 3.83-0.392 2.34 2.142 3.967 4.639 4.385 2.886 0.483 5.513-0.841 7.049-2.83l6.563 4.387c-1.368 3.86-7.936 6.69-14.411 5.606-6.864-1.149-13.296-6.315-12.095-13.491 1.071-6.397 6.728-8.096 11.253-8.782 3.875-0.634 6.892-1.893 7.336-4.545 0.497-2.964-1.751-4.864-5.496-5.491-3.666-0.614-7.568 1.139-8.455 5.481m59.514 11.887c-1.527 9.126 4.097 16.723 11.273 17.925 4.759 0.796 9.623-1.437 10.681-7.755 0.143-0.858 0.209-1.729 0.262-2.522l0.026-1.119c-0.306-7.749-5.985-12.629-11.211-13.504-5.772-0.966-10.051 1.124-11.031 6.975m22.385 25.799-0.06-6.826c-2.708 4.678-7.144 7.224-12.526 6.323-11.388-1.907-20.652-12.198-18.158-27.097 1.632-9.75 8.384-14.634 17.744-13.067 5.227 0.875 9.931 4.389 12.762 9.513l-0.074-5.786 8.346 1.398 0.312 36.939zm26.281-25.752c2.708-4.679 7.13-7.146 12.513-6.245 11.388 1.906 20.651 12.197 18.157 27.096-1.632 9.75-8.383 14.634-17.744 13.068-5.226-0.875-9.852-4.376-12.683-9.501l0.264 31.478-8.425-1.41-0.579-62.644 8.424 1.41zm22.311 19.051c1.528-9.127-4.097-16.724-11.273-17.925-4.758-0.797-9.622 1.436-10.68 7.755-0.131 0.78-0.248 1.482-0.288 2.197l0.025 1.768c0.502 7.542 6.037 12.317 11.186 13.179 5.772 0.966 10.051-1.124 11.03-6.974m32.424 21.866c-10.92-1.828-21.289-12.224-18.938-26.265 1.723-10.296 11.192-15.126 20.084-13.638 12.403 2.076 21.237 13.017 19.017 26.278-1.593 9.516-8.93 15.505-20.163 13.625m-10.657-24.477c-1.45 8.658 4.175 15.774 11.352 16.975 5.85 0.98 10.247-2.294 11.2-7.988 1.449-8.658-4.267-15.71-11.443-16.911-5.772-0.966-10.156 2.229-11.109 7.924m62.104 8.391c-0.373-4.954-4.661-8.559-9.186-9.316-4.29-0.718-6.618 1.217-6.597 7.315l0.166 22.481-8.346-1.397-0.192-23.287c-0.135-11.169 5.133-14.377 13.324-13.006 3.588 0.601 7.967 4.141 10.798 8.784l-0.061-5.383 8.346 1.398 0.312 36.939-8.346-1.397zm19.267 39.15-0.095-12.847-5.694-0.953-0.085-7.632 5.694 0.953-0.227-29.307 8.503 1.423 0.226 29.307 5.694 0.954 0.086 7.632-5.694-0.953 0.095 12.846zm43.29 7.246-0.094-12.846-5.695-0.953-0.085-7.633 5.694 0.954-0.226-29.307 8.502 1.423 0.226 29.307 5.695 0.953 0.085 7.632-5.694-0.953 0.095 12.846zm17.757 4.576c0.47-2.808 3.189-4.678 6.153-4.182s4.926 3.15 4.456 5.958-3.189 4.679-6.153 4.182c-2.964-0.496-4.926-3.15-4.456-5.958m1.025-14.262-0.312-36.94 8.424 1.411 0.312 36.939zm26.114-9.421c0.335 4.226 3.258 8.323 8.406 9.185 4.29 0.718 6.048-2.115 5.973-7.42l-0.166-22.481 8.191 1.371 0.23 23.053c0.322 4.304 3.167 8.389 8.393 9.264 4.29 0.718 6.048-2.115 5.973-7.42l-0.166-22.481 8.191 1.371 0.217 24.093c0.084 9.557-4.379 13.701-12.569 12.33-4.68-0.783-8.877-4.453-11.37-9.2-1.85 4.341-5.713 6.341-11.251 5.413-3.822-0.639-7.565-3.672-9.993-7.847l0.036 4.577-8.191-1.371-0.312-36.939 8.191 1.371zm80.487 13.553-19.579-3.278c1.166 5.007 6.013 9.106 10.772 9.902 5.226 0.875 7.984-1.71 8.807-6.624m-19.886-10.065 28.471 4.766c0.323 2.38 0.257 4.694-0.148 7.112-1.489 8.892-8.435 13.503-17.952 11.91-12.324-2.063-20.794-13.264-18.535-26.758 1.593-9.517 8.059-15.09 18.512-13.34 9.282 1.553 14.519 6.199 18.129 12.416l-7.153 2.973c-2.468-4.423-7.224-7.143-11.671-7.888-5.226-0.874-8.53 2.101-9.497 7.873zm36.709-7.086c0.47-2.809 3.189-4.679 6.153-4.183s4.925 3.15 4.455 5.958-3.189 4.679-6.153 4.183c-2.964-0.497-4.925-3.15-4.455-5.958m1.21 53.127 0.835-39.955 6.24 1.045 3.066 40.608z" clip-path="url(#clipPath45)" fill="#fff"/>
    <path transform="matrix(.54581 0 0 -.54663 2.6502 47.767)" d="m0 0-0.454-56.208 8.814 1.475 0.454 56.208zm19.687-3.12-0.095-12.846-5.694-0.953-0.085-7.632 5.694 0.953-0.226-29.307 8.502 1.423 0.226 29.307 5.694 0.953 0.086 7.633-5.694-0.953 0.095 12.846zm25.164 10.628-4.797-19.247 5.46 0.914 8.308 19.834zm11.016-41.378-6.68-4.166c1.057-5.837 7.249-10.253 16.22-8.752 8.268 1.384 14.285 6.161 12.835 14.819-1.136 6.786-6.403 8.551-10.98 9.549-4.5 1.011-7.465 1.958-7.778 3.83-0.392 2.34 2.142 3.967 4.639 4.385 2.886 0.483 5.513-0.841 7.049-2.83l6.563 4.387c-1.368 3.86-7.936 6.69-14.411 5.606-6.864-1.149-13.296-6.315-12.095-13.491 1.071-6.397 6.728-8.096 11.253-8.782 3.875-0.634 6.892-1.893 7.336-4.545 0.497-2.964-1.751-4.864-5.496-5.491-3.666-0.614-7.568 1.139-8.455 5.481zm59.514 11.887c-1.527 9.126 4.097 16.723 11.273 17.925 4.759 0.796 9.623-1.437 10.681-7.755 0.143-0.858 0.209-1.729 0.262-2.522l0.026-1.119c-0.306-7.749-5.985-12.629-11.211-13.504-5.772-0.966-10.051 1.124-11.031 6.975zm22.385 25.799-0.06-6.826c-2.708 4.678-7.144 7.224-12.526 6.323-11.388-1.907-20.652-12.198-18.158-27.097 1.632-9.75 8.384-14.634 17.744-13.067 5.227 0.875 9.931 4.389 12.762 9.513l-0.074-5.786 8.346 1.398 0.312 36.939zm26.281-25.752c2.708-4.679 7.13-7.146 12.513-6.245 11.388 1.906 20.651 12.197 18.157 27.096-1.632 9.75-8.383 14.634-17.744 13.068-5.226-0.875-9.852-4.376-12.683-9.501l0.264 31.478-8.425-1.41-0.579-62.644 8.424 1.41zm22.311 19.051c1.528-9.127-4.097-16.724-11.273-17.925-4.758-0.797-9.622 1.436-10.68 7.755-0.131 0.78-0.248 1.482-0.288 2.197l0.025 1.768c0.502 7.542 6.037 12.317 11.186 13.179 5.772 0.966 10.051-1.124 11.03-6.974zm32.424 21.866c-10.92-1.828-21.289-12.224-18.938-26.265 1.723-10.296 11.192-15.126 20.084-13.638 12.403 2.076 21.237 13.017 19.017 26.278-1.593 9.516-8.93 15.505-20.163 13.625zm-10.657-24.477c-1.45 8.658 4.175 15.774 11.352 16.975 5.85 0.98 10.247-2.294 11.2-7.988 1.449-8.658-4.267-15.71-11.443-16.911-5.772-0.966-10.156 2.229-11.109 7.924zm62.104 8.391c-0.373-4.954-4.661-8.559-9.186-9.316-4.29-0.718-6.618 1.217-6.597 7.315l0.166 22.481-8.346-1.397-0.192-23.287c-0.135-11.169 5.133-14.377 13.324-13.006 3.588 0.601 7.967 4.141 10.798 8.784l-0.061-5.383 8.346 1.398 0.312 36.939-8.346-1.397zm19.267 39.15-0.095-12.847-5.694-0.953-0.085-7.632 5.694 0.953-0.227-29.307 8.503 1.423 0.226 29.307 5.694 0.954 0.086 7.632-5.694-0.953 0.095 12.846zm43.29 7.246-0.094-12.846-5.695-0.953-0.085-7.633 5.694 0.954-0.226-29.307 8.502 1.423 0.226 29.307 5.695 0.953 0.085 7.632-5.694-0.953 0.095 12.846zm17.757 4.576c0.47-2.808 3.189-4.678 6.153-4.182s4.926 3.15 4.456 5.958-3.189 4.679-6.153 4.182c-2.964-0.496-4.926-3.15-4.456-5.958zm1.025-14.262-0.312-36.94 8.424 1.411 0.312 36.939zm26.114-9.421c0.335 4.226 3.258 8.323 8.406 9.185 4.29 0.718 6.048-2.115 5.973-7.42l-0.166-22.481 8.191 1.371 0.23 23.053c0.322 4.304 3.167 8.389 8.393 9.264 4.29 0.718 6.048-2.115 5.973-7.42l-0.166-22.481 8.191 1.371 0.217 24.093c0.084 9.557-4.379 13.701-12.569 12.33-4.68-0.783-8.877-4.453-11.37-9.2-1.85 4.341-5.713 6.341-11.251 5.413-3.822-0.639-7.565-3.672-9.993-7.847l0.036 4.577-8.191-1.371-0.312-36.939 8.191 1.371zm80.487 13.553-19.579-3.278c1.166 5.007 6.013 9.106 10.772 9.902 5.226 0.875 7.984-1.71 8.807-6.624zm-19.886-10.065 28.471 4.766c0.323 2.38 0.257 4.694-0.148 7.112-1.489 8.892-8.435 13.503-17.952 11.91-12.324-2.063-20.794-13.264-18.535-26.758 1.593-9.517 8.059-15.09 18.512-13.34 9.282 1.553 14.519 6.199 18.129 12.416l-7.153 2.973c-2.468-4.423-7.224-7.143-11.671-7.888-5.226-0.874-8.53 2.101-9.497 7.873zm36.709-7.086c0.47-2.809 3.189-4.679 6.153-4.183s4.925 3.15 4.455 5.958-3.189 4.679-6.153 4.183c-2.964-0.497-4.925-3.15-4.455-5.958zm1.21 53.127 0.835-39.955 6.24 1.045 3.066 40.608z" clip-path="url(#clipPath47)" fill="none" stroke="#040606" stroke-width=".48439"/>
    <path transform="matrix(.54581 0 0 -.54663 .95069 46.065)" d="m0 0-0.454-56.208 8.814 1.475 0.454 56.208zm19.687-3.12-0.095-12.846-5.694-0.953-0.085-7.632 5.694 0.953-0.226-29.307 8.502 1.423 0.226 29.307 5.694 0.953 0.086 7.633-5.694-0.953 0.095 12.846zm25.164 10.628-4.797-19.247 5.46 0.914 8.308 19.834zm11.016-41.378-6.68-4.166c1.057-5.837 7.249-10.253 16.22-8.752 8.268 1.384 14.285 6.161 12.835 14.819-1.136 6.786-6.403 8.551-10.98 9.549-4.5 1.011-7.465 1.958-7.778 3.83-0.392 2.34 2.142 3.967 4.639 4.385 2.886 0.483 5.513-0.841 7.049-2.83l6.563 4.387c-1.368 3.86-7.936 6.69-14.411 5.606-6.864-1.149-13.296-6.315-12.095-13.491 1.071-6.397 6.728-8.096 11.253-8.782 3.875-0.634 6.892-1.893 7.336-4.545 0.497-2.964-1.752-4.864-5.496-5.491-3.666-0.614-7.568 1.139-8.455 5.481m59.514 11.887c-1.527 9.126 4.097 16.723 11.274 17.925 4.758 0.796 9.622-1.437 10.68-7.755 0.143-0.858 0.209-1.729 0.262-2.522l0.026-1.119c-0.306-7.749-5.985-12.629-11.211-13.504-5.772-0.966-10.051 1.124-11.031 6.975m22.385 25.799-0.06-6.826c-2.708 4.678-7.144 7.224-12.526 6.323-11.388-1.907-20.652-12.198-18.158-27.097 1.632-9.75 8.384-14.634 17.744-13.067 5.227 0.875 9.931 4.389 12.762 9.513l-0.074-5.786 8.346 1.398 0.312 36.939zm26.281-25.752c2.708-4.679 7.13-7.146 12.513-6.245 11.388 1.906 20.651 12.197 18.157 27.096-1.632 9.75-8.383 14.634-17.744 13.068-5.226-0.875-9.852-4.376-12.683-9.501l0.264 31.478-8.425-1.41-0.579-62.644 8.424 1.41zm22.311 19.051c1.528-9.127-4.097-16.724-11.273-17.925-4.758-0.797-9.622 1.436-10.68 7.755-0.131 0.78-0.248 1.482-0.288 2.197l0.025 1.768c0.502 7.542 6.037 12.317 11.186 13.179 5.772 0.966 10.051-1.124 11.03-6.974m32.424 21.866c-10.92-1.828-21.289-12.224-18.938-26.265 1.723-10.296 11.192-15.126 20.084-13.638 12.403 2.076 21.237 13.017 19.017 26.278-1.593 9.516-8.93 15.505-20.163 13.625m-10.657-24.477c-1.45 8.658 4.175 15.774 11.352 16.975 5.85 0.98 10.247-2.294 11.2-7.988 1.449-8.658-4.267-15.71-11.443-16.911-5.772-0.966-10.156 2.229-11.109 7.924m62.104 8.391c-0.373-4.954-4.661-8.559-9.186-9.316-4.29-0.718-6.618 1.217-6.597 7.315l0.166 22.481-8.346-1.397-0.192-23.287c-0.135-11.169 5.133-14.377 13.324-13.006 3.588 0.601 7.967 4.141 10.798 8.784l-0.061-5.383 8.346 1.398 0.312 36.939-8.346-1.397zm19.267 39.15-0.095-12.847-5.694-0.953-0.085-7.632 5.694 0.953-0.227-29.307 8.503 1.423 0.226 29.307 5.694 0.954 0.086 7.632-5.694-0.953 0.095 12.846zm43.291 7.246-0.095-12.846-5.695-0.953-0.085-7.633 5.694 0.954-0.226-29.307 8.502 1.423 0.226 29.307 5.695 0.953 0.085 7.632-5.694-0.953 0.095 12.846zm17.756 4.576c0.47-2.808 3.189-4.678 6.153-4.182s4.926 3.15 4.456 5.958-3.189 4.679-6.153 4.182c-2.964-0.496-4.926-3.15-4.456-5.958m1.025-14.262-0.312-36.94 8.424 1.411 0.312 36.939zm26.114-9.421c0.335 4.226 3.258 8.323 8.406 9.185 4.29 0.718 6.048-2.115 5.973-7.42l-0.166-22.481 8.191 1.371 0.23 23.053c0.322 4.304 3.167 8.389 8.393 9.264 4.29 0.718 6.048-2.115 5.973-7.42l-0.166-22.481 8.191 1.371 0.217 24.093c0.084 9.557-4.379 13.701-12.569 12.33-4.68-0.783-8.877-4.453-11.37-9.2-1.85 4.341-5.713 6.341-11.251 5.413-3.822-0.639-7.565-3.672-9.993-7.847l0.036 4.577-8.191-1.371-0.312-36.939 8.191 1.371zm80.487 13.553-19.579-3.278c1.167 5.007 6.013 9.106 10.772 9.902 5.226 0.875 7.984-1.71 8.807-6.624m-19.886-10.065 28.471 4.766c0.323 2.38 0.257 4.694-0.148 7.112-1.489 8.892-8.435 13.503-17.952 11.91-12.324-2.063-20.794-13.264-18.535-26.758 1.593-9.517 8.059-15.09 18.512-13.34 9.282 1.553 14.519 6.199 18.129 12.416l-7.153 2.973c-2.468-4.423-7.224-7.143-11.671-7.888-5.226-0.874-8.531 2.101-9.497 7.873zm36.709-7.086c0.47-2.809 3.189-4.679 6.153-4.183s4.925 3.15 4.455 5.958-3.189 4.679-6.153 4.183c-2.964-0.497-4.925-3.15-4.455-5.958m1.21 53.127 0.835-39.955 6.24 1.045 3.066 40.608z" clip-path="url(#clipPath49)" fill="#fff200"/>
    <path transform="matrix(.54581 0 0 -.54663 .95069 46.065)" d="m0 0-0.454-56.208 8.814 1.475 0.454 56.208zm19.687-3.12-0.095-12.846-5.694-0.953-0.085-7.632 5.694 0.953-0.226-29.307 8.502 1.423 0.226 29.307 5.694 0.953 0.086 7.633-5.694-0.953 0.095 12.846zm25.164 10.628-4.797-19.247 5.46 0.914 8.308 19.834zm11.016-41.378-6.68-4.166c1.057-5.837 7.249-10.253 16.22-8.752 8.268 1.384 14.285 6.161 12.835 14.819-1.136 6.786-6.403 8.551-10.98 9.549-4.5 1.011-7.465 1.958-7.778 3.83-0.392 2.34 2.142 3.967 4.639 4.385 2.886 0.483 5.513-0.841 7.049-2.83l6.563 4.387c-1.368 3.86-7.936 6.69-14.411 5.606-6.864-1.149-13.296-6.315-12.095-13.491 1.071-6.397 6.728-8.096 11.253-8.782 3.875-0.634 6.892-1.893 7.336-4.545 0.497-2.964-1.752-4.864-5.496-5.491-3.666-0.614-7.568 1.139-8.455 5.481zm59.514 11.887c-1.527 9.126 4.097 16.723 11.274 17.925 4.758 0.796 9.622-1.437 10.68-7.755 0.143-0.858 0.209-1.729 0.262-2.522l0.026-1.119c-0.306-7.749-5.985-12.629-11.211-13.504-5.772-0.966-10.051 1.124-11.031 6.975zm22.385 25.799-0.06-6.826c-2.708 4.678-7.144 7.224-12.526 6.323-11.388-1.907-20.652-12.198-18.158-27.097 1.632-9.75 8.384-14.634 17.744-13.067 5.227 0.875 9.931 4.389 12.762 9.513l-0.074-5.786 8.346 1.398 0.312 36.939zm26.281-25.752c2.708-4.679 7.13-7.146 12.513-6.245 11.388 1.906 20.651 12.197 18.157 27.096-1.632 9.75-8.383 14.634-17.744 13.068-5.226-0.875-9.852-4.376-12.683-9.501l0.264 31.478-8.425-1.41-0.579-62.644 8.424 1.41zm22.311 19.051c1.528-9.127-4.097-16.724-11.273-17.925-4.758-0.797-9.622 1.436-10.68 7.755-0.131 0.78-0.248 1.482-0.288 2.197l0.025 1.768c0.502 7.542 6.037 12.317 11.186 13.179 5.772 0.966 10.051-1.124 11.03-6.974zm32.424 21.866c-10.92-1.828-21.289-12.224-18.938-26.265 1.723-10.296 11.192-15.126 20.084-13.638 12.403 2.076 21.237 13.017 19.017 26.278-1.593 9.516-8.93 15.505-20.163 13.625zm-10.657-24.477c-1.45 8.658 4.175 15.774 11.352 16.975 5.85 0.98 10.247-2.294 11.2-7.988 1.449-8.658-4.267-15.71-11.443-16.911-5.772-0.966-10.156 2.229-11.109 7.924zm62.104 8.391c-0.373-4.954-4.661-8.559-9.186-9.316-4.29-0.718-6.618 1.217-6.597 7.315l0.166 22.481-8.346-1.397-0.192-23.287c-0.135-11.169 5.133-14.377 13.324-13.006 3.588 0.601 7.967 4.141 10.798 8.784l-0.061-5.383 8.346 1.398 0.312 36.939-8.346-1.397zm19.267 39.15-0.095-12.847-5.694-0.953-0.085-7.632 5.694 0.953-0.227-29.307 8.503 1.423 0.226 29.307 5.694 0.954 0.086 7.632-5.694-0.953 0.095 12.846zm43.291 7.246-0.095-12.846-5.695-0.953-0.085-7.633 5.694 0.954-0.226-29.307 8.502 1.423 0.226 29.307 5.695 0.953 0.085 7.632-5.694-0.953 0.095 12.846zm17.756 4.576c0.47-2.808 3.189-4.678 6.153-4.182s4.926 3.15 4.456 5.958-3.189 4.679-6.153 4.182c-2.964-0.496-4.926-3.15-4.456-5.958zm1.025-14.262-0.312-36.94 8.424 1.411 0.312 36.939zm26.114-9.421c0.335 4.226 3.258 8.323 8.406 9.185 4.29 0.718 6.048-2.115 5.973-7.42l-0.166-22.481 8.191 1.371 0.23 23.053c0.322 4.304 3.167 8.389 8.393 9.264 4.29 0.718 6.048-2.115 5.973-7.42l-0.166-22.481 8.191 1.371 0.217 24.093c0.084 9.557-4.379 13.701-12.569 12.33-4.68-0.783-8.877-4.453-11.37-9.2-1.85 4.341-5.713 6.341-11.251 5.413-3.822-0.639-7.565-3.672-9.993-7.847l0.036 4.577-8.191-1.371-0.312-36.939 8.191 1.371zm80.487 13.553-19.579-3.278c1.167 5.007 6.013 9.106 10.772 9.902 5.226 0.875 7.984-1.71 8.807-6.624zm-19.886-10.065 28.471 4.766c0.323 2.38 0.257 4.694-0.148 7.112-1.489 8.892-8.435 13.503-17.952 11.91-12.324-2.063-20.794-13.264-18.535-26.758 1.593-9.517 8.059-15.09 18.512-13.34 9.282 1.553 14.519 6.199 18.129 12.416l-7.153 2.973c-2.468-4.423-7.224-7.143-11.671-7.888-5.226-0.874-8.531 2.101-9.497 7.873zm36.709-7.086c0.47-2.809 3.189-4.679 6.153-4.183s4.925 3.15 4.455 5.958-3.189 4.679-6.153 4.183c-2.964-0.497-4.925-3.15-4.455-5.958zm1.21 53.127 0.835-39.955 6.24 1.045 3.066 40.608z" clip-path="url(#clipPath51)" fill="none" stroke="#040606" stroke-width=".48439"/>
</svg>
