<svg width="268.84mm" height="117.22mm" version="1.1" viewBox="0 0 268.84 117.22" xmlns="http://www.w3.org/2000/svg">
    <g transform="translate(-16.577 -135.14)" stroke-width=".60037">
        <g transform="translate(.52917 1.5875)" fill="#ff0">
            <path d="m25.105 212.14-3.1801-5.1406 2.0544-1.6698 3.9305 6.5102-6.0599 7.4202-1.6885-1.3977zm4.8123-0.52532-3.1988-5.1406 2.0544-1.6698 3.9305 6.5102-6.0693 7.4202-1.651-1.3977z"/>
            <path d="m40.737 209.67 5.1219-0.56284-1.5291-6.0693zm-1.3414 2.9456-2.9925 5.3939-3.7898 0.41276 12.767-22.242 5.8348 20.206-3.5928 0.39399-1.3227-4.9249z"/>
            <path d="m61.675 205.55c-0.26266-0.17823-0.51594-0.31894-0.74108-0.40337-0.21576-0.0844-0.4878-0.13133-0.79736-0.10319-0.75984 0.0844-1.3414 0.42213-1.7448 1.0319-0.42213 0.64727-0.69417 1.3133-0.86303 2.0731l-1.2758 7.6828-2.9549 0.32832 2.1763-13.199 2.9549-0.32832-0.2439 1.5478c0.41275-0.58161 0.88179-1.0413 1.4071-1.4353 0.50656-0.40337 1.06-0.63788 1.6416-0.70355 0.45027-0.0469 0.87241 0.0188 1.2195 0.15009 0.36585 0.14071 0.70355 0.35647 1.0131 0.62851z"/>
            <path d="m63.434 208.56c0.15947-1.2852 0.60975-2.4765 1.3227-3.5834 0.72232-1.0788 1.6135-2.0075 2.7204-2.711 1.1069-0.72231 2.3077-1.1632 3.6116-1.3039 1.2758-0.14071 2.3733 0.0469 3.3114 0.57222 0.93807 0.51594 1.6229 1.2664 2.0731 2.2139 0.45028 0.97559 0.59099 2.0919 0.44089 3.3302-0.15947 1.3227-0.60975 2.5328-1.3227 3.621-0.72232 1.0976-1.6416 2.0075-2.7486 2.7204-1.1069 0.71294-2.3077 1.1257-3.5928 1.2664-1.2758 0.14071-2.3639-0.0188-3.302-0.5347-0.96621-0.51594-1.6229-1.257-2.0731-2.2232-0.45966-0.96622-0.60037-2.1013-0.44089-3.3677zm3.0675-0.33771c-0.11257 0.72232-0.0469 1.3696 0.15009 1.9512 0.18761 0.60975 0.52532 1.0788 1.0037 1.3977 0.47842 0.32833 1.0882 0.46904 1.8105 0.39399 0.7317-0.0844 1.4165-0.33771 2.0356-0.75984 0.60975-0.43151 1.1257-0.99435 1.5478-1.6698 0.42213-0.65665 0.69417-1.3696 0.79736-2.12 0.11257-0.70356 0.04691-1.3508-0.14071-1.9512-0.22514-0.59099-0.56284-1.0413-1.0506-1.379-0.4878-0.32832-1.0788-0.45965-1.8105-0.38461-0.71294 0.0751-1.4165 0.32833-2.0262 0.75046-0.60037 0.45966-1.1351 1.0037-1.5478 1.6698-0.42213 0.65665-0.65665 1.3696-0.76922 2.1013z"/>
            <path d="m82.431 207.9c-0.08443 0.75984 0 1.4071 0.23452 1.9512 0.22514 0.5347 0.72232 0.78798 1.5291 0.73169 0.80674-0.0657 1.5103-0.39399 2.0825-1.0225 0.55346-0.59098 0.94745-1.2852 1.1726-2.0356l1.3508-8.2175 3.0018-0.32832-2.1763 13.199-3.0018 0.32832 0.32833-1.9137c-0.47842 0.69418-1.0225 1.2945-1.6885 1.7542-0.67541 0.46904-1.4165 0.75046-2.2795 0.84427-0.9756 0.10318-1.7542-9e-3 -2.317-0.394-0.55346-0.39399-0.94745-0.93807-1.1444-1.6791-0.22514-0.7317-0.26266-1.576-0.15009-2.5422l1.3508-8.377 3.0394-0.3377z"/>
            <path d="m102.81 202.84c0.0844-0.75984 0.0281-1.4259-0.20637-1.9793-0.20638-0.52532-0.71294-0.75046-1.5291-0.69417-0.8255 0.0657-1.5572 0.40337-2.1107 1.0131-0.57222 0.63789-0.96622 1.3508-1.1538 2.1013l-1.3321 8.1518-3.0112 0.32832 2.1763-13.199 3.0112-0.32832-0.32832 1.9512c0.45028-0.70356 0.99436-1.2852 1.6604-1.7542 0.67542-0.47842 1.4165-0.78798 2.2889-0.88179 0.93807-0.10319 1.7261 0.0375 2.2983 0.43152 0.56284 0.38461 0.96621 0.92869 1.182 1.6792 0.22514 0.72231 0.26266 1.576 0.15009 2.5046l-1.3602 8.377-3.0581 0.3377z"/>
            <path d="m108.53 203.62c0.15947-1.2852 0.60975-2.4765 1.2664-3.5741 0.66603-1.0788 1.5291-1.9981 2.5516-2.6923 1.0037-0.71293 2.1107-1.1444 3.2926-1.2758 0.96622-0.10319 1.7823 0.0657 2.4108 0.47841 0.64727 0.43152 1.1257 0.99436 1.454 1.7542l1.848-11.585 3.0394-0.32832-3.6397 22.364-2.9831 0.32832 0.32832-2.0356c-0.56284 0.76922-1.2101 1.4071-1.97 1.8762-0.74108 0.50656-1.5853 0.79736-2.4953 0.90055-1.1726 0.12195-2.1763-0.0469-2.9831-0.58161-0.84427-0.52532-1.4259-1.2758-1.7917-2.2795-0.40337-0.96622-0.4878-2.0825-0.32833-3.3489zm3.0675-0.33771c-0.11257 0.75046-0.075 1.4259 0.15009 2.0075 0.197 0.60975 0.52532 1.0788 1.0131 1.3977 0.46904 0.3377 1.0788 0.44089 1.8011 0.36584 0.64727-0.075 1.257-0.30956 1.8668-0.71293 0.58161-0.40337 1.0788-0.93807 1.5197-1.5853 0.45027-0.62851 0.72232-1.3414 0.86303-2.0919l0.0281-0.20637c0.0844-0.70356 0.0188-1.3508-0.17824-1.9418-0.19699-0.59099-0.50656-1.0506-0.96621-1.3884-0.43152-0.30956-0.96622-0.45027-1.6135-0.41275-0.71293 0.0844-1.4165 0.32833-2.0544 0.72232-0.6285 0.44089-1.1632 1.0131-1.6041 1.6792-0.45027 0.65665-0.71294 1.4071-0.8255 2.1669z"/>
            <path d="m136.33 189.6 2.9737-0.32832-0.75984 4.5872 2.1107-0.22513-0.42214 2.7486-2.12 0.22514-1.7073 10.45-2.9268 0.31895 1.6792-10.441-2.0638 0.22514 0.46904-2.7579 2.0356-0.21575z"/>
            <path d="m149.97 197.67c0.0844-0.75984 0.0281-1.4259-0.20637-1.9793-0.20638-0.52532-0.71294-0.75046-1.5291-0.69417-0.85365 0.0657-1.5853 0.43151-2.1388 1.0413-0.54408 0.66603-0.93807 1.379-1.1257 2.1294l-1.3321 8.0956-3.0112 0.32832 3.6397-22.373 3.0112-0.32832-1.7917 11.041c0.45027-0.70355 1.0225-1.2945 1.6885-1.7542 0.67541-0.47841 1.4165-0.75983 2.2889-0.85364 0.93808-0.10319 1.7261 0.0375 2.2701 0.43151 0.56284 0.38461 0.93807 0.93807 1.1538 1.651 0.19699 0.7317 0.23452 1.576 0.12195 2.514l-1.3602 8.4614-3.0018 0.32832z"/>
            <path d="m159.16 196.66 6.4352-0.70355c0.0281-0.80675-0.16885-1.4915-0.57222-2.045-0.42213-0.5347-1.0788-0.76922-2.0075-0.67541-0.93807 0.10318-1.7448 0.47841-2.4108 1.1069-0.69418 0.63789-1.1632 1.4259-1.4446 2.317zm-0.37522 2.167c-0.0188 0.98497 0.20637 1.7823 0.64727 2.4108 0.45965 0.60975 1.182 0.90993 2.1763 0.79737 0.84427-0.0657 1.5572-0.33771 2.2045-0.81613 0.64727-0.45027 1.182-1.0131 1.6604-1.6322l2.514 0.8255c-0.7786 1.0975-1.7261 2.045-2.833 2.8142-1.1069 0.76922-2.3827 1.2195-3.8649 1.379-1.2852 0.14071-2.3639-0.0469-3.227-0.57222-0.87241-0.52532-1.4822-1.2758-1.8762-2.242-0.40337-0.9756-0.54408-2.0825-0.3846-3.3489 0.0281-0.22514 0.0563-0.47842 0.11256-0.71294 0.0563-0.22514 0.10319-0.45965 0.18762-0.70355 0.30956-1.0319 0.79736-2.0262 1.4634-2.908 0.67541-0.8724 1.4915-1.6135 2.4671-2.1857 0.94746-0.56284 2.0356-0.93807 3.1988-1.06 1.2945-0.14071 2.3733 0.0469 3.2082 0.52532 0.84426 0.49718 1.454 1.2195 1.8199 2.1857 0.36585 0.98498 0.47841 2.0638 0.34708 3.3208-0.0281 0.14071-0.0563 0.28142-0.0844 0.42213-0.0281 0.15009-0.0563 0.30018-0.0844 0.4409z"/>
            <path d="m183.15 192.07c-0.18762 1.2664-0.0938 2.3827 0.26266 3.3771 0.36584 1.0037 0.98497 1.773 1.8199 2.3452 0.84426 0.55347 1.8761 0.7786 3.0956 0.64727 1.3133-0.12194 2.514-0.50655 3.5834-1.182 1.06-0.68479 2.0356-1.4352 2.8611-2.2889l-0.56284 4.0056c-0.89117 0.74107-1.8574 1.3602-2.8611 1.8292-1.0037 0.50656-2.167 0.80674-3.4427 0.94745-1.4352 0.15009-2.6829 0.0375-3.7898-0.40337-1.1163-0.41275-2.045-1.0413-2.7673-1.9324-0.74108-0.83488-1.257-1.848-1.5478-3.0581-0.30957-1.2007-0.37523-2.4953-0.18762-3.9024 0.22514-1.4634 0.65665-2.8236 1.3227-4.1463 0.66603-1.3133 1.4822-2.4578 2.514-3.5084 1.0319-1.0319 2.1951-1.9043 3.4709-2.5516s2.6735-1.0788 4.1181-1.2382c1.2289-0.13133 2.2889-0.0844 3.227 0.15009 0.92869 0.2439 1.7823 0.68479 2.5797 1.3039l-0.60974 4.0056c-0.58161-0.78798-1.3321-1.3508-2.2232-1.7448-0.9287-0.42213-1.9887-0.55346-3.1801-0.42213-1.257 0.13133-2.4296 0.57223-3.499 1.3133-1.1163 0.74108-2.0356 1.6604-2.7486 2.7767-0.75046 1.1538-1.2195 2.3639-1.4352 3.6772z"/>
            <path d="m198 193.82c0.15947-1.2852 0.60974-2.4765 1.3227-3.5834 0.72231-1.0788 1.6135-2.0075 2.7204-2.711 1.1069-0.72231 2.3077-1.1632 3.6116-1.3039 1.2758-0.14071 2.3733 0.0469 3.3114 0.57222 0.93808 0.51594 1.6229 1.2664 2.0731 2.2139 0.45028 0.97559 0.59099 2.0919 0.4409 3.3302-0.15948 1.3227-0.60975 2.5328-1.3227 3.621-0.72231 1.0976-1.6416 2.0075-2.7486 2.7204-1.1069 0.71294-2.3077 1.1257-3.5928 1.2664-1.2758 0.14071-2.3639-0.0188-3.302-0.5347-0.96622-0.51594-1.6229-1.257-2.0731-2.2232-0.45966-0.96622-0.60037-2.1013-0.44089-3.3677zm3.0675-0.33771c-0.11257 0.72232-0.0469 1.3696 0.15009 1.9512 0.18762 0.60975 0.52532 1.0788 1.0037 1.3977 0.47842 0.32833 1.0882 0.46904 1.8105 0.39399 0.7317-0.0844 1.4165-0.33771 2.0356-0.75984 0.60975-0.43151 1.1257-0.99435 1.5478-1.6698 0.42213-0.65665 0.69417-1.3696 0.79736-2.12 0.11257-0.70356 0.0469-1.3508-0.14071-1.9512-0.22514-0.59099-0.56284-1.0413-1.0506-1.379-0.4878-0.32832-1.0788-0.45965-1.8105-0.38461-0.71294 0.0751-1.4165 0.32833-2.0262 0.75046-0.60037 0.45966-1.1351 1.0037-1.5478 1.6698-0.42213 0.65665-0.65665 1.3696-0.76922 2.1013z"/>
            <path d="m221.49 188.05c-0.26266-0.17823-0.51594-0.31894-0.74108-0.40337-0.21576-0.0844-0.4878-0.13133-0.79736-0.10319-0.75984 0.0844-1.3414 0.42213-1.7448 1.0319-0.42213 0.64727-0.69417 1.3133-0.86302 2.0731l-1.2758 7.6828-2.9549 0.32832 2.1763-13.199 2.9549-0.32832-0.2439 1.5478c0.41275-0.58161 0.88179-1.0413 1.4071-1.4353 0.50656-0.40337 1.06-0.63788 1.6416-0.70355 0.45028-0.0469 0.87241 0.0188 1.2195 0.15009 0.36585 0.14071 0.70355 0.35647 1.0131 0.62851z"/>
            <path d="m232.7 188.61c0.0844-0.75984 0.0281-1.4259-0.20637-1.9793-0.20638-0.52532-0.71294-0.75046-1.5291-0.69417-0.8255 0.0657-1.5572 0.40337-2.1107 1.0131-0.57223 0.63789-0.96622 1.3508-1.1538 2.1013l-1.3321 8.1518-3.0112 0.32832 2.1763-13.199 3.0112-0.32832-0.32832 1.9512c0.45027-0.70356 0.99435-1.2852 1.6604-1.7542 0.67541-0.47842 1.4165-0.78798 2.2889-0.88179 0.93807-0.10319 1.7261 0.0375 2.2983 0.43152 0.56284 0.38461 0.96621 0.92869 1.182 1.6792 0.22514 0.72231 0.26266 1.576 0.15009 2.5046l-1.3602 8.377-3.0581 0.3377z"/>
            <path d="m241.95 187.6 6.4352-0.70355c0.0281-0.80675-0.16885-1.4915-0.57222-2.045-0.42213-0.5347-1.0788-0.76922-2.0075-0.67541-0.93807 0.10318-1.7448 0.47841-2.4108 1.1069-0.69418 0.63789-1.1632 1.4259-1.4446 2.317zm-0.37522 2.167c-0.0188 0.98497 0.20637 1.7823 0.64727 2.4108 0.45965 0.60975 1.182 0.90993 2.1763 0.79737 0.84427-0.0657 1.5572-0.33771 2.2045-0.81613 0.64727-0.45027 1.182-1.0131 1.6604-1.6322l2.514 0.8255c-0.7786 1.0975-1.7261 2.045-2.833 2.8142-1.1069 0.76922-2.3827 1.2195-3.8649 1.379-1.2852 0.14071-2.3639-0.0469-3.227-0.57222-0.87241-0.52532-1.4822-1.2758-1.8762-2.242-0.40337-0.9756-0.54408-2.0825-0.3846-3.3489 0.0281-0.22514 0.0563-0.47842 0.11256-0.71294 0.0563-0.22514 0.10319-0.45965 0.18762-0.70355 0.30956-1.0319 0.79736-2.0262 1.4634-2.908 0.67541-0.8724 1.4915-1.6135 2.4671-2.1857 0.94746-0.56284 2.0356-0.93807 3.1988-1.06 1.2945-0.14071 2.3733 0.0469 3.2082 0.52532 0.84426 0.49718 1.454 1.2195 1.8199 2.1857 0.36585 0.98498 0.47841 2.0638 0.34708 3.3208-0.0281 0.14071-0.0563 0.28142-0.0844 0.42213-0.0281 0.15009-0.0563 0.30018-0.0844 0.4409z"/>
            <path d="m261.41 183.67c-0.26266-0.17823-0.51594-0.31894-0.74108-0.40337-0.21576-0.0844-0.4878-0.13133-0.79736-0.10319-0.75984 0.0844-1.3414 0.42213-1.7448 1.0319-0.42213 0.64727-0.69417 1.3133-0.86302 2.0731l-1.2758 7.6828-2.9549 0.32832 2.1763-13.199 2.9549-0.32832-0.2439 1.5478c0.41275-0.58161 0.88179-1.0413 1.4071-1.4353 0.50656-0.40337 1.06-0.63788 1.6416-0.70355 0.45028-0.0469 0.87241 0.0188 1.2195 0.15009 0.36585 0.14071 0.70355 0.35647 1.0131 0.62851z"/>
            <path d="m271.19 185.03 3.1613 5.1406-2.0075 1.6604-3.9587-6.4915 6.0787-7.4389 1.6792 1.4071zm-4.8123 0.52532 3.1894 5.1406-2.045 1.6604-3.9305-6.4915 6.0599-7.4295 1.6792 1.3977z"/>
        </g>
        <g fill="#1c9bd8">
            <path d="m25.105 212.14-3.1801-5.1406 2.0544-1.6698 3.9305 6.5102-6.0599 7.4202-1.6885-1.3977zm4.8123-0.52532-3.1988-5.1406 2.0544-1.6698 3.9305 6.5102-6.0693 7.4202-1.651-1.3977z"/>
            <path d="m40.737 209.67 5.1219-0.56284-1.5291-6.0693zm-1.3414 2.9456-2.9925 5.3939-3.7898 0.41276 12.767-22.242 5.8348 20.206-3.5928 0.39399-1.3227-4.9249z"/>
            <path d="m61.675 205.55c-0.26266-0.17823-0.51594-0.31894-0.74108-0.40337-0.21576-0.0844-0.4878-0.13133-0.79736-0.10319-0.75984 0.0844-1.3414 0.42213-1.7448 1.0319-0.42213 0.64727-0.69417 1.3133-0.86303 2.0731l-1.2758 7.6828-2.9549 0.32832 2.1763-13.199 2.9549-0.32832-0.2439 1.5478c0.41275-0.58161 0.88179-1.0413 1.4071-1.4353 0.50656-0.40337 1.06-0.63788 1.6416-0.70355 0.45027-0.0469 0.87241 0.0188 1.2195 0.15009 0.36585 0.14071 0.70355 0.35647 1.0131 0.62851z"/>
            <path d="m63.434 208.56c0.15947-1.2852 0.60975-2.4765 1.3227-3.5834 0.72232-1.0788 1.6135-2.0075 2.7204-2.711 1.1069-0.72231 2.3077-1.1632 3.6116-1.3039 1.2758-0.14071 2.3733 0.0469 3.3114 0.57222 0.93807 0.51594 1.6229 1.2664 2.0731 2.2139 0.45028 0.97559 0.59099 2.0919 0.44089 3.3302-0.15947 1.3227-0.60975 2.5328-1.3227 3.621-0.72232 1.0976-1.6416 2.0075-2.7486 2.7204-1.1069 0.71294-2.3077 1.1257-3.5928 1.2664-1.2758 0.14071-2.3639-0.0188-3.302-0.5347-0.96621-0.51594-1.6229-1.257-2.0731-2.2232-0.45966-0.96622-0.60037-2.1013-0.44089-3.3677zm3.0675-0.33771c-0.11257 0.72232-0.0469 1.3696 0.15009 1.9512 0.18761 0.60975 0.52532 1.0788 1.0037 1.3977 0.47842 0.32833 1.0882 0.46904 1.8105 0.39399 0.7317-0.0844 1.4165-0.33771 2.0356-0.75984 0.60975-0.43151 1.1257-0.99435 1.5478-1.6698 0.42213-0.65665 0.69417-1.3696 0.79736-2.12 0.11257-0.70356 0.04691-1.3508-0.14071-1.9512-0.22514-0.59099-0.56284-1.0413-1.0506-1.379-0.4878-0.32832-1.0788-0.45965-1.8105-0.38461-0.71294 0.0751-1.4165 0.32833-2.0262 0.75046-0.60037 0.45966-1.1351 1.0037-1.5478 1.6698-0.42213 0.65665-0.65665 1.3696-0.76922 2.1013z"/>
            <path d="m82.431 207.9c-0.08443 0.75984 0 1.4071 0.23452 1.9512 0.22514 0.5347 0.72232 0.78798 1.5291 0.73169 0.80674-0.0657 1.5103-0.39399 2.0825-1.0225 0.55346-0.59098 0.94745-1.2852 1.1726-2.0356l1.3508-8.2175 3.0018-0.32832-2.1763 13.199-3.0018 0.32832 0.32833-1.9137c-0.47842 0.69418-1.0225 1.2945-1.6885 1.7542-0.67541 0.46904-1.4165 0.75046-2.2795 0.84427-0.9756 0.10318-1.7542-9e-3 -2.317-0.394-0.55346-0.39399-0.94745-0.93807-1.1444-1.6791-0.22514-0.7317-0.26266-1.576-0.15009-2.5422l1.3508-8.377 3.0394-0.3377z"/>
            <path d="m102.81 202.84c0.0844-0.75984 0.0281-1.4259-0.20637-1.9793-0.20638-0.52532-0.71294-0.75046-1.5291-0.69417-0.8255 0.0657-1.5572 0.40337-2.1107 1.0131-0.57222 0.63789-0.96622 1.3508-1.1538 2.1013l-1.3321 8.1518-3.0112 0.32832 2.1763-13.199 3.0112-0.32832-0.32832 1.9512c0.45028-0.70356 0.99436-1.2852 1.6604-1.7542 0.67542-0.47842 1.4165-0.78798 2.2889-0.88179 0.93807-0.10319 1.7261 0.0375 2.2983 0.43152 0.56284 0.38461 0.96621 0.92869 1.182 1.6792 0.22514 0.72231 0.26266 1.576 0.15009 2.5046l-1.3602 8.377-3.0581 0.3377z"/>
            <path d="m108.53 203.62c0.15947-1.2852 0.60975-2.4765 1.2664-3.5741 0.66603-1.0788 1.5291-1.9981 2.5516-2.6923 1.0037-0.71293 2.1107-1.1444 3.2926-1.2758 0.96622-0.10319 1.7823 0.0657 2.4108 0.47841 0.64727 0.43152 1.1257 0.99436 1.454 1.7542l1.848-11.585 3.0394-0.32832-3.6397 22.364-2.9831 0.32832 0.32832-2.0356c-0.56284 0.76922-1.2101 1.4071-1.97 1.8762-0.74108 0.50656-1.5853 0.79736-2.4953 0.90055-1.1726 0.12195-2.1763-0.0469-2.9831-0.58161-0.84427-0.52532-1.4259-1.2758-1.7917-2.2795-0.40337-0.96622-0.4878-2.0825-0.32833-3.3489zm3.0675-0.33771c-0.11257 0.75046-0.075 1.4259 0.15009 2.0075 0.197 0.60975 0.52532 1.0788 1.0131 1.3977 0.46904 0.3377 1.0788 0.44089 1.8011 0.36584 0.64727-0.075 1.257-0.30956 1.8668-0.71293 0.58161-0.40337 1.0788-0.93807 1.5197-1.5853 0.45027-0.62851 0.72232-1.3414 0.86303-2.0919l0.0281-0.20637c0.0844-0.70356 0.0188-1.3508-0.17824-1.9418-0.19699-0.59099-0.50656-1.0506-0.96621-1.3884-0.43152-0.30956-0.96622-0.45027-1.6135-0.41275-0.71293 0.0844-1.4165 0.32833-2.0544 0.72232-0.6285 0.44089-1.1632 1.0131-1.6041 1.6792-0.45027 0.65665-0.71294 1.4071-0.8255 2.1669z"/>
            <path d="m136.33 189.6 2.9737-0.32832-0.75984 4.5872 2.1107-0.22513-0.42214 2.7486-2.12 0.22514-1.7073 10.45-2.9268 0.31895 1.6792-10.441-2.0638 0.22514 0.46904-2.7579 2.0356-0.21575z"/>
            <path d="m149.97 197.67c0.0844-0.75984 0.0281-1.4259-0.20637-1.9793-0.20638-0.52532-0.71294-0.75046-1.5291-0.69417-0.85365 0.0657-1.5853 0.43151-2.1388 1.0413-0.54408 0.66603-0.93807 1.379-1.1257 2.1294l-1.3321 8.0956-3.0112 0.32832 3.6397-22.373 3.0112-0.32832-1.7917 11.041c0.45027-0.70355 1.0225-1.2945 1.6885-1.7542 0.67541-0.47841 1.4165-0.75983 2.2889-0.85364 0.93808-0.10319 1.7261 0.0375 2.2701 0.43151 0.56284 0.38461 0.93807 0.93807 1.1538 1.651 0.19699 0.7317 0.23452 1.576 0.12195 2.514l-1.3602 8.4614-3.0018 0.32832z"/>
            <path d="m159.16 196.66 6.4352-0.70355c0.0281-0.80675-0.16885-1.4915-0.57222-2.045-0.42213-0.5347-1.0788-0.76922-2.0075-0.67541-0.93807 0.10318-1.7448 0.47841-2.4108 1.1069-0.69418 0.63789-1.1632 1.4259-1.4446 2.317zm-0.37522 2.167c-0.0188 0.98497 0.20637 1.7823 0.64727 2.4108 0.45965 0.60975 1.182 0.90993 2.1763 0.79737 0.84427-0.0657 1.5572-0.33771 2.2045-0.81613 0.64727-0.45027 1.182-1.0131 1.6604-1.6322l2.514 0.8255c-0.7786 1.0975-1.7261 2.045-2.833 2.8142-1.1069 0.76922-2.3827 1.2195-3.8649 1.379-1.2852 0.14071-2.3639-0.0469-3.227-0.57222-0.87241-0.52532-1.4822-1.2758-1.8762-2.242-0.40337-0.9756-0.54408-2.0825-0.3846-3.3489 0.0281-0.22514 0.0563-0.47842 0.11256-0.71294 0.0563-0.22514 0.10319-0.45965 0.18762-0.70355 0.30956-1.0319 0.79736-2.0262 1.4634-2.908 0.67541-0.8724 1.4915-1.6135 2.4671-2.1857 0.94746-0.56284 2.0356-0.93807 3.1988-1.06 1.2945-0.14071 2.3733 0.0469 3.2082 0.52532 0.84426 0.49718 1.454 1.2195 1.8199 2.1857 0.36585 0.98498 0.47841 2.0638 0.34708 3.3208-0.0281 0.14071-0.0563 0.28142-0.0844 0.42213-0.0281 0.15009-0.0563 0.30018-0.0844 0.4409z"/>
            <path d="m183.15 192.07c-0.18762 1.2664-0.0938 2.3827 0.26266 3.3771 0.36584 1.0037 0.98497 1.773 1.8199 2.3452 0.84426 0.55347 1.8761 0.7786 3.0956 0.64727 1.3133-0.12194 2.514-0.50655 3.5834-1.182 1.06-0.68479 2.0356-1.4352 2.8611-2.2889l-0.56284 4.0056c-0.89117 0.74107-1.8574 1.3602-2.8611 1.8292-1.0037 0.50656-2.167 0.80674-3.4427 0.94745-1.4352 0.15009-2.6829 0.0375-3.7898-0.40337-1.1163-0.41275-2.045-1.0413-2.7673-1.9324-0.74108-0.83488-1.257-1.848-1.5478-3.0581-0.30957-1.2007-0.37523-2.4953-0.18762-3.9024 0.22514-1.4634 0.65665-2.8236 1.3227-4.1463 0.66603-1.3133 1.4822-2.4578 2.514-3.5084 1.0319-1.0319 2.1951-1.9043 3.4709-2.5516s2.6735-1.0788 4.1181-1.2382c1.2289-0.13133 2.2889-0.0844 3.227 0.15009 0.92869 0.2439 1.7823 0.68479 2.5797 1.3039l-0.60974 4.0056c-0.58161-0.78798-1.3321-1.3508-2.2232-1.7448-0.9287-0.42213-1.9887-0.55346-3.1801-0.42213-1.257 0.13133-2.4296 0.57223-3.499 1.3133-1.1163 0.74108-2.0356 1.6604-2.7486 2.7767-0.75046 1.1538-1.2195 2.3639-1.4352 3.6772z"/>
            <path d="m198 193.82c0.15947-1.2852 0.60974-2.4765 1.3227-3.5834 0.72231-1.0788 1.6135-2.0075 2.7204-2.711 1.1069-0.72231 2.3077-1.1632 3.6116-1.3039 1.2758-0.14071 2.3733 0.0469 3.3114 0.57222 0.93808 0.51594 1.6229 1.2664 2.0731 2.2139 0.45028 0.97559 0.59099 2.0919 0.4409 3.3302-0.15948 1.3227-0.60975 2.5328-1.3227 3.621-0.72231 1.0976-1.6416 2.0075-2.7486 2.7204-1.1069 0.71294-2.3077 1.1257-3.5928 1.2664-1.2758 0.14071-2.3639-0.0188-3.302-0.5347-0.96622-0.51594-1.6229-1.257-2.0731-2.2232-0.45966-0.96622-0.60037-2.1013-0.44089-3.3677zm3.0675-0.33771c-0.11257 0.72232-0.0469 1.3696 0.15009 1.9512 0.18762 0.60975 0.52532 1.0788 1.0037 1.3977 0.47842 0.32833 1.0882 0.46904 1.8105 0.39399 0.7317-0.0844 1.4165-0.33771 2.0356-0.75984 0.60975-0.43151 1.1257-0.99435 1.5478-1.6698 0.42213-0.65665 0.69417-1.3696 0.79736-2.12 0.11257-0.70356 0.0469-1.3508-0.14071-1.9512-0.22514-0.59099-0.56284-1.0413-1.0506-1.379-0.4878-0.32832-1.0788-0.45965-1.8105-0.38461-0.71294 0.0751-1.4165 0.32833-2.0262 0.75046-0.60037 0.45966-1.1351 1.0037-1.5478 1.6698-0.42213 0.65665-0.65665 1.3696-0.76922 2.1013z"/>
            <path d="m221.49 188.05c-0.26266-0.17823-0.51594-0.31894-0.74108-0.40337-0.21576-0.0844-0.4878-0.13133-0.79736-0.10319-0.75984 0.0844-1.3414 0.42213-1.7448 1.0319-0.42213 0.64727-0.69417 1.3133-0.86302 2.0731l-1.2758 7.6828-2.9549 0.32832 2.1763-13.199 2.9549-0.32832-0.2439 1.5478c0.41275-0.58161 0.88179-1.0413 1.4071-1.4353 0.50656-0.40337 1.06-0.63788 1.6416-0.70355 0.45028-0.0469 0.87241 0.0188 1.2195 0.15009 0.36585 0.14071 0.70355 0.35647 1.0131 0.62851z"/>
            <path d="m232.7 188.61c0.0844-0.75984 0.0281-1.4259-0.20637-1.9793-0.20638-0.52532-0.71294-0.75046-1.5291-0.69417-0.8255 0.0657-1.5572 0.40337-2.1107 1.0131-0.57223 0.63789-0.96622 1.3508-1.1538 2.1013l-1.3321 8.1518-3.0112 0.32832 2.1763-13.199 3.0112-0.32832-0.32832 1.9512c0.45027-0.70356 0.99435-1.2852 1.6604-1.7542 0.67541-0.47842 1.4165-0.78798 2.2889-0.88179 0.93807-0.10319 1.7261 0.0375 2.2983 0.43152 0.56284 0.38461 0.96621 0.92869 1.182 1.6792 0.22514 0.72231 0.26266 1.576 0.15009 2.5046l-1.3602 8.377-3.0581 0.3377z"/>
            <path d="m241.95 187.6 6.4352-0.70355c0.0281-0.80675-0.16885-1.4915-0.57222-2.045-0.42213-0.5347-1.0788-0.76922-2.0075-0.67541-0.93807 0.10318-1.7448 0.47841-2.4108 1.1069-0.69418 0.63789-1.1632 1.4259-1.4446 2.317zm-0.37522 2.167c-0.0188 0.98497 0.20637 1.7823 0.64727 2.4108 0.45965 0.60975 1.182 0.90993 2.1763 0.79737 0.84427-0.0657 1.5572-0.33771 2.2045-0.81613 0.64727-0.45027 1.182-1.0131 1.6604-1.6322l2.514 0.8255c-0.7786 1.0975-1.7261 2.045-2.833 2.8142-1.1069 0.76922-2.3827 1.2195-3.8649 1.379-1.2852 0.14071-2.3639-0.0469-3.227-0.57222-0.87241-0.52532-1.4822-1.2758-1.8762-2.242-0.40337-0.9756-0.54408-2.0825-0.3846-3.3489 0.0281-0.22514 0.0563-0.47842 0.11256-0.71294 0.0563-0.22514 0.10319-0.45965 0.18762-0.70355 0.30956-1.0319 0.79736-2.0262 1.4634-2.908 0.67541-0.8724 1.4915-1.6135 2.4671-2.1857 0.94746-0.56284 2.0356-0.93807 3.1988-1.06 1.2945-0.14071 2.3733 0.0469 3.2082 0.52532 0.84426 0.49718 1.454 1.2195 1.8199 2.1857 0.36585 0.98498 0.47841 2.0638 0.34708 3.3208-0.0281 0.14071-0.0563 0.28142-0.0844 0.42213-0.0281 0.15009-0.0563 0.30018-0.0844 0.4409z"/>
            <path d="m261.41 183.67c-0.26266-0.17823-0.51594-0.31894-0.74108-0.40337-0.21576-0.0844-0.4878-0.13133-0.79736-0.10319-0.75984 0.0844-1.3414 0.42213-1.7448 1.0319-0.42213 0.64727-0.69417 1.3133-0.86302 2.0731l-1.2758 7.6828-2.9549 0.32832 2.1763-13.199 2.9549-0.32832-0.2439 1.5478c0.41275-0.58161 0.88179-1.0413 1.4071-1.4353 0.50656-0.40337 1.06-0.63788 1.6416-0.70355 0.45028-0.0469 0.87241 0.0188 1.2195 0.15009 0.36585 0.14071 0.70355 0.35647 1.0131 0.62851z"/>
            <path d="m271.19 185.03 3.1613 5.1406-2.0075 1.6604-3.9587-6.4915 6.0787-7.4389 1.6792 1.4071zm-4.8123 0.52532 3.1894 5.1406-2.045 1.6604-3.9305-6.4915 6.0599-7.4295 1.6792 1.3977z"/>
        </g>
    </g>
</svg>
