<svg width="268.84mm" height="117.22mm" version="1.1" viewBox="0 0 268.84 117.22" xmlns="http://www.w3.org/2000/svg">
    <defs>
        <clipPath id="clipPath61">
            <path transform="translate(-157.51 -558.98)" d="m0 0h1280v800h-1280z"/>
        </clipPath>
        <clipPath id="clipPath61-5">
            <path transform="translate(-157.51 -558.98)" d="m0 0h1280v800h-1280z"/>
        </clipPath>
    </defs>
    <path transform="matrix(.71704 0 0 -.71704 21.228 113.51)" d="m273.38 152.93-4.8632-1.0789 1.574-36.505 4.8639 1.0781-0.46989 11.283 8.8918-9.415 5.8541 1.298-9.9923 10.542 8.1459 10.783-6.5309-1.4479-6.5431-8.6331zm21.4-9.4338c-0.40012 0.0663-0.82311 0.058-1.2511-0.0368-1.711-0.38-2.7736-1.9853-2.4136-3.6063 0.359-1.622 2.0005-2.6276 3.7115-2.2486 1.712 0.38 2.7726 1.985 2.4136 3.607-0.27 1.2158-1.26 2.0856-2.4604 2.2846zm-92.149-6.2548-4.8185-1.0681 1.574-36.506 4.8192 1.0688-0.59889 13.569c0.166 2.872 2.5189 5.048 5.0859 5.617 2.477 0.549 3.8921-0.50735 4.0661-4.0604l0.5888-13.099 4.8192 1.0695-0.59889 13.569c-0.263 6.51-3.4292 8.2167-8.1582 7.1687-2.071-0.46-4.4689-2.6451-5.9759-5.4361zm58.257-1.8298c-1.2802 0.1-2.7278-0.0314-4.1468-0.34593-7.521-1.668-12.527-8.4951-10.799-16.286 1.188-5.359 5.7044-8.4682 12.234-7.0202 2.837 0.629 5.2994 1.8837 6.6714 3.7937l-0.28179 6.1756c-0.857-2.317-3.2255-4.6373-6.5575-5.3763-3.918-0.869-6.4985 0.96789-7.1975 4.1209-1.069 4.819 1.7296 9.0302 6.9986 10.199 2.432 0.539 5.4688-0.58289 6.5028-2.4799l-0.28179 6.1741c-0.75 0.6135-1.8627 0.94499-3.1429 1.045zm-75.846-5.1551c-1.0177-0.0617-2.0996-0.21539-3.2481-0.46989-10.313-2.287-17.392-12.551-14.886-23.855 1.738-7.836 7.9096-12.657 16.827-10.68 4.594 1.019 7.6375 3.0639 9.9945 5.8549l-0.27242 6.1294c-2.083-3.391-5.4761-5.986-10.385-7.075-5.044-1.118-9.871 1.6858-11.149 7.4497-1.808 8.152 3.869 15.789 10.535 17.267 4.458 0.989 8.0003-0.0686 10.33-2.4806l-0.27242 6.1287c-1.947 1.269-4.4204 1.9162-7.4735 1.7311zm48.927-0.3971c-0.64251-0.0389-1.3088-0.13386-1.9956-0.28611-7.116-1.578-11.707-8.361-9.9794-16.152 1.218-5.494 5.1544-8.5427 11.189-7.2047 5.359 1.189 8.2667 4.0536 10.18 7.7856l-4.2571 1.5134c-1.302-2.651-3.9898-4.3814-6.5568-4.9504-3.017-0.669-5.033 0.9633-5.772 4.2953l-0.11891 0.54052 16.437 3.6452c0.116 1.395 7e-3 2.7412-0.30269 4.1382-0.99575 4.4922-4.3258 6.9474-8.8234 6.675zm61.454-4.1757c-0.40007 0.0664-0.82337 0.058-1.2511-0.0368-1.712-0.38-2.7733-1.9853-2.4143-3.6063 0.36-1.621 2.0003-2.6275 3.7123-2.2485 1.711 0.37999 2.7729 1.9853 2.4129 3.6063-0.26925 1.2165-1.2595 2.0862-2.4597 2.2853zm-61.753-0.0692c2.3529 0.13721 3.7125-1.2616 4.2629-3.744l-11.305-2.5073c0.527 2.952 3.2253 5.488 5.9723 6.097 0.37725 0.0836 0.73337 0.13462 1.0695 0.15423zm-130.79-10.492-4.8185-1.068 1.574-36.506 4.8192 1.0688zm8.8443-1.8226c-0.40007 0.0663-0.82336 0.0575-1.2511-0.0375-1.711-0.379-2.7729-1.9846-2.4129-3.6056 0.359-1.621 1.9998-2.6278 3.7108-2.2478 1.712 0.379 2.7733 1.9846 2.4143 3.6056-0.27 1.2158-1.2609 2.0864-2.4612 2.2853zm12.703-0.95924-4.9086-1.0882 0.33656-7.4843-3.287-0.72933 0.18306-4.4488 3.287 0.72861 0.76321-17.076 4.9093 1.0882-0.76321 17.077 3.2878 0.72933-0.18377 4.4481-3.2871-0.72933zm27.492-1.463-5.4938-1.2187-5.2358-16.659-6.5633 14.043-5.2243-1.1589 9.2032-18.276-4.304-12.768 5.4938 1.2194zm-37.963-8.4191-4.8639-1.0782 0.94627-21.525 4.8625 1.0781zm223.03-3.6387-8.0566-12.89 9.0569-9.0951 2.0482 2.4864-6.9215 7.3474 6.4891 10.369zm-244.02-1.014-4.8192-1.0688 0.17296-3.9775c-1.72 2.642-4.3809 3.989-7.4879 3.3-6.576-1.458-11.657-7.7348-9.7487-16.336 1.248-5.63 5.3289-8.2679 10.734-7.0699 3.017 0.669 5.65 2.8593 7.142 5.9313l0.13405-3.3735 4.8178 1.0695zm236.81-0.58448-8.0558-12.889 9.0569-9.0951 2.0475 2.4856-6.9215 7.3481 6.4891 10.369zm-296.44-1.4457c-0.64587-0.04451-1.3115-0.1416-1.9927-0.2926l-9.6817-2.1484 1.4507-32.752 4.954 1.0976-0.58015 12.629 3.4679 0.76897 8.8666-10.792 5.5839 1.2389-9.1909 11.192c4.549 2.284 7.4674 6.8061 6.2094 12.48-1.022 4.6104-4.566 6.8893-9.0871 6.5777zm278.56-3.3894c-0.90668 0.05364-1.8524-0.01112-2.7869-0.21837-3.963-0.878-7.5522-4.0844-6.6332-8.2274 0.818-3.693 4.165-4.5097 6.822-4.7717 2.276-0.251 4.072-0.89195 4.412-2.4229 0.379-1.711-0.87209-2.8873-3.0341-3.3663-2.116-0.469-4.4417 0.43192-5.0916 2.9339l-3.7642-2.6298c0.795-3.367 4.5359-5.7513 9.7149-4.6023 4.774 1.058 8.1318 4.024 7.0238 9.023-0.869 3.918-3.9905 4.7854-6.6865 5.2264-2.652 0.452-4.4084 0.91314-4.6484 1.9941-0.299 1.351 1.1275 2.3756 2.5685 2.6946 1.667 0.37 3.237-0.32073 4.193-1.4327l3.6878 2.7559c-0.6855 1.6545-3.057 2.8825-5.777 3.0435zm-228.96-0.43025c2.4073 0.13761 4.7167-1.1429 5.4246-4.3349 0.11-0.495 0.17518-1.0016 0.22918-1.4616l0.04973-0.65006c0.058-4.523-3.0999-7.5389-6.1179-8.2079-3.332-0.739-5.8892 0.34824-6.6382 3.7252-1.168 5.269 1.8762 9.8661 6.0192 10.785 0.3435 0.07612 0.68957 0.12448 1.0335 0.14414zm-49.036-0.89509c1.7521-0.14072 3.0694-1.1682 3.5112-3.1609 0.929-4.189-1.5642-7.0094-5.3922-7.8584l-4.7291-1.0486-0.49439 10.758 5.2235 1.1581c0.66425 0.14725 1.297 0.19897 1.881 0.15206zm25.047-0.0072c-0.6425-0.0389-1.3088-0.13387-1.9956-0.28612-7.116-1.578-11.707-8.361-9.9801-16.152 1.219-5.494 5.1551-8.5427 11.19-7.2047 5.359 1.189 8.2667 4.0536 10.18 7.7856l-4.2571 1.5134c-1.302-2.651-3.9898-4.3811-6.5568-4.9511-3.017-0.669-5.033 0.96302-5.772 4.296l-0.11891 0.53979 16.437 3.6452c0.116 1.396 0.0073 2.7422-0.30269 4.1382-0.99575 4.4922-4.3258 6.948-8.8234 6.6757zm232.22-2.98c-0.53966-0.04098-1.1068-0.12904-1.6979-0.26017-2.072-0.459-4.5141-2.6535-6.0221-5.4455l-0.12756 3.1379-4.8192-1.0695 0.94627-21.525 4.8185 1.0688-0.58015 13.479c0.067 2.897 2.4544 5.1271 5.0664 5.7071 2.477 0.549 3.8931-0.50763 4.0661-4.0596l0.58952-13.099 4.8185 1.0681-0.5989 13.57c-0.22925 5.6954-2.6819 7.715-6.4595 7.4281zm-232.52-1.2648c2.3525 0.13721 3.7125-1.2616 4.2629-3.744l-11.304-2.5073c0.527 2.952 3.2246 5.487 5.9716 6.097 0.37712 0.08362 0.73343 0.13462 1.0695 0.15423zm206.13-4.6628c-0.74489-0.03761-1.5237-0.14384-2.3343-0.32359-6.305-1.398-12.027-7.77-10.229-15.876 1.318-5.945 6.9815-8.4688 12.115-7.3308 7.16 1.588 11.972 8.2301 10.274 15.886-1.0658 4.8072-4.6116 7.9076-9.8258 7.6443zm-256.66-1.7333-2.0468-2.4864 6.9208-7.3474-6.4891-10.369 2.6161-1.7823 8.0558 12.89zm-7.2047-1.5978-2.0482-2.4864 6.9208-7.3481-6.4891-10.369 2.6161-1.7823 8.0573 12.89zm263.39-1.1769c2.7816 0.11765 4.8984-1.5985 5.5363-4.4755 1.109-4.998-2.0049-9.2802-6.1489-10.199-3.332-0.739-5.9828 0.98884-6.7118 4.2758-1.109 4.999 1.9494 9.3165 6.0934 10.234 0.42212 0.09363 0.83355 0.14751 1.2309 0.16432zm-22.523-0.53187c-0.52757-0.02723-1.0874-0.1067-1.6785-0.23783-2.702-0.599-5.035-2.8637-6.342-5.7057-1.21 2.473-3.5212 3.519-6.7182 2.81-2.207-0.489-4.294-2.3687-5.581-4.8747l-0.11891 2.6665-4.7292-1.0486 0.94626-21.525 4.7292 1.0479-0.58015 13.48c0.067 2.472 1.644 4.9469 4.616 5.6069 2.477 0.549 3.5868-1.0484 3.7058-4.1403l0.5888-13.098 4.7292 1.0486-0.56862 13.434c0.056 2.517 1.5875 4.9826 4.6045 5.6516 2.477 0.549 3.5875-1.0476 3.7065-4.1396l0.5888-13.099 4.7292 1.0493-0.60898 14.039c-0.21263 4.8729-2.3255 7.2259-6.0185 7.0353zm-36.478-8.0883c-0.5275-0.02713-1.0875-0.10611-1.6785-0.23711-2.702-0.6-5.035-2.8654-6.342-5.7064-1.21 2.472-3.521 3.5182-6.719 2.8092-2.206-0.489-4.294-2.3687-5.581-4.8747l-0.11819 2.6665-4.7284-1.0486 0.94554-21.525 4.7284 1.0493-0.57943 13.479c0.066 2.472 1.644 4.9479 4.616 5.6069 2.477 0.549 3.587-1.0484 3.705-4.1403l0.59024-13.098 4.7292 1.0486-0.57007 13.434c0.056 2.517 1.5889 4.9826 4.6059 5.6516 2.477 0.549 3.5868-1.0476 3.7058-4.1396l0.5888-13.099 4.7292 1.0493-0.60898 14.039c-0.21263 4.8729-2.326 7.226-6.0185 7.0361zm-64.146-2.9995c-1.0177-0.06183-2.0996-0.21586-3.2481-0.47061-10.313-2.287-17.392-12.55-14.886-23.854 1.738-7.836 7.9096-12.658 16.827-10.681 4.593 1.019 7.6365 3.0641 9.9945 5.8541l-0.27241 6.1302c-2.083-3.392-5.4771-5.987-10.385-7.075-5.044-1.119-9.8708 1.6847-11.15 7.4497-1.807 8.151 3.87 15.79 10.535 17.268 4.459 0.988 8.001-0.06905 10.331-2.482l-0.27242 6.1294c-1.947 1.269-4.4204 1.9166-7.4735 1.7311zm25.171-5.7021c-0.74489-0.03761-1.5237-0.14384-2.3343-0.32359-6.305-1.399-12.027-7.7705-10.229-15.877 1.318-5.944 6.9808-8.4674 12.115-7.3294 7.16 1.588 11.972 8.2294 10.274 15.885-1.0658 4.8072-4.6109 7.9083-9.8251 7.645zm-0.47061-4.5079c2.7823 0.11765 4.8992-1.5992 5.537-4.4762 1.109-4.999-2.0049-9.2794-6.1489-10.198-3.332-0.739-5.9835 0.98884-6.7125 4.2758-1.109 4.999 1.9504 9.3158 6.0934 10.234 0.42225 0.09362 0.83346 0.14823 1.2309 0.16504zm-129.15-9.8676-4.8639-1.0781 1.5754-36.506 4.8625 1.0796-0.16288 3.9328c1.72-2.643 4.3713-3.9451 7.4793-3.2561 6.575 1.458 11.656 7.7353 9.7487 16.337-1.249 5.629-5.3299 8.2675-10.734 7.0685-3.018-0.669-5.605-2.8487-7.098-5.9197zm62.067-0.52826c-0.53966-0.04098-1.1068-0.12904-1.6979-0.26017-2.071-0.459-4.5136-2.6545-6.0206-5.4455l-0.129 3.1364-4.8192-1.0681 0.94626-21.525 4.8185 1.0681-0.57871 13.48c0.066 2.897 2.4537 5.1274 5.0657 5.7064 2.477 0.55 3.8924-0.50691 4.0654-4.0589l0.59025-13.099 4.8185 1.0681-0.59961 13.57c-0.22925 5.6954-2.6819 7.715-6.4595 7.4281zm-18.341-4.8949-4.8178-1.0688 0.17296-3.9782c-1.72 2.643-4.3814 3.9897-7.4894 3.3007-6.575-1.458-11.656-7.7345-9.7487-16.337 1.249-5.629 5.3299-8.2682 10.734-7.0692 3.018 0.669 5.6507 2.8588 7.1427 5.9298l0.13405-3.3721 4.8185 1.0695zm-70.758-4.3508-4.954-1.0983 1.001-21.986c0.183-4.023-2.3301-7.6037-6.3831-8.5027-3.513-0.779-5.604 0.97858-6.293 4.0856-0.11 0.495-0.17395 1.001-0.20395 1.561l-1.001 21.986-4.954-1.099 1.001-21.985c0.055-0.886 0.15359-1.7624 0.32359-2.5274 1.248-5.63 5.5952-7.9731 11.765-6.6051 6.98 1.548 11.026 6.7453 10.699 14.185zm61.762-1.5279c2.013-0.23808 3.7966-1.5701 4.4034-4.3061 0.11-0.496 0.17418-1.0016 0.22918-1.4616l0.05045-0.65078c0.058-4.523-3.1016-7.5379-6.1186-8.2079-3.333-0.738-5.8885 0.34796-6.6375 3.726-1.168 5.269 1.8755 9.8661 6.0185 10.785 0.68675 0.15225 1.3837 0.19467 2.0547 0.11531zm-45.17-5.2913c-0.39359-0.01942-0.78376-0.07029-1.1553-0.15278-1.351-0.299-2.9281-1.9256-4.0301-4.2016l-0.09441 2.3422-5.0888-1.1293 0.94626-21.525 5.0888 1.1293-0.61907 13.658c-4e-3 2.787 0.96235 4.608 3.3044 5.127 1.171 0.26 2.0515 0.12425 3.0665-0.40575l1.7981 4.4618c-0.825 0.52575-2.0356 0.75373-3.2164 0.69546zm19.964-0.27242c2.1601-0.15202 3.7379-1.3964 4.2996-3.9299 1.168-5.269-1.8755-9.8661-6.0185-10.785-2.747-0.609-5.6491 0.54352-6.4581 4.1915-0.099 0.45-0.18922 0.85557-0.23422 1.2706l-0.03964 1.0313c0.062 4.408 3.1409 7.3579 6.1129 8.0169 0.83325 0.18475 1.6179 0.25535 2.3379 0.20468z" clip-path="url(#clipPath61)" fill="#e7eb13"/>
    <path transform="matrix(.71704 0 0 -.71704 20.169 111.4)" d="m273.38 152.93-4.8632-1.0789 1.574-36.505 4.8639 1.0781-0.46989 11.283 8.8918-9.415 5.8541 1.298-9.9923 10.542 8.1459 10.783-6.5309-1.4479-6.5431-8.6331zm21.4-9.4338c-0.40012 0.0663-0.82311 0.058-1.2511-0.0368-1.711-0.38-2.7736-1.9853-2.4136-3.6063 0.359-1.622 2.0005-2.6276 3.7115-2.2486 1.712 0.38 2.7726 1.985 2.4136 3.607-0.27 1.2158-1.26 2.0856-2.4604 2.2846zm-92.149-6.2548-4.8185-1.0681 1.574-36.506 4.8192 1.0688-0.59889 13.569c0.166 2.872 2.5189 5.048 5.0859 5.617 2.477 0.549 3.8921-0.50735 4.0661-4.0604l0.5888-13.099 4.8192 1.0695-0.59889 13.569c-0.263 6.51-3.4292 8.2167-8.1582 7.1687-2.071-0.46-4.4689-2.6451-5.9759-5.4361zm58.257-1.8298c-1.2802 0.1-2.7278-0.0314-4.1468-0.34593-7.521-1.668-12.527-8.4951-10.799-16.286 1.188-5.359 5.7044-8.4682 12.234-7.0202 2.837 0.629 5.2994 1.8837 6.6714 3.7937l-0.28179 6.1756c-0.857-2.317-3.2255-4.6373-6.5575-5.3763-3.918-0.869-6.4985 0.96789-7.1975 4.1209-1.069 4.819 1.7296 9.0302 6.9986 10.199 2.432 0.539 5.4688-0.58289 6.5028-2.4799l-0.28179 6.1741c-0.75 0.6135-1.8627 0.94499-3.1429 1.045zm-75.846-5.1551c-1.0177-0.0617-2.0996-0.21539-3.2481-0.46989-10.313-2.287-17.392-12.551-14.886-23.855 1.738-7.836 7.9096-12.657 16.827-10.68 4.594 1.019 7.6375 3.0639 9.9945 5.8549l-0.27242 6.1294c-2.083-3.391-5.4761-5.986-10.385-7.075-5.044-1.118-9.871 1.6858-11.149 7.4497-1.808 8.152 3.869 15.789 10.535 17.267 4.458 0.989 8.0003-0.0686 10.33-2.4806l-0.27242 6.1287c-1.947 1.269-4.4204 1.9162-7.4735 1.7311zm48.927-0.3971c-0.64251-0.0389-1.3088-0.13386-1.9956-0.28611-7.116-1.578-11.707-8.361-9.9794-16.152 1.218-5.494 5.1544-8.5427 11.189-7.2047 5.359 1.189 8.2667 4.0536 10.18 7.7856l-4.2571 1.5134c-1.302-2.651-3.9898-4.3814-6.5568-4.9504-3.017-0.669-5.033 0.9633-5.772 4.2953l-0.11891 0.54052 16.437 3.6452c0.116 1.395 7e-3 2.7412-0.30269 4.1382-0.99575 4.4922-4.3258 6.9474-8.8234 6.675zm61.454-4.1757c-0.40007 0.0664-0.82337 0.058-1.2511-0.0368-1.712-0.38-2.7733-1.9853-2.4143-3.6063 0.36-1.621 2.0003-2.6275 3.7123-2.2485 1.711 0.37999 2.7729 1.9853 2.4129 3.6063-0.26925 1.2165-1.2595 2.0862-2.4597 2.2853zm-61.753-0.0692c2.3529 0.13721 3.7125-1.2616 4.2629-3.744l-11.305-2.5073c0.527 2.952 3.2253 5.488 5.9723 6.097 0.37725 0.0836 0.73337 0.13462 1.0695 0.15423zm-130.79-10.492-4.8185-1.068 1.574-36.506 4.8192 1.0688zm8.8443-1.8226c-0.40007 0.0663-0.82336 0.0575-1.2511-0.0375-1.711-0.379-2.7729-1.9846-2.4129-3.6056 0.359-1.621 1.9998-2.6278 3.7108-2.2478 1.712 0.379 2.7733 1.9846 2.4143 3.6056-0.27 1.2158-1.2609 2.0864-2.4612 2.2853zm12.703-0.95924-4.9086-1.0882 0.33656-7.4843-3.287-0.72933 0.18306-4.4488 3.287 0.72861 0.76321-17.076 4.9093 1.0882-0.76321 17.077 3.2878 0.72933-0.18377 4.4481-3.2871-0.72933zm27.492-1.463-5.4938-1.2187-5.2358-16.659-6.5633 14.043-5.2243-1.1589 9.2032-18.276-4.304-12.768 5.4938 1.2194zm-37.963-8.4191-4.8639-1.0782 0.94627-21.525 4.8625 1.0781zm223.03-3.6387-8.0566-12.89 9.0569-9.0951 2.0482 2.4864-6.9215 7.3474 6.4891 10.369zm-244.02-1.014-4.8192-1.0688 0.17296-3.9775c-1.72 2.642-4.3809 3.989-7.4879 3.3-6.576-1.458-11.657-7.7348-9.7487-16.336 1.248-5.63 5.3289-8.2679 10.734-7.0699 3.017 0.669 5.65 2.8593 7.142 5.9313l0.13405-3.3735 4.8178 1.0695zm236.81-0.58448-8.0558-12.889 9.0569-9.0951 2.0475 2.4856-6.9215 7.3481 6.4891 10.369zm-296.44-1.4457c-0.64587-0.04451-1.3115-0.1416-1.9927-0.2926l-9.6817-2.1484 1.4507-32.752 4.954 1.0976-0.58015 12.629 3.4679 0.76897 8.8666-10.792 5.5839 1.2389-9.1909 11.192c4.549 2.284 7.4674 6.8061 6.2094 12.48-1.022 4.6104-4.566 6.8893-9.0871 6.5777zm278.56-3.3894c-0.90668 0.05364-1.8524-0.01112-2.7869-0.21837-3.963-0.878-7.5522-4.0844-6.6332-8.2274 0.818-3.693 4.165-4.5097 6.822-4.7717 2.276-0.251 4.072-0.89195 4.412-2.4229 0.379-1.711-0.87209-2.8873-3.0341-3.3663-2.116-0.469-4.4417 0.43192-5.0916 2.9339l-3.7642-2.6298c0.795-3.367 4.5359-5.7513 9.7149-4.6023 4.774 1.058 8.1318 4.024 7.0238 9.023-0.869 3.918-3.9905 4.7854-6.6865 5.2264-2.652 0.452-4.4084 0.91314-4.6484 1.9941-0.299 1.351 1.1275 2.3756 2.5685 2.6946 1.667 0.37 3.237-0.32073 4.193-1.4327l3.6878 2.7559c-0.6855 1.6545-3.057 2.8825-5.777 3.0435zm-228.96-0.43025c2.4073 0.13761 4.7167-1.1429 5.4246-4.3349 0.11-0.495 0.17518-1.0016 0.22918-1.4616l0.04973-0.65006c0.058-4.523-3.0999-7.5389-6.1179-8.2079-3.332-0.739-5.8892 0.34824-6.6382 3.7252-1.168 5.269 1.8762 9.8661 6.0192 10.785 0.3435 0.07612 0.68957 0.12448 1.0335 0.14414zm-49.036-0.89509c1.7521-0.14072 3.0694-1.1682 3.5112-3.1609 0.929-4.189-1.5642-7.0094-5.3922-7.8584l-4.7291-1.0486-0.49439 10.758 5.2235 1.1581c0.66425 0.14725 1.297 0.19897 1.881 0.15206zm25.047-0.0072c-0.6425-0.0389-1.3088-0.13387-1.9956-0.28612-7.116-1.578-11.707-8.361-9.9801-16.152 1.219-5.494 5.1551-8.5427 11.19-7.2047 5.359 1.189 8.2667 4.0536 10.18 7.7856l-4.2571 1.5134c-1.302-2.651-3.9898-4.3811-6.5568-4.9511-3.017-0.669-5.033 0.96302-5.772 4.296l-0.11891 0.53979 16.437 3.6452c0.116 1.396 0.0073 2.7422-0.30269 4.1382-0.99575 4.4922-4.3258 6.948-8.8234 6.6757zm232.22-2.98c-0.53966-0.04098-1.1068-0.12904-1.6979-0.26017-2.072-0.459-4.5141-2.6535-6.0221-5.4455l-0.12756 3.1379-4.8192-1.0695 0.94627-21.525 4.8185 1.0688-0.58015 13.479c0.067 2.897 2.4544 5.1271 5.0664 5.7071 2.477 0.549 3.8931-0.50763 4.0661-4.0596l0.58952-13.099 4.8185 1.0681-0.5989 13.57c-0.22925 5.6954-2.6819 7.715-6.4595 7.4281zm-232.52-1.2648c2.3525 0.13721 3.7125-1.2616 4.2629-3.744l-11.304-2.5073c0.527 2.952 3.2246 5.487 5.9716 6.097 0.37712 0.08362 0.73343 0.13462 1.0695 0.15423zm206.13-4.6628c-0.74489-0.03761-1.5237-0.14384-2.3343-0.32359-6.305-1.398-12.027-7.77-10.229-15.876 1.318-5.945 6.9815-8.4688 12.115-7.3308 7.16 1.588 11.972 8.2301 10.274 15.886-1.0658 4.8072-4.6116 7.9076-9.8258 7.6443zm-256.66-1.7333-2.0468-2.4864 6.9208-7.3474-6.4891-10.369 2.6161-1.7823 8.0558 12.89zm-7.2047-1.5978-2.0482-2.4864 6.9208-7.3481-6.4891-10.369 2.6161-1.7823 8.0573 12.89zm263.39-1.1769c2.7816 0.11765 4.8984-1.5985 5.5363-4.4755 1.109-4.998-2.0049-9.2802-6.1489-10.199-3.332-0.739-5.9828 0.98884-6.7118 4.2758-1.109 4.999 1.9494 9.3165 6.0934 10.234 0.42212 0.09363 0.83355 0.14751 1.2309 0.16432zm-22.523-0.53187c-0.52757-0.02723-1.0874-0.1067-1.6785-0.23783-2.702-0.599-5.035-2.8637-6.342-5.7057-1.21 2.473-3.5212 3.519-6.7182 2.81-2.207-0.489-4.294-2.3687-5.581-4.8747l-0.11891 2.6665-4.7292-1.0486 0.94626-21.525 4.7292 1.0479-0.58015 13.48c0.067 2.472 1.644 4.9469 4.616 5.6069 2.477 0.549 3.5868-1.0484 3.7058-4.1403l0.5888-13.098 4.7292 1.0486-0.56862 13.434c0.056 2.517 1.5875 4.9826 4.6045 5.6516 2.477 0.549 3.5875-1.0476 3.7065-4.1396l0.5888-13.099 4.7292 1.0493-0.60898 14.039c-0.21263 4.8729-2.3255 7.2259-6.0185 7.0353zm-36.478-8.0883c-0.5275-0.02713-1.0875-0.10611-1.6785-0.23711-2.702-0.6-5.035-2.8654-6.342-5.7064-1.21 2.472-3.521 3.5182-6.719 2.8092-2.206-0.489-4.294-2.3687-5.581-4.8747l-0.11819 2.6665-4.7284-1.0486 0.94554-21.525 4.7284 1.0493-0.57943 13.479c0.066 2.472 1.644 4.9479 4.616 5.6069 2.477 0.549 3.587-1.0484 3.705-4.1403l0.59024-13.098 4.7292 1.0486-0.57007 13.434c0.056 2.517 1.5889 4.9826 4.6059 5.6516 2.477 0.549 3.5868-1.0476 3.7058-4.1396l0.5888-13.099 4.7292 1.0493-0.60898 14.039c-0.21263 4.8729-2.326 7.226-6.0185 7.0361zm-64.146-2.9995c-1.0177-0.06183-2.0996-0.21586-3.2481-0.47061-10.313-2.287-17.392-12.55-14.886-23.854 1.738-7.836 7.9096-12.658 16.827-10.681 4.593 1.019 7.6365 3.0641 9.9945 5.8541l-0.27241 6.1302c-2.083-3.392-5.4771-5.987-10.385-7.075-5.044-1.119-9.8708 1.6847-11.15 7.4497-1.807 8.151 3.87 15.79 10.535 17.268 4.459 0.988 8.001-0.06905 10.331-2.482l-0.27242 6.1294c-1.947 1.269-4.4204 1.9166-7.4735 1.7311zm25.171-5.7021c-0.74489-0.03761-1.5237-0.14384-2.3343-0.32359-6.305-1.399-12.027-7.7705-10.229-15.877 1.318-5.944 6.9808-8.4674 12.115-7.3294 7.16 1.588 11.972 8.2294 10.274 15.885-1.0658 4.8072-4.6109 7.9083-9.8251 7.645zm-0.47061-4.5079c2.7823 0.11765 4.8992-1.5992 5.537-4.4762 1.109-4.999-2.0049-9.2794-6.1489-10.198-3.332-0.739-5.9835 0.98884-6.7125 4.2758-1.109 4.999 1.9504 9.3158 6.0934 10.234 0.42225 0.09362 0.83346 0.14823 1.2309 0.16504zm-129.15-9.8676-4.8639-1.0781 1.5754-36.506 4.8625 1.0796-0.16288 3.9328c1.72-2.643 4.3713-3.9451 7.4793-3.2561 6.575 1.458 11.656 7.7353 9.7487 16.337-1.249 5.629-5.3299 8.2675-10.734 7.0685-3.018-0.669-5.605-2.8487-7.098-5.9197zm62.067-0.52826c-0.53966-0.04098-1.1068-0.12904-1.6979-0.26017-2.071-0.459-4.5136-2.6545-6.0206-5.4455l-0.129 3.1364-4.8192-1.0681 0.94626-21.525 4.8185 1.0681-0.57871 13.48c0.066 2.897 2.4537 5.1274 5.0657 5.7064 2.477 0.55 3.8924-0.50691 4.0654-4.0589l0.59025-13.099 4.8185 1.0681-0.59961 13.57c-0.22925 5.6954-2.6819 7.715-6.4595 7.4281zm-18.341-4.8949-4.8178-1.0688 0.17296-3.9782c-1.72 2.643-4.3814 3.9897-7.4894 3.3007-6.575-1.458-11.656-7.7345-9.7487-16.337 1.249-5.629 5.3299-8.2682 10.734-7.0692 3.018 0.669 5.6507 2.8588 7.1427 5.9298l0.13405-3.3721 4.8185 1.0695zm-70.758-4.3508-4.954-1.0983 1.001-21.986c0.183-4.023-2.3301-7.6037-6.3831-8.5027-3.513-0.779-5.604 0.97858-6.293 4.0856-0.11 0.495-0.17395 1.001-0.20395 1.561l-1.001 21.986-4.954-1.099 1.001-21.985c0.055-0.886 0.15359-1.7624 0.32359-2.5274 1.248-5.63 5.5952-7.9731 11.765-6.6051 6.98 1.548 11.026 6.7453 10.699 14.185zm61.762-1.5279c2.013-0.23808 3.7966-1.5701 4.4034-4.3061 0.11-0.496 0.17418-1.0016 0.22918-1.4616l0.05045-0.65078c0.058-4.523-3.1016-7.5379-6.1186-8.2079-3.333-0.738-5.8885 0.34796-6.6375 3.726-1.168 5.269 1.8755 9.8661 6.0185 10.785 0.68675 0.15225 1.3837 0.19467 2.0547 0.11531zm-45.17-5.2913c-0.39359-0.01942-0.78376-0.07029-1.1553-0.15278-1.351-0.299-2.9281-1.9256-4.0301-4.2016l-0.09441 2.3422-5.0888-1.1293 0.94626-21.525 5.0888 1.1293-0.61907 13.658c-4e-3 2.787 0.96235 4.608 3.3044 5.127 1.171 0.26 2.0515 0.12425 3.0665-0.40575l1.7981 4.4618c-0.825 0.52575-2.0356 0.75373-3.2164 0.69546zm19.964-0.27242c2.1601-0.15202 3.7379-1.3964 4.2996-3.9299 1.168-5.269-1.8755-9.8661-6.0185-10.785-2.747-0.609-5.6491 0.54352-6.4581 4.1915-0.099 0.45-0.18922 0.85557-0.23422 1.2706l-0.03964 1.0313c0.062 4.408 3.1409 7.3579 6.1129 8.0169 0.83325 0.18475 1.6179 0.25535 2.3379 0.20468z" clip-path="url(#clipPath61-5)" fill="#0046ad"/>
</svg>
