<?xml version="1.0" encoding="UTF-8" standalone="no"?>
<!-- Created with Inkscape (http://www.inkscape.org/) -->

<svg
   width="268.84454mm"
   height="117.2193mm"
   viewBox="0 0 268.84453 117.2193"
   version="1.1"
   id="svg33894"
   inkscape:version="1.1 (c4e8f9ed74, 2021-05-24)"
   sodipodi:docname="strategien_des_wandels_accent.svg"
   xmlns:inkscape="http://www.inkscape.org/namespaces/inkscape"
   xmlns:sodipodi="http://sodipodi.sourceforge.net/DTD/sodipodi-0.dtd"
   xmlns="http://www.w3.org/2000/svg"
   xmlns:svg="http://www.w3.org/2000/svg">
  <sodipodi:namedview
     id="namedview33896"
     pagecolor="#505050"
     bordercolor="#eeeeee"
     borderopacity="1"
     inkscape:pageshadow="0"
     inkscape:pageopacity="0"
     inkscape:pagecheckerboard="0"
     inkscape:document-units="mm"
     showgrid="false"
     inkscape:zoom="1.1326109"
     inkscape:cx="606.56315"
     inkscape:cy="208.36813"
     inkscape:window-width="2560"
     inkscape:window-height="1371"
     inkscape:window-x="0"
     inkscape:window-y="0"
     inkscape:window-maximized="1"
     inkscape:current-layer="layer1"
     fit-margin-top="0"
     fit-margin-left="0"
     fit-margin-right="0"
     fit-margin-bottom="0"
     inkscape:snap-global="false" />
  <defs
     id="defs33891" />
  <g
     inkscape:label="Layer 1"
     inkscape:groupmode="layer"
     id="layer1"
     transform="translate(-16.576679,-135.14324)">
    <g
       aria-label="»Strategien des Wandels«"
       transform="matrix(1.4669447,-0.16065588,0.00647342,1.4838302,80.469865,27.166577)"
       id="text14"
       style="font-style:italic;font-weight:500;font-size:16.0199px;font-family:Jost;-inkscape-font-specification:Jost-MediumItalic;fill:#ffff00;stroke-width:0.34881">
      <path
         d="m -40.790749,119.21376 -1.810248,-3.12388 1.185472,-0.81702 2.242786,3.9409 -3.508358,3.84477 -0.961194,-0.89711 z m 2.771443,0 -1.826269,-3.12388 1.185473,-0.81702 2.242786,3.9409 -3.508358,3.84477 -0.945174,-0.89711 z"
         style="font-family:'Jost*';-inkscape-font-specification:'Jost* Medium Italic'"
         id="path33988" />
      <path
         d="m -33.854138,119.47007 c 0.144179,0.41652 0.320398,0.801 0.512637,1.15344 0.192238,0.35243 0.448557,0.62477 0.736915,0.83303 0.288358,0.20826 0.640796,0.30438 1.089353,0.30438 0.512637,0 0.945174,-0.12816 1.297612,-0.41652 0.352438,-0.27234 0.576716,-0.64079 0.656816,-1.10537 0.06408,-0.4005 0.01602,-0.73692 -0.176219,-1.00925 -0.192239,-0.25632 -0.448557,-0.4806 -0.768955,-0.67284 -0.336418,-0.17622 -0.688856,-0.33642 -1.041294,-0.49662 -0.416517,-0.17622 -0.817015,-0.40049 -1.201492,-0.68885 -0.384478,-0.27234 -0.688856,-0.62478 -0.913134,-1.0413 -0.224279,-0.41651 -0.304379,-0.92915 -0.224279,-1.53791 0.09612,-0.59273 0.320398,-1.10537 0.704876,-1.55393 0.368457,-0.44855 0.833034,-0.78497 1.393731,-1.02527 0.560696,-0.2403 1.169452,-0.36846 1.810248,-0.36846 0.608757,0 1.121393,0.12816 1.569951,0.35244 0.432537,0.22428 0.784975,0.52866 1.073333,0.89711 0.288358,0.36846 0.496617,0.76896 0.624776,1.18548 l -1.56995,0.89711 c -0.176219,-0.43254 -0.400498,-0.81701 -0.688856,-1.13741 -0.288358,-0.3204 -0.688856,-0.49662 -1.201492,-0.49662 -0.448558,0 -0.849055,0.12816 -1.185473,0.36846 -0.336418,0.25632 -0.528657,0.57672 -0.592736,0.97721 -0.06408,0.35244 0,0.6408 0.224278,0.86508 0.208259,0.22428 0.496617,0.41652 0.849055,0.57671 0.352438,0.1602 0.704876,0.3204 1.057313,0.46458 0.448558,0.19224 0.849055,0.44856 1.217513,0.75294 0.368457,0.30437 0.656816,0.67283 0.849054,1.10537 0.192239,0.43254 0.240299,0.94517 0.176219,1.52189 -0.09612,0.67284 -0.336418,1.24955 -0.720895,1.74617 -0.384478,0.49662 -0.865075,0.88109 -1.457811,1.15343 -0.592736,0.27234 -1.249552,0.4005 -1.986468,0.4005 -0.640795,0 -1.201492,-0.12816 -1.682089,-0.4005 -0.496617,-0.25632 -0.913134,-0.62477 -1.249552,-1.08935 -0.336418,-0.46458 -0.576716,-0.99324 -0.736915,-1.58597 z"
         style="font-family:'Jost*';-inkscape-font-specification:'Jost* Medium Italic'"
         id="path33990" />
      <path
         d="m -24.386386,113.31843 h 1.714129 l -0.448557,2.56319 h 1.217512 l -0.256318,1.53791 h -1.217512 l -1.009254,5.83124 h -1.682089 l 0.993233,-5.83124 h -1.185472 l 0.272338,-1.53791 h 1.169453 z"
         style="font-family:'Jost*';-inkscape-font-specification:'Jost* Medium Italic'"
         id="path33992" />
      <path
         d="m -17.113356,117.73993 c -0.144179,-0.11214 -0.288358,-0.20826 -0.416517,-0.27234 -0.128159,-0.0641 -0.288358,-0.11214 -0.464577,-0.11214 -0.432537,0 -0.768955,0.1602 -1.009254,0.48059 -0.240298,0.33642 -0.400497,0.70488 -0.496617,1.1214 l -0.752935,4.29333 h -1.698109 l 1.281592,-7.36915 h 1.698109 l -0.144179,0.86507 c 0.240298,-0.30438 0.512637,-0.54468 0.817015,-0.73691 0.288358,-0.19224 0.608756,-0.28836 0.945174,-0.28836 0.256318,0 0.496617,0.0641 0.704875,0.1602 0.208259,0.0961 0.400498,0.2403 0.576717,0.41651 z"
         style="font-family:'Jost*';-inkscape-font-specification:'Jost* Medium Italic'"
         id="path33994" />
      <path
         d="m -16.200226,119.56619 c 0.09612,-0.72089 0.352438,-1.37771 0.736915,-1.95442 0.384478,-0.57672 0.881095,-1.0413 1.473831,-1.37772 0.576716,-0.33641 1.217512,-0.51263 1.890348,-0.51263 0.592736,0 1.073333,0.1602 1.441791,0.44856 0.368458,0.30437 0.640796,0.68885 0.8170148,1.16945 l 0.2402985,-1.45781 h 1.6981094 l -1.281592,7.36915 H -10.83356 l 0.208259,-1.23353 c -0.320398,0.43254 -0.704876,0.76895 -1.153433,1.02527 -0.448557,0.25632 -0.961194,0.36846 -1.505871,0.36846 -0.672835,0 -1.249552,-0.1602 -1.714129,-0.51264 -0.480597,-0.35244 -0.817015,-0.81701 -1.025273,-1.40975 -0.224279,-0.57671 -0.272339,-1.21751 -0.176219,-1.92239 z m 1.762189,0 c -0.06408,0.41652 -0.04806,0.801 0.0801,1.15344 0.11214,0.35243 0.304378,0.64079 0.576717,0.84905 0.272338,0.22428 0.624776,0.3204 1.041293,0.3204 0.368458,0 0.736915,-0.0961 1.089353,-0.30438 0.352438,-0.19224 0.640796,-0.4806 0.897115,-0.83303 0.256318,-0.35244 0.416517,-0.73692 0.480597,-1.18548 0.04806,-0.40049 0.01602,-0.76895 -0.09612,-1.12139 -0.112139,-0.35244 -0.288358,-0.62478 -0.544676,-0.84905 -0.256319,-0.22428 -0.560697,-0.33642 -0.929155,-0.35244 -0.416517,0 -0.817014,0.0961 -1.185472,0.28836 -0.368458,0.20826 -0.672836,0.49661 -0.929154,0.84905 -0.256319,0.35244 -0.416518,0.75294 -0.480598,1.18547 z"
         style="font-family:'Jost*';-inkscape-font-specification:'Jost* Medium Italic'"
         id="path33996" />
      <path
         d="m -5.114462,113.31843 h 1.7141292 l -0.4485572,2.56319 h 1.2175124 l -0.2563184,1.53791 h -1.2175124 l -1.0092536,5.83124 h -1.6820895 l 0.9932338,-5.83124 h -1.1854725 l 0.2723382,-1.53791 h 1.1694527 z"
         style="font-family:'Jost*';-inkscape-font-specification:'Jost* Medium Italic'"
         id="path33998" />
      <path
         d="M -0.54879568,118.7652 H 3.1518011 c 0.01602,-0.46458 -0.096119,-0.86508 -0.320398,-1.20149 -0.2402985,-0.33642 -0.6247761,-0.51264 -1.1534328,-0.51264 -0.5446765,0 -1.00925363,0.1602 -1.39373121,0.4806 -0.40049749,0.32039 -0.67283578,0.73691 -0.83303477,1.23353 z m -0.22427859,1.20149 c -0.0160199,0.5607 0.1121393,1.02527 0.36845769,1.40975 0.25631839,0.38448 0.67283577,0.59274 1.24955215,0.59274 0.48059693,0.016 0.89711433,-0.0961 1.26557203,-0.3204 0.3684577,-0.22428 0.6888557,-0.51264 0.961194,-0.83303 l 1.4417909,0.62477 c -0.4485572,0.57672 -0.9932337,1.05732 -1.6340297,1.42577 -0.640796,0.36846 -1.3777114,0.54468 -2.22676603,0.54468 -0.73691537,0 -1.36169144,-0.17622 -1.85830837,-0.52866 -0.4966168,-0.35243 -0.8490546,-0.81701 -1.0733332,-1.39373 -0.2242786,-0.57671 -0.3043781,-1.21751 -0.2082587,-1.92239 0.01602,-0.12816 0.03204,-0.27233 0.06408,-0.40049 0.03204,-0.12816 0.06408,-0.25632 0.1121393,-0.38448 0.1762189,-0.57672 0.4645771,-1.10537 0.8490547,-1.56995 0.3844775,-0.44856 0.86507452,-0.81702 1.425771,-1.08935 0.54467658,-0.25632 1.1694527,-0.4005 1.8422884,-0.4005 0.7369154,0 1.3616915,0.17622 1.8422885,0.49661 0.4805969,0.33642 0.8330347,0.78498 1.0412934,1.3617 0.2082587,0.57671 0.2723383,1.20149 0.1922388,1.90636 -0.01602,0.0801 -0.03204,0.1602 -0.04806,0.2403 -0.01602,0.0801 -0.03204,0.1602 -0.04806,0.2403 z"
         style="font-family:'Jost*';-inkscape-font-specification:'Jost* Medium Italic'"
         id="path34000" />
      <path
         d="m 5.9072176,119.53415 c 0.096119,-0.72089 0.3524378,-1.37771 0.7369154,-1.95442 0.3844776,-0.57672 0.8810944,-1.02528 1.4738307,-1.3617 0.5767164,-0.32039 1.2175124,-0.49661 1.8903483,-0.49661 0.560696,0 1.025273,0.14418 1.393731,0.41652 0.368458,0.27233 0.640796,0.62477 0.833035,1.07333 l 0.240298,-1.32965 h 1.68209 l -1.233532,7.20895 c -0.12816,0.801 -0.384478,1.48985 -0.768956,2.06657 -0.400497,0.59273 -0.897114,1.04129 -1.48985,1.36169 -0.608756,0.3204 -1.2655723,0.4806 -2.0024877,0.4806 -1.1053731,0 -1.9544277,-0.28836 -2.547164,-0.89712 -0.5927363,-0.60875 -0.8490547,-1.39373 -0.7849751,-2.35492 l 1.6660696,0.016 c -0.01602,0.49661 0.1121393,0.91313 0.4004974,1.23353 0.2723383,0.3204 0.7048756,0.4806 1.2976119,0.4806 0.4165174,0 0.800995,-0.0961 1.1534328,-0.28836 0.3524381,-0.19224 0.6568161,-0.4806 0.9131341,-0.84906 0.240299,-0.35243 0.400498,-0.76895 0.464577,-1.24955 l 0.160199,-1.00925 c -0.320398,0.38448 -0.704875,0.68885 -1.137413,0.91313 -0.4325369,0.22428 -0.9131339,0.3204 -1.4257707,0.3204 -0.6728358,0 -1.2495522,-0.1602 -1.7141292,-0.49662 -0.480597,-0.33641 -0.8170149,-0.80099 -1.0252736,-1.37771 -0.2242786,-0.57671 -0.2723383,-1.20149 -0.1762189,-1.90637 z m 1.7782088,0 c -0.096119,0.62478 0,1.15344 0.3043781,1.60199 0.3043781,0.44856 0.7689552,0.67284 1.3937313,0.67284 0.3524378,0 0.6888552,-0.0801 1.0252732,-0.25632 0.320398,-0.17622 0.608757,-0.41652 0.865075,-0.72089 0.240298,-0.30438 0.416517,-0.65682 0.512637,-1.05732 l 0.06408,-0.36846 c 0.04806,-0.59273 -0.06408,-1.10537 -0.352438,-1.52189 -0.288358,-0.41651 -0.704875,-0.62477 -1.233532,-0.64079 -0.432537,0 -0.8330345,0.0961 -1.1854723,0.28836 -0.3684577,0.20826 -0.6728358,0.48059 -0.9131343,0.83303 -0.2563184,0.35244 -0.4165174,0.73692 -0.480597,1.16945 z"
         style="font-family:'Jost*';-inkscape-font-specification:'Jost* Medium Italic'"
         id="path34002" />
      <path
         d="m 16.736664,112.966 c 0,-0.30438 0.09612,-0.5607 0.320398,-0.75294 0.208258,-0.19224 0.464577,-0.30438 0.768955,-0.30438 0.304378,0 0.560696,0.11214 0.768955,0.30438 0.208259,0.19224 0.320398,0.44856 0.320398,0.75294 0,0.30437 -0.112139,0.56069 -0.320398,0.75293 -0.208259,0.19224 -0.464577,0.28836 -0.768955,0.28836 -0.304378,0 -0.560697,-0.0961 -0.768955,-0.28836 -0.224279,-0.19224 -0.320398,-0.44856 -0.320398,-0.75293 z m -0.272339,2.91562 h 1.71413 l -1.249553,7.36915 h -1.698109 z"
         style="font-family:'Jost*';-inkscape-font-specification:'Jost* Medium Italic'"
         id="path34004" />
      <path
         d="m 21.430489,118.7652 h 3.700596 c 0.01602,-0.46458 -0.09612,-0.86508 -0.320398,-1.20149 -0.240298,-0.33642 -0.624776,-0.51264 -1.153432,-0.51264 -0.544677,0 -1.009254,0.1602 -1.393732,0.4806 -0.400497,0.32039 -0.672835,0.73691 -0.833034,1.23353 z m -0.224279,1.20149 c -0.01602,0.5607 0.112139,1.02527 0.368458,1.40975 0.256318,0.38448 0.672835,0.59274 1.249552,0.59274 0.480597,0.016 0.897114,-0.0961 1.265572,-0.3204 0.368458,-0.22428 0.688856,-0.51264 0.961194,-0.83303 l 1.441791,0.62477 c -0.448557,0.57672 -0.993234,1.05732 -1.63403,1.42577 -0.640796,0.36846 -1.377711,0.54468 -2.226766,0.54468 -0.736915,0 -1.361691,-0.17622 -1.858308,-0.52866 -0.496617,-0.35243 -0.849055,-0.81701 -1.073334,-1.39373 -0.224278,-0.57671 -0.304378,-1.21751 -0.208258,-1.92239 0.01602,-0.12816 0.03204,-0.27233 0.06408,-0.40049 0.03204,-0.12816 0.06408,-0.25632 0.11214,-0.38448 0.176219,-0.57672 0.464577,-1.10537 0.849054,-1.56995 0.384478,-0.44856 0.865075,-0.81702 1.425771,-1.08935 0.544677,-0.25632 1.169453,-0.4005 1.842289,-0.4005 0.736915,0 1.361691,0.17622 1.842288,0.49661 0.480597,0.33642 0.833035,0.78498 1.041294,1.3617 0.208258,0.57671 0.272338,1.20149 0.192238,1.90636 -0.01602,0.0801 -0.03204,0.1602 -0.04806,0.2403 -0.01602,0.0801 -0.03204,0.1602 -0.04806,0.2403 z"
         style="font-family:'Jost*';-inkscape-font-specification:'Jost* Medium Italic'"
         id="path34006" />
      <path
         d="m 33.18909,118.7652 c 0.04806,-0.43254 0.01602,-0.81702 -0.11214,-1.13741 -0.128159,-0.3204 -0.416517,-0.4806 -0.881094,-0.49662 -0.480597,-0.016 -0.897115,0.12816 -1.217513,0.44856 -0.336417,0.32039 -0.560696,0.70487 -0.672835,1.12139 l -0.784975,4.54965 h -1.73015 l 1.281592,-7.36915 h 1.73015 l -0.192239,1.08935 c 0.256318,-0.36846 0.576716,-0.67284 0.961194,-0.89711 0.384477,-0.22428 0.817015,-0.35244 1.313631,-0.35244 0.544677,0 0.993234,0.12816 1.329652,0.38448 0.320398,0.25631 0.544677,0.59273 0.672836,1.02527 0.128159,0.43254 0.144179,0.91313 0.0801,1.44179 l -0.800995,4.67781 h -1.762189 z"
         style="font-family:'Jost*';-inkscape-font-specification:'Jost* Medium Italic'"
         id="path34008" />
      <path
         d="m 41.407283,119.56619 c 0.09612,-0.72089 0.352438,-1.37771 0.736916,-1.95442 0.384477,-0.57672 0.881094,-1.0413 1.473831,-1.37772 0.576716,-0.33641 1.217512,-0.51263 1.890348,-0.51263 0.560696,0 1.025273,0.14418 1.393731,0.41652 0.368458,0.28835 0.640796,0.64079 0.833035,1.08935 l 1.089353,-6.47204 h 1.746169 l -2.146667,12.49552 H 46.70987 l 0.192239,-1.13741 c -0.320398,0.4005 -0.704876,0.72089 -1.137413,0.94517 -0.432537,0.2403 -0.913134,0.35244 -1.441791,0.35244 -0.672836,0 -1.249552,-0.1602 -1.714129,-0.51264 -0.480597,-0.35244 -0.817015,-0.81701 -1.025274,-1.40975 -0.224278,-0.57671 -0.272338,-1.21751 -0.176219,-1.92239 z m 1.762189,0 c -0.06408,0.41652 -0.04806,0.801 0.0801,1.15344 0.112139,0.35243 0.304378,0.64079 0.576716,0.84905 0.272339,0.22428 0.624776,0.3204 1.041294,0.3204 0.368457,0 0.720895,-0.0961 1.073333,-0.28836 0.336418,-0.19224 0.624776,-0.46458 0.881094,-0.80099 0.256319,-0.33642 0.416518,-0.7209 0.496617,-1.13742 l 0.01602,-0.11214 c 0.04806,-0.40049 0.01602,-0.76895 -0.09612,-1.12139 -0.11214,-0.35244 -0.288358,-0.62478 -0.544677,-0.84905 -0.256318,-0.20826 -0.560696,-0.3204 -0.929154,-0.33642 -0.416517,0 -0.817015,0.0961 -1.185473,0.28836 -0.368457,0.20826 -0.672835,0.49661 -0.929154,0.84905 -0.256318,0.35244 -0.416517,0.75294 -0.480597,1.18547 z"
         style="font-family:'Jost*';-inkscape-font-specification:'Jost* Medium Italic'"
         id="path34010" />
      <path
         d="m 52.717323,118.7652 h 3.700597 c 0.01602,-0.46458 -0.09612,-0.86508 -0.320398,-1.20149 -0.240298,-0.33642 -0.624776,-0.51264 -1.153433,-0.51264 -0.544676,0 -1.009253,0.1602 -1.393731,0.4806 -0.400497,0.32039 -0.672836,0.73691 -0.833035,1.23353 z m -0.224278,1.20149 c -0.01602,0.5607 0.112139,1.02527 0.368457,1.40975 0.256319,0.38448 0.672836,0.59274 1.249553,0.59274 0.480597,0.016 0.897114,-0.0961 1.265572,-0.3204 0.368457,-0.22428 0.688855,-0.51264 0.961194,-0.83303 l 1.441791,0.62477 c -0.448558,0.57672 -0.993234,1.05732 -1.63403,1.42577 -0.640796,0.36846 -1.377712,0.54468 -2.226766,0.54468 -0.736916,0 -1.361692,-0.17622 -1.858309,-0.52866 -0.496616,-0.35243 -0.849054,-0.81701 -1.073333,-1.39373 -0.224278,-0.57671 -0.304378,-1.21751 -0.208258,-1.92239 0.01602,-0.12816 0.03204,-0.27233 0.06408,-0.40049 0.03204,-0.12816 0.06408,-0.25632 0.112139,-0.38448 0.176219,-0.57672 0.464577,-1.10537 0.849055,-1.56995 0.384478,-0.44856 0.865075,-0.81702 1.425771,-1.08935 0.544677,-0.25632 1.169453,-0.4005 1.842289,-0.4005 0.736915,0 1.361691,0.17622 1.842288,0.49661 0.480597,0.33642 0.833035,0.78498 1.041293,1.3617 0.208259,0.57671 0.272339,1.20149 0.192239,1.90636 -0.01602,0.0801 -0.03204,0.1602 -0.04806,0.2403 -0.01602,0.0801 -0.03204,0.1602 -0.04806,0.2403 z"
         style="font-family:'Jost*';-inkscape-font-specification:'Jost* Medium Italic'"
         id="path34012" />
      <path
         d="m 59.910255,120.59147 c 0.256318,0.36845 0.544676,0.68885 0.881094,0.97721 0.320398,0.28836 0.672836,0.43254 1.041294,0.43254 0.272338,0 0.512637,-0.0641 0.736915,-0.19224 0.224279,-0.12816 0.352438,-0.3204 0.384478,-0.5607 0.03204,-0.22428 -0.03204,-0.40049 -0.160199,-0.56069 -0.128159,-0.1602 -0.304378,-0.28836 -0.528657,-0.4005 -0.224279,-0.0961 -0.432537,-0.20826 -0.656816,-0.30438 -0.336418,-0.12816 -0.640796,-0.30438 -0.929154,-0.49662 -0.288358,-0.19223 -0.512637,-0.43253 -0.672836,-0.72089 -0.160199,-0.28836 -0.224278,-0.6408 -0.160199,-1.05731 0.04806,-0.41652 0.208259,-0.78498 0.480597,-1.07334 0.256319,-0.28836 0.592737,-0.51263 0.993234,-0.67283 0.400497,-0.1602 0.833035,-0.2403 1.281592,-0.2403 0.560696,0 1.073333,0.12816 1.52189,0.36846 0.448558,0.25631 0.817015,0.56069 1.105373,0.94517 l -1.073333,0.99323 c -0.208259,-0.2403 -0.448557,-0.44855 -0.720895,-0.64079 -0.272339,-0.17622 -0.560697,-0.27234 -0.865075,-0.27234 -0.256318,0 -0.496617,0.0641 -0.720895,0.1602 -0.224279,0.11214 -0.352438,0.27234 -0.384478,0.49661 -0.03204,0.22428 0.03204,0.4005 0.208259,0.52866 0.160199,0.14418 0.384477,0.25632 0.640796,0.35244 0.256318,0.0961 0.480597,0.17622 0.704875,0.27234 0.480597,0.20826 0.897115,0.49661 1.249552,0.84905 0.336418,0.35244 0.480597,0.83304 0.416518,1.42577 -0.09612,0.73692 -0.400498,1.31364 -0.929154,1.69811 -0.544677,0.38448 -1.185473,0.57672 -1.954428,0.57672 -0.688856,0 -1.281592,-0.17622 -1.794229,-0.5607 -0.512637,-0.36846 -0.913134,-0.81701 -1.217512,-1.34567 z"
         style="font-family:'Jost*';-inkscape-font-specification:'Jost* Medium Italic'"
         id="path34014" />
      <path
         d="m 81.440989,119.64629 3.684576,-7.60945 h 2.210747 l -6.311841,11.85473 -2.114627,-7.91383 -4.613731,7.91383 -2.627263,-11.85473 h 2.146666 l 1.313632,7.60945 4.453532,-8.21821 z"
         style="font-family:'Jost*';-inkscape-font-specification:'Jost* Medium Italic'"
         id="path34016" />
      <path
         d="m 85.510028,119.56619 c 0.09612,-0.72089 0.352438,-1.37771 0.736916,-1.95442 0.384477,-0.57672 0.881094,-1.0413 1.473831,-1.37772 0.576716,-0.33641 1.217512,-0.51263 1.890348,-0.51263 0.592736,0 1.073333,0.1602 1.441791,0.44856 0.368457,0.30437 0.640796,0.68885 0.817015,1.16945 l 0.240298,-1.45781 h 1.698109 l -1.281592,7.36915 h -1.650049 l 0.208258,-1.23353 c -0.320398,0.43254 -0.704875,0.76895 -1.153432,1.02527 -0.448557,0.25632 -0.961194,0.36846 -1.505871,0.36846 -0.672836,0 -1.249552,-0.1602 -1.714129,-0.51264 -0.480597,-0.35244 -0.817015,-0.81701 -1.025274,-1.40975 -0.224278,-0.57671 -0.272338,-1.21751 -0.176219,-1.92239 z m 1.762189,0 c -0.06408,0.41652 -0.04806,0.801 0.0801,1.15344 0.112139,0.35243 0.304378,0.64079 0.576716,0.84905 0.272339,0.22428 0.624776,0.3204 1.041294,0.3204 0.368457,0 0.736915,-0.0961 1.089353,-0.30438 0.352438,-0.19224 0.640796,-0.4806 0.897114,-0.83303 0.256319,-0.35244 0.416518,-0.73692 0.480597,-1.18548 0.04806,-0.40049 0.01602,-0.76895 -0.09612,-1.12139 -0.112139,-0.35244 -0.288358,-0.62478 -0.544677,-0.84905 -0.256318,-0.22428 -0.560696,-0.33642 -0.929154,-0.35244 -0.416517,0 -0.817015,0.0961 -1.185472,0.28836 -0.368458,0.20826 -0.672836,0.49661 -0.929155,0.84905 -0.256318,0.35244 -0.416517,0.75294 -0.480596,1.18547 z"
         style="font-family:'Jost*';-inkscape-font-specification:'Jost* Medium Italic'"
         id="path34018" />
      <path
         d="m 100.08814,118.7652 c 0.0481,-0.43254 0.016,-0.81702 -0.112144,-1.13741 -0.128159,-0.3204 -0.416517,-0.4806 -0.881094,-0.49662 -0.480597,-0.016 -0.897115,0.12816 -1.217513,0.44856 -0.336418,0.32039 -0.560696,0.70487 -0.672835,1.12139 l -0.784975,4.54965 h -1.73015 l 1.281592,-7.36915 h 1.730149 l -0.192238,1.08935 c 0.256318,-0.36846 0.576716,-0.67284 0.961194,-0.89711 0.384477,-0.22428 0.817015,-0.35244 1.313631,-0.35244 0.544673,0 0.993233,0.12816 1.329653,0.38448 0.3204,0.25631 0.54468,0.59273 0.67283,1.02527 0.12816,0.43254 0.14418,0.91313 0.0801,1.44179 l -0.80099,4.67781 h -1.76219 z"
         style="font-family:'Jost*';-inkscape-font-specification:'Jost* Medium Italic'"
         id="path34020" />
      <path
         d="m 103.37222,119.56619 c 0.0961,-0.72089 0.35244,-1.37771 0.73691,-1.95442 0.38448,-0.57672 0.8811,-1.0413 1.47383,-1.37772 0.57672,-0.33641 1.21752,-0.51263 1.89035,-0.51263 0.5607,0 1.02528,0.14418 1.39373,0.41652 0.36846,0.28835 0.6408,0.64079 0.83304,1.08935 l 1.08935,-6.47204 h 1.74617 l -2.14667,12.49552 h -1.71412 l 0.19223,-1.13741 c -0.32039,0.4005 -0.70487,0.72089 -1.13741,0.94517 -0.43254,0.2403 -0.91313,0.35244 -1.44179,0.35244 -0.67284,0 -1.24955,-0.1602 -1.71413,-0.51264 -0.4806,-0.35244 -0.81701,-0.81701 -1.02527,-1.40975 -0.22428,-0.57671 -0.27234,-1.21751 -0.17622,-1.92239 z m 1.76219,0 c -0.0641,0.41652 -0.0481,0.801 0.0801,1.15344 0.11214,0.35243 0.30438,0.64079 0.57671,0.84905 0.27234,0.22428 0.62478,0.3204 1.0413,0.3204 0.36845,0 0.72089,-0.0961 1.07333,-0.28836 0.33642,-0.19224 0.62478,-0.46458 0.88109,-0.80099 0.25632,-0.33642 0.41652,-0.7209 0.49662,-1.13742 l 0.016,-0.11214 c 0.0481,-0.40049 0.016,-0.76895 -0.0961,-1.12139 -0.11214,-0.35244 -0.28836,-0.62478 -0.54467,-0.84905 -0.25632,-0.20826 -0.5607,-0.3204 -0.92916,-0.33642 -0.41652,0 -0.81701,0.0961 -1.18547,0.28836 -0.36846,0.20826 -0.67284,0.49661 -0.92916,0.84905 -0.25631,0.35244 -0.41651,0.75294 -0.48059,1.18547 z"
         style="font-family:'Jost*';-inkscape-font-specification:'Jost* Medium Italic'"
         id="path34022" />
      <path
         d="m 114.68224,118.7652 h 3.7006 c 0.016,-0.46458 -0.0961,-0.86508 -0.3204,-1.20149 -0.2403,-0.33642 -0.62477,-0.51264 -1.15343,-0.51264 -0.54468,0 -1.00925,0.1602 -1.39373,0.4806 -0.4005,0.32039 -0.67284,0.73691 -0.83304,1.23353 z m -0.22428,1.20149 c -0.016,0.5607 0.11214,1.02527 0.36846,1.40975 0.25632,0.38448 0.67284,0.59274 1.24955,0.59274 0.4806,0.016 0.89712,-0.0961 1.26558,-0.3204 0.36845,-0.22428 0.68885,-0.51264 0.96119,-0.83303 l 1.44179,0.62477 c -0.44856,0.57672 -0.99323,1.05732 -1.63403,1.42577 -0.64079,0.36846 -1.37771,0.54468 -2.22676,0.54468 -0.73692,0 -1.3617,-0.17622 -1.85831,-0.52866 -0.49662,-0.35243 -0.84906,-0.81701 -1.07334,-1.39373 -0.22427,-0.57671 -0.30437,-1.21751 -0.20825,-1.92239 0.016,-0.12816 0.032,-0.27233 0.0641,-0.40049 0.032,-0.12816 0.0641,-0.25632 0.11213,-0.38448 0.17622,-0.57672 0.46458,-1.10537 0.84906,-1.56995 0.38448,-0.44856 0.86507,-0.81702 1.42577,-1.08935 0.54468,-0.25632 1.16945,-0.4005 1.84229,-0.4005 0.73691,0 1.36169,0.17622 1.84229,0.49661 0.48059,0.33642 0.83303,0.78498 1.04129,1.3617 0.20826,0.57671 0.27234,1.20149 0.19224,1.90636 -0.016,0.0801 -0.032,0.1602 -0.0481,0.2403 -0.016,0.0801 -0.032,0.1602 -0.0481,0.2403 z"
         style="font-family:'Jost*';-inkscape-font-specification:'Jost* Medium Italic'"
         id="path34024" />
      <path
         d="m 123.18881,110.75525 h 1.73015 l -2.14667,12.49552 h -1.69811 z"
         style="font-family:'Jost*';-inkscape-font-specification:'Jost* Medium Italic'"
         id="path34026" />
      <path
         d="m 125.81607,120.59147 c 0.25632,0.36845 0.54468,0.68885 0.8811,0.97721 0.3204,0.28836 0.67283,0.43254 1.04129,0.43254 0.27234,0 0.51264,-0.0641 0.73692,-0.19224 0.22428,-0.12816 0.35243,-0.3204 0.38447,-0.5607 0.032,-0.22428 -0.032,-0.40049 -0.16019,-0.56069 -0.12816,-0.1602 -0.30438,-0.28836 -0.52866,-0.4005 -0.22428,-0.0961 -0.43254,-0.20826 -0.65682,-0.30438 -0.33641,-0.12816 -0.64079,-0.30438 -0.92915,-0.49662 -0.28836,-0.19223 -0.51264,-0.43253 -0.67284,-0.72089 -0.1602,-0.28836 -0.22428,-0.6408 -0.1602,-1.05731 0.0481,-0.41652 0.20826,-0.78498 0.4806,-1.07334 0.25632,-0.28836 0.59274,-0.51263 0.99323,-0.67283 0.4005,-0.1602 0.83304,-0.2403 1.2816,-0.2403 0.56069,0 1.07333,0.12816 1.52189,0.36846 0.44855,0.25631 0.81701,0.56069 1.10537,0.94517 l -1.07333,0.99323 c -0.20826,-0.2403 -0.44856,-0.44855 -0.7209,-0.64079 -0.27234,-0.17622 -0.56069,-0.27234 -0.86507,-0.27234 -0.25632,0 -0.49662,0.0641 -0.7209,0.1602 -0.22428,0.11214 -0.35244,0.27234 -0.38448,0.49661 -0.032,0.22428 0.032,0.4005 0.20826,0.52866 0.1602,0.14418 0.38448,0.25632 0.6408,0.35244 0.25632,0.0961 0.4806,0.17622 0.70487,0.27234 0.4806,0.20826 0.89712,0.49661 1.24956,0.84905 0.33641,0.35244 0.48059,0.83304 0.41651,1.42577 -0.0961,0.73692 -0.40049,1.31364 -0.92915,1.69811 -0.54468,0.38448 -1.18547,0.57672 -1.95443,0.57672 -0.68885,0 -1.28159,-0.17622 -1.79423,-0.5607 -0.51263,-0.36846 -0.91313,-0.81701 -1.21751,-1.34567 z"
         style="font-family:'Jost*';-inkscape-font-specification:'Jost* Medium Italic'"
         id="path34028" />
      <path
         d="m 136.11687,119.11764 1.81025,3.12388 -1.16946,0.81701 -2.2588,-3.94089 3.52437,-3.84478 0.9612,0.89712 z m -2.77145,0 1.82627,3.12388 -1.18547,0.81701 -2.24279,-3.94089 3.50836,-3.84478 0.9612,0.89712 z"
         style="font-family:'Jost*';-inkscape-font-specification:'Jost* Medium Italic'"
         id="path34030" />
    </g>
    <g
       aria-label="»Strategien des Wandels«"
       transform="matrix(1.4669447,-0.16065588,0.00647342,1.4838302,80.123574,26.611266)"
       id="text14-4"
       style="font-style:italic;font-weight:500;font-size:16.0199px;font-family:Jost;-inkscape-font-specification:Jost-MediumItalic;fill:#ea0029;fill-opacity:1;stroke-width:0.34881">
      <path
         id="path33988-3"
         style="font-family:'Jost*';-inkscape-font-specification:'Jost* Medium Italic';fill:#ea0029;fill-opacity:1;stroke-width:1.31834"
         d="m 633.10547,-40 -6.5,0.710938 -7.73633,48.3574214 6.37891,-0.6972656 z m -46.52344,5.095703 -6.56055,0.71875 -3.98632,25.0429689 c -0.7297,-1.6255669 -1.75933,-2.8526639 -3.14844,-3.7968749 -1.38881,-0.883373 -3.1356,-1.240473 -5.24219,-1.009766 -2.52786,0.276845 -4.93255,1.210801 -7.09375,2.726563 -2.22135,1.5223869 -4.08067,3.4918823 -5.51562,5.8417966 -1.43492,2.3498723 -2.38528,4.95132161 -2.73438,7.7304688 -0.34944,2.7183124 -0.15884,5.1349812 0.69336,7.234375 0.79227,2.1669046 2.06351,3.7939146 3.875,4.9355466 1.7513,1.148224 3.92132,1.519037 6.44922,1.242188 1.98621,-0.217525 3.78906,-0.842405 5.41016,-1.933594 1.62136,-1.030308 3.06072,-2.404741 4.25781,-4.0585938 l -0.70313,4.4003908 6.43946,-0.705078 z m 95.83203,6.681641 -13.17773,16.060547 8.55273,14.0468746 4.38086,-3.5859375 -6.85351,-11.1269531 10.72461,-12.380859 z m -10.41211,1.138672 -13.11718,16.054687 8.49218,14.0546876 4.43946,-3.59179685 L 664.9043,-11.6875 675.62891,-24.070312 Z m -23.78515,4.402343 c -0.50339,-0.0048 -1.02024,0.02045 -1.54688,0.07813 -1.68527,0.184567 -3.3085,0.667806 -4.81054,1.441407 -1.50202,0.773596 -2.76248,1.76352 -3.72071,2.964843 -1.01842,1.207916 -1.6133,2.674648 -1.78711,4.277344 -0.23384,1.609234 0.0125,2.921231 0.61914,3.951172 0.60667,1.0299409 1.45249,1.8510067 2.53907,2.4628906 1.08657,0.611922 2.23396,1.1572321 3.5,1.5058594 0.84422,0.2730027 1.62842,0.613792 2.47265,0.8867188 0.8445,0.3338837 1.50803,0.7466578 1.99219,1.3027343 0.48427,0.5560642 0.72784,1.2009059 0.61133,2.0664063 -0.11639,0.92639777 -0.59504,1.70973168 -1.43555,2.28906248 C 645.80988,1.1241817 644.90992,1.466072 643.88672,1.57813 642.50239,1.7297379 641.17534,1.3273107 639.9668,0.36328625 638.69806,-0.59414656 637.60974,-1.6935184 636.64062,-2.9882762 L 632.44336,1.1875 c 1.15234,1.8838306 2.66361,3.4219945 4.5957,4.6113281 1.9324,1.2502105 4.16195,1.6760149 6.75,1.3925781 2.88903,-0.316399 5.29396,-1.3088814 7.33399,-2.9941406 1.97983,-1.6786295 3.11405,-3.99587134 3.46289,-6.8359375 0.23092,-2.2789243 -0.31814,-4.0470861 -1.58789,-5.2480469 -1.32999,-1.194365 -2.89989,-2.1191872 -4.70899,-2.7128902 -0.84419,-0.273007 -1.68774,-0.484398 -2.65234,-0.744141 -0.96461,-0.259819 -1.80979,-0.59416 -2.41406,-1.076172 -0.66435,-0.414523 -0.90753,-1.058328 -0.79102,-1.923828 0.11666,-0.865479 0.59477,-1.526472 1.43555,-2.044922 0.84104,-0.457493 1.74402,-0.79883 2.70703,-0.904297 1.14357,-0.125241 2.22778,0.120102 3.2539,0.677735 1.02639,0.618513 1.93232,1.311148 2.71876,2.138672 l 4.01562,-4.214844 c -1.08976,-1.342494 -2.47849,-2.349177 -4.16797,-3.138672 -1.26694,-0.546486 -2.66756,-0.837078 -4.17773,-0.851563 z m -156.28907,3.015625 -8.30664,0.910157 -13.71679,30.433593 -7.11914,-30.466796 -16.59571,33.064453 -5.06054,-28.376953 -8.06641,0.882812 10.06836,43.970703 17.20312,-31.9746092 8.07618,29.2050782 z m 113.64454,1.6875 c -0.63797,-0.01198 -1.30394,0.01795 -1.9961,0.09375 -2.5279,0.27685 -4.87191,1.083039 -6.91406,2.28125 -2.10207,1.265646 -3.90277,2.863696 -5.33984,4.726563 -1.43682,1.9237475 -2.51156,4.0502301 -3.16407,6.314453 -0.17832,0.5068103 -0.29596,1.0075979 -0.41406,1.5078125 -0.11848,0.5002557 -0.17639,1.055197 -0.23437,1.5488281 -0.34945,2.7183125 -0.0377,5.1213053 0.81445,7.2207032 0.85219,2.0994317 2.18301,3.7185134 4.05469,4.8535152 1.87163,1.135045 4.22353,1.547357 6.99218,1.244141 3.18994,-0.349353 5.95409,-1.322404 8.35547,-2.9863281 2.40142,-1.6638902 4.43953,-3.7135628 6.11524,-6.0898438 l -5.42578,-1.78124998 c -1.01789,1.32963938 -2.21709,2.55856268 -3.59766,3.56249998 -1.38061,1.0040175 -2.94409,1.6013368 -4.75,1.7382813 -2.16674,0.2372952 -3.73569,-0.3845576 -4.70508,-1.7402344 -0.96938,-1.3556768 -1.45707,-3.0676609 -1.40625,-5.20507812 L 614.8418,-2.9765625 c 0.0592,-0.3110294 0.11699,-0.6226055 0.17578,-0.9335937 0.0592,-0.3110294 0.11895,-0.6206524 0.17773,-0.9316407 0.28926,-2.7116828 0.0381,-5.0600302 -0.7539,-7.1660151 -0.79201,-2.106024 -2.12437,-3.665339 -3.93555,-4.746094 -1.35822,-0.764874 -3.01968,-1.188674 -4.93359,-1.22461 z m -1.73633,5.152344 c 1.62006,-0.03169 2.82819,0.489312 3.62304,1.521484 0.84829,1.186172 1.27507,2.6614628 1.22266,4.4335942 l -13.90234,1.5234376 c 0.59364,-1.9532265 1.60998,-3.6488775 3.10937,-5.0312498 1.43921,-1.375819 3.18212,-2.174322 5.22852,-2.398438 0.24827,-0.02719 0.48731,-0.0443 0.71875,-0.04883 z m -63.61524,1.972656 c -0.46578,-0.0099 -0.9552,0.01233 -1.46679,0.06836 -1.86582,0.204339 -3.48891,0.8703273 -4.92969,1.8808591 -1.44079,1.0104943 -2.63881,2.2989597 -3.5957,3.8046875 l 0.70312,-4.21875 -6.5,0.7109375 -4.69336,28.5332029 6.50195,-0.71289 2.87305,-17.6132816 c 0.41441,-1.62904629 1.25113,-3.1811043 2.50977,-4.5371094 1.19844,-1.3494515 2.7605,-2.070088 4.5664,-2.2070312 1.74571,-0.1302756 2.83155,0.360504 3.31836,1.5253906 0.48676,1.1648547 0.613,2.6137662 0.43946,4.27734372 l -2.875,17.36914088 6.62109,-0.726563 2.93164,-18.1054685 c 0.23199,-2.0354385 0.16446,-3.8562127 -0.32422,-5.4472656 -0.48864,-1.5910571 -1.33691,-2.7769161 -2.54492,-3.6191407 -0.95115,-0.6267532 -2.13782,-0.9527242 -3.53516,-0.9824222 z m -186.44531,1.4453129 -6.56055,0.71875 -3.98632,25.0429691 c -0.7297,-1.625568 -1.75739,-2.852663 -3.14649,-3.796875 -1.38883,-0.88337 -3.13757,-1.240472 -5.24414,-1.009766 -2.52789,0.276848 -4.93257,1.210803 -7.09375,2.726563 -2.22137,1.52239 -4.07873,3.491883 -5.51367,5.841796 -1.43495,2.349876 -2.38715,4.951314 -2.73633,7.730469 -0.34944,2.718312 -0.15883,5.134981 0.69336,7.234375 0.79227,2.166905 2.06352,3.793914 3.875,4.935547 1.75129,1.148225 3.92133,1.519035 6.44922,1.242187 1.9862,-0.217523 3.78907,-0.840452 5.41016,-1.93164 1.62135,-1.030307 3.06069,-2.406691 4.25781,-4.060547 l -0.70313,4.402344 6.43946,-0.707031 z m 214.85742,1.1367187 c 1.3846,-0.090727 2.52963,0.2104982 3.4961,0.8964844 0.96669,0.7468333 1.63338,1.7106665 2.06054,3.0039062 0.42701,1.2932562 0.55298,2.6789256 0.37891,4.22070318 l -0.0586,0.43359374 c -0.29404,1.61586338 -0.88827,3.14337708 -1.84571,4.52734378 -0.95739,1.3839245 -2.03611,2.5372538 -3.29687,3.40625 -1.32095,0.8756638 -2.64306,1.3855056 -4.02735,1.5371093 -1.56489,0.1713829 -2.89105,-0.048787 -3.91796,-0.7890624 C 560.39526,8.2854451 559.66739,7.2678111 559.24023,5.9746094 558.75274,4.6879777 558.686,3.23428 558.91992,1.625 c 0.23358,-1.67011469 0.82998,-3.2582815 1.78711,-4.703125 0.95717,-1.4448476 2.09569,-2.6663145 3.47656,-3.609375 1.38114,-0.8822555 2.88433,-1.4126015 4.44922,-1.5839844 z m -52.32617,0.5546875 -6.38086,0.6972657 -0.87695,5.640625 c -0.67004,-1.7539213 -1.70048,-3.1042813 -3.08985,-4.109375 -1.3891,-0.9442504 -3.19688,-1.3552175 -5.42382,-1.1113282 -2.52789,0.2768476 -4.93257,1.2108026 -7.09375,2.7265625 -2.22138,1.5223901 -4.08069,3.49188379 -5.51563,5.8417969 -1.43495,2.3498755 -2.3852,4.9513134 -2.73437,7.7304688 -0.34944,2.7183122 -0.15883,5.1349802 0.69336,7.2343752 0.79227,2.166905 2.06352,3.793914 3.875,4.935547 1.75128,1.148224 3.92133,1.519035 6.44921,1.242187 2.04639,-0.224115 3.96939,-0.860871 5.6504,-2.019531 1.681,-1.15866 3.11982,-2.595476 4.3164,-4.371094 l -0.76172,4.773438 6.19922,-0.679688 z m -14.7832,6.7949219 c 1.38458,-0.0907261 2.52937,0.21211637 3.49609,0.95898437 0.96673,0.74682959 1.63339,1.70871293 2.06055,3.00195313 0.42716,1.2932397 0.55283,2.6808951 0.3789,4.2226563 -0.23331,1.7310332 -0.82799,3.2563242 -1.78515,4.7011722 -0.95716,1.444808 -2.03648,2.659569 -3.35742,3.535156 -1.32068,0.936544 -2.70162,1.453862 -4.08594,1.605469 -1.56489,0.171382 -2.89106,-0.04879 -3.91797,-0.789063 -1.02664,-0.679395 -1.75448,-1.697032 -2.18164,-2.990234 -0.48735,-1.286648 -0.55416,-2.740338 -0.32031,-4.3496096 0.23357,-1.6701143 0.82995,-3.2582782 1.78711,-4.703125 0.95716,-1.4448472 2.09569,-2.6663154 3.47656,-3.60937502 1.38113,-0.88225427 2.88434,-1.41260278 4.44922,-1.58398438 z M 400.60352,4.4355469 c -0.5034,-0.00483 -1.01828,0.020448 -1.54493,0.078125 -1.68525,0.1845649 -3.30851,0.6678066 -4.81054,1.4414062 -1.50204,0.7735996 -2.76248,1.7635204 -3.72071,2.9648438 -1.01841,1.2079141 -1.6154,2.6746641 -1.78906,4.2773441 -0.23384,1.609233 0.0125,2.923183 0.61914,3.953125 0.60666,1.029941 1.45445,1.849052 2.54102,2.460937 1.08656,0.611923 2.23198,1.157236 3.49804,1.50586 0.84423,0.273003 1.62844,0.613791 2.47266,0.886718 0.84449,0.333884 1.50998,0.748611 1.99414,1.304688 0.48416,0.556077 0.72799,1.198936 0.61133,2.064453 -0.11639,0.926398 -0.59504,1.709732 -1.43555,2.289062 -0.8405,0.579254 -1.74243,0.921146 -2.76562,1.033203 -1.38432,0.151608 -2.71139,-0.250818 -3.91992,-1.214843 -1.26873,-0.957434 -2.35706,-2.056804 -3.32618,-3.351563 l -4.19726,4.175782 c 1.15233,1.883831 2.66554,3.42395 4.59765,4.613281 1.93239,1.250211 4.16193,1.676017 6.75,1.392578 2.88902,-0.316397 5.29398,-1.310836 7.33399,-2.996094 1.97982,-1.678628 3.11202,-3.995863 3.46094,-6.835937 0.23092,-2.278924 -0.31811,-4.045137 -1.58789,-5.246094 -1.32998,-1.194366 -2.8999,-2.119186 -4.70899,-2.712891 -0.84422,-0.273003 -1.68775,-0.486349 -2.65234,-0.746093 -0.9646,-0.25982 -1.8098,-0.592207 -2.41406,-1.074219 -0.6642,-0.41454 -0.90768,-1.058312 -0.79102,-1.923828 0.11666,-0.865479 0.59673,-1.526473 1.4375,-2.044922 0.84103,-0.457492 1.74207,-0.8007847 2.70508,-0.9062502 1.14357,-0.1252405 2.22779,0.1220544 3.2539,0.6796872 1.02638,0.618515 1.93428,1.311149 2.72071,2.138672 l 4.01562,-4.2167968 C 407.86142,7.0832869 406.47271,6.0785547 404.7832,5.2890625 403.51627,4.7425753 402.1137,4.4500309 400.60352,4.4355469 Z m -27.8379,3.0820312 c -0.63797,-0.011978 -1.30393,0.0199 -1.99609,0.095703 -2.52789,0.2768476 -4.87192,1.0810867 -6.91406,2.2792969 -2.10206,1.265645 -3.90277,2.863697 -5.33985,4.726563 -1.4368,1.923746 -2.51155,4.052183 -3.16406,6.316406 -0.17843,0.506822 -0.29581,1.005628 -0.41406,1.505859 -0.11825,0.500231 -0.17631,1.055189 -0.23438,1.548828 -0.34944,2.718313 -0.0377,5.121309 0.81446,7.220704 0.85219,2.099432 2.18498,3.718511 4.05664,4.853515 1.87166,1.135042 4.22159,1.549308 6.99023,1.246094 3.18995,-0.349355 5.95602,-1.322402 8.35743,-2.986328 2.4014,-1.663889 4.43953,-3.715517 6.11523,-6.091797 l -5.42773,-1.78125 c -1.01789,1.329639 -2.21706,2.55856 -3.59766,3.5625 -1.3806,1.004016 -2.9441,1.601338 -4.75,1.738281 -2.16676,0.237298 -3.73374,-0.382604 -4.70313,-1.738281 -0.96937,-1.355678 -1.45909,-3.069606 -1.4082,-5.207031 l 20.88477,-2.28711 0.17773,-0.933593 0.17578,-0.931641 c 0.28926,-2.711683 0.0381,-5.06003 -0.7539,-7.166016 -0.792,-2.106024 -2.12434,-3.6653415 -3.93555,-4.7460936 -1.35821,-0.7648749 -3.01968,-1.1886742 -4.9336,-1.2246093 z M 231.19141,8.421875 c -0.13736,0.00196 -0.27893,0.011689 -0.42188,0.027344 -1.14357,0.1252404 -2.10356,0.656394 -2.88281,1.4726562 -0.83944,0.8228538 -1.19645,1.8354488 -1.19141,2.9921868 0.005,1.156701 0.37098,2.09218 1.2168,2.730469 0.78563,0.644957 1.74901,0.904538 2.89258,0.779297 1.14357,-0.12524 2.10551,-0.595847 2.88476,-1.412109 0.77926,-0.816263 1.19646,-1.837441 1.19141,-2.994141 -0.005,-1.156738 -0.43117,-2.0836347 -1.2168,-2.7285153 -0.68742,-0.5642705 -1.51113,-0.8808879 -2.47265,-0.8671877 z m 139.83789,4.248047 c 1.62006,-0.03169 2.8282,0.489311 3.62304,1.521484 0.84821,1.18618 1.2771,2.663407 1.22461,4.435547 l -13.90429,1.521485 c 0.59364,-1.953227 1.60999,-3.648879 3.10937,-5.03125 1.4392,-1.375819 3.18213,-2.174324 5.22852,-2.398438 0.24827,-0.02719 0.48731,-0.0443 0.71875,-0.04883 z m -82.15235,4.001953 c -0.46578,-0.0099 -0.9552,0.01428 -1.46679,0.07031 -1.86582,0.204339 -3.48891,0.868374 -4.92969,1.878906 -1.44079,1.010494 -2.63881,2.298959 -3.5957,3.804687 l 0.70312,-4.21875 -6.5,0.712891 -4.69336,28.53125 6.5,-0.710938 2.875,-17.613281 c 0.41441,-1.629046 1.25114,-3.183058 2.50977,-4.539062 1.19844,-1.349452 2.7605,-2.068135 4.5664,-2.205079 1.74571,-0.130275 2.83155,0.360505 3.31836,1.525391 0.48682,1.164848 0.61285,2.61183 0.43946,4.275391 l -2.875,17.36914 6.62109,-0.724609 2.93164,-18.107422 c 0.23198,-2.035438 0.16445,-3.854259 -0.32422,-5.445312 -0.48867,-1.591054 -1.33692,-2.776916 -2.54492,-3.619141 -0.95115,-0.626754 -2.13781,-0.954678 -3.53516,-0.984375 z m 47.45703,0.539063 c 1.16002,0.0062 2.14264,0.309917 2.98829,0.910156 0.96672,0.746829 1.63338,1.710666 2.06054,3.003906 0.42716,1.29324 0.55479,2.678942 0.38086,4.220703 l -0.0586,0.433594 c -0.29403,1.615863 -0.89023,3.143377 -1.84766,4.527344 -0.95742,1.383927 -2.03612,2.537254 -3.29687,3.40625 -1.32095,0.875663 -2.64303,1.385502 -4.02735,1.537109 -1.56488,0.171382 -2.89105,-0.04879 -3.91797,-0.789062 -1.02664,-0.679396 -1.75448,-1.69508 -2.18164,-2.988282 -0.48734,-1.286648 -0.5522,-2.742291 -0.31836,-4.351562 0.23359,-1.670115 0.828,-3.258278 1.78516,-4.703125 0.95716,-1.444847 2.0957,-2.666316 3.47656,-3.609375 1.38114,-0.882255 2.88434,-1.41065 4.44922,-1.582032 0.17308,-0.01134 0.3421,-0.01651 0.50781,-0.01562 z m -81.59765,3.179687 c -0.48891,0.0072 -0.99455,0.03885 -1.51367,0.0957 -2.52789,0.276848 -4.87193,1.081087 -6.91407,2.279297 -2.10205,1.265644 -3.90082,2.863697 -5.33789,4.726563 -1.4368,1.923746 -2.51156,4.052183 -3.16406,6.316406 -0.17844,0.506822 -0.29776,1.005628 -0.41602,1.505859 -0.11825,0.500231 -0.17631,1.055189 -0.23437,1.548828 -0.34944,2.718313 -0.0377,5.121309 0.81445,7.220703 0.8522,2.099433 2.18498,3.720466 4.05664,4.855469 1.87167,1.135042 4.2216,1.547354 6.99024,1.244141 3.18995,-0.349356 5.95602,-1.322402 8.35742,-2.986328 2.4014,-1.663889 4.43954,-3.715518 6.11523,-6.091797 l -5.42773,-1.78125 c -1.01788,1.329638 -2.21705,2.558559 -3.59766,3.5625 -1.3806,1.004016 -2.9441,1.601338 -4.75,1.738281 -2.16676,0.237298 -3.73374,-0.382604 -4.70312,-1.738281 -0.96938,-1.355678 -1.4591,-3.069606 -1.4082,-5.207031 l 20.88476,-2.28711 0.17774,-0.93164 0.17578,-0.933594 c 0.28925,-2.711683 0.0381,-5.06003 -0.75391,-7.166016 -0.792,-2.106024 -2.12434,-3.665342 -3.93555,-4.746094 -1.47139,-0.828614 -3.29743,-1.255968 -5.41601,-1.224609 z m -103.69141,2.148437 -6.43945,0.705079 -1.58399,9.919921 -4.39257,0.480469 -0.99805,5.957031 4.45312,-0.488281 -3.63476,22.570313 6.32031,-0.69336 3.69531,-22.574218 4.57422,-0.501954 0.9375,-5.949218 -4.57422,0.5 z m 81.11524,0.863282 -6.43946,0.705078 -4.51367,28.511719 6.38086,-0.699219 z m -15.10743,1.654297 -6.31835,0.691406 -0.88086,5.152344 c -0.7297,-1.625568 -1.75961,-2.852997 -3.14844,-3.736329 -1.38884,-0.883369 -3.13562,-1.240471 -5.24219,-1.009765 -2.52789,0.276847 -4.93425,1.211136 -7.0957,2.666015 -2.22137,1.52239 -4.07873,3.431337 -5.51367,5.78125 -1.43495,2.349876 -2.38716,4.951314 -2.73633,7.730469 -0.34944,2.718312 -0.15883,5.072481 0.69336,7.171875 0.792,2.106024 2.06379,3.733739 3.875,4.814453 1.75102,1.087344 3.92133,1.458488 6.44922,1.181641 1.926,-0.210931 3.73021,-0.774381 5.35156,-1.804688 1.62135,-1.030307 3.06043,-2.344524 4.25781,-3.9375 l -0.58594,3.900391 c -0.23278,1.852795 -0.82763,3.501236 -1.72461,4.939453 -0.95689,1.505728 -2.09507,2.727929 -3.41601,3.603516 -1.32095,0.875663 -2.7652,1.398931 -4.33008,1.570312 -2.22695,0.24389 -3.85431,-0.187406 -4.88281,-1.292968 -1.08869,-1.098971 -1.57735,-2.629574 -1.52539,-4.523438 l -6.25977,0.625 c -0.22481,3.679187 0.75124,6.557404 2.98828,8.626953 2.23704,2.069588 5.43298,2.816149 9.58594,2.361328 2.76864,-0.303214 5.2338,-1.18229 7.51563,-2.65039 2.22163,-1.461509 4.07935,-3.369762 5.57421,-5.78711 1.43495,-2.349913 2.38725,-5.075093 2.85547,-8.171875 z m 36.43165,0.488281 c 1.62006,-0.03169 2.82625,0.487358 3.62109,1.519531 0.8482,1.18618 1.27709,2.663407 1.22461,4.435547 l -13.9043,1.521484 c 0.59365,-1.953226 1.61,-3.646925 3.10938,-5.029296 1.43919,-1.375819 3.18213,-2.176276 5.22851,-2.400391 0.24828,-0.02719 0.48927,-0.04235 0.72071,-0.04687 z M 52.818359,27.783203 c -0.528781,-0.0011 -1.076652,0.02918 -1.648437,0.0918 -2.407512,0.263664 -4.694289,1.000611 -6.796875,2.144531 -2.10259,1.143921 -3.84187,2.612515 -5.21875,4.46875 -1.437072,1.862866 -2.271745,3.903205 -2.623047,6.195313 -0.290848,2.346435 0.0196,4.263322 0.869141,5.753906 0.849532,1.490623 1.998242,2.7033 3.447265,3.580078 1.449286,0.937659 2.957588,1.626691 4.525391,2.125 1.326788,0.463794 2.655009,0.925765 3.921875,1.457031 1.206943,0.59874 2.173887,1.347192 2.90039,2.242188 0.72677,0.955839 0.911847,2.213328 0.677735,3.761719 -0.293238,1.798506 -1.129602,3.290711 -2.449219,4.470703 -1.319351,1.240873 -2.943131,1.906256 -4.86914,2.117187 -1.685258,0.184565 -3.010825,-0.03423 -4.097657,-0.707031 -1.086832,-0.672804 -2.053156,-1.603037 -2.78125,-2.863281 -0.728097,-1.260282 -1.396717,-2.648295 -1.945312,-4.171875 l -5.822266,4.169922 c 0.611705,2.186641 1.523276,4.097485 2.794922,5.724609 1.271646,1.627124 2.840866,2.855244 4.710937,3.625 1.810149,0.837228 3.920618,1.093742 6.328126,0.830078 2.76864,-0.303214 5.232646,-1.060978 7.455078,-2.339844 2.222431,-1.278865 4.022709,-2.936913 5.458984,-4.982422 1.436271,-2.045508 2.329714,-4.337043 2.679688,-6.933593 0.23119,-2.218082 0.04192,-4.146251 -0.6875,-5.710938 -0.729422,-1.564687 -1.819622,-2.846469 -3.208985,-3.851562 -1.389367,-1.005132 -2.897489,-1.813369 -4.585937,-2.359375 -1.326519,-0.402914 -2.653681,-0.868237 -3.980469,-1.332032 -1.326788,-0.463756 -2.413058,-1.075154 -3.199219,-1.841796 -0.846345,-0.760052 -1.092331,-1.829565 -0.857422,-3.195313 0.234109,-1.548352 0.951244,-2.844512 2.210938,-3.957031 1.25996,-1.051638 2.762004,-1.704107 4.447265,-1.888672 1.926007,-0.210931 3.434746,0.293608 4.523438,1.392578 1.088691,1.098971 1.936231,2.467784 2.605469,4.039063 l 5.884765,-4.054688 c -0.488407,-1.530175 -1.277699,-2.966436 -2.367187,-4.24805 -1.089488,-1.281575 -2.418088,-2.292436 -4.046875,-2.966797 -1.266735,-0.500826 -2.669515,-0.781868 -4.25586,-0.785156 z m 119.583981,1.648438 c -0.56433,-10e-4 -1.15022,0.03133 -1.75586,0.09766 -2.52788,0.276847 -4.87388,1.081087 -6.91601,2.279297 -2.10206,1.265644 -3.90082,2.863697 -5.33789,4.726562 -1.43681,1.923747 -2.51156,4.052184 -3.16406,6.316406 -0.17844,0.506823 -0.29777,1.007582 -0.41602,1.507813 -0.11825,0.500231 -0.17436,1.055189 -0.23242,1.548828 -0.34944,2.718312 -0.0377,5.119356 0.81445,7.21875 0.85219,2.099432 2.18302,3.720465 4.05469,4.855469 1.87166,1.135041 4.2216,1.547354 6.99023,1.24414 3.18996,-0.349355 5.95602,-1.322401 8.35743,-2.986328 2.4014,-1.663888 4.43953,-3.713564 6.11523,-6.089843 l -5.42773,-1.78125 c -1.01789,1.329638 -2.21706,2.556606 -3.59766,3.560547 -1.3806,1.004016 -2.94215,1.601338 -4.74805,1.738281 -2.16676,0.237298 -3.7357,-0.382604 -4.70508,-1.738281 -0.96938,-1.355678 -1.45909,-3.067653 -1.4082,-5.205079 l 20.88672,-2.287109 0.17578,-0.933594 0.17578,-0.933594 c 0.28925,-2.711682 0.0381,-5.060029 -0.7539,-7.166015 -0.79201,-2.106024 -2.12239,-3.665342 -3.9336,-4.746094 -1.4148,-0.796745 -3.15835,-1.22284 -5.17383,-1.226562 z m -93.763668,1.037109 -6.439453,0.705078 -1.582031,9.919922 -4.394532,0.480469 -0.998047,5.957031 4.455079,-0.488281 -3.634766,22.570312 6.318359,-0.693359 3.695313,-22.574219 4.574218,-0.501953 0.9375,-5.949219 -4.574218,0.5 z m 124.537108,1.341797 c 1.64587,0.03377 2.96592,0.668028 3.91992,1.949219 1.09029,1.464256 1.52035,3.366339 1.34961,5.638672 l -0.23437,1.427734 c -0.35449,1.561574 -1.01239,2.972903 -1.91016,4.228516 -0.95796,1.262165 -2.03745,2.29418 -3.23828,3.095703 -1.26102,0.808114 -2.52352,1.251469 -3.84766,1.396484 -2.34732,0.257073 -4.09509,-0.404948 -5.24609,-1.984375 -1.151,-1.579389 -1.52069,-3.548983 -1.16992,-5.962891 0.23358,-1.670114 0.82799,-3.197731 1.78515,-4.642578 0.89698,-1.438255 2.03711,-2.597956 3.41797,-3.541015 1.32095,-0.875663 2.82415,-1.406012 4.44922,-1.583985 0.24831,-0.01958 0.48949,-0.02631 0.72461,-0.02148 z m -69.00195,2.322265 -6.37891,0.699219 -0.8789,5.638672 c -0.67004,-1.753921 -1.69853,-3.102328 -3.0879,-4.107422 -1.3891,-0.94425 -3.19883,-1.35717 -5.42578,-1.113281 -2.52788,0.276848 -4.93256,1.210803 -7.09375,2.726562 -2.22137,1.52239 -4.07872,3.491884 -5.51367,5.841797 -1.43494,2.349875 -2.38715,4.951314 -2.73633,7.730469 -0.34944,2.718313 -0.15883,5.134981 0.69336,7.234375 0.79227,2.166905 2.06353,3.793914 3.875,4.935547 1.75129,1.148225 3.92134,1.519035 6.44922,1.242188 2.04639,-0.224115 3.97134,-0.860871 5.65235,-2.019532 1.681,-1.15866 3.11982,-2.595475 4.3164,-4.371094 l -0.76172,4.773438 6.19922,-0.677734 z m 36.90429,0.453126 c 1.5338,0.0074 2.68472,0.528127 3.45118,1.523437 0.8482,1.18618 1.27514,2.661454 1.22265,4.433594 l -13.90234,1.523437 c 0.59364,-1.953226 1.60999,-3.648878 3.10937,-5.03125 1.4392,-1.375818 3.18018,-2.176276 5.22657,-2.40039 0.31034,-0.03399 0.60854,-0.0502 0.89257,-0.04883 z m -71.707026,2.792968 c -0.232412,-0.0031 -0.468234,0.0068 -0.708985,0.0332 -1.263943,0.138424 -2.466682,0.637108 -3.546875,1.486329 -1.14038,0.855774 -2.158872,1.881106 -3.05664,3.136718 l 0.527344,-3.347656 -6.38086,0.699219 -4.693359,28.53125 6.380859,-0.697266 2.757813,-16.626953 c 0.354223,-1.622455 0.948465,-3.08747 1.845703,-4.464844 0.897507,-1.316455 2.160087,-2.064214 3.785156,-2.242187 0.662066,-0.07251 1.263529,0.04351 1.746094,0.234375 0.482564,0.190791 1.026763,0.496439 1.570312,0.863281 l 3.888674,-5.90625 c -0.66499,-0.597145 -1.38979,-1.066184 -2.17383,-1.345703 -0.58802,-0.20964 -1.24417,-0.344202 -1.941406,-0.353516 z m 20.527346,3.535156 c 1.16002,0.007 2.14435,0.319148 2.99023,0.972657 0.96672,0.74683 1.63339,1.708713 2.06055,3.001953 0.42716,1.29324 0.55283,2.680895 0.3789,4.222656 -0.23331,1.731034 -0.82799,3.258278 -1.78515,4.703125 -0.95716,1.444809 -2.03648,2.659569 -3.35742,3.535156 -1.32068,0.936544 -2.70357,1.451909 -4.08789,1.603516 -1.56488,0.171382 -2.89106,-0.04879 -3.91797,-0.789063 -1.02665,-0.679394 -1.75253,-1.695079 -2.17969,-2.988281 -0.48735,-1.286648 -0.55416,-2.742291 -0.32031,-4.351562 0.23358,-1.670115 0.82799,-3.258278 1.78515,-4.703125 0.95716,-1.444847 2.0957,-2.664362 3.47657,-3.607422 1.38113,-0.882255 2.88433,-1.412603 4.44921,-1.583984 0.17308,-0.01134 0.3421,-0.01663 0.50782,-0.01563 z m -101.294924,3.560547 -4.439454,3.59375 6.91211,11.119141 -10.664063,12.375 3.566407,3.021484 13.117187,-16.054687 z M 8.2519531,45.609375 3.8125,49.201172 10.664062,60.328125 0,72.703125 3.6269531,75.716797 16.744141,59.662109 Z"
         transform="matrix(0.26603819,0.02880424,-0.00116063,0.26301076,-43.557909,103.03953)" />
    </g>
  </g>
</svg>
