<?xml version="1.0" encoding="UTF-8" standalone="no"?>
<!-- Created with Inkscape (http://www.inkscape.org/) -->

<svg
   width="268.84454mm"
   height="117.2193mm"
   viewBox="0 0 268.84454 117.2193"
   version="1.1"
   id="svg33894"
   inkscape:version="1.1 (c4e8f9ed74, 2021-05-24)"
   sodipodi:docname="strategien_des_wandels_yellow.svg"
   xmlns:inkscape="http://www.inkscape.org/namespaces/inkscape"
   xmlns:sodipodi="http://sodipodi.sourceforge.net/DTD/sodipodi-0.dtd"
   xmlns="http://www.w3.org/2000/svg"
   xmlns:svg="http://www.w3.org/2000/svg">
  <sodipodi:namedview
     id="namedview33896"
     pagecolor="#505050"
     bordercolor="#eeeeee"
     borderopacity="1"
     inkscape:pageshadow="0"
     inkscape:pageopacity="0"
     inkscape:pagecheckerboard="0"
     inkscape:document-units="mm"
     showgrid="false"
     inkscape:zoom="0.8008768"
     inkscape:cx="433.27513"
     inkscape:cy="319.64966"
     inkscape:window-width="2560"
     inkscape:window-height="1371"
     inkscape:window-x="0"
     inkscape:window-y="0"
     inkscape:window-maximized="1"
     inkscape:current-layer="layer1"
     fit-margin-top="0"
     fit-margin-left="0"
     fit-margin-right="0"
     fit-margin-bottom="0"
     width="268.84454mm" />
  <defs
     id="defs33891" />
  <g
     inkscape:label="Layer 1"
     inkscape:groupmode="layer"
     id="layer1"
     transform="translate(-16.811333,-135.51954)">
    <g
       aria-label="»Strategien des Wandels«"
       transform="matrix(1.4659845,-0.16055072,0.00646918,1.4828589,80.577648,27.374439)"
       id="text14"
       style="font-style:italic;font-weight:500;font-size:16.0199px;font-family:Jost;-inkscape-font-specification:Jost-MediumItalic;fill:#ffff00;stroke-width:0.34881">
      <path
         d="m -40.790749,119.21376 -1.810248,-3.12388 1.185472,-0.81702 2.242786,3.9409 -3.508358,3.84477 -0.961194,-0.89711 z m 2.771443,0 -1.826269,-3.12388 1.185473,-0.81702 2.242786,3.9409 -3.508358,3.84477 -0.945174,-0.89711 z"
         style="font-family:'Jost*';-inkscape-font-specification:'Jost* Medium Italic'"
         id="path33988" />
      <path
         d="m -33.854138,119.47007 c 0.144179,0.41652 0.320398,0.801 0.512637,1.15344 0.192238,0.35243 0.448557,0.62477 0.736915,0.83303 0.288358,0.20826 0.640796,0.30438 1.089353,0.30438 0.512637,0 0.945174,-0.12816 1.297612,-0.41652 0.352438,-0.27234 0.576716,-0.64079 0.656816,-1.10537 0.06408,-0.4005 0.01602,-0.73692 -0.176219,-1.00925 -0.192239,-0.25632 -0.448557,-0.4806 -0.768955,-0.67284 -0.336418,-0.17622 -0.688856,-0.33642 -1.041294,-0.49662 -0.416517,-0.17622 -0.817015,-0.40049 -1.201492,-0.68885 -0.384478,-0.27234 -0.688856,-0.62478 -0.913134,-1.0413 -0.224279,-0.41651 -0.304379,-0.92915 -0.224279,-1.53791 0.09612,-0.59273 0.320398,-1.10537 0.704876,-1.55393 0.368457,-0.44855 0.833034,-0.78497 1.393731,-1.02527 0.560696,-0.2403 1.169452,-0.36846 1.810248,-0.36846 0.608757,0 1.121393,0.12816 1.569951,0.35244 0.432537,0.22428 0.784975,0.52866 1.073333,0.89711 0.288358,0.36846 0.496617,0.76896 0.624776,1.18548 l -1.56995,0.89711 c -0.176219,-0.43254 -0.400498,-0.81701 -0.688856,-1.13741 -0.288358,-0.3204 -0.688856,-0.49662 -1.201492,-0.49662 -0.448558,0 -0.849055,0.12816 -1.185473,0.36846 -0.336418,0.25632 -0.528657,0.57672 -0.592736,0.97721 -0.06408,0.35244 0,0.6408 0.224278,0.86508 0.208259,0.22428 0.496617,0.41652 0.849055,0.57671 0.352438,0.1602 0.704876,0.3204 1.057313,0.46458 0.448558,0.19224 0.849055,0.44856 1.217513,0.75294 0.368457,0.30437 0.656816,0.67283 0.849054,1.10537 0.192239,0.43254 0.240299,0.94517 0.176219,1.52189 -0.09612,0.67284 -0.336418,1.24955 -0.720895,1.74617 -0.384478,0.49662 -0.865075,0.88109 -1.457811,1.15343 -0.592736,0.27234 -1.249552,0.4005 -1.986468,0.4005 -0.640795,0 -1.201492,-0.12816 -1.682089,-0.4005 -0.496617,-0.25632 -0.913134,-0.62477 -1.249552,-1.08935 -0.336418,-0.46458 -0.576716,-0.99324 -0.736915,-1.58597 z"
         style="font-family:'Jost*';-inkscape-font-specification:'Jost* Medium Italic'"
         id="path33990" />
      <path
         d="m -24.386386,113.31843 h 1.714129 l -0.448557,2.56319 h 1.217512 l -0.256318,1.53791 h -1.217512 l -1.009254,5.83124 h -1.682089 l 0.993233,-5.83124 h -1.185472 l 0.272338,-1.53791 h 1.169453 z"
         style="font-family:'Jost*';-inkscape-font-specification:'Jost* Medium Italic'"
         id="path33992" />
      <path
         d="m -17.113356,117.73993 c -0.144179,-0.11214 -0.288358,-0.20826 -0.416517,-0.27234 -0.128159,-0.0641 -0.288358,-0.11214 -0.464577,-0.11214 -0.432537,0 -0.768955,0.1602 -1.009254,0.48059 -0.240298,0.33642 -0.400497,0.70488 -0.496617,1.1214 l -0.752935,4.29333 h -1.698109 l 1.281592,-7.36915 h 1.698109 l -0.144179,0.86507 c 0.240298,-0.30438 0.512637,-0.54468 0.817015,-0.73691 0.288358,-0.19224 0.608756,-0.28836 0.945174,-0.28836 0.256318,0 0.496617,0.0641 0.704875,0.1602 0.208259,0.0961 0.400498,0.2403 0.576717,0.41651 z"
         style="font-family:'Jost*';-inkscape-font-specification:'Jost* Medium Italic'"
         id="path33994" />
      <path
         d="m -16.200226,119.56619 c 0.09612,-0.72089 0.352438,-1.37771 0.736915,-1.95442 0.384478,-0.57672 0.881095,-1.0413 1.473831,-1.37772 0.576716,-0.33641 1.217512,-0.51263 1.890348,-0.51263 0.592736,0 1.073333,0.1602 1.441791,0.44856 0.368458,0.30437 0.640796,0.68885 0.8170148,1.16945 l 0.2402985,-1.45781 h 1.6981094 l -1.281592,7.36915 H -10.83356 l 0.208259,-1.23353 c -0.320398,0.43254 -0.704876,0.76895 -1.153433,1.02527 -0.448557,0.25632 -0.961194,0.36846 -1.505871,0.36846 -0.672835,0 -1.249552,-0.1602 -1.714129,-0.51264 -0.480597,-0.35244 -0.817015,-0.81701 -1.025273,-1.40975 -0.224279,-0.57671 -0.272339,-1.21751 -0.176219,-1.92239 z m 1.762189,0 c -0.06408,0.41652 -0.04806,0.801 0.0801,1.15344 0.11214,0.35243 0.304378,0.64079 0.576717,0.84905 0.272338,0.22428 0.624776,0.3204 1.041293,0.3204 0.368458,0 0.736915,-0.0961 1.089353,-0.30438 0.352438,-0.19224 0.640796,-0.4806 0.897115,-0.83303 0.256318,-0.35244 0.416517,-0.73692 0.480597,-1.18548 0.04806,-0.40049 0.01602,-0.76895 -0.09612,-1.12139 -0.112139,-0.35244 -0.288358,-0.62478 -0.544676,-0.84905 -0.256319,-0.22428 -0.560697,-0.33642 -0.929155,-0.35244 -0.416517,0 -0.817014,0.0961 -1.185472,0.28836 -0.368458,0.20826 -0.672836,0.49661 -0.929154,0.84905 -0.256319,0.35244 -0.416518,0.75294 -0.480598,1.18547 z"
         style="font-family:'Jost*';-inkscape-font-specification:'Jost* Medium Italic'"
         id="path33996" />
      <path
         d="m -5.114462,113.31843 h 1.7141292 l -0.4485572,2.56319 h 1.2175124 l -0.2563184,1.53791 h -1.2175124 l -1.0092536,5.83124 h -1.6820895 l 0.9932338,-5.83124 h -1.1854725 l 0.2723382,-1.53791 h 1.1694527 z"
         style="font-family:'Jost*';-inkscape-font-specification:'Jost* Medium Italic'"
         id="path33998" />
      <path
         d="M -0.54879568,118.7652 H 3.1518011 c 0.01602,-0.46458 -0.096119,-0.86508 -0.320398,-1.20149 -0.2402985,-0.33642 -0.6247761,-0.51264 -1.1534328,-0.51264 -0.5446765,0 -1.00925363,0.1602 -1.39373121,0.4806 -0.40049749,0.32039 -0.67283578,0.73691 -0.83303477,1.23353 z m -0.22427859,1.20149 c -0.0160199,0.5607 0.1121393,1.02527 0.36845769,1.40975 0.25631839,0.38448 0.67283577,0.59274 1.24955215,0.59274 0.48059693,0.016 0.89711433,-0.0961 1.26557203,-0.3204 0.3684577,-0.22428 0.6888557,-0.51264 0.961194,-0.83303 l 1.4417909,0.62477 c -0.4485572,0.57672 -0.9932337,1.05732 -1.6340297,1.42577 -0.640796,0.36846 -1.3777114,0.54468 -2.22676603,0.54468 -0.73691537,0 -1.36169144,-0.17622 -1.85830837,-0.52866 -0.4966168,-0.35243 -0.8490546,-0.81701 -1.0733332,-1.39373 -0.2242786,-0.57671 -0.3043781,-1.21751 -0.2082587,-1.92239 0.01602,-0.12816 0.03204,-0.27233 0.06408,-0.40049 0.03204,-0.12816 0.06408,-0.25632 0.1121393,-0.38448 0.1762189,-0.57672 0.4645771,-1.10537 0.8490547,-1.56995 0.3844775,-0.44856 0.86507452,-0.81702 1.425771,-1.08935 0.54467658,-0.25632 1.1694527,-0.4005 1.8422884,-0.4005 0.7369154,0 1.3616915,0.17622 1.8422885,0.49661 0.4805969,0.33642 0.8330347,0.78498 1.0412934,1.3617 0.2082587,0.57671 0.2723383,1.20149 0.1922388,1.90636 -0.01602,0.0801 -0.03204,0.1602 -0.04806,0.2403 -0.01602,0.0801 -0.03204,0.1602 -0.04806,0.2403 z"
         style="font-family:'Jost*';-inkscape-font-specification:'Jost* Medium Italic'"
         id="path34000" />
      <path
         d="m 5.9072176,119.53415 c 0.096119,-0.72089 0.3524378,-1.37771 0.7369154,-1.95442 0.3844776,-0.57672 0.8810944,-1.02528 1.4738307,-1.3617 0.5767164,-0.32039 1.2175124,-0.49661 1.8903483,-0.49661 0.560696,0 1.025273,0.14418 1.393731,0.41652 0.368458,0.27233 0.640796,0.62477 0.833035,1.07333 l 0.240298,-1.32965 h 1.68209 l -1.233532,7.20895 c -0.12816,0.801 -0.384478,1.48985 -0.768956,2.06657 -0.400497,0.59273 -0.897114,1.04129 -1.48985,1.36169 -0.608756,0.3204 -1.2655723,0.4806 -2.0024877,0.4806 -1.1053731,0 -1.9544277,-0.28836 -2.547164,-0.89712 -0.5927363,-0.60875 -0.8490547,-1.39373 -0.7849751,-2.35492 l 1.6660696,0.016 c -0.01602,0.49661 0.1121393,0.91313 0.4004974,1.23353 0.2723383,0.3204 0.7048756,0.4806 1.2976119,0.4806 0.4165174,0 0.800995,-0.0961 1.1534328,-0.28836 0.3524381,-0.19224 0.6568161,-0.4806 0.9131341,-0.84906 0.240299,-0.35243 0.400498,-0.76895 0.464577,-1.24955 l 0.160199,-1.00925 c -0.320398,0.38448 -0.704875,0.68885 -1.137413,0.91313 -0.4325369,0.22428 -0.9131339,0.3204 -1.4257707,0.3204 -0.6728358,0 -1.2495522,-0.1602 -1.7141292,-0.49662 -0.480597,-0.33641 -0.8170149,-0.80099 -1.0252736,-1.37771 -0.2242786,-0.57671 -0.2723383,-1.20149 -0.1762189,-1.90637 z m 1.7782088,0 c -0.096119,0.62478 0,1.15344 0.3043781,1.60199 0.3043781,0.44856 0.7689552,0.67284 1.3937313,0.67284 0.3524378,0 0.6888552,-0.0801 1.0252732,-0.25632 0.320398,-0.17622 0.608757,-0.41652 0.865075,-0.72089 0.240298,-0.30438 0.416517,-0.65682 0.512637,-1.05732 l 0.06408,-0.36846 c 0.04806,-0.59273 -0.06408,-1.10537 -0.352438,-1.52189 -0.288358,-0.41651 -0.704875,-0.62477 -1.233532,-0.64079 -0.432537,0 -0.8330345,0.0961 -1.1854723,0.28836 -0.3684577,0.20826 -0.6728358,0.48059 -0.9131343,0.83303 -0.2563184,0.35244 -0.4165174,0.73692 -0.480597,1.16945 z"
         style="font-family:'Jost*';-inkscape-font-specification:'Jost* Medium Italic'"
         id="path34002" />
      <path
         d="m 16.736664,112.966 c 0,-0.30438 0.09612,-0.5607 0.320398,-0.75294 0.208258,-0.19224 0.464577,-0.30438 0.768955,-0.30438 0.304378,0 0.560696,0.11214 0.768955,0.30438 0.208259,0.19224 0.320398,0.44856 0.320398,0.75294 0,0.30437 -0.112139,0.56069 -0.320398,0.75293 -0.208259,0.19224 -0.464577,0.28836 -0.768955,0.28836 -0.304378,0 -0.560697,-0.0961 -0.768955,-0.28836 -0.224279,-0.19224 -0.320398,-0.44856 -0.320398,-0.75293 z m -0.272339,2.91562 h 1.71413 l -1.249553,7.36915 h -1.698109 z"
         style="font-family:'Jost*';-inkscape-font-specification:'Jost* Medium Italic'"
         id="path34004" />
      <path
         d="m 21.430489,118.7652 h 3.700596 c 0.01602,-0.46458 -0.09612,-0.86508 -0.320398,-1.20149 -0.240298,-0.33642 -0.624776,-0.51264 -1.153432,-0.51264 -0.544677,0 -1.009254,0.1602 -1.393732,0.4806 -0.400497,0.32039 -0.672835,0.73691 -0.833034,1.23353 z m -0.224279,1.20149 c -0.01602,0.5607 0.112139,1.02527 0.368458,1.40975 0.256318,0.38448 0.672835,0.59274 1.249552,0.59274 0.480597,0.016 0.897114,-0.0961 1.265572,-0.3204 0.368458,-0.22428 0.688856,-0.51264 0.961194,-0.83303 l 1.441791,0.62477 c -0.448557,0.57672 -0.993234,1.05732 -1.63403,1.42577 -0.640796,0.36846 -1.377711,0.54468 -2.226766,0.54468 -0.736915,0 -1.361691,-0.17622 -1.858308,-0.52866 -0.496617,-0.35243 -0.849055,-0.81701 -1.073334,-1.39373 -0.224278,-0.57671 -0.304378,-1.21751 -0.208258,-1.92239 0.01602,-0.12816 0.03204,-0.27233 0.06408,-0.40049 0.03204,-0.12816 0.06408,-0.25632 0.11214,-0.38448 0.176219,-0.57672 0.464577,-1.10537 0.849054,-1.56995 0.384478,-0.44856 0.865075,-0.81702 1.425771,-1.08935 0.544677,-0.25632 1.169453,-0.4005 1.842289,-0.4005 0.736915,0 1.361691,0.17622 1.842288,0.49661 0.480597,0.33642 0.833035,0.78498 1.041294,1.3617 0.208258,0.57671 0.272338,1.20149 0.192238,1.90636 -0.01602,0.0801 -0.03204,0.1602 -0.04806,0.2403 -0.01602,0.0801 -0.03204,0.1602 -0.04806,0.2403 z"
         style="font-family:'Jost*';-inkscape-font-specification:'Jost* Medium Italic'"
         id="path34006" />
      <path
         d="m 33.18909,118.7652 c 0.04806,-0.43254 0.01602,-0.81702 -0.11214,-1.13741 -0.128159,-0.3204 -0.416517,-0.4806 -0.881094,-0.49662 -0.480597,-0.016 -0.897115,0.12816 -1.217513,0.44856 -0.336417,0.32039 -0.560696,0.70487 -0.672835,1.12139 l -0.784975,4.54965 h -1.73015 l 1.281592,-7.36915 h 1.73015 l -0.192239,1.08935 c 0.256318,-0.36846 0.576716,-0.67284 0.961194,-0.89711 0.384477,-0.22428 0.817015,-0.35244 1.313631,-0.35244 0.544677,0 0.993234,0.12816 1.329652,0.38448 0.320398,0.25631 0.544677,0.59273 0.672836,1.02527 0.128159,0.43254 0.144179,0.91313 0.0801,1.44179 l -0.800995,4.67781 h -1.762189 z"
         style="font-family:'Jost*';-inkscape-font-specification:'Jost* Medium Italic'"
         id="path34008" />
      <path
         d="m 41.407283,119.56619 c 0.09612,-0.72089 0.352438,-1.37771 0.736916,-1.95442 0.384477,-0.57672 0.881094,-1.0413 1.473831,-1.37772 0.576716,-0.33641 1.217512,-0.51263 1.890348,-0.51263 0.560696,0 1.025273,0.14418 1.393731,0.41652 0.368458,0.28835 0.640796,0.64079 0.833035,1.08935 l 1.089353,-6.47204 h 1.746169 l -2.146667,12.49552 H 46.70987 l 0.192239,-1.13741 c -0.320398,0.4005 -0.704876,0.72089 -1.137413,0.94517 -0.432537,0.2403 -0.913134,0.35244 -1.441791,0.35244 -0.672836,0 -1.249552,-0.1602 -1.714129,-0.51264 -0.480597,-0.35244 -0.817015,-0.81701 -1.025274,-1.40975 -0.224278,-0.57671 -0.272338,-1.21751 -0.176219,-1.92239 z m 1.762189,0 c -0.06408,0.41652 -0.04806,0.801 0.0801,1.15344 0.112139,0.35243 0.304378,0.64079 0.576716,0.84905 0.272339,0.22428 0.624776,0.3204 1.041294,0.3204 0.368457,0 0.720895,-0.0961 1.073333,-0.28836 0.336418,-0.19224 0.624776,-0.46458 0.881094,-0.80099 0.256319,-0.33642 0.416518,-0.7209 0.496617,-1.13742 l 0.01602,-0.11214 c 0.04806,-0.40049 0.01602,-0.76895 -0.09612,-1.12139 -0.11214,-0.35244 -0.288358,-0.62478 -0.544677,-0.84905 -0.256318,-0.20826 -0.560696,-0.3204 -0.929154,-0.33642 -0.416517,0 -0.817015,0.0961 -1.185473,0.28836 -0.368457,0.20826 -0.672835,0.49661 -0.929154,0.84905 -0.256318,0.35244 -0.416517,0.75294 -0.480597,1.18547 z"
         style="font-family:'Jost*';-inkscape-font-specification:'Jost* Medium Italic'"
         id="path34010" />
      <path
         d="m 52.717323,118.7652 h 3.700597 c 0.01602,-0.46458 -0.09612,-0.86508 -0.320398,-1.20149 -0.240298,-0.33642 -0.624776,-0.51264 -1.153433,-0.51264 -0.544676,0 -1.009253,0.1602 -1.393731,0.4806 -0.400497,0.32039 -0.672836,0.73691 -0.833035,1.23353 z m -0.224278,1.20149 c -0.01602,0.5607 0.112139,1.02527 0.368457,1.40975 0.256319,0.38448 0.672836,0.59274 1.249553,0.59274 0.480597,0.016 0.897114,-0.0961 1.265572,-0.3204 0.368457,-0.22428 0.688855,-0.51264 0.961194,-0.83303 l 1.441791,0.62477 c -0.448558,0.57672 -0.993234,1.05732 -1.63403,1.42577 -0.640796,0.36846 -1.377712,0.54468 -2.226766,0.54468 -0.736916,0 -1.361692,-0.17622 -1.858309,-0.52866 -0.496616,-0.35243 -0.849054,-0.81701 -1.073333,-1.39373 -0.224278,-0.57671 -0.304378,-1.21751 -0.208258,-1.92239 0.01602,-0.12816 0.03204,-0.27233 0.06408,-0.40049 0.03204,-0.12816 0.06408,-0.25632 0.112139,-0.38448 0.176219,-0.57672 0.464577,-1.10537 0.849055,-1.56995 0.384478,-0.44856 0.865075,-0.81702 1.425771,-1.08935 0.544677,-0.25632 1.169453,-0.4005 1.842289,-0.4005 0.736915,0 1.361691,0.17622 1.842288,0.49661 0.480597,0.33642 0.833035,0.78498 1.041293,1.3617 0.208259,0.57671 0.272339,1.20149 0.192239,1.90636 -0.01602,0.0801 -0.03204,0.1602 -0.04806,0.2403 -0.01602,0.0801 -0.03204,0.1602 -0.04806,0.2403 z"
         style="font-family:'Jost*';-inkscape-font-specification:'Jost* Medium Italic'"
         id="path34012" />
      <path
         d="m 59.910255,120.59147 c 0.256318,0.36845 0.544676,0.68885 0.881094,0.97721 0.320398,0.28836 0.672836,0.43254 1.041294,0.43254 0.272338,0 0.512637,-0.0641 0.736915,-0.19224 0.224279,-0.12816 0.352438,-0.3204 0.384478,-0.5607 0.03204,-0.22428 -0.03204,-0.40049 -0.160199,-0.56069 -0.128159,-0.1602 -0.304378,-0.28836 -0.528657,-0.4005 -0.224279,-0.0961 -0.432537,-0.20826 -0.656816,-0.30438 -0.336418,-0.12816 -0.640796,-0.30438 -0.929154,-0.49662 -0.288358,-0.19223 -0.512637,-0.43253 -0.672836,-0.72089 -0.160199,-0.28836 -0.224278,-0.6408 -0.160199,-1.05731 0.04806,-0.41652 0.208259,-0.78498 0.480597,-1.07334 0.256319,-0.28836 0.592737,-0.51263 0.993234,-0.67283 0.400497,-0.1602 0.833035,-0.2403 1.281592,-0.2403 0.560696,0 1.073333,0.12816 1.52189,0.36846 0.448558,0.25631 0.817015,0.56069 1.105373,0.94517 l -1.073333,0.99323 c -0.208259,-0.2403 -0.448557,-0.44855 -0.720895,-0.64079 -0.272339,-0.17622 -0.560697,-0.27234 -0.865075,-0.27234 -0.256318,0 -0.496617,0.0641 -0.720895,0.1602 -0.224279,0.11214 -0.352438,0.27234 -0.384478,0.49661 -0.03204,0.22428 0.03204,0.4005 0.208259,0.52866 0.160199,0.14418 0.384477,0.25632 0.640796,0.35244 0.256318,0.0961 0.480597,0.17622 0.704875,0.27234 0.480597,0.20826 0.897115,0.49661 1.249552,0.84905 0.336418,0.35244 0.480597,0.83304 0.416518,1.42577 -0.09612,0.73692 -0.400498,1.31364 -0.929154,1.69811 -0.544677,0.38448 -1.185473,0.57672 -1.954428,0.57672 -0.688856,0 -1.281592,-0.17622 -1.794229,-0.5607 -0.512637,-0.36846 -0.913134,-0.81701 -1.217512,-1.34567 z"
         style="font-family:'Jost*';-inkscape-font-specification:'Jost* Medium Italic'"
         id="path34014" />
      <path
         d="m 81.440989,119.64629 3.684576,-7.60945 h 2.210747 l -6.311841,11.85473 -2.114627,-7.91383 -4.613731,7.91383 -2.627263,-11.85473 h 2.146666 l 1.313632,7.60945 4.453532,-8.21821 z"
         style="font-family:'Jost*';-inkscape-font-specification:'Jost* Medium Italic'"
         id="path34016" />
      <path
         d="m 85.510028,119.56619 c 0.09612,-0.72089 0.352438,-1.37771 0.736916,-1.95442 0.384477,-0.57672 0.881094,-1.0413 1.473831,-1.37772 0.576716,-0.33641 1.217512,-0.51263 1.890348,-0.51263 0.592736,0 1.073333,0.1602 1.441791,0.44856 0.368457,0.30437 0.640796,0.68885 0.817015,1.16945 l 0.240298,-1.45781 h 1.698109 l -1.281592,7.36915 h -1.650049 l 0.208258,-1.23353 c -0.320398,0.43254 -0.704875,0.76895 -1.153432,1.02527 -0.448557,0.25632 -0.961194,0.36846 -1.505871,0.36846 -0.672836,0 -1.249552,-0.1602 -1.714129,-0.51264 -0.480597,-0.35244 -0.817015,-0.81701 -1.025274,-1.40975 -0.224278,-0.57671 -0.272338,-1.21751 -0.176219,-1.92239 z m 1.762189,0 c -0.06408,0.41652 -0.04806,0.801 0.0801,1.15344 0.112139,0.35243 0.304378,0.64079 0.576716,0.84905 0.272339,0.22428 0.624776,0.3204 1.041294,0.3204 0.368457,0 0.736915,-0.0961 1.089353,-0.30438 0.352438,-0.19224 0.640796,-0.4806 0.897114,-0.83303 0.256319,-0.35244 0.416518,-0.73692 0.480597,-1.18548 0.04806,-0.40049 0.01602,-0.76895 -0.09612,-1.12139 -0.112139,-0.35244 -0.288358,-0.62478 -0.544677,-0.84905 -0.256318,-0.22428 -0.560696,-0.33642 -0.929154,-0.35244 -0.416517,0 -0.817015,0.0961 -1.185472,0.28836 -0.368458,0.20826 -0.672836,0.49661 -0.929155,0.84905 -0.256318,0.35244 -0.416517,0.75294 -0.480596,1.18547 z"
         style="font-family:'Jost*';-inkscape-font-specification:'Jost* Medium Italic'"
         id="path34018" />
      <path
         d="m 100.08814,118.7652 c 0.0481,-0.43254 0.016,-0.81702 -0.112144,-1.13741 -0.128159,-0.3204 -0.416517,-0.4806 -0.881094,-0.49662 -0.480597,-0.016 -0.897115,0.12816 -1.217513,0.44856 -0.336418,0.32039 -0.560696,0.70487 -0.672835,1.12139 l -0.784975,4.54965 h -1.73015 l 1.281592,-7.36915 h 1.730149 l -0.192238,1.08935 c 0.256318,-0.36846 0.576716,-0.67284 0.961194,-0.89711 0.384477,-0.22428 0.817015,-0.35244 1.313631,-0.35244 0.544673,0 0.993233,0.12816 1.329653,0.38448 0.3204,0.25631 0.54468,0.59273 0.67283,1.02527 0.12816,0.43254 0.14418,0.91313 0.0801,1.44179 l -0.80099,4.67781 h -1.76219 z"
         style="font-family:'Jost*';-inkscape-font-specification:'Jost* Medium Italic'"
         id="path34020" />
      <path
         d="m 103.37222,119.56619 c 0.0961,-0.72089 0.35244,-1.37771 0.73691,-1.95442 0.38448,-0.57672 0.8811,-1.0413 1.47383,-1.37772 0.57672,-0.33641 1.21752,-0.51263 1.89035,-0.51263 0.5607,0 1.02528,0.14418 1.39373,0.41652 0.36846,0.28835 0.6408,0.64079 0.83304,1.08935 l 1.08935,-6.47204 h 1.74617 l -2.14667,12.49552 h -1.71412 l 0.19223,-1.13741 c -0.32039,0.4005 -0.70487,0.72089 -1.13741,0.94517 -0.43254,0.2403 -0.91313,0.35244 -1.44179,0.35244 -0.67284,0 -1.24955,-0.1602 -1.71413,-0.51264 -0.4806,-0.35244 -0.81701,-0.81701 -1.02527,-1.40975 -0.22428,-0.57671 -0.27234,-1.21751 -0.17622,-1.92239 z m 1.76219,0 c -0.0641,0.41652 -0.0481,0.801 0.0801,1.15344 0.11214,0.35243 0.30438,0.64079 0.57671,0.84905 0.27234,0.22428 0.62478,0.3204 1.0413,0.3204 0.36845,0 0.72089,-0.0961 1.07333,-0.28836 0.33642,-0.19224 0.62478,-0.46458 0.88109,-0.80099 0.25632,-0.33642 0.41652,-0.7209 0.49662,-1.13742 l 0.016,-0.11214 c 0.0481,-0.40049 0.016,-0.76895 -0.0961,-1.12139 -0.11214,-0.35244 -0.28836,-0.62478 -0.54467,-0.84905 -0.25632,-0.20826 -0.5607,-0.3204 -0.92916,-0.33642 -0.41652,0 -0.81701,0.0961 -1.18547,0.28836 -0.36846,0.20826 -0.67284,0.49661 -0.92916,0.84905 -0.25631,0.35244 -0.41651,0.75294 -0.48059,1.18547 z"
         style="font-family:'Jost*';-inkscape-font-specification:'Jost* Medium Italic'"
         id="path34022" />
      <path
         d="m 114.68224,118.7652 h 3.7006 c 0.016,-0.46458 -0.0961,-0.86508 -0.3204,-1.20149 -0.2403,-0.33642 -0.62477,-0.51264 -1.15343,-0.51264 -0.54468,0 -1.00925,0.1602 -1.39373,0.4806 -0.4005,0.32039 -0.67284,0.73691 -0.83304,1.23353 z m -0.22428,1.20149 c -0.016,0.5607 0.11214,1.02527 0.36846,1.40975 0.25632,0.38448 0.67284,0.59274 1.24955,0.59274 0.4806,0.016 0.89712,-0.0961 1.26558,-0.3204 0.36845,-0.22428 0.68885,-0.51264 0.96119,-0.83303 l 1.44179,0.62477 c -0.44856,0.57672 -0.99323,1.05732 -1.63403,1.42577 -0.64079,0.36846 -1.37771,0.54468 -2.22676,0.54468 -0.73692,0 -1.3617,-0.17622 -1.85831,-0.52866 -0.49662,-0.35243 -0.84906,-0.81701 -1.07334,-1.39373 -0.22427,-0.57671 -0.30437,-1.21751 -0.20825,-1.92239 0.016,-0.12816 0.032,-0.27233 0.0641,-0.40049 0.032,-0.12816 0.0641,-0.25632 0.11213,-0.38448 0.17622,-0.57672 0.46458,-1.10537 0.84906,-1.56995 0.38448,-0.44856 0.86507,-0.81702 1.42577,-1.08935 0.54468,-0.25632 1.16945,-0.4005 1.84229,-0.4005 0.73691,0 1.36169,0.17622 1.84229,0.49661 0.48059,0.33642 0.83303,0.78498 1.04129,1.3617 0.20826,0.57671 0.27234,1.20149 0.19224,1.90636 -0.016,0.0801 -0.032,0.1602 -0.0481,0.2403 -0.016,0.0801 -0.032,0.1602 -0.0481,0.2403 z"
         style="font-family:'Jost*';-inkscape-font-specification:'Jost* Medium Italic'"
         id="path34024" />
      <path
         d="m 123.18881,110.75525 h 1.73015 l -2.14667,12.49552 h -1.69811 z"
         style="font-family:'Jost*';-inkscape-font-specification:'Jost* Medium Italic'"
         id="path34026" />
      <path
         d="m 125.81607,120.59147 c 0.25632,0.36845 0.54468,0.68885 0.8811,0.97721 0.3204,0.28836 0.67283,0.43254 1.04129,0.43254 0.27234,0 0.51264,-0.0641 0.73692,-0.19224 0.22428,-0.12816 0.35243,-0.3204 0.38447,-0.5607 0.032,-0.22428 -0.032,-0.40049 -0.16019,-0.56069 -0.12816,-0.1602 -0.30438,-0.28836 -0.52866,-0.4005 -0.22428,-0.0961 -0.43254,-0.20826 -0.65682,-0.30438 -0.33641,-0.12816 -0.64079,-0.30438 -0.92915,-0.49662 -0.28836,-0.19223 -0.51264,-0.43253 -0.67284,-0.72089 -0.1602,-0.28836 -0.22428,-0.6408 -0.1602,-1.05731 0.0481,-0.41652 0.20826,-0.78498 0.4806,-1.07334 0.25632,-0.28836 0.59274,-0.51263 0.99323,-0.67283 0.4005,-0.1602 0.83304,-0.2403 1.2816,-0.2403 0.56069,0 1.07333,0.12816 1.52189,0.36846 0.44855,0.25631 0.81701,0.56069 1.10537,0.94517 l -1.07333,0.99323 c -0.20826,-0.2403 -0.44856,-0.44855 -0.7209,-0.64079 -0.27234,-0.17622 -0.56069,-0.27234 -0.86507,-0.27234 -0.25632,0 -0.49662,0.0641 -0.7209,0.1602 -0.22428,0.11214 -0.35244,0.27234 -0.38448,0.49661 -0.032,0.22428 0.032,0.4005 0.20826,0.52866 0.1602,0.14418 0.38448,0.25632 0.6408,0.35244 0.25632,0.0961 0.4806,0.17622 0.70487,0.27234 0.4806,0.20826 0.89712,0.49661 1.24956,0.84905 0.33641,0.35244 0.48059,0.83304 0.41651,1.42577 -0.0961,0.73692 -0.40049,1.31364 -0.92915,1.69811 -0.54468,0.38448 -1.18547,0.57672 -1.95443,0.57672 -0.68885,0 -1.28159,-0.17622 -1.79423,-0.5607 -0.51263,-0.36846 -0.91313,-0.81701 -1.21751,-1.34567 z"
         style="font-family:'Jost*';-inkscape-font-specification:'Jost* Medium Italic'"
         id="path34028" />
      <path
         d="m 136.11687,119.11764 1.81025,3.12388 -1.16946,0.81701 -2.2588,-3.94089 3.52437,-3.84478 0.9612,0.89712 z m -2.77145,0 1.82627,3.12388 -1.18547,0.81701 -2.24279,-3.94089 3.50836,-3.84478 0.9612,0.89712 z"
         style="font-family:'Jost*';-inkscape-font-specification:'Jost* Medium Italic'"
         id="path34030" />
    </g>
  </g>
</svg>
