<svg width="389.39mm" height="25.428mm" version="1.1" viewBox="0 0 389.39 25.428" xmlns="http://www.w3.org/2000/svg">
    <defs>
        <clipPath id="clipPath8570">
            <path d="m-54.748-25.786h413.39v-116.43h-413.39z" stroke-width=".35278"/>
        </clipPath>
    </defs>
    <g transform="translate(54.748 142.21)">
        <path d="m326.76-129.26c0-0.80822-0.16581-1.4259-0.49706-1.8546-0.33126-0.42791-0.85231-0.6424-1.5639-0.6424-0.74295 0-1.3406 0.23036-1.7932 0.69109-0.45261 0.46037-0.67909 1.0622-0.67909 1.8059v6.7874h-2.642v-11.151h2.642v1.7208c0.32349-0.61418 0.77187-1.095 1.3455-1.4422 0.57362-0.34749 1.2404-0.52106 1.9999-0.52106 1.2442 0 2.2017 0.3676 2.8723 1.1028 0.67099 0.73519 1.0058 1.8059 1.0058 3.2117v7.0785h-2.6903zm-12.508 0h-5.818c0.11359-0.82409 0.45261-1.4665 1.0181-1.9276 0.56621-0.46002 1.2446-0.69039 2.0362-0.69039 0.84067 0 1.4873 0.2346 1.9399 0.70309 0.4519 0.46849 0.72707 1.1067 0.82373 1.9149m2.8363 1.0911c0-1.7618-0.49706-3.1514-1.4912-4.1695-0.99342-1.0181-2.3555-1.5279-4.0841-1.5279-1.6002 0-2.8966 0.42862-3.8908 1.2852-0.99378 0.85654-1.6041 1.9713-1.8302 3.345-0.0325 0.19402-0.0564 0.38805-0.073 0.58208-0.0159 0.19403-0.024 0.39546-0.024 0.60607 0 1.1151 0.2346 2.1131 0.70309 2.9937 0.46814 0.88054 1.1314 1.5716 1.9879 2.0726 0.85619 0.50095 1.8581 0.75107 3.0053 0.75107 1.3903 0 2.5333-0.27446 3.4304-0.82409 0.89711-0.54963 1.62-1.2767 2.1696-2.1812l-2.2789-0.9218c-0.32315 0.54962-0.74719 0.98248-1.2725 1.2975-0.52494 0.31503-1.1673 0.47237-1.9269 0.47237-0.85654 0-1.5677-0.25435-2.1332-0.76341-0.56586-0.50906-0.89676-1.2725-0.99378-2.2906h8.6536c0.0162-0.12947 0.0282-0.25858 0.0363-0.38805 8e-3 -0.12947 0.0123-0.24201 0.0123-0.33902m-30.786-1.0911c0-0.80822-0.16581-1.4259-0.49671-1.8546-0.33126-0.42791-0.85232-0.6424-1.5635-0.6424-0.74365 0-1.3413 0.23036-1.7939 0.69109-0.45261 0.46037-0.67839 1.0622-0.67839 1.8059v6.7874h-2.6427v-11.151h2.6427v1.7208c0.32279-0.61418 0.77117-1.095 1.3448-1.4422 0.57397-0.34749 1.2404-0.52106 2.0006-0.52106 1.2435 0 2.2013 0.3676 2.872 1.1028s1.0061 1.8059 1.0061 3.2117v7.0785h-2.691zm-17.695-4.3632h-2.691v7.0781c0 1.4062 0.34007 2.4765 1.0181 3.212 0.6791 0.73519 1.6323 1.1024 2.8603 1.1024 0.75989 0 1.4266-0.18168 2.0002-0.5454 0.57397-0.36336 1.0301-0.84419 1.3698-1.4418v1.7452h2.618v-11.151h-2.618v6.7874c0 0.74295-0.22648 1.3455-0.6791 1.8055-0.45261 0.46108-1.0502 0.69074-1.7939 0.69074-1.3896 0-2.0846-0.83185-2.0846-2.4962zm-9.0413 3.6477c-0.32349-0.52493-0.72778-0.92498-1.2121-1.1994-0.48507-0.27481-0.97825-0.4124-1.4788-0.4124-0.90487 0-1.6887 0.31115-2.3513 0.93345-0.66252 0.62195-0.99413 1.4908-0.99413 2.606s0.33161 1.9837 0.99413 2.6056 1.4464 0.93345 2.3513 0.93345c0.5006 0 0.99378-0.13758 1.4788-0.41205 0.48436-0.27516 0.88865-0.67486 1.2121-1.2002 0.32315-0.52493 0.48437-1.1673 0.48437-1.9269s-0.16122-1.4019-0.48437-1.9276m0.48437 7.5029v-1.8422c-0.41981 0.66251-0.9578 1.1754-1.6118 1.5388-0.6544 0.36372-1.3854 0.5454-2.1939 0.5454-0.96979 0-1.8666-0.23037-2.691-0.69039-0.82409-0.46108-1.4862-1.1236-1.9872-1.9882-0.50129-0.86466-0.75177-1.9106-0.75177-3.1387 0-1.2287 0.25048-2.2751 0.75177-3.1397 0.50095-0.86395 1.1631-1.5268 1.9872-1.9872 0.82444-0.46073 1.7212-0.69144 2.691-0.69144 0.80857 0 1.5395 0.18238 2.1939 0.54575 0.65405 0.36371 1.192 0.877 1.6118 1.5395v-9.5994h2.642v18.908zm-14.423 0h2.691v-7.0785c0-1.4058-0.3355-2.4765-1.0061-3.2117-0.67027-0.73519-1.6277-1.1028-2.872-1.1028-0.76024 0-1.4266 0.17357-2.0006 0.52106-0.57362 0.34713-1.022 0.82797-1.3448 1.4422v-1.7208h-2.642v11.151h2.642v-6.7874c0-0.74366 0.22648-1.3455 0.67839-1.8059 0.45261-0.46073 1.0506-0.69109 1.7939-0.69109 0.71155 0 1.2322 0.21449 1.5635 0.6424 0.33161 0.42863 0.49671 1.0463 0.49671 1.8546zm-17.695-4.3632c0 1.6644 0.69498 2.4962 2.0846 2.4962 0.74365 0 1.3413-0.22966 1.7939-0.69074 0.45262-0.46002 0.6791-1.0626 0.6791-1.8055v-6.7874h2.618v11.151h-2.618v-1.7452c-0.33972 0.59761-0.79587 1.0784-1.3698 1.4418-0.57361 0.36372-1.24 0.5454-1.9995 0.5454-1.2287 0-2.1819-0.36724-2.8607-1.1024-0.67839-0.73554-1.0181-1.8059-1.0181-3.212v-7.0781h2.6906zm-11.975-2.8603v-11.684h-2.57v18.908h2.57v-5.6723l4.6055 5.6723h3.1761l-5.285-6.5451 4.7999-4.6055h-3.2zm-5.527-1.1151c-0.24236-0.19402-0.46849-0.34395-0.6784-0.44838-0.2106-0.10548-0.4766-0.15769-0.8001-0.15769-0.64664 0-1.1151 0.24236-1.4058 0.72708-0.29105 0.48507-0.43639 1.131-0.43639 1.9392v6.2784h-2.594v-11.151h2.594v1.3571c0.3235-0.50095 0.71085-0.89288 1.1635-1.1758 0.45261-0.28258 0.91334-0.42369 1.3818-0.42369 0.40393 0 0.78352 0.0642 1.1391 0.19333 0.3556 0.12947 0.66252 0.33972 0.9211 0.63076zm-9.6961 0.48437v-2.4723h-7.0294v-4.1212h7.5145v-2.5206h-10.327v16.968h10.327v-2.521h-7.5145v-5.3333zm-23.489-0.84808c-0.45261-0.46849-1.0993-0.70309-1.9392-0.70309-0.79163 0-1.4707 0.23037-2.0359 0.69039-0.56621 0.46108-0.90523 1.1035-1.0181 1.9276h5.8173c-0.097-0.80822-0.37148-1.4464-0.82409-1.9149m3.6481 3.345c-8e-3 0.12947-0.0201 0.25858-0.036 0.38805h-8.6543c0.097 1.0181 0.42862 1.7815 0.99413 2.2906 0.5655 0.50906 1.2767 0.76341 2.1332 0.76341 0.75918 0 1.4019-0.15734 1.9272-0.47237 0.52493-0.31503 0.94932-0.74789 1.2728-1.2975l2.2782 0.9218c-0.54963 0.90453-1.2725 1.6316-2.1696 2.1812-0.89711 0.54963-2.0405 0.82409-3.43 0.82409-1.1472 0-2.1495-0.25012-3.006-0.75107-0.85619-0.50094-1.5187-1.192-1.9872-2.0726-0.46919-0.88123-0.70309-1.8785-0.70309-2.9937 0-0.21061 8e-3 -0.41204 0.024-0.60607 0.0159-0.19403 0.0406-0.38806 0.073-0.58208 0.22613-1.3737 0.83573-2.4885 1.8299-3.345 0.99377-0.85655 2.2906-1.2852 3.8908-1.2852 1.7293 0 3.0907 0.50906 4.0845 1.5279 0.99413 1.0181 1.4908 2.4077 1.4908 4.1695 0 0.097-4e-3 0.20955-0.0123 0.33902m-16.568 5.3573h2.6903v-7.0785c0-1.4058-0.33514-2.4765-1.0058-3.2117s-1.6281-1.1028-2.8727-1.1028c-0.75953 0-1.4259 0.17357-1.9995 0.52106-0.57397 0.34713-1.0224 0.82797-1.3455 1.4422v-1.7208h-2.6423v11.151h2.6423v-6.7874c0-0.74366 0.22613-1.3455 0.67874-1.8059 0.45226-0.46073 1.0506-0.69109 1.7935-0.69109 0.7112 0 1.2326 0.21449 1.5635 0.6424 0.33161 0.42863 0.49742 1.0463 0.49742 1.8546zm-12.799-4.6302c-0.72708-0.37147-1.5674-0.55703-2.521-0.55703-0.84067 0-1.4707 0.16898-1.8909 0.5087-0.42051 0.33938-0.63041 0.8001-0.63041 1.3815 0 0.51717 0.19826 0.90523 0.59372 1.1638 0.39617 0.25859 0.88547 0.38806 1.4668 0.38806 0.85619 0 1.5674-0.19826 2.1329-0.59443 0.5662-0.39546 0.84878-1.0869 0.84878-2.0726zm0 4.6302v-1.6002c-0.32315 0.59796-0.82409 1.0548-1.5028 1.3698-0.6791 0.31503-1.4383 0.47237-2.279 0.47237-1.131 0-2.0644-0.29069-2.7996-0.87207-0.73554-0.58208-1.1028-1.4224-1.1028-2.5213 0-1.1638 0.4318-2.0726 1.2965-2.7273 0.86501-0.65405 2.0246-0.98178 3.4787-0.98178 0.61419 0 1.1674 0.0773 1.6605 0.23072 0.49283 0.1531 0.90875 0.32738 1.2485 0.5214v-1.5519c0-0.51682-0.21449-0.91723-0.64241-1.1998-0.42862-0.28293-0.94932-0.42439-1.5635-0.42439-0.79163 0-1.4866 0.13758-2.0849 0.41204-0.59795 0.27517-1.034 0.5013-1.3084 0.67875l-1.0668-1.8909c0.51717-0.30692 1.1596-0.60608 1.9269-0.89641 0.76765-0.29104 1.6528-0.43674 2.6543-0.43674 1.3737 0 2.4931 0.29915 3.3577 0.89711 0.86466 0.59761 1.2965 1.4542 1.2965 2.5693v7.9513zm-11.878-5.5753c0 0.74295-0.15416 1.3776-0.46072 1.9025-0.30692 0.52564-0.71508 0.92957-1.2238 1.2122-0.50906 0.28292-1.071 0.42439-1.6852 0.42439-0.50094 0-0.99342-0.13758-1.4785-0.41205-0.48507-0.27516-0.88477-0.67486-1.1998-1.2002-0.31573-0.52493-0.47307-1.1673-0.47307-1.9269s0.15734-1.4019 0.47307-1.9276c0.31503-0.52493 0.71473-0.92498 1.1998-1.1994 0.48507-0.27481 0.97755-0.4124 1.4785-0.4124 0.61419 0 1.1762 0.14111 1.6852 0.42439 0.50871 0.28293 0.91687 0.68686 1.2238 1.2122 0.30656 0.52493 0.46072 1.1592 0.46072 1.9029m2.7146 0c0-1.2287-0.25047-2.2751-0.75142-3.1397-0.50094-0.86395-1.1631-1.5268-1.9879-1.9872-0.82409-0.46073-1.7212-0.69144-2.6903-0.69144-0.80822 0-1.5395 0.18238-2.1939 0.54575-0.65475 0.36371-1.192 0.877-1.6122 1.5395v-9.5994h-2.6423v18.908h2.6423v-1.8422c0.42016 0.66251 0.95744 1.1754 1.6122 1.5388 0.6544 0.36372 1.3857 0.5454 2.1939 0.5454 0.96908 0 1.8662-0.23037 2.6903-0.69039 0.82479-0.46108 1.487-1.1236 1.9879-1.9882 0.50095-0.86466 0.75142-1.9106 0.75142-3.1387m-14.835-2.7633c-0.24201-0.19402-0.46849-0.34395-0.67804-0.44838-0.21061-0.10548-0.47696-0.15769-0.8001-0.15769-0.64664 0-1.1151 0.24236-1.4062 0.72708-0.29105 0.48507-0.43604 1.131-0.43604 1.9392v6.2784h-2.594v-11.151h2.594v1.3571c0.32279-0.50095 0.7105-0.89288 1.1631-1.1758 0.45261-0.28258 0.91299-0.42369 1.3822-0.42369 0.40358 0 0.78352 0.0642 1.1391 0.19333 0.3556 0.12947 0.66252 0.33972 0.92111 0.63076zm-16.435-2.812h-2.6903v7.0781c0 1.4062 0.33902 2.4765 1.0178 3.212 0.6791 0.73519 1.6326 1.1024 2.8603 1.1024 0.75953 0 1.4263-0.18168 1.9999-0.5454 0.57361-0.36336 1.0305-0.84419 1.3695-1.4418v1.7452h2.618v-11.151h-2.6179v6.7874c0 0.74295-0.22613 1.3455-0.67839 1.8055-0.45261 0.46108-1.0502 0.69074-1.7939 0.69074-1.3896 0-2.0849-0.83185-2.0849-2.4962zm-13.016 2.812c-0.24271-0.19402-0.4692-0.34395-0.67874-0.44838-0.2099-0.10548-0.47696-0.15769-0.8001-0.15769-0.64664 0-1.1151 0.24236-1.4062 0.72708-0.29104 0.48507-0.43603 1.131-0.43603 1.9392v6.2784h-2.594v-11.151h2.594v1.3571c0.32314-0.50095 0.7112-0.89288 1.1631-1.1758 0.45261-0.28258 0.9137-0.42369 1.3822-0.42369 0.40358 0 0.78352 0.0642 1.1391 0.19333 0.3556 0.12947 0.66252 0.33972 0.9211 0.63076zm-16.435-2.812h-2.691v7.0781c0 1.4062 0.33937 2.4765 1.0181 3.212 0.6791 0.73519 1.6327 1.1024 2.8603 1.1024 0.72778 0 1.3822-0.16158 1.9639-0.48472 0.58138-0.32279 1.0506-0.75953 1.4062-1.3084v1.5512h2.6173v-11.151h-2.6173v6.7874c0 0.74295-0.22648 1.3455-0.6791 1.8055-0.45261 0.46108-1.0502 0.69074-1.7939 0.69074-1.3896 0-2.0846-0.83185-2.0846-2.4962zm3.2484-3.6604c0-0.45261 0.15769-0.8322 0.47272-1.1391 0.31503-0.30727 0.69885-0.46073 1.1515-0.46073 0.46849 0 0.86466 0.15346 1.1874 0.46073 0.32314 0.30692 0.48472 0.68651 0.48472 1.1391s-0.16157 0.8322-0.48472 1.1391c-0.32279 0.30692-0.71896 0.46108-1.1874 0.46108-0.45261 0-0.83644-0.15416-1.1515-0.46108-0.31503-0.30692-0.47272-0.68651-0.47272-1.1391m-4.7999 1.1391c0.32314 0.30692 0.7112 0.46108 1.1638 0.46108 0.46849 0 0.86042-0.15416 1.1755-0.46108 0.31503-0.30692 0.47272-0.68651 0.47272-1.1391s-0.15769-0.8322-0.47272-1.1391c-0.31503-0.30727-0.70697-0.46073-1.1755-0.46073-0.45261 0-0.84067 0.15346-1.1638 0.46073-0.32279 0.30692-0.48436 0.68651-0.48436 1.1391s0.16157 0.8322 0.48436 1.1391m-3.4177-2.4239c-0.16157-0.25858-0.34325-0.42792-0.54539-0.50906-0.20179-0.0804-0.40781-0.121-0.61771-0.121-0.3556 0-0.63853 0.14923-0.84878 0.44838-0.2099 0.29845-0.31503 0.80398-0.31503 1.5148v3.6121h2.594v2.3029h-2.594v8.8477h-2.5936v-8.8477h-1.2118v-2.3029h1.2118v-4.1212c0-1.2926 0.31115-2.2701 0.9331-2.9334 0.6223-0.66251 1.5152-0.99342 2.6786-0.99342 0.64629 0 1.1755 0.11712 1.5875 0.35172 0.41204 0.23389 0.72355 0.47272 0.93345 0.71473zm-18.446 16.096h2.6423v-18.908h-2.6423zm-5.6236-4.6302c-0.72708-0.37147-1.5677-0.55703-2.521-0.55703-0.83996 0-1.4707 0.16898-1.8912 0.5087-0.41945 0.33938-0.63006 0.8001-0.63006 1.3815 0 0.51717 0.19826 0.90523 0.59443 1.1638 0.39546 0.25859 0.88441 0.38806 1.4665 0.38806 0.85654 0 1.567-0.19826 2.1332-0.59443 0.5655-0.39546 0.84808-1.0869 0.84808-2.0726zm0 4.6302v-1.6002c-0.32314 0.59796-0.82409 1.0548-1.5028 1.3698-0.6791 0.31503-1.4386 0.47237-2.2786 0.47237-1.1314 0-2.0641-0.29069-2.7996-0.87207-0.73519-0.58208-1.1031-1.4224-1.1031-2.5213 0-1.1638 0.4325-2.0726 1.2972-2.7273 0.86395-0.65405 2.0239-0.98178 3.478-0.98178 0.61419 0 1.168 0.0773 1.6605 0.23072 0.49318 0.1531 0.90946 0.32738 1.2485 0.5214v-1.5519c0-0.51682-0.21378-0.91723-0.64241-1.1998-0.42792-0.28293-0.94932-0.42439-1.5635-0.42439-0.79199 0-1.4866 0.13758-2.0846 0.41204-0.59831 0.27517-1.0343 0.5013-1.3088 0.67875l-1.0668-1.8909c0.51717-0.30692 1.1596-0.60608 1.9272-0.89641 0.76764-0.29104 1.6524-0.43674 2.6539-0.43674 1.3737 0 2.4931 0.29915 3.3574 0.89711 0.86501 0.59761 1.2968 1.4542 1.2968 2.5693v7.9513zm-14.108 1.0181 5.7693-12.169h-2.8603l-2.909 7.1995-2.909-7.1995h-2.8843zm-10.641-16.605c0-0.45261 0.16192-0.83255 0.48436-1.1391 0.3235-0.30691 0.71155-0.46108 1.1642-0.46108 0.46849 0 0.86466 0.15417 1.1878 0.46108 0.32279 0.30657 0.48436 0.68651 0.48436 1.1391 0 0.45262-0.16157 0.8322-0.48436 1.1391-0.32314 0.30727-0.71931 0.46073-1.1878 0.46073-0.45261 0-0.84067-0.15346-1.1642-0.46073-0.32244-0.30692-0.48436-0.6865-0.48436-1.1391m0.36336 15.587h2.57v-11.151h-2.57zm-6.5204-15.029h2.594v3.8784h1.8662v2.3029h-1.8662v8.8477h-2.594v-8.8477h-1.8662v-2.3029h1.8662zm-11.66 12.484c0.51717 0.82409 1.2079 1.5106 2.0726 2.0602 0.86466 0.54963 1.838 0.82409 2.9206 0.82409 1.1797 0 2.1456-0.28681 2.8967-0.86042 0.75177-0.57362 1.1275-1.4503 1.1275-2.63 0-0.66252-0.14499-1.2037-0.43603-1.6242-0.29104-0.42016-0.67063-0.77153-1.1391-1.0544-0.4692-0.28258-0.97014-0.52952-1.5032-0.73943-0.42016-0.17744-0.84455-0.33902-1.2725-0.48471-0.42862-0.14535-0.77999-0.31539-1.0545-0.50906-0.27517-0.19403-0.41204-0.4445-0.41204-0.75142 0-0.33902 0.13335-0.58596 0.3997-0.73942 0.2667-0.15346 0.62653-0.23036 1.0784-0.23036 0.45261 0 0.92534 0.12911 1.4185 0.38805 0.49248 0.25859 0.92498 0.5902 1.2965 0.99378l1.4545-1.5028c-0.41981-0.5655-1.0142-1.0382-1.7819-1.4178-0.76764-0.37994-1.6034-0.56974-2.5086-0.56974-0.66252 0-1.2848 0.12101-1.8662 0.36336-0.58208 0.24201-1.0506 0.5902-1.4062 1.0421-0.3556 0.45261-0.53305 1.0022-0.53305 1.6489 0 0.69462 0.15734 1.2562 0.47237 1.6845 0.31503 0.42792 0.71508 0.77188 1.1998 1.0298 0.48507 0.25893 0.98566 0.49318 1.5032 0.70308 0.64664 0.24271 1.216 0.50165 1.7085 0.77611 0.49318 0.27446 0.73942 0.65405 0.73942 1.1391 0 0.37218-0.13335 0.65052-0.3997 0.83644-0.2667 0.18556-0.63394 0.27869-1.1031 0.27869-0.48507 0-1.0298-0.19826-1.6358-0.59372-0.60607-0.39617-1.1758-0.90946-1.7092-1.5395zm-5.0419-6.157c-0.45261-0.46849-1.0989-0.70309-1.9389-0.70309-0.79234 0-1.4707 0.23037-2.0362 0.69039-0.56586 0.46108-0.90523 1.1035-1.0181 1.9276h5.8177c-0.097014-0.80822-0.37183-1.4464-0.82444-1.9149m3.6481 3.345c-0.00776 0.12947-0.020108 0.25858-0.036336 0.38805h-8.6536c0.097014 1.0181 0.42862 1.7815 0.99413 2.2906 0.5655 0.50906 1.2767 0.76341 2.1329 0.76341 0.75953 0 1.4019-0.15734 1.9269-0.47237 0.52529-0.31503 0.94968-0.74789 1.2725-1.2975l2.2789 0.9218c-0.54963 0.90453-1.2725 1.6316-2.1696 2.1812-0.89711 0.54963-2.0401 0.82409-3.4297 0.82409-1.1472 0-2.1495-0.25012-3.006-0.75107-0.85654-0.50094-1.5187-1.192-1.9879-2.0726-0.46849-0.88053-0.70238-1.8785-0.70238-2.9937 0-0.21061 0.00741-0.41204 0.023989-0.60607 0.015875-0.19403 0.039864-0.38806 0.072319-0.58208 0.22648-1.3737 0.83644-2.4885 1.8306-3.345 0.99377-0.85655 2.2906-1.2852 3.8904-1.2852 1.7293 0 3.0907 0.50976 4.0845 1.5279 0.99342 1.0181 1.4908 2.4077 1.4908 4.1695 0 0.097-0.00423 0.20955-0.012347 0.33902m-13.101-2.3029v-2.4966h-6.3031v-4.2422h6.5454v-2.5693h-9.3567v16.968h2.8113v-7.6602zm-23.731 6.4241c0-0.4692 0.16157-0.86889 0.48472-1.2005 0.3235-0.33091 0.72708-0.49672 1.2121-0.49672 0.48507 0 0.89288 0.16581 1.2245 0.49672 0.33091 0.33161 0.49671 0.7313 0.49671 1.2005 0 0.45191-0.16581 0.84808-0.49671 1.1874-0.33161 0.33972-0.73942 0.50906-1.2245 0.50906-0.48507 0-0.88865-0.16934-1.2121-0.50906-0.32314-0.33937-0.48472-0.73554-0.48472-1.1874m-6.6178-9.9145h-1.8662v2.3029h1.8662v8.8477h2.594v-8.8477h1.8665v-2.3029h-1.8665v-3.8784h-2.594zm-6.3507 4.3632c0-0.80822-0.16545-1.4259-0.49671-1.8546-0.33161-0.42791-0.85266-0.6424-1.5635-0.6424-0.74366 0-1.3416 0.23036-1.7939 0.69109-0.45261 0.46037-0.67874 1.0622-0.67874 1.8059v6.7874h-2.6423v-11.151h2.6423v1.7208c0.32314-0.61418 0.77152-1.095 1.3451-1.4422 0.57397-0.34749 1.2404-0.52106 1.9999-0.52106 1.2442 0 2.202 0.3676 2.8727 1.1028 0.67063 0.73519 1.0058 1.8059 1.0058 3.2117v7.0785h-2.6906zm-13.623 6.7874h2.909v-16.968h-2.909zm355.51-5.6243c0 0.76023-0.16157 1.398-0.48436 1.9152-0.32314 0.51717-0.72743 0.90522-1.2118 1.1638-0.48507 0.25859-0.97825 0.38806-1.4792 0.38806-0.90487 0-1.6888-0.29916-2.3509-0.89712-0.66252-0.59831-0.99413-1.4548-0.99413-2.57 0-1.1148 0.33161-1.9756 0.99413-2.5816 0.66216-0.60572 1.446-0.90876 2.3509-0.90876 0.50095 0 0.99413 0.13371 1.4792 0.3997 0.48436 0.26705 0.88865 0.65899 1.2118 1.1758 0.32279 0.51717 0.48436 1.1557 0.48436 1.9149m2.57 5.3816v-10.908h-2.57v1.8179c-0.87206-1.3737-2.1406-2.0609-3.8054-2.0609-0.96979 0-1.8669 0.22648-2.691 0.6791-0.82409 0.45261-1.4862 1.1067-1.9872 1.9632-0.50129 0.8569-0.75177 1.8994-0.75177 3.127 0 1.2287 0.25048 2.2708 0.75177 3.1274 0.50095 0.85619 1.1631 1.5071 1.9872 1.9516 0.82409 0.44414 1.7212 0.66639 2.691 0.66639 1.6648 0 2.9334-0.67874 3.8054-2.0362v1.6725c0 0.84032-0.15734 1.5272-0.47237 2.0609-0.31503 0.53305-0.72319 0.92921-1.2238 1.1871-0.50165 0.25858-1.0262 0.38805-1.5759 0.38805-0.93768 0-1.6888-0.25435-2.2542-0.76341s-0.86466-1.1352-0.89711-1.8789h-2.594c0.0487 1.4548 0.57785 2.6381 1.5882 3.5518 1.01 0.91264 2.42 1.3695 4.2298 1.3695 1.0181 0 1.9632-0.21449 2.8363-0.64241 0.87206-0.42863 1.5794-1.0788 2.1205-1.9516 0.54152-0.87242 0.81245-1.9798 0.81245-3.321" clip-path="url(#clipPath8570)" fill="#1c9bd8"/>
    </g>
</svg>
