<?xml version="1.0" encoding="UTF-8" standalone="no"?>
<!-- Created with Inkscape (http://www.inkscape.org/) -->

<svg
   xmlns:dc="http://purl.org/dc/elements/1.1/"
   xmlns:cc="http://creativecommons.org/ns#"
   xmlns:rdf="http://www.w3.org/1999/02/22-rdf-syntax-ns#"
   xmlns:svg="http://www.w3.org/2000/svg"
   xmlns="http://www.w3.org/2000/svg"
   xmlns:sodipodi="http://sodipodi.sourceforge.net/DTD/sodipodi-0.dtd"
   xmlns:inkscape="http://www.inkscape.org/namespaces/inkscape"
   width="413.3887mm"
   height="116.42831mm"
   viewBox="0 0 413.3887 116.42831"
   version="1.1"
   id="svg1971"
   inkscape:version="0.92.4 (5da689c313, 2019-01-14)"
   sodipodi:docname="urbanize.svg">
  <defs
     id="defs1965">
    <clipPath
       clipPathUnits="userSpaceOnUse"
       id="clipPath506">
      <path
         d="m 294.37,1848.278 h 1171.811 v 330.033 H 294.37 Z"
         id="path504"
         inkscape:connector-curvature="0" />
    </clipPath>
  </defs>
  <sodipodi:namedview
     id="base"
     pagecolor="#ffffff"
     bordercolor="#666666"
     borderopacity="1.0"
     inkscape:pageopacity="0.0"
     inkscape:pageshadow="2"
     inkscape:zoom="0.98994949"
     inkscape:cx="761.40328"
     inkscape:cy="170.38202"
     inkscape:document-units="mm"
     inkscape:current-layer="layer1"
     showgrid="false"
     inkscape:pagecheckerboard="true"
     fit-margin-top="0"
     fit-margin-left="0"
     fit-margin-right="0"
     fit-margin-bottom="0"
     inkscape:window-width="2560"
     inkscape:window-height="1376"
     inkscape:window-x="0"
     inkscape:window-y="27"
     inkscape:window-maximized="1" />
  <metadata
     id="metadata1968">
    <rdf:RDF>
      <cc:Work
         rdf:about="">
        <dc:format>image/svg+xml</dc:format>
        <dc:type
           rdf:resource="http://purl.org/dc/dcmitype/StillImage" />
        <dc:title></dc:title>
      </cc:Work>
    </rdf:RDF>
  </metadata>
  <g
     inkscape:label="Layer 1"
     inkscape:groupmode="layer"
     id="layer1"
     transform="translate(54.747918,142.21416)">
    <g
       transform="matrix(0.35277777,0,0,-0.35277777,-158.59511,626.24554)"
       id="g500">
      <g
         id="g502"
         clip-path="url(#clipPath506)">
        <g
           id="g508"
           transform="translate(1375.8069,1883.5966)">
          <path
             d="m 0,0 c 0,2.291 -0.47,4.042 -1.409,5.257 -0.939,1.213 -2.416,1.821 -4.433,1.821 -2.106,0 -3.8,-0.653 -5.083,-1.959 C -12.208,3.814 -12.85,2.108 -12.85,0 v -19.24 h -7.489 v 31.608 h 7.489 V 7.49 c 0.917,1.741 2.188,3.104 3.814,4.088 1.626,0.985 3.516,1.477 5.669,1.477 3.527,0 6.241,-1.042 8.142,-3.126 C 6.677,7.845 7.626,4.81 7.626,0.825 V -19.24 H 0 Z m -35.456,0 h -16.492 c 0.322,2.336 1.283,4.157 2.886,5.464 1.605,1.304 3.528,1.957 5.772,1.957 2.383,0 4.216,-0.665 5.499,-1.993 C -36.51,4.1 -35.73,2.291 -35.456,0 m 8.04,-3.093 c 0,4.994 -1.409,8.933 -4.227,11.819 -2.816,2.886 -6.677,4.331 -11.577,4.331 -4.536,0 -8.211,-1.215 -11.029,-3.643 -2.817,-2.428 -4.547,-5.588 -5.188,-9.482 -0.092,-0.55 -0.16,-1.1 -0.207,-1.65 -0.045,-0.55 -0.068,-1.121 -0.068,-1.718 0,-3.161 0.665,-5.99 1.993,-8.486 1.327,-2.496 3.207,-4.455 5.635,-5.875 2.427,-1.42 5.267,-2.129 8.519,-2.129 3.941,0 7.181,0.778 9.724,2.336 2.543,1.558 4.592,3.619 6.15,6.183 l -6.46,2.613 c -0.916,-1.558 -2.118,-2.785 -3.607,-3.678 -1.488,-0.893 -3.309,-1.339 -5.462,-1.339 -2.428,0 -4.444,0.721 -6.047,2.164 -1.604,1.443 -2.542,3.607 -2.817,6.493 h 24.53 c 0.046,0.367 0.08,0.733 0.103,1.1 0.023,0.367 0.035,0.686 0.035,0.961 M -114.683,0 c 0,2.291 -0.47,4.042 -1.408,5.257 -0.939,1.213 -2.416,1.821 -4.432,1.821 -2.108,0 -3.802,-0.653 -5.085,-1.959 -1.283,-1.305 -1.923,-3.011 -1.923,-5.119 v -19.24 h -7.491 v 31.608 h 7.491 V 7.49 c 0.915,1.741 2.186,3.104 3.812,4.088 1.627,0.985 3.516,1.477 5.671,1.477 3.525,0 6.24,-1.042 8.141,-3.126 1.901,-2.084 2.852,-5.119 2.852,-9.104 V -19.24 h -7.628 z m -50.16,12.368 h -7.628 V -7.696 c 0,-3.986 0.964,-7.02 2.886,-9.105 1.925,-2.084 4.627,-3.125 8.108,-3.125 2.154,0 4.044,0.515 5.67,1.546 1.627,1.03 2.92,2.393 3.883,4.087 v -4.947 h 7.421 v 31.608 h -7.421 v -19.24 c 0,-2.106 -0.642,-3.814 -1.925,-5.118 -1.283,-1.307 -2.977,-1.958 -5.085,-1.958 -3.939,0 -5.909,2.358 -5.909,7.076 z m -25.629,-10.34 c -0.917,1.488 -2.063,2.622 -3.436,3.4 -1.375,0.779 -2.773,1.169 -4.192,1.169 -2.565,0 -4.787,-0.882 -6.665,-2.646 -1.878,-1.763 -2.818,-4.226 -2.818,-7.387 0,-3.161 0.94,-5.623 2.818,-7.386 1.878,-1.763 4.1,-2.646 6.665,-2.646 1.419,0 2.817,0.39 4.192,1.168 1.373,0.78 2.519,1.913 3.436,3.402 0.916,1.488 1.373,3.309 1.373,5.462 0,2.153 -0.457,3.974 -1.373,5.464 m 1.373,-21.268 v 5.222 c -1.19,-1.878 -2.715,-3.332 -4.569,-4.362 -1.855,-1.031 -3.927,-1.546 -6.219,-1.546 -2.749,0 -5.291,0.653 -7.628,1.957 -2.336,1.307 -4.213,3.185 -5.633,5.636 -1.421,2.451 -2.131,5.416 -2.131,8.897 0,3.483 0.71,6.449 2.131,8.9 1.42,2.449 3.297,4.328 5.633,5.633 2.337,1.306 4.879,1.96 7.628,1.96 2.292,0 4.364,-0.517 6.219,-1.547 1.854,-1.031 3.379,-2.486 4.569,-4.364 v 27.211 h 7.489 V -19.24 Z m -40.885,0 h 7.628 V 0.825 c 0,3.985 -0.951,7.02 -2.852,9.104 -1.9,2.084 -4.614,3.126 -8.141,3.126 -2.155,0 -4.044,-0.492 -5.671,-1.477 -1.626,-0.984 -2.897,-2.347 -3.812,-4.088 v 4.878 h -7.489 V -19.24 h 7.489 V 0 c 0,2.108 0.642,3.814 1.923,5.119 1.283,1.306 2.978,1.959 5.085,1.959 2.017,0 3.493,-0.608 4.432,-1.821 0.94,-1.215 1.408,-2.966 1.408,-5.257 z m -50.16,12.368 c 0,-4.718 1.97,-7.076 5.909,-7.076 2.108,0 3.802,0.651 5.085,1.958 1.283,1.304 1.925,3.012 1.925,5.118 v 19.24 h 7.421 V -19.24 h -7.421 v 4.947 c -0.963,-1.694 -2.256,-3.057 -3.883,-4.087 -1.626,-1.031 -3.515,-1.546 -5.668,-1.546 -3.483,0 -6.185,1.041 -8.109,3.125 -1.923,2.085 -2.886,5.119 -2.886,9.105 v 20.064 h 7.627 z m -33.944,8.108 v 33.121 h -7.285 V -19.24 h 7.285 v 16.079 l 13.055,-16.079 h 9.003 l -14.981,18.553 13.606,13.055 h -9.071 z m -15.667,3.161 c -0.687,0.55 -1.328,0.975 -1.923,1.271 -0.597,0.299 -1.351,0.447 -2.268,0.447 -1.833,0 -3.161,-0.687 -3.985,-2.061 -0.825,-1.375 -1.237,-3.206 -1.237,-5.497 V -19.24 h -7.353 v 31.608 h 7.353 V 8.521 c 0.917,1.42 2.015,2.531 3.298,3.333 1.283,0.801 2.589,1.201 3.917,1.201 1.145,0 2.221,-0.182 3.229,-0.548 1.008,-0.367 1.878,-0.963 2.611,-1.788 z M -357.24,3.024 v 7.008 h -19.926 v 11.682 h 21.301 v 7.145 h -21.301 -2.956 -5.015 V -19.24 h 5.015 2.956 21.301 v 7.146 h -21.301 V 3.024 Z m -66.582,2.404 c -1.283,1.328 -3.116,1.993 -5.497,1.993 -2.244,0 -4.169,-0.653 -5.771,-1.957 -1.605,-1.307 -2.566,-3.128 -2.886,-5.464 h 16.49 c -0.275,2.291 -1.053,4.1 -2.336,5.428 m 10.341,-9.482 c -0.022,-0.367 -0.057,-0.733 -0.102,-1.1 h -24.532 c 0.275,-2.886 1.215,-5.05 2.818,-6.493 1.603,-1.443 3.619,-2.164 6.047,-2.164 2.152,0 3.974,0.446 5.463,1.339 1.488,0.893 2.691,2.12 3.608,3.678 l 6.458,-2.613 c -1.558,-2.564 -3.607,-4.625 -6.15,-6.183 -2.543,-1.558 -5.784,-2.336 -9.723,-2.336 -3.252,0 -6.093,0.709 -8.521,2.129 -2.427,1.42 -4.305,3.379 -5.633,5.875 -1.33,2.498 -1.993,5.325 -1.993,8.486 0,0.597 0.023,1.168 0.068,1.718 0.045,0.55 0.115,1.1 0.207,1.65 0.641,3.894 2.369,7.054 5.187,9.482 2.817,2.428 6.493,3.643 11.029,3.643 4.902,0 8.761,-1.443 11.578,-4.331 2.818,-2.886 4.226,-6.825 4.226,-11.819 0,-0.275 -0.012,-0.594 -0.035,-0.961 m -46.964,-15.186 h 7.626 V 0.825 c 0,3.985 -0.95,7.02 -2.851,9.104 -1.901,2.084 -4.615,3.126 -8.143,3.126 -2.153,0 -4.042,-0.492 -5.668,-1.477 -1.627,-0.984 -2.898,-2.347 -3.814,-4.088 v 4.878 h -7.49 V -19.24 h 7.49 V 0 c 0,2.108 0.641,3.814 1.924,5.119 1.282,1.306 2.978,1.959 5.084,1.959 2.016,0 3.494,-0.608 4.432,-1.821 0.94,-1.215 1.41,-2.966 1.41,-5.257 z m -36.281,13.125 c -2.061,1.053 -4.443,1.579 -7.146,1.579 -2.383,0 -4.169,-0.479 -5.36,-1.442 -1.192,-0.962 -1.787,-2.268 -1.787,-3.916 0,-1.466 0.562,-2.566 1.683,-3.299 1.123,-0.733 2.51,-1.1 4.158,-1.1 2.427,0 4.443,0.562 6.046,1.685 1.605,1.121 2.406,3.081 2.406,5.875 z m 0,-13.125 v 4.536 c -0.916,-1.695 -2.336,-2.99 -4.26,-3.883 -1.925,-0.893 -4.077,-1.339 -6.46,-1.339 -3.206,0 -5.852,0.824 -7.936,2.472 -2.085,1.65 -3.126,4.032 -3.126,7.147 0,3.299 1.224,5.875 3.675,7.731 2.452,1.854 5.739,2.783 9.861,2.783 1.741,0 3.309,-0.219 4.707,-0.654 1.397,-0.434 2.576,-0.928 3.539,-1.478 v 4.399 c 0,1.465 -0.608,2.6 -1.821,3.401 -1.215,0.802 -2.691,1.203 -4.432,1.203 -2.244,0 -4.214,-0.39 -5.91,-1.168 -1.695,-0.78 -2.931,-1.421 -3.709,-1.924 l -3.024,5.36 c 1.466,0.87 3.287,1.718 5.462,2.541 2.176,0.825 4.685,1.238 7.524,1.238 3.894,0 7.067,-0.848 9.518,-2.543 2.451,-1.694 3.675,-4.122 3.675,-7.283 V -19.24 Z m -33.669,15.804 c 0,-2.106 -0.437,-3.905 -1.306,-5.393 -0.87,-1.49 -2.027,-2.635 -3.469,-3.436 -1.443,-0.802 -3.036,-1.203 -4.777,-1.203 -1.42,0 -2.816,0.39 -4.191,1.168 -1.375,0.78 -2.508,1.913 -3.401,3.402 -0.895,1.488 -1.341,3.309 -1.341,5.462 0,2.153 0.446,3.974 1.341,5.464 0.893,1.488 2.026,2.622 3.401,3.4 1.375,0.779 2.771,1.169 4.191,1.169 1.741,0 3.334,-0.4 4.777,-1.203 1.442,-0.802 2.599,-1.947 3.469,-3.436 0.869,-1.488 1.306,-3.286 1.306,-5.394 m 7.695,0 c 0,3.483 -0.71,6.449 -2.13,8.9 -1.42,2.449 -3.297,4.328 -5.635,5.633 -2.336,1.306 -4.879,1.96 -7.626,1.96 -2.291,0 -4.364,-0.517 -6.219,-1.547 -1.856,-1.031 -3.379,-2.486 -4.57,-4.364 v 27.211 h -7.49 V -19.24 h 7.49 v 5.222 c 1.191,-1.878 2.714,-3.332 4.57,-4.362 1.855,-1.031 3.928,-1.546 6.219,-1.546 2.747,0 5.29,0.653 7.626,1.957 2.338,1.307 4.215,3.185 5.635,5.636 1.42,2.451 2.13,5.416 2.13,8.897 m -42.053,7.833 c -0.686,0.55 -1.328,0.975 -1.922,1.271 -0.597,0.299 -1.352,0.447 -2.268,0.447 -1.833,0 -3.161,-0.687 -3.986,-2.061 -0.825,-1.375 -1.236,-3.206 -1.236,-5.497 V -19.24 h -7.353 v 31.608 h 7.353 V 8.521 c 0.915,1.42 2.014,2.531 3.297,3.333 1.283,0.801 2.588,1.201 3.918,1.201 1.144,0 2.221,-0.182 3.229,-0.548 1.008,-0.367 1.878,-0.963 2.611,-1.788 z m -46.587,7.971 h -7.626 V -7.696 c 0,-3.986 0.961,-7.02 2.885,-9.105 1.925,-2.084 4.628,-3.125 8.108,-3.125 2.153,0 4.043,0.515 5.669,1.546 1.626,1.03 2.921,2.393 3.882,4.087 v -4.947 h 7.421 v 31.608 h -7.421 v -19.24 c 0,-2.106 -0.641,-3.814 -1.923,-5.118 -1.283,-1.307 -2.977,-1.958 -5.085,-1.958 -3.939,0 -5.91,2.358 -5.91,7.076 z m -36.897,-7.971 c -0.688,0.55 -1.33,0.975 -1.924,1.271 -0.595,0.299 -1.352,0.447 -2.268,0.447 -1.833,0 -3.161,-0.687 -3.986,-2.061 -0.825,-1.375 -1.236,-3.206 -1.236,-5.497 V -19.24 h -7.353 v 31.608 h 7.353 V 8.521 c 0.916,1.42 2.016,2.531 3.297,3.333 1.283,0.801 2.59,1.201 3.918,1.201 1.144,0 2.221,-0.182 3.229,-0.548 1.008,-0.367 1.878,-0.963 2.611,-1.788 z m -46.588,7.971 h -7.628 V -7.696 c 0,-3.986 0.962,-7.02 2.886,-9.105 1.925,-2.084 4.628,-3.125 8.108,-3.125 2.063,0 3.918,0.458 5.567,1.374 1.648,0.915 2.978,2.153 3.986,3.709 v -4.397 h 7.419 v 31.608 h -7.419 v -19.24 c 0,-2.106 -0.642,-3.814 -1.925,-5.118 -1.283,-1.307 -2.977,-1.958 -5.085,-1.958 -3.939,0 -5.909,2.358 -5.909,7.076 z m 9.208,10.376 c 0,1.283 0.447,2.359 1.34,3.229 0.893,0.871 1.981,1.306 3.264,1.306 1.328,0 2.451,-0.435 3.366,-1.306 0.916,-0.87 1.374,-1.946 1.374,-3.229 0,-1.283 -0.458,-2.359 -1.374,-3.229 -0.915,-0.87 -2.038,-1.307 -3.366,-1.307 -1.283,0 -2.371,0.437 -3.264,1.307 -0.893,0.87 -1.34,1.946 -1.34,3.229 m -13.606,-3.229 c 0.916,-0.87 2.016,-1.307 3.299,-1.307 1.328,0 2.439,0.437 3.332,1.307 0.893,0.87 1.34,1.946 1.34,3.229 0,1.283 -0.447,2.359 -1.34,3.229 -0.893,0.871 -2.004,1.306 -3.332,1.306 -1.283,0 -2.383,-0.435 -3.299,-1.306 -0.915,-0.87 -1.373,-1.946 -1.373,-3.229 0,-1.283 0.458,-2.359 1.373,-3.229 m -9.688,6.871 c -0.458,0.733 -0.973,1.213 -1.546,1.443 -0.572,0.228 -1.156,0.343 -1.751,0.343 -1.008,0 -1.81,-0.423 -2.406,-1.271 -0.595,-0.846 -0.893,-2.279 -0.893,-4.294 V 12.368 h 7.353 V 5.84 h -7.353 v -25.08 h -7.352 V 5.84 h -3.435 v 6.528 h 3.435 V 24.05 c 0,3.664 0.882,6.435 2.645,8.315 1.764,1.878 4.295,2.816 7.593,2.816 1.832,0 3.332,-0.332 4.5,-0.997 1.168,-0.663 2.051,-1.34 2.646,-2.026 z M -761.2,-19.24 h 7.49 v 53.597 h -7.49 z m -15.941,13.125 c -2.061,1.053 -4.444,1.579 -7.146,1.579 -2.381,0 -4.169,-0.479 -5.361,-1.442 -1.189,-0.962 -1.786,-2.268 -1.786,-3.916 0,-1.466 0.562,-2.566 1.685,-3.299 1.121,-0.733 2.507,-1.1 4.157,-1.1 2.428,0 4.442,0.562 6.047,1.685 1.603,1.121 2.404,3.081 2.404,5.875 z m 0,-13.125 v 4.536 c -0.916,-1.695 -2.336,-2.99 -4.26,-3.883 -1.925,-0.893 -4.078,-1.339 -6.459,-1.339 -3.207,0 -5.851,0.824 -7.936,2.472 -2.084,1.65 -3.127,4.032 -3.127,7.147 0,3.299 1.226,5.875 3.677,7.731 2.449,1.854 5.737,2.783 9.859,2.783 1.741,0 3.311,-0.219 4.707,-0.654 1.398,-0.434 2.578,-0.928 3.539,-1.478 v 4.399 c 0,1.465 -0.606,2.6 -1.821,3.401 -1.213,0.802 -2.691,1.203 -4.432,1.203 -2.245,0 -4.214,-0.39 -5.909,-1.168 -1.696,-0.78 -2.932,-1.421 -3.71,-1.924 l -3.024,5.36 c 1.466,0.87 3.287,1.718 5.463,2.541 2.176,0.825 4.684,1.238 7.523,1.238 3.894,0 7.067,-0.848 9.517,-2.543 2.452,-1.694 3.676,-4.122 3.676,-7.283 V -19.24 Z m -39.991,-2.886 16.354,34.494 h -8.108 l -8.246,-20.408 -8.246,20.408 h -8.176 z m -30.164,47.069 c 0,1.283 0.459,2.36 1.373,3.229 0.917,0.87 2.017,1.307 3.3,1.307 1.328,0 2.451,-0.437 3.367,-1.307 0.915,-0.869 1.373,-1.946 1.373,-3.229 0,-1.283 -0.458,-2.359 -1.373,-3.229 -0.916,-0.871 -2.039,-1.306 -3.367,-1.306 -1.283,0 -2.383,0.435 -3.3,1.306 -0.914,0.87 -1.373,1.946 -1.373,3.229 m 1.03,-44.183 h 7.285 v 31.608 h -7.285 z m -18.483,42.602 h 7.353 V 12.368 h 5.29 V 5.84 h -5.29 v -25.08 h -7.353 V 5.84 h -5.29 v 6.528 h 5.29 z M -897.8,-12.025 c 1.466,-2.336 3.424,-4.282 5.875,-5.84 2.451,-1.558 5.21,-2.336 8.279,-2.336 3.344,0 6.082,0.813 8.211,2.439 2.131,1.626 3.196,4.111 3.196,7.455 0,1.878 -0.411,3.412 -1.236,4.604 -0.825,1.191 -1.901,2.187 -3.229,2.989 -1.33,0.801 -2.75,1.501 -4.261,2.096 -1.191,0.503 -2.394,0.961 -3.607,1.374 -1.215,0.412 -2.211,0.894 -2.989,1.443 -0.78,0.55 -1.168,1.26 -1.168,2.13 0,0.961 0.378,1.661 1.133,2.096 0.756,0.435 1.776,0.653 3.057,0.653 1.283,0 2.623,-0.366 4.021,-1.1 1.396,-0.733 2.622,-1.673 3.675,-2.817 l 4.123,4.26 c -1.19,1.603 -2.875,2.943 -5.051,4.019 -2.176,1.077 -4.545,1.615 -7.111,1.615 -1.878,0 -3.642,-0.343 -5.29,-1.03 -1.65,-0.686 -2.978,-1.673 -3.986,-2.954 -1.008,-1.283 -1.511,-2.841 -1.511,-4.674 0,-1.969 0.446,-3.561 1.339,-4.775 0.893,-1.213 2.027,-2.188 3.401,-2.919 1.375,-0.734 2.794,-1.398 4.261,-1.993 1.833,-0.688 3.447,-1.422 4.843,-2.2 1.398,-0.778 2.096,-1.854 2.096,-3.229 0,-1.055 -0.378,-1.844 -1.133,-2.371 -0.756,-0.526 -1.797,-0.79 -3.127,-0.79 -1.375,0 -2.919,0.562 -4.637,1.683 -1.718,1.123 -3.333,2.578 -4.845,4.364 z m -14.292,17.453 c -1.283,1.328 -3.115,1.993 -5.496,1.993 -2.246,0 -4.169,-0.653 -5.772,-1.957 -1.604,-1.307 -2.566,-3.128 -2.886,-5.464 h 16.491 c -0.275,2.291 -1.054,4.1 -2.337,5.428 m 10.341,-9.482 c -0.022,-0.367 -0.057,-0.733 -0.103,-1.1 h -24.53 c 0.275,-2.886 1.215,-5.05 2.818,-6.493 1.603,-1.443 3.619,-2.164 6.046,-2.164 2.153,0 3.974,0.446 5.462,1.339 1.489,0.893 2.692,2.12 3.607,3.678 l 6.46,-2.613 c -1.558,-2.564 -3.607,-4.625 -6.15,-6.183 -2.543,-1.558 -5.783,-2.336 -9.722,-2.336 -3.252,0 -6.093,0.709 -8.521,2.129 -2.428,1.42 -4.305,3.379 -5.635,5.875 -1.328,2.496 -1.991,5.325 -1.991,8.486 0,0.597 0.021,1.168 0.068,1.718 0.045,0.55 0.113,1.1 0.205,1.65 0.642,3.894 2.371,7.054 5.189,9.482 2.817,2.428 6.493,3.643 11.028,3.643 4.902,0 8.761,-1.445 11.578,-4.331 2.816,-2.886 4.226,-6.825 4.226,-11.819 0,-0.275 -0.012,-0.594 -0.035,-0.961 m -37.138,6.528 v 7.077 h -17.867 v 12.025 h 18.554 v 7.283 h -18.554 -2.954 -5.015 V -19.24 h 7.969 V 2.474 Z m -67.27,-18.21 c 0,1.33 0.458,2.463 1.374,3.403 0.917,0.938 2.061,1.408 3.436,1.408 1.375,0 2.531,-0.47 3.471,-1.408 0.938,-0.94 1.408,-2.073 1.408,-3.403 0,-1.281 -0.47,-2.404 -1.408,-3.366 -0.94,-0.963 -2.096,-1.443 -3.471,-1.443 -1.375,0 -2.519,0.48 -3.436,1.443 -0.916,0.962 -1.374,2.085 -1.374,3.366 m -18.759,28.104 h -5.29 V 5.84 h 5.29 v -25.08 h 7.353 V 5.84 h 5.291 v 6.528 h -5.291 v 10.994 h -7.353 z M -1042.92,0 c 0,2.291 -0.469,4.042 -1.408,5.257 -0.94,1.213 -2.417,1.821 -4.432,1.821 -2.108,0 -3.803,-0.653 -5.085,-1.959 -1.283,-1.305 -1.924,-3.011 -1.924,-5.119 v -19.24 h -7.49 v 31.608 h 7.49 V 7.49 c 0.916,1.741 2.187,3.104 3.813,4.088 1.627,0.985 3.516,1.477 5.669,1.477 3.527,0 6.242,-1.042 8.143,-3.126 1.901,-2.084 2.851,-5.119 2.851,-9.104 V -19.24 h -7.627 z m -38.616,-19.24 h 8.246 v 48.099 h -8.246 z M 65.728,108.406 c 0,15.601 -3.001,24.002 -19.802,24.002 -12.602,0 -20.401,-3.601 -20.401,-23.402 0,-16.801 3.001,-24.6 20.401,-24.6 10.201,0 19.802,1.799 19.802,24 m -3.373,63.268 c -4.094,-10.156 -9.427,-17.577 -16.457,-16.019 -6.443,1.429 -7.881,11.58 -7.56,21.344 2.839,46.079 1.475,42.694 7.448,69.642 l 5.066,22.845 c 2.727,12.302 10.6,17.317 24.073,14.331 12.302,-2.728 18.294,-8.972 14.136,-27.719 C 78.802,209.82 78.669,214.766 62.355,171.674 m -126.419,39.071 c -11.687,0 -26.878,-8.181 -26.878,-18.698 0,-8.765 8.179,-13.438 23.955,-13.438 19.281,0 29.216,4.09 29.216,12.27 0,9.349 -12.271,19.866 -26.293,19.866 m 52.001,-55.508 H -25.501 -72.83 c -13.439,0 -20.45,-5.259 -20.45,-15.193 0,-12.853 15.191,-26.876 30.384,-26.876 25.125,0 29.213,20.449 44.406,20.449 9.349,0 19.866,-8.179 19.866,-15.19 0,-9.349 -21.036,-35.642 -64.857,-35.642 -42.654,0 -74.789,26.293 -74.789,75.957 0,59.598 36.226,82.385 74.206,82.385 63.688,0 71.867,-57.26 71.867,-68.947 0,-13.438 -5.844,-16.943 -19.866,-16.943 m -133.73,64.856 c 0,-18.112 -4.089,-23.373 -12.853,-32.137 l -35.642,-35.642 c -12.272,-12.27 -18.114,-19.865 -18.114,-23.37 0,-8.181 5.259,-12.27 16.361,-12.27 h 32.135 c 11.687,0 17.53,-7.012 17.53,-16.361 0,-10.517 -7.011,-15.192 -21.036,-15.192 h -95.824 c -10.517,0 -18.112,5.258 -18.112,16.36 v 8.181 c 0,7.595 4.089,15.191 12.853,23.955 l 47.912,48.497 c 4.091,4.089 6.429,7.012 6.429,12.854 0,7.013 -7.597,9.934 -18.699,9.934 h -21.619 c -8.179,0 -18.112,4.09 -18.112,15.775 0,9.349 5.842,15.776 16.944,15.776 h 91.734 c 10.519,0 18.113,-5.258 18.113,-16.36 m -174.41,20.451 h -10.517 c -10.517,0 -17.529,-8.181 -17.529,-21.035 V 110.245 c 0,-16.943 3.506,-25.708 23.371,-25.708 15.776,0 23.372,7.012 23.372,21.035 v 109.262 c 0,16.945 -6.427,25.71 -18.697,25.71 m 0.05,17.65 c -16.204,-4.954 -24.013,0.602 -26.918,10.101 -4.27,13.969 4.592,20.956 16.326,24.543 16.204,4.954 24.572,-0.431 27.476,-9.931 4.27,-13.969 -4.592,-20.954 -16.884,-24.713 m -94.413,-19.111 c -21.034,0 -25.125,-7.597 -39.148,-7.597 -7.596,0 -16.944,4.091 -28.631,4.091 -14.022,0 -20.449,-5.844 -20.449,-16.944 v -115.69 c 0,-12.271 6.427,-18.114 16.359,-18.114 h 6.428 c 9.933,0 18.114,5.259 18.114,16.361 v 61.35 c 0,28.045 8.179,42.07 25.708,42.07 16.36,0 25.125,-13.44 25.125,-40.318 V 101.19 c 0,-11.102 7.011,-16.361 16.36,-16.361 h 6.427 c 9.934,0 18.114,5.259 18.114,16.361 v 91.148 c 0,33.89 -17.529,46.745 -44.407,46.745 m -151.33,-98.163 c 0,-15.19 -15.192,-29.213 -30.385,-29.213 -12.853,0 -21.033,8.764 -21.033,18.696 0,16.361 24.541,24.542 36.811,24.542 10.517,0 14.607,-6.428 14.607,-14.025 m 41.484,-40.315 v 87.644 c 0,42.069 -24.54,51.418 -65.441,51.418 -46.744,0 -59.014,-22.204 -59.014,-32.721 0,-9.932 8.765,-11.685 16.946,-11.685 24.54,0 22.787,19.281 44.989,19.281 11.102,0 20.452,-7.596 20.452,-19.281 0,-6.427 -5.844,-14.023 -25.125,-16.361 -47.328,-6.426 -68.364,-26.293 -68.364,-52.585 0,-25.71 17.531,-44.407 50.25,-44.407 19.866,0 29.216,9.348 42.654,9.348 7.596,0 13.438,-5.259 25.71,-5.259 9.932,0 16.943,2.923 16.943,14.608 m -221.739,108.094 c -18.113,0 -35.057,-14.606 -35.057,-48.496 0,-33.888 14.023,-50.834 33.889,-50.834 18.697,0 35.057,15.193 35.057,46.744 0,29.799 -10.517,52.586 -33.889,52.586 m 8.765,-127.376 c -21.62,0 -22.788,7.597 -36.811,7.597 -14.023,0 -12.855,-4.091 -26.293,-4.091 -15.192,0 -19.866,4.674 -19.866,23.372 v 158.344 c 0,10.517 4.674,18.112 14.608,18.112 h 9.347 c 8.181,0 14.608,-5.842 14.608,-18.112 v -19.283 c 0,-8.179 4.091,-17.529 12.27,-17.529 9.349,0 17.529,6.429 33.889,6.429 36.227,0 62.52,-25.71 62.52,-73.038 0,-54.923 -28.045,-81.801 -64.272,-81.801 M -850.74,237.621 c 9.933,0 14.607,-5.842 14.607,-16.944 0,-14.023 -3.506,-19.866 -19.282,-24.54 -15.191,-4.675 -22.787,-15.192 -22.787,-28.63 v -60.182 c 0,-14.608 -5.844,-22.204 -18.114,-22.204 h -11.685 c -11.102,0 -16.943,8.181 -16.943,23.372 v 109.263 c 0,14.607 4.673,22.788 22.202,22.788 18.113,0 25.125,-6.428 32.136,-6.428 8.764,0 11.102,3.505 19.866,3.505 M -1037.714,81.032 c 23.372,0 22.204,7.594 39.732,7.594 11.686,0 11.686,-3.505 28.046,-3.505 12.27,0 21.035,5.258 21.035,16.36 v 115.691 c 0,12.27 -5.259,18.113 -16.361,18.113 h -6.426 c -12.271,0 -18.114,-5.259 -18.114,-16.361 v -61.35 c 0,-28.047 -9.349,-42.07 -27.461,-42.07 -17.53,0 -23.372,12.27 -23.372,37.395 v 66.025 c 0,11.102 -7.596,16.361 -16.361,16.361 h -9.349 c -8.18,0 -15.191,-5.843 -15.191,-16.361 v -94.656 c 0,-26.877 15.191,-43.236 43.822,-43.236 M -73.799,-3.297 c 0,-2.155 -0.458,-3.963 -1.373,-5.429 -0.916,-1.466 -2.062,-2.566 -3.435,-3.299 -1.375,-0.733 -2.773,-1.1 -4.193,-1.1 -2.565,0 -4.787,0.848 -6.664,2.543 -1.878,1.696 -2.818,4.124 -2.818,7.285 0,3.16 0.94,5.6 2.818,7.318 1.877,1.717 4.099,2.576 6.664,2.576 1.42,0 2.818,-0.379 4.193,-1.133 1.373,-0.757 2.519,-1.868 3.435,-3.333 0.915,-1.466 1.373,-3.276 1.373,-5.428 m 7.285,-15.255 v 30.92 h -7.285 V 7.215 c -2.472,3.894 -6.068,5.842 -10.787,5.842 -2.749,0 -5.292,-0.642 -7.628,-1.925 -2.336,-1.283 -4.213,-3.137 -5.633,-5.565 -1.421,-2.429 -2.131,-5.384 -2.131,-8.864 0,-3.483 0.71,-6.437 2.131,-8.865 1.42,-2.427 3.297,-4.272 5.633,-5.532 2.336,-1.259 4.879,-1.889 7.628,-1.889 4.719,0 8.315,1.924 10.787,5.772 v -4.741 c 0,-2.382 -0.446,-4.329 -1.339,-5.842 -0.893,-1.511 -2.05,-2.634 -3.469,-3.365 -1.422,-0.733 -2.909,-1.1 -4.467,-1.1 -2.658,0 -4.787,0.721 -6.39,2.164 -1.603,1.443 -2.451,3.218 -2.543,5.326 h -7.353 c 0.138,-4.124 1.638,-7.478 4.502,-10.068 2.863,-2.587 6.86,-3.882 11.99,-3.882 2.886,0 5.565,0.608 8.04,1.821 2.472,1.215 4.477,3.058 6.011,5.532 1.535,2.473 2.303,5.612 2.303,9.414"
             style="fill:#ffffff;fill-opacity:1;fill-rule:nonzero;stroke:none"
             id="path510"
             inkscape:connector-curvature="0" />
        </g>
      </g>
    </g>
  </g>
</svg>
