<svg width="937.77" height="288.25" version="1.1" viewBox="0 0 937.77 288.25" xml:space="preserve" xmlns="http://www.w3.org/2000/svg"><g transform="matrix(1.3333 0 0 -1.3333 0 288.25)"><g transform="scale(.1)" fill="#ea0029"><g transform="matrix(9.3377 0 0 9.3377 6485.5 279.02)"><path d="m0 0c0 1.464-0.3 2.583-0.901 3.36-0.599 0.775-1.544 1.163-2.832 1.163-1.346 0-2.429-0.417-3.249-1.252-0.82-0.833-1.23-1.924-1.23-3.271v-12.296h-4.787v20.2h4.787v-3.117c0.585 1.112 1.398 1.983 2.437 2.613 1.04 0.629 2.247 0.943 3.623 0.943 2.254 0 3.989-0.665 5.204-1.997 1.215-1.333 1.822-3.272 1.822-5.819v-12.823h-4.874zm-22.659 0h-10.54c0.205 1.493 0.82 2.657 1.844 3.492 1.026 0.834 2.254 1.251 3.689 1.251 1.523 0 2.694-0.425 3.514-1.274 0.819-0.848 1.317-2.005 1.493-3.469m5.138-1.976c0 3.191-0.901 5.708-2.702 7.553-1.799 1.844-4.267 2.767-7.398 2.767-2.899 0-5.248-0.776-7.049-2.328-1.801-1.551-2.906-3.571-3.316-6.06-0.058-0.351-0.102-0.702-0.132-1.054-0.029-0.351-0.043-0.717-0.043-1.098 0-2.02 0.424-3.828 1.273-5.423s2.05-2.848 3.602-3.755c1.551-0.907 3.366-1.361 5.444-1.361 2.519 0 4.59 0.498 6.215 1.493 1.625 0.996 2.934 2.313 3.93 3.952l-4.128 1.67c-0.586-0.996-1.354-1.78-2.306-2.351-0.951-0.57-2.115-0.856-3.49-0.856-1.552 0-2.84 0.461-3.865 1.384-1.025 0.922-1.625 2.305-1.8 4.149h15.676c0.03 0.235 0.052 0.469 0.066 0.703 0.015 0.234 0.023 0.439 0.023 0.615m-55.771 1.976c0 1.464-0.301 2.583-0.9 3.36-0.601 0.775-1.544 1.163-2.833 1.163-1.347 0-2.43-0.417-3.25-1.252-0.82-0.833-1.228-1.924-1.228-3.271v-12.296h-4.788v20.2h4.788v-3.117c0.584 1.112 1.397 1.983 2.436 2.613 1.039 0.629 2.247 0.943 3.624 0.943 2.253 0 3.988-0.665 5.203-1.997 1.215-1.333 1.823-3.272 1.823-5.819v-12.823h-4.875zm-32.057 7.904h-4.875v-12.823c0-2.547 0.616-4.486 1.844-5.818 1.23-1.332 2.958-1.998 5.182-1.998 1.377 0 2.585 0.329 3.624 0.988s1.866 1.53 2.481 2.613v-3.162h4.743v20.2h-4.743v-12.296c0-1.345-0.41-2.437-1.23-3.271-0.82-0.835-1.903-1.251-3.25-1.251-2.517 0-3.776 1.507-3.776 4.522zm-16.38-6.608c-0.585 0.951-1.318 1.676-2.195 2.173-0.879 0.498-1.772 0.747-2.68 0.747-1.638 0-3.059-0.564-4.259-1.691s-1.801-2.701-1.801-4.721 0.601-3.594 1.801-4.72c1.2-1.127 2.621-1.691 4.259-1.691 0.908 0 1.801 0.249 2.68 0.746 0.877 0.499 1.61 1.223 2.195 2.175 0.586 0.951 0.878 2.114 0.878 3.49s-0.292 2.54-0.878 3.492m0.878-13.592v3.337c-0.761-1.2-1.735-2.129-2.92-2.788s-2.51-0.988-3.974-0.988c-1.757 0-3.382 0.418-4.875 1.251-1.493 0.835-2.693 2.036-3.6 3.602-0.909 1.566-1.362 3.462-1.362 5.686 0 2.226 0.453 4.121 1.362 5.688 0.907 1.565 2.107 2.766 3.6 3.6 1.493 0.835 3.118 1.252 4.875 1.252 1.464 0 2.789-0.33 3.974-0.988 1.185-0.659 2.159-1.589 2.92-2.789v17.39h4.786v-34.253zm-26.129 0h4.875v12.823c0 2.547-0.608 4.486-1.823 5.819-1.214 1.332-2.948 1.997-5.203 1.997-1.377 0-2.584-0.314-3.623-0.943-1.04-0.63-1.852-1.501-2.437-2.613v3.117h-4.786v-20.2h4.786v12.296c0 1.347 0.41 2.438 1.229 3.271 0.82 0.835 1.903 1.252 3.25 1.252 1.288 0 2.232-0.388 2.832-1.163 0.601-0.777 0.9-1.896 0.9-3.36zm-32.056 7.904c0-3.015 1.258-4.522 3.776-4.522 1.347 0 2.43 0.416 3.25 1.251 0.82 0.834 1.23 1.926 1.23 3.271v12.296h4.742v-20.2h-4.742v3.162c-0.616-1.083-1.442-1.954-2.482-2.613-1.039-0.659-2.246-0.988-3.622-0.988-2.226 0-3.953 0.666-5.183 1.998-1.229 1.332-1.844 3.271-1.844 5.818v12.823h4.875zm-21.694 5.182v21.167h-4.655v-34.253h4.655v10.276l8.343-10.276h5.754l-9.574 11.857 8.695 8.343h-5.797zm-10.013 2.02c-0.438 0.352-0.848 0.623-1.228 0.813-0.382 0.19-0.864 0.285-1.45 0.285-1.171 0-2.02-0.439-2.547-1.317-0.527-0.879-0.79-2.049-0.79-3.513v-11.374h-4.699v20.2h4.699v-2.458c0.586 0.907 1.287 1.617 2.107 2.129 0.82 0.513 1.655 0.768 2.504 0.768 0.731 0 1.419-0.116 2.064-0.35 0.644-0.234 1.2-0.616 1.668-1.143zm-17.564-0.877v4.479h-12.735v7.465h13.613v4.566h-18.707v-30.739h18.707v4.567h-13.613v9.662zm-42.552 1.536c-0.82 0.849-1.992 1.274-3.513 1.274-1.435 0-2.665-0.417-3.689-1.251-1.025-0.835-1.64-1.999-1.844-3.492h10.539c-0.176 1.464-0.673 2.621-1.493 3.469m6.608-6.06c-0.014-0.234-0.036-0.468-0.065-0.703h-15.678c0.176-1.844 0.777-3.227 1.801-4.149 1.024-0.923 2.313-1.384 3.864-1.384 1.376 0 2.54 0.286 3.492 0.856 0.951 0.571 1.72 1.355 2.305 2.351l4.128-1.67c-0.996-1.639-2.306-2.956-3.931-3.952-1.625-0.995-3.696-1.493-6.213-1.493-2.079 0-3.894 0.454-5.446 1.361-1.551 0.907-2.751 2.16-3.6 3.755-0.85 1.596-1.274 3.403-1.274 5.423 0 0.381 0.015 0.747 0.044 1.098 0.029 0.352 0.073 0.703 0.132 1.054 0.41 2.489 1.514 4.509 3.315 6.06 1.801 1.552 4.15 2.328 7.048 2.328 3.133 0 5.599-0.922 7.4-2.767s2.701-4.362 2.701-7.553c0-0.176-8e-3 -0.381-0.023-0.615m-30.014-9.705h4.874v12.823c0 2.547-0.607 4.486-1.822 5.819-1.215 1.332-2.95 1.997-5.204 1.997-1.376 0-2.583-0.314-3.623-0.943-1.039-0.63-1.852-1.501-2.437-2.613v3.117h-4.787v-20.2h4.787v12.296c0 1.347 0.41 2.438 1.23 3.271 0.819 0.835 1.903 1.252 3.249 1.252 1.288 0 2.233-0.388 2.832-1.163 0.601-0.777 0.901-1.896 0.901-3.36zm-23.186 8.388c-1.318 0.673-2.84 1.009-4.568 1.009-1.522 0-2.664-0.306-3.425-0.922-0.762-0.614-1.142-1.449-1.142-2.502 0-0.937 0.359-1.64 1.076-2.109 0.718-0.468 1.603-0.702 2.657-0.702 1.551 0 2.84 0.358 3.864 1.076 1.025 0.717 1.538 1.969 1.538 3.755zm0-8.388v2.899c-0.586-1.083-1.493-1.911-2.723-2.482-1.23-0.57-2.606-0.856-4.129-0.856-2.048 0-3.739 0.527-5.072 1.581-1.332 1.054-1.997 2.576-1.997 4.567 0 2.108 0.782 3.754 2.349 4.941 1.566 1.185 3.667 1.778 6.302 1.778 1.112 0 2.114-0.139 3.008-0.417 0.892-0.278 1.646-0.594 2.262-0.945v2.811c0 0.936-0.389 1.661-1.164 2.174-0.777 0.512-1.72 0.768-2.833 0.768-1.434 0-2.693-0.249-3.777-0.746-1.083-0.498-1.873-0.908-2.37-1.23l-1.933 3.426c0.937 0.556 2.101 1.098 3.491 1.624 1.39 0.527 2.994 0.791 4.809 0.791 2.488 0 4.516-0.542 6.082-1.625s2.349-2.635 2.349-4.655v-14.404zm-21.518 10.1c0-1.346-0.279-2.496-0.835-3.447-0.556-0.952-1.295-1.683-2.217-2.195-0.922-0.513-1.94-0.769-3.053-0.769-0.907 0-1.799 0.249-2.678 0.746-0.878 0.499-1.603 1.223-2.173 2.175-0.572 0.951-0.858 2.114-0.858 3.49s0.286 2.54 0.858 3.492c0.57 0.951 1.295 1.676 2.173 2.173 0.879 0.498 1.771 0.747 2.678 0.747 1.113 0 2.131-0.256 3.053-0.769 0.922-0.512 1.661-1.244 2.217-2.196 0.556-0.951 0.835-2.1 0.835-3.447m4.918 0c0 2.226-0.454 4.121-1.361 5.688-0.908 1.565-2.108 2.766-3.602 3.6-1.493 0.835-3.118 1.252-4.874 1.252-1.464 0-2.788-0.33-3.974-0.988-1.186-0.659-2.159-1.589-2.921-2.789v17.39h-4.786v-34.253h4.786v3.337c0.762-1.2 1.735-2.129 2.921-2.788s2.51-0.988 3.974-0.988c1.756 0 3.381 0.418 4.874 1.251 1.494 0.835 2.694 2.036 3.602 3.602 0.907 1.566 1.361 3.462 1.361 5.686m-26.875 5.006c-0.439 0.352-0.849 0.623-1.229 0.813-0.382 0.19-0.864 0.285-1.45 0.285-1.171 0-2.02-0.439-2.547-1.317-0.527-0.879-0.79-2.049-0.79-3.513v-11.374h-4.699v20.2h4.699v-2.458c0.585 0.907 1.288 1.617 2.107 2.129 0.82 0.513 1.654 0.768 2.504 0.768 0.732 0 1.419-0.116 2.064-0.35 0.644-0.234 1.2-0.616 1.668-1.143zm-29.774 5.094h-4.874v-12.823c0-2.547 0.615-4.486 1.844-5.818 1.23-1.332 2.958-1.998 5.182-1.998 1.376 0 2.583 0.329 3.623 0.988 1.039 0.659 1.866 1.53 2.481 2.613v-3.162h4.743v20.2h-4.743v-12.296c0-1.345-0.41-2.437-1.229-3.271-0.82-0.835-1.903-1.251-3.25-1.251-2.517 0-3.777 1.507-3.777 4.522zm-23.58-5.094c-0.44 0.352-0.85 0.623-1.23 0.813s-0.864 0.285-1.45 0.285c-1.171 0-2.02-0.439-2.547-1.317-0.527-0.879-0.79-2.049-0.79-3.513v-11.374h-4.699v20.2h4.699v-2.458c0.586 0.907 1.289 1.617 2.108 2.129 0.82 0.513 1.654 0.768 2.503 0.768 0.732 0 1.42-0.116 2.064-0.35s1.2-0.616 1.668-1.143zm-29.774 5.094h-4.875v-12.823c0-2.547 0.615-4.486 1.845-5.818 1.229-1.332 2.957-1.998 5.181-1.998 1.318 0 2.504 0.293 3.558 0.879 1.053 0.584 1.903 1.376 2.547 2.37v-2.81h4.742v20.2h-4.742v-12.296c0-1.345-0.41-2.437-1.23-3.271-0.82-0.835-1.903-1.251-3.25-1.251-2.517 0-3.776 1.507-3.776 4.522zm5.885 6.631c0 0.82 0.285 1.508 0.856 2.064 0.571 0.557 1.266 0.835 2.086 0.835 0.849 0 1.566-0.278 2.151-0.835 0.585-0.556 0.878-1.244 0.878-2.064s-0.293-1.507-0.878-2.063-1.302-0.835-2.151-0.835c-0.82 0-1.515 0.279-2.086 0.835s-0.856 1.243-0.856 2.063m-8.696-2.063c0.586-0.556 1.288-0.835 2.108-0.835 0.849 0 1.559 0.279 2.13 0.835s0.856 1.243 0.856 2.063-0.285 1.508-0.856 2.064c-0.571 0.557-1.281 0.835-2.13 0.835-0.82 0-1.522-0.278-2.108-0.835-0.585-0.556-0.878-1.244-0.878-2.064s0.293-1.507 0.878-2.063m-6.191 4.391c-0.293 0.469-0.622 0.775-0.988 0.922-0.366 0.146-0.739 0.22-1.12 0.22-0.644 0-1.156-0.271-1.537-0.813-0.38-0.541-0.571-1.457-0.571-2.744v-6.544h4.699v-4.172h-4.699v-16.028h-4.698v16.028h-2.196v4.172h2.196v7.466c0 2.342 0.563 4.113 1.69 5.314 1.127 1.2 2.745 1.8 4.852 1.8 1.172 0 2.13-0.212 2.877-0.637 0.746-0.424 1.31-0.856 1.691-1.295zm-33.418-29.159h4.787v34.253h-4.787zm-10.187 8.388c-1.317 0.673-2.84 1.009-4.567 1.009-1.522 0-2.665-0.306-3.426-0.922-0.76-0.614-1.142-1.449-1.142-2.502 0-0.937 0.359-1.64 1.077-2.109 0.717-0.468 1.603-0.702 2.657-0.702 1.551 0 2.839 0.358 3.864 1.076 1.025 0.717 1.537 1.969 1.537 3.755zm0-8.388v2.899c-0.586-1.083-1.493-1.911-2.723-2.482-1.23-0.57-2.606-0.856-4.127-0.856-2.05 0-3.74 0.527-5.072 1.581-1.333 1.054-1.999 2.576-1.999 4.567 0 2.108 0.784 3.754 2.35 4.941 1.565 1.185 3.666 1.778 6.301 1.778 1.113 0 2.116-0.139 3.008-0.417 0.893-0.278 1.647-0.594 2.262-0.945v2.811c0 0.936-0.388 1.661-1.164 2.174-0.775 0.512-1.72 0.768-2.833 0.768-1.434 0-2.693-0.249-3.776-0.746-1.084-0.498-1.874-0.908-2.371-1.23l-1.933 3.426c0.937 0.556 2.101 1.098 3.492 1.624 1.391 0.527 2.993 0.791 4.808 0.791 2.488 0 4.516-0.542 6.082-1.625 1.567-1.083 2.349-2.635 2.349-4.655v-14.404zm-25.558-1.844 10.452 22.044h-5.182l-5.27-13.042-5.27 13.042h-5.225zm-19.277 30.081c0 0.82 0.293 1.508 0.877 2.064 0.586 0.556 1.289 0.835 2.109 0.835 0.848 0 1.566-0.279 2.152-0.835 0.584-0.556 0.877-1.244 0.877-2.064s-0.293-1.508-0.877-2.064c-0.586-0.557-1.304-0.835-2.152-0.835-0.82 0-1.523 0.278-2.109 0.835-0.584 0.556-0.877 1.244-0.877 2.064m0.658-28.237h4.656v20.2h-4.656zm-11.813 27.226h4.7v-7.026h3.381v-4.172h-3.381v-16.028h-4.7v16.028h-3.381v4.172h3.381zm-21.122-22.615c0.937-1.493 2.188-2.737 3.755-3.732 1.566-0.996 3.329-1.493 5.291-1.493 2.137 0 3.887 0.519 5.247 1.559 1.362 1.039 2.043 2.627 2.043 4.764 0 1.2-0.263 2.181-0.79 2.942s-1.215 1.398-2.064 1.91c-0.85 0.513-1.757 0.96-2.723 1.34-0.761 0.322-1.53 0.614-2.305 0.878-0.777 0.263-1.413 0.571-1.911 0.923-0.498 0.351-0.746 0.805-0.746 1.36 0 0.615 0.242 1.062 0.724 1.34 0.483 0.278 1.135 0.417 1.954 0.417 0.82 0 1.676-0.234 2.57-0.702 0.892-0.469 1.676-1.069 2.349-1.801l2.634 2.723c-0.76 1.024-1.837 1.88-3.228 2.568-1.39 0.688-2.904 1.032-4.544 1.032-1.2 0-2.328-0.219-3.381-0.658-1.055-0.439-1.903-1.069-2.547-1.888-0.645-0.82-0.966-1.815-0.966-2.987 0-1.259 0.285-2.275 0.856-3.052 0.571-0.775 1.295-1.398 2.173-1.865 0.879-0.469 1.786-0.894 2.723-1.274 1.171-0.44 2.203-0.908 3.096-1.406 0.893-0.497 1.339-1.185 1.339-2.063 0-0.674-0.241-1.179-0.724-1.516-0.483-0.336-1.149-0.504-1.999-0.504-0.878 0-1.865 0.359-2.963 1.075-1.098 0.718-2.13 1.648-3.097 2.789zm-9.133 11.154c-0.82 0.849-1.991 1.274-3.513 1.274-1.436 0-2.664-0.417-3.689-1.251-1.025-0.835-1.64-1.999-1.844-3.492h10.538c-0.175 1.464-0.673 2.621-1.492 3.469m6.608-6.06c-0.014-0.234-0.036-0.468-0.066-0.703h-15.677c0.176-1.844 0.777-3.227 1.801-4.149 1.024-0.923 2.313-1.384 3.865-1.384 1.375 0 2.539 0.286 3.49 0.856 0.952 0.571 1.721 1.355 2.305 2.351l4.129-1.67c-0.996-1.639-2.306-2.956-3.931-3.952-1.625-0.995-3.696-1.493-6.213-1.493-2.078 0-3.894 0.454-5.446 1.361-1.551 0.907-2.751 2.16-3.601 3.755-0.849 1.595-1.272 3.403-1.272 5.423 0 0.381 0.013 0.747 0.043 1.098 0.029 0.352 0.073 0.703 0.131 1.054 0.41 2.489 1.515 4.509 3.316 6.06 1.801 1.552 4.15 2.328 7.049 2.328 3.132 0 5.598-0.923 7.399-2.767 1.799-1.845 2.7-4.362 2.7-7.553 0-0.176-7e-3 -0.381-0.022-0.615m-23.734 4.172v4.523h-11.419v7.685h11.857v4.654h-16.95v-30.739h5.093v13.877zm-42.992-11.638c0 0.85 0.293 1.574 0.878 2.175 0.586 0.599 1.318 0.9 2.196 0.9 0.879 0 1.618-0.301 2.218-0.9 0.6-0.601 0.9-1.325 0.9-2.175 0-0.818-0.3-1.536-0.9-2.151s-1.339-0.922-2.218-0.922c-0.878 0-1.61 0.307-2.196 0.922-0.585 0.615-0.878 1.333-0.878 2.151m-11.988 17.961h-3.381v-4.172h3.381v-16.028h4.699v16.028h3.381v4.172h-3.381v7.026h-4.699zm-11.505-7.904c0 1.464-0.3 2.583-0.9 3.36-0.601 0.775-1.545 1.163-2.833 1.163-1.347 0-2.43-0.417-3.25-1.252-0.819-0.833-1.229-1.924-1.229-3.271v-12.296h-4.787v20.2h4.787v-3.117c0.585 1.112 1.398 1.983 2.437 2.613 1.039 0.629 2.247 0.943 3.623 0.943 2.254 0 3.989-0.665 5.204-1.997 1.215-1.333 1.822-3.272 1.822-5.819v-12.823h-4.874zm-24.68-12.296h5.27v30.739h-5.27zm733.2 81.577c0 9.97-1.918 15.339-12.655 15.339-8.054 0-13.038-2.301-13.038-14.956 0-10.737 1.917-15.721 13.038-15.721 6.519 0 12.655 1.15 12.655 15.338m-2.156 40.434c-2.616-6.491-6.025-11.234-10.517-10.238-4.118 0.914-5.037 7.401-4.832 13.641 1.815 29.449 0.943 27.285 4.76 44.507l3.238 14.6c1.743 7.862 6.774 11.067 15.385 9.159 7.862-1.743 11.691-5.734 9.034-17.715-6.556-29.575-6.642-26.415-17.068-53.954m-80.793 24.97c-7.469 0-17.177-5.229-17.177-11.95 0-5.601 5.227-8.588 15.309-8.588 12.323 0 18.672 2.614 18.672 7.841 0 5.975-7.842 12.697-16.804 12.697m33.233-35.475h-38.835c-8.588 0-13.069-3.361-13.069-9.71 0-8.214 9.708-17.176 19.418-17.176 16.057 0 18.67 13.069 28.379 13.069 5.975 0 12.697-5.227 12.697-9.708 0-5.975-13.444-22.778-41.45-22.778-27.26 0-47.796 16.803-47.796 48.543 0 38.088 23.151 52.651 47.423 52.651 40.702 0 45.93-36.594 45.93-44.063 0-8.588-3.735-10.828-12.697-10.828m-85.464 41.448c0-11.575-2.614-14.936-8.215-20.538l-22.778-22.778c-7.843-7.842-11.576-12.695-11.576-14.936 0-5.228 3.36-7.841 10.456-7.841h20.537c7.469 0 11.203-4.481 11.203-10.456 0-6.721-4.481-9.709-13.444-9.709h-61.24c-6.722 0-11.575 3.36-11.575 10.455v5.229c0 4.854 2.613 9.708 8.214 15.309l30.62 30.994c2.614 2.613 4.108 4.481 4.108 8.214 0 4.482-4.854 6.349-11.949 6.349h-13.817c-5.227 0-11.575 2.614-11.575 10.082 0 5.975 3.733 10.082 10.829 10.082h58.626c6.722 0 11.576-3.36 11.576-10.456m-111.46 13.071h-6.721c-6.722 0-11.202-5.229-11.202-13.443v-69.829c0-10.829 2.24-16.43 14.935-16.43 10.082 0 14.937 4.481 14.937 13.443v69.828c0 10.829-4.107 16.431-11.949 16.431m0.032 11.28c-10.356-3.166-15.347 0.384-17.203 6.455-2.729 8.928 2.935 13.393 10.434 15.685 10.356 3.166 15.703-0.276 17.559-6.346 2.73-8.928-2.934-13.392-10.79-15.794m-60.338-12.214c-13.443 0-16.057-4.855-25.019-4.855-4.855 0-10.829 2.614-18.298 2.614-8.961 0-13.069-3.734-13.069-10.828v-73.937c0-7.841 4.108-11.576 10.455-11.576h4.109c6.347 0 11.576 3.361 11.576 10.456v39.208c0 17.924 5.227 26.887 16.429 26.887 10.456 0 16.057-8.589 16.057-25.767v-40.328c0-7.095 4.481-10.456 10.456-10.456h4.107c6.349 0 11.577 3.361 11.577 10.456v58.252c0 21.658-11.203 29.874-28.38 29.874m-96.713-62.735c0-9.708-9.709-18.67-19.419-18.67-8.214 0-13.442 5.602-13.442 11.949 0 10.456 15.684 15.684 23.525 15.684 6.722 0 9.336-4.108 9.336-8.963m26.512-25.765v56.013c0 26.886-15.683 32.861-41.823 32.861-29.873 0-37.715-14.191-37.715-20.912 0-6.348 5.601-7.468 10.83-7.468 15.683 0 14.563 12.322 28.752 12.322 7.095 0 13.07-4.854 13.07-12.322 0-4.107-3.734-8.962-16.057-10.456-30.246-4.107-43.69-16.804-43.69-33.607 0-16.431 11.203-28.38 32.114-28.38 12.696 0 18.671 5.974 27.26 5.974 4.854 0 8.588-3.36 16.43-3.36 6.348 0 10.829 1.867 10.829 9.335m-141.71 69.082c-11.576 0-22.405-9.335-22.405-30.993s8.962-32.488 21.659-32.488c11.948 0 22.404 9.71 22.404 29.874 0 19.044-6.721 33.607-21.658 33.607m5.601-81.404c-13.816 0-14.563 4.854-23.525 4.854s-8.215-2.614-16.803-2.614c-9.71 0-12.696 2.987-12.696 14.937v101.2c0 6.721 2.986 11.575 9.335 11.575h5.974c5.228 0 9.336-3.734 9.336-11.575v-12.324c0-5.227 2.614-11.202 7.841-11.202 5.975 0 11.203 4.108 21.659 4.108 23.152 0 39.955-16.431 39.955-46.677 0-35.101-17.923-52.278-41.076-52.278m-72.442 99.888c6.347 0 9.334-3.734 9.334-10.829 0-8.962-2.24-12.696-12.322-15.683-9.709-2.988-14.563-9.709-14.563-18.298v-38.461c0-9.336-3.735-14.19-11.576-14.19h-7.468c-7.095 0-10.829 5.228-10.829 14.936v69.83c0 9.334 2.987 14.563 14.189 14.563 11.577 0 16.057-4.109 20.538-4.109 5.602 0 7.096 2.241 12.697 2.241m-119.49-100.08c14.936 0 14.19 4.854 25.392 4.854 7.468 0 7.468-2.24 17.924-2.24 7.842 0 13.443 3.36 13.443 10.455v73.937c0 7.841-3.361 11.576-10.456 11.576h-4.107c-7.842 0-11.576-3.361-11.576-10.456v-39.208c0-17.925-5.975-26.887-17.55-26.887-11.203 0-14.937 7.842-14.937 23.899v42.196c0 7.095-4.855 10.456-10.456 10.456h-5.975c-5.228 0-9.709-3.735-9.709-10.456v-60.494c0-17.177 9.709-27.632 28.007-27.632m616.03-53.893c0-1.377-0.293-2.533-0.877-3.47-0.586-0.937-1.319-1.64-2.196-2.108-0.878-0.469-1.772-0.703-2.679-0.703-1.64 0-3.06 0.542-4.26 1.625-1.2 1.084-1.8 2.636-1.8 4.656s0.6 3.579 1.8 4.677c1.2 1.097 2.62 1.646 4.26 1.646 0.907 0 1.801-0.242 2.679-0.724 0.877-0.484 1.61-1.194 2.196-2.13 0.584-0.937 0.877-2.094 0.877-3.469m4.656-9.749v19.76h-4.656v-3.293c-1.58 2.488-3.878 3.733-6.894 3.733-1.757 0-3.382-0.41-4.875-1.23s-2.693-2.005-3.6-3.556c-0.908-1.553-1.362-3.441-1.362-5.665 0-2.226 0.454-4.114 1.362-5.665 0.907-1.552 2.107-2.731 3.6-3.536s3.118-1.207 4.875-1.207c3.016 0 5.314 1.23 6.894 3.688v-3.029c0-1.523-0.285-2.767-0.856-3.734-0.571-0.965-1.31-1.683-2.217-2.151-0.908-0.468-1.859-0.702-2.855-0.702-1.698 0-3.059 0.461-4.084 1.383-1.024 0.922-1.566 2.056-1.625 3.403h-4.699c0.089-2.635 1.047-4.779 2.877-6.434 1.83-1.653 4.384-2.481 7.663-2.481 1.845 0 3.557 0.389 5.138 1.164 1.58 0.776 2.861 1.954 3.842 3.535s1.472 3.587 1.472 6.017" fill="#ea0029"/></g></g></g></svg>
