<svg width="93.777em" height="28.825em" version="1.1" viewBox="0 0 937.77 288.25" xmlns="http://www.w3.org/2000/svg">
	<path d="m864.71 251.05c0-1.8227-0.3735-3.2158-1.1217-4.1832-0.74575-0.96488-1.9223-1.4479-3.5258-1.4479-1.6758 0-3.0241 0.51916-4.045 1.5587-1.0209 1.0371-1.5313 2.3954-1.5313 4.0724v15.308h-5.9598v-25.149h5.9598v3.8806c0.72832-1.3844 1.7405-2.4688 3.034-3.2532 1.2948-0.7831 2.7975-1.174 4.5106-1.174 2.8062 0 4.9663 0.82792 6.479 2.4863 1.5127 1.6596 2.2684 4.0736 2.2684 7.2446v15.965h-6.0681zm-28.21 0h-13.122c0.25523-1.8588 1.0209-3.308 2.2958-4.3475 1.2774-1.0383 2.8062-1.5575 4.5928-1.5575 1.8961 0 3.354 0.52912 4.3749 1.5861 1.0196 1.0558 1.6397 2.4962 1.8588 4.3189m6.3968 2.4601c0-3.9728-1.1217-7.1064-3.364-9.4034-2.2398-2.2958-5.3124-3.4449-9.2105-3.4449-3.6092 0-6.5337 0.96611-8.776 2.8984-2.2422 1.931-3.618 4.4459-4.1284 7.5447-0.0722 0.43699-0.12699 0.87399-0.16434 1.3122-0.0361 0.43699-0.0535 0.89266-0.0535 1.367 0 2.5149 0.52787 4.7658 1.5849 6.7516 1.057 1.9858 2.5522 3.5458 4.4845 4.675 1.931 1.1292 4.1906 1.6944 6.7778 1.6944 3.1361 0 5.7145-0.62001 7.7376-1.8588 2.0231-1.24 3.6528-2.8797 4.8928-4.9202l-5.1393-2.0792c-0.72956 1.24-1.6857 2.2161-2.871 2.927-1.184 0.70965-2.6332 1.0657-4.345 1.0657-1.9322 0-3.5358-0.57395-4.8119-1.7231-1.2761-1.1479-2.0231-2.8697-2.241-5.1655h19.517c0.0374-0.29258 0.0647-0.58391 0.0822-0.87524 0.0187-0.29133 0.0286-0.54655 0.0286-0.76567m-69.435-2.4601c0-1.8227-0.37474-3.2158-1.1205-4.1832-0.74824-0.96488-1.9223-1.4479-3.5271-1.4479-1.677 0-3.0253 0.51916-4.0462 1.5587-1.0209 1.0371-1.5289 2.3954-1.5289 4.0724v15.308h-5.961v-25.149h5.961v3.8806c0.72708-1.3844 1.7393-2.4688 3.0328-3.2532 1.2936-0.7831 2.7975-1.174 4.5119-1.174 2.805 0 4.965 0.82792 6.4777 2.4863 1.5127 1.6596 2.2696 4.0736 2.2696 7.2446v15.965h-6.0694zm-39.911-9.8404h-6.0694v15.965c0 3.171 0.76691 5.585 2.2958 7.2434 1.5313 1.6583 3.6827 2.4875 6.4516 2.4875 1.7144 0 3.2183-0.40961 4.5119-1.2301s2.3232-1.9048 3.0888-3.2532v3.9367h5.905v-25.149h-5.905v15.308c0 1.6745-0.51045 3.034-1.5313 4.0724-1.0209 1.0396-2.3692 1.5575-4.0462 1.5575-3.1336 0-4.7011-1.8762-4.7011-5.6299zm-20.393 8.2269c-0.72832-1.184-1.6409-2.0866-2.7328-2.7054-1.0944-0.62001-2.2061-0.93001-3.3366-0.93001-2.0393 0-3.8084 0.70218-5.3024 2.1053-1.494 1.4031-2.2422 3.3627-2.2422 5.8776s0.74824 4.4745 2.2422 5.8764c1.494 1.4031 3.2631 2.1053 5.3024 2.1053 1.1305 0 2.2422-0.31001 3.3366-0.92877 1.0919-0.62125 2.0044-1.5226 2.7328-2.7079 0.72957-1.184 1.0931-2.6319 1.0931-4.345s-0.36354-3.1623-1.0931-4.3475m1.0931 16.922v-4.1546c-0.94744 1.494-2.1601 2.6506-3.6354 3.471s-3.1249 1.2301-4.9476 1.2301c-2.1875 0-4.2106-0.52041-6.0694-1.5575-1.8588-1.0396-3.3528-2.5348-4.482-4.4845-1.1317-1.9497-1.6957-4.3102-1.6957-7.079 0-2.7714 0.56398-5.1306 1.6957-7.0815 1.1292-1.9484 2.6232-3.4437 4.482-4.482 1.8588-1.0396 3.8819-1.5587 6.0694-1.5587 1.8227 0 3.4723 0.41085 4.9476 1.23 1.4753 0.82046 2.688 1.9783 3.6354 3.4723v-21.65h5.9586v42.645zm-32.53 0h6.0694v-15.965c0-3.171-0.75695-5.585-2.2696-7.2446-1.5114-1.6583-3.6702-2.4863-6.4777-2.4863-1.7144 0-3.2171 0.39093-4.5106 1.174-1.2948 0.78435-2.3057 1.8687-3.0341 3.2532v-3.8806h-5.9586v25.149h5.9586v-15.308c0-1.677 0.51045-3.0353 1.5301-4.0724 1.0209-1.0396 2.3692-1.5587 4.0462-1.5587 1.6036 0 2.7788 0.48305 3.5258 1.4479 0.74824 0.96736 1.1205 2.3605 1.1205 4.1832zm-39.91-9.8404c0 3.7537 1.5662 5.6299 4.7011 5.6299 1.677 0 3.0253-0.51792 4.0462-1.5575 1.0209-1.0383 1.5314-2.3979 1.5314-4.0724v-15.308h5.9038v25.149h-5.9038v-3.9367c-0.76692 1.3483-1.7953 2.4327-3.0901 3.2532-1.2936 0.82045-2.7963 1.2301-4.5094 1.2301-2.7714 0-4.9215-0.82917-6.4528-2.4875-1.5301-1.6583-2.2958-4.0724-2.2958-7.2434v-15.965h6.0694zm-27.009-6.4516v-26.353h-5.7954v42.645h5.7954v-12.794l10.387 12.794h7.1637l-11.92-14.762 10.825-10.387h-7.2172zm-12.466-2.5149c-0.5453-0.43824-1.0558-0.77563-1.5288-1.0122-0.47559-0.23655-1.0757-0.35482-1.8052-0.35482-1.4579 0-2.5149 0.54655-3.171 1.6397-0.65611 1.0944-0.98354 2.551-0.98354 4.3737v14.161h-5.8502v-25.149h5.8502v3.0602c0.72956-1.1292 1.6023-2.0132 2.6232-2.6506 1.0209-0.63868 2.0605-0.95616 3.1175-0.95616 0.91009 0 1.7666 0.14442 2.5697 0.43575 0.80178 0.29133 1.494 0.76692 2.0766 1.423zm-21.867 1.0919v-5.5763h-15.855v-9.2939h16.948v-5.6846h-23.29v38.27h23.29v-5.6859h-16.948v-12.029zm-52.977-1.9123c-1.0209-1.057-2.48-1.5861-4.3737-1.5861-1.7866 0-3.3179 0.51916-4.5928 1.5575-1.2761 1.0396-2.0418 2.4887-2.2958 4.3475h13.121c-0.21912-1.8227-0.83788-3.2631-1.8588-4.3189m8.2269 7.5447c-0.0174 0.29133-0.0448 0.58266-0.0809 0.87524h-19.519c0.21912 2.2958 0.96736 4.0176 2.2422 5.1655 1.2749 1.1491 2.8797 1.7231 4.8107 1.7231 1.7131 0 3.1623-0.35607 4.3475-1.0657 1.184-0.71089 2.1414-1.687 2.8697-2.927l5.1393 2.0792c-1.24 2.0405-2.871 3.6802-4.8941 4.9202-2.0231 1.2388-4.6015 1.8588-7.7352 1.8588-2.5884 0-4.848-0.56523-6.7802-1.6944-1.931-1.1292-3.425-2.6892-4.482-4.675-1.0582-1.987-1.5861-4.2367-1.5861-6.7516 0-0.47434 0.0187-0.93001 0.0548-1.367 0.0361-0.43824 0.0909-0.87524 0.16434-1.3122 0.51045-3.0988 1.8849-5.6137 4.1272-7.5447 2.2422-1.9322 5.1667-2.8984 8.7747-2.8984 3.9006 0 6.9707 1.1479 9.213 3.4449 2.2422 2.297 3.3627 5.4307 3.3627 9.4034 0 0.21912-0.01 0.47434-0.0286 0.76567m-37.367 12.083h6.0681v-15.965c0-3.171-0.75572-5.585-2.2684-7.2446-1.5127-1.6583-3.6727-2.4863-6.479-2.4863-1.7131 0-3.2158 0.39093-4.5106 1.174-1.2936 0.78435-2.3057 1.8687-3.034 3.2532v-3.8806h-5.9598v25.149h5.9598v-15.308c0-1.677 0.51044-3.0353 1.5313-4.0724 1.0196-1.0396 2.3692-1.5587 4.045-1.5587 1.6036 0 2.7801 0.48305 3.5258 1.4479 0.74824 0.96736 1.1217 2.3605 1.1217 4.1832zm-28.867-10.443c-1.6409-0.83788-3.5358-1.2562-5.6871-1.2562-1.8949 0-3.3167 0.38097-4.2641 1.1479-0.94868 0.76443-1.4218 1.804-1.4218 3.115 0 1.1666 0.44695 2.0418 1.3396 2.6257 0.89391 0.58266 1.9957 0.87399 3.308 0.87399 1.931 0 3.5358-0.44571 4.8107-1.3396 1.2761-0.89266 1.9148-2.4514 1.9148-4.675zm0 10.443v-3.6092c-0.72956 1.3483-1.8588 2.3792-3.3901 3.0901-1.5313 0.70965-3.2445 1.0657-5.1406 1.0657-2.5498 0-4.655-0.65611-6.3146-1.9683-1.6583-1.3122-2.4863-3.2071-2.4863-5.6859 0-2.6245 0.97359-4.6737 2.9245-6.1515 1.9497-1.4753 4.5654-2.2136 7.846-2.2136 1.3844 0 2.6319 0.17305 3.7449 0.51916 1.1105 0.34611 2.0493 0.73953 2.8162 1.1765v-3.4997c0-1.1653-0.4843-2.0679-1.4492-2.7066-0.96736-0.63744-2.1414-0.95615-3.5271-0.95615-1.7853 0-3.3528 0.31-4.7024 0.92876-1.3483 0.62001-2.3319 1.1305-2.9506 1.5314l-2.4066-4.2654c1.1666-0.69222 2.6157-1.367 4.3463-2.0219 1.7306-0.65611 3.7275-0.98479 5.9872-0.98479 3.0975 0 5.6224 0.67479 7.5721 2.0231s2.9245 3.2806 2.9245 5.7954v17.933zm-26.79-12.574c0 1.6758-0.34735 3.1075-1.0396 4.2915-0.69222 1.1852-1.6123 2.0953-2.7602 2.7328-1.1479 0.63869-2.4153 0.95741-3.801 0.95741-1.1292 0-2.2397-0.31001-3.3341-0.92877-1.0931-0.62125-1.9957-1.5226-2.7054-2.7079-0.71214-1.184-1.0682-2.6319-1.0682-4.345s0.35607-3.1623 1.0682-4.3475c0.70965-1.184 1.6123-2.0866 2.7054-2.7054 1.0944-0.62001 2.2049-0.93001 3.3341-0.93001 1.3857 0 2.6531 0.31872 3.801 0.9574 1.1479 0.63744 2.0679 1.5488 2.7602 2.734 0.69222 1.184 1.0396 2.6145 1.0396 4.2915m6.1229 0c0-2.7714-0.56523-5.1306-1.6944-7.0815-1.1305-1.9484-2.6244-3.4437-4.4845-4.482-1.8588-1.0396-3.8819-1.5587-6.0681-1.5587-1.8227 0-3.471 0.41085-4.9476 1.23-1.4766 0.82046-2.688 1.9783-3.6366 3.4723v-21.65h-5.9585v42.645h5.9585v-4.1546c0.94869 1.494 2.1601 2.6506 3.6366 3.471 1.4766 0.82045 3.1249 1.2301 4.9476 1.2301 2.1862 0 4.2093-0.52041 6.0681-1.5575 1.86-1.0396 3.354-2.5348 4.4845-4.4845 1.1292-1.9497 1.6944-4.3102 1.6944-7.079m-33.459-6.2324c-0.54655-0.43824-1.057-0.77563-1.5301-1.0122-0.47558-0.23655-1.0757-0.35482-1.8052-0.35482-1.4579 0-2.5149 0.54655-3.171 1.6397-0.65611 1.0944-0.98355 2.551-0.98355 4.3737v14.161h-5.8502v-25.149h5.8502v3.0602c0.72832-1.1292 1.6036-2.0132 2.6232-2.6506 1.0209-0.63868 2.0592-0.95616 3.1175-0.95616 0.91133 0 1.7666 0.14442 2.5697 0.43575 0.80177 0.29133 1.494 0.76692 2.0766 1.423zm-37.068-6.342h-6.0681v15.965c0 3.171 0.76567 5.585 2.2958 7.2434 1.5314 1.6583 3.6827 2.4875 6.4516 2.4875 1.7131 0 3.2158-0.40961 4.5106-1.2301 1.2936-0.82045 2.3232-1.9048 3.0888-3.2532v3.9367h5.905v-25.149h-5.905v15.308c0 1.6745-0.51045 3.034-1.5301 4.0724-1.0209 1.0396-2.3692 1.5575-4.0462 1.5575-3.1337 0-4.7024-1.8762-4.7024-5.6299zm-29.357 6.342c-0.54779-0.43824-1.0582-0.77563-1.5313-1.0122s-1.0757-0.35482-1.8052-0.35482c-1.4579 0-2.5149 0.54655-3.171 1.6397-0.65611 1.0944-0.98354 2.551-0.98354 4.3737v14.161h-5.8502v-25.149h5.8502v3.0602c0.72956-1.1292 1.6048-2.0132 2.6244-2.6506 1.0209-0.63868 2.0592-0.95616 3.1162-0.95616 0.91134 0 1.7679 0.14442 2.5697 0.43575s1.494 0.76692 2.0766 1.423zm-37.068-6.342h-6.0694v15.965c0 3.171 0.76567 5.585 2.297 7.2434 1.5301 1.6583 3.6814 2.4875 6.4503 2.4875 1.6409 0 3.1175-0.36479 4.4297-1.0944 1.311-0.72708 2.3692-1.7131 3.171-2.9506v3.4984h5.9038v-25.149h-5.9038v15.308c0 1.6745-0.51045 3.034-1.5313 4.0724-1.0209 1.0396-2.3692 1.5575-4.0462 1.5575-3.1336 0-4.7011-1.8762-4.7011-5.6299zm7.3268-8.2556c0-1.0209 0.35482-1.8774 1.0657-2.5697 0.7109-0.69346 1.5762-1.0396 2.5971-1.0396 1.057 0 1.9497 0.34611 2.678 1.0396 0.72832 0.69222 1.0931 1.5488 1.0931 2.5697s-0.36478 1.8762-1.0931 2.5684c-0.72832 0.69221-1.621 1.0396-2.678 1.0396-1.0209 0-1.8862-0.34736-2.5971-1.0396-0.71089-0.69222-1.0657-1.5475-1.0657-2.5684m-10.826 2.5684c0.72956 0.69221 1.6036 1.0396 2.6244 1.0396 1.057 0 1.9409-0.34736 2.6518-1.0396 0.71089-0.69222 1.0657-1.5475 1.0657-2.5684s-0.35482-1.8774-1.0657-2.5697c-0.7109-0.69346-1.5948-1.0396-2.6518-1.0396-1.0209 0-1.8949 0.34611-2.6244 1.0396-0.72833 0.69222-1.0931 1.5488-1.0931 2.5697s0.36478 1.8762 1.0931 2.5684m-7.7078-5.4668c-0.36478-0.5839-0.77439-0.96487-1.2301-1.1479-0.45567-0.18177-0.92005-0.2739-1.3944-0.2739-0.80178 0-1.4392 0.33739-1.9136 1.0122-0.4731 0.67354-0.71089 1.814-0.71089 3.4163v8.1472h5.8502v5.1941h-5.8502v19.955h-5.849v-19.955h-2.734v-5.1941h2.734v-9.2951c0-2.9158 0.70093-5.1207 2.104-6.6159 1.4031-1.494 3.4175-2.241 6.0407-2.241 1.4591 0 2.6518 0.26394 3.5818 0.79306 0.92877 0.52788 1.631 1.0657 2.1053 1.6123zm-41.605 36.303h5.9598v-42.645h-5.9598zm-12.683-10.443c-1.6397-0.83788-3.5358-1.2562-5.6859-1.2562-1.8949 0-3.3179 0.38097-4.2654 1.1479-0.9462 0.76443-1.4218 1.804-1.4218 3.115 0 1.1666 0.44695 2.0418 1.3409 2.6257 0.89266 0.58266 1.9957 0.87399 3.308 0.87399 1.931 0 3.5345-0.44571 4.8107-1.3396 1.2761-0.89266 1.9136-2.4514 1.9136-4.675zm0 10.443v-3.6092c-0.72957 1.3483-1.8588 2.3792-3.3901 3.0901-1.5314 0.70965-3.2445 1.0657-5.1381 1.0657-2.5522 0-4.6563-0.65611-6.3146-1.9683-1.6596-1.3122-2.4887-3.2071-2.4887-5.6859 0-2.6245 0.97607-4.6737 2.9257-6.1515 1.9484-1.4753 4.5642-2.2136 7.8447-2.2136 1.3857 0 2.6344 0.17305 3.745 0.51916 1.1118 0.34611 2.0505 0.73953 2.8162 1.1765v-3.4997c0-1.1653-0.48306-2.0679-1.4492-2.7066-0.96488-0.63744-2.1414-0.95615-3.5271-0.95615-1.7853 0-3.3528 0.31-4.7011 0.92876-1.3496 0.62001-2.3331 1.1305-2.9519 1.5314l-2.4066-4.2654c1.1666-0.69222 2.6157-1.367 4.3475-2.0219 1.7318-0.65611 3.7263-0.98479 5.9859-0.98479 3.0976 0 5.6224 0.67479 7.5721 2.0231 1.9509 1.3483 2.9245 3.2806 2.9245 5.7954v17.933zm-31.82 2.2958 13.013-27.445h-6.4516l-6.5611 16.237-6.5611-16.237h-6.5051zm-24-37.451c0-1.0209 0.36478-1.8775 1.0919-2.5697 0.72957-0.69222 1.6048-1.0396 2.6257-1.0396 1.0558 0 1.9497 0.34736 2.6792 1.0396 0.72708 0.69221 1.0919 1.5488 1.0919 2.5697 0 1.0209-0.36478 1.8774-1.0919 2.5697-0.72956 0.69346-1.6235 1.0396-2.6792 1.0396-1.0209 0-1.8961-0.34611-2.6257-1.0396-0.72708-0.69222-1.0919-1.5488-1.0919-2.5697m0.8192 35.155h5.7967v-25.149h-5.7967zm-14.707-33.896h5.8515v8.7473h4.2093v5.1941h-4.2093v19.955h-5.8515v-19.955h-4.2093v-5.1941h4.2093zm-26.297 28.156c1.1666 1.8588 2.724 3.4076 4.675 4.6463 1.9497 1.24 4.1446 1.8588 6.5873 1.8588 2.6606 0 4.8393-0.64615 6.5325-1.941 1.6957-1.2936 2.5435-3.2706 2.5435-5.9312 0-1.494-0.32743-2.7153-0.98354-3.6628-0.65612-0.94744-1.5127-1.7405-2.5697-2.3779-1.0582-0.63869-2.1875-1.1952-3.3901-1.6683-0.94744-0.40089-1.9048-0.76442-2.8697-1.0931-0.96736-0.32744-1.7592-0.7109-2.3792-1.1491-0.62001-0.437-0.92876-1.0022-0.92876-1.6932 0-0.76567 0.30128-1.3222 0.90137-1.6683 0.60134-0.34611 1.4131-0.51916 2.4327-0.51916 1.0209 0 2.0866 0.29132 3.1996 0.87398 1.1105 0.58391 2.0866 1.3309 2.9245 2.2422l3.2793-3.3901c-0.94619-1.2749-2.287-2.3406-4.0188-3.1972-1.7305-0.85656-3.6155-1.2848-5.6573-1.2848-1.494 0-2.8984 0.27266-4.2093 0.81921-1.3135 0.54655-2.3692 1.3309-3.171 2.3506-0.80303 1.0209-1.2027 2.2597-1.2027 3.7188 0 1.5674 0.35482 2.8324 1.0657 3.7997 0.71089 0.96487 1.6123 1.7405 2.7054 2.3219 1.0944 0.5839 2.2236 1.113 3.3901 1.5861 1.4579 0.5478 2.7427 1.1305 3.8545 1.7505 1.1118 0.61877 1.667 1.4753 1.667 2.5684 0 0.83913-0.30004 1.4678-0.90138 1.8874-0.60133 0.41832-1.4305 0.62748-2.4887 0.62748-1.0931 0-2.3219-0.44695-3.6889-1.3384-1.367-0.89391-2.6518-2.0518-3.8558-3.4723zm-11.371-13.887c-1.0209-1.057-2.4788-1.5861-4.3737-1.5861-1.7878 0-3.3167 0.51916-4.5928 1.5575-1.2761 1.0396-2.0418 2.4887-2.2958 4.3475h13.12c-0.21788-1.8227-0.83789-3.2631-1.8575-4.3189m8.2269 7.5447c-0.0174 0.29133-0.0448 0.58266-0.0822 0.87524h-19.518c0.21912 2.2958 0.96736 4.0176 2.2422 5.1655 1.2749 1.1491 2.8797 1.7231 4.8119 1.7231 1.7119 0 3.161-0.35607 4.345-1.0657 1.1852-0.71089 2.1426-1.687 2.8697-2.927l5.1406 2.0792c-1.24 2.0405-2.871 3.6802-4.8941 4.9202-2.0231 1.2388-4.6015 1.8588-7.7352 1.8588-2.5871 0-4.848-0.56523-6.7802-1.6944-1.931-1.1292-3.425-2.6892-4.4832-4.675-1.057-1.9858-1.5836-4.2367-1.5836-6.7516 0-0.47434 0.0162-0.93001 0.0535-1.367 0.0361-0.43824 0.0909-0.87524 0.1631-1.3122 0.51044-3.0988 1.8862-5.6137 4.1284-7.5447 2.2422-1.9322 5.1667-2.8984 8.776-2.8984 3.8993 0 6.9695 1.1491 9.2117 3.4449 2.2397 2.297 3.3615 5.4307 3.3615 9.4034 0 0.21912-9e-3 0.47434-0.0274 0.76567m-29.549-5.1941v-5.6311h-14.217v-9.5678h14.762v-5.7942h-21.103v38.27h6.3408v-17.277zm-53.525 14.489c0-1.0582 0.36478-1.9596 1.0931-2.7079 0.72957-0.74575 1.6409-1.1205 2.734-1.1205 1.0944 0 2.0144 0.37474 2.7614 1.1205 0.747 0.74825 1.1205 1.6496 1.1205 2.7079 0 1.0184-0.3735 1.9123-1.1205 2.678-0.747 0.76567-1.667 1.1479-2.7614 1.1479-1.0931 0-2.0044-0.38221-2.734-1.1479-0.72832-0.76568-1.0931-1.6596-1.0931-2.678m-14.925-22.361h-4.2093v5.1941h4.2093v19.955h5.8502v-19.955h4.2093v-5.1941h-4.2093v-8.7473h-5.8502zm-14.324 9.8404c0-1.8227-0.3735-3.2158-1.1205-4.1832-0.74824-0.96488-1.9235-1.4479-3.5271-1.4479-1.677 0-3.0253 0.51916-4.0462 1.5587-1.0197 1.0371-1.5301 2.3954-1.5301 4.0724v15.308h-5.9598v-25.149h5.9598v3.8806c0.72832-1.3844 1.7405-2.4688 3.0341-3.2532 1.2936-0.7831 2.7975-1.174 4.5106-1.174 2.8062 0 4.9663 0.82792 6.479 2.4863 1.5127 1.6596 2.2684 4.0736 2.2684 7.2446v15.965h-6.0681zm-30.726 15.308h6.5611v-38.27h-6.5611zm912.83-101.56c0-12.413-2.3879-19.097-15.755-19.097-10.027 0-16.232 2.8647-16.232 18.62 0 13.368 2.3866 19.573 16.232 19.573 8.1161 0 15.755-1.4318 15.755-19.096m-2.6842-50.34c-3.2569 8.0813-7.5011 13.986-13.094 12.746-5.1269-1.1379-6.271-9.2142-6.0158-16.983 2.2597-36.664 1.174-33.97 5.9262-55.411l4.0313-18.177c2.17-9.7882 8.4336-13.778 19.154-11.403 9.7882 2.17 14.555 7.1388 11.247 22.055-8.1622 36.821-8.2693 32.887-21.25 67.172m-100.59-31.088c-9.2989 0-21.385 6.5101-21.385 14.878 0 6.9732 6.5076 10.692 19.06 10.692 15.342 0 23.247-3.2544 23.247-9.762 0-7.4388-9.7633-15.808-20.921-15.808m41.375 44.166h-48.349c-10.692 0-16.271 4.1844-16.271 12.089 0 10.226 12.086 21.384 24.175 21.384 19.991 0 23.244-16.271 35.332-16.271 7.4388 0 15.808 6.5076 15.808 12.086 0 7.4388-16.738 28.358-51.605 28.358-33.939 0-59.506-20.92-59.506-60.436 0-47.419 28.823-65.55 59.041-65.55 50.674 0 57.183 45.559 57.183 54.858 0 10.692-4.6501 13.481-15.808 13.481m-106.4-51.603c0 14.411-3.2544 18.595-10.228 25.57l-28.359 28.359c-9.7645 9.7632-14.412 15.805-14.412 18.595 0 6.5088 4.1832 9.762 13.018 9.762h25.568c9.2989 0 13.948 5.5788 13.948 13.018 0 8.3676-5.5788 12.088-16.738 12.088h-76.244c-8.3689 0-14.411-4.1832-14.411-13.016v-6.5101c0-6.0432 3.2532-12.086 10.226-19.06l38.122-38.587c3.2544-3.2532 5.1144-5.5788 5.1144-10.226 0-5.5801-6.0432-7.9045-14.876-7.9045h-17.202c-6.5076 0-14.411-3.2544-14.411-12.552 0-7.4388 4.6476-12.552 13.482-12.552h72.989c8.3689 0 14.412 4.1832 14.412 13.018m-138.77-16.273h-8.3676c-8.3689 0-13.946 6.5101-13.946 16.736v86.937c0 13.482 2.7888 20.455 18.594 20.455 12.552 0 18.596-5.5788 18.596-16.736v-86.936c0-13.482-5.1132-20.457-14.876-20.457m0.0398-14.044c-12.893 3.9417-19.107-0.47808-21.418-8.0364-3.3976-11.115 3.6541-16.674 12.99-19.528 12.893-3.9417 19.55 0.34362 21.861 7.9007 3.3988 11.115-3.6528 16.673-13.434 19.663m-75.121 15.206c-16.736 0-19.991 6.0445-31.149 6.0445-6.0444 0-13.482-3.2544-22.781-3.2544-11.156 0-16.271 4.6488-16.271 13.481v92.051c0 9.762 5.1144 14.412 13.016 14.412h5.1157c7.902 0 14.412-4.1844 14.412-13.018v-48.814c0-22.315 6.5076-33.474 20.454-33.474 13.018 0 19.991 10.693 19.991 32.08v50.208c0 8.8332 5.5788 13.018 13.018 13.018h5.1132c7.9045 0 14.413-4.1844 14.413-13.018v-72.523c0-26.964-13.948-37.193-35.333-37.193m-120.41 78.105c0 12.086-12.088 23.244-24.177 23.244-10.226 0-16.735-6.9745-16.735-14.876 0-13.018 19.527-19.527 29.289-19.527 8.3689 0 11.623 5.1144 11.623 11.159m33.007 32.077v-69.736c0-33.473-19.525-40.912-52.069-40.912-37.192 0-46.955 17.668-46.955 26.035 0 7.9032 6.9732 9.2976 13.483 9.2976 19.525 0 18.131-15.341 35.796-15.341 8.8332 0 16.272 6.0432 16.272 15.341 0 5.1132-4.6488 11.158-19.991 13.018-37.656 5.1132-54.394 20.921-54.394 41.841 0 20.457 13.948 35.333 39.982 35.333 15.806 0 23.245-7.4376 33.939-7.4376 6.0432 0 10.692 4.1832 20.455 4.1832 7.9032 0 13.482-2.3244 13.482-11.622m-176.43-86.007c-14.412 0-27.894 11.622-27.894 38.586 0 26.964 11.158 40.447 26.965 40.447 14.875 0 27.893-12.089 27.893-37.193 0-23.71-8.3676-41.841-26.964-41.841m6.9732 101.35c-17.201 0-18.131-6.0432-29.289-6.0432s-10.228 3.2544-20.92 3.2544c-12.089 0-15.806-3.7188-15.806-18.596v-125.99c0-8.3676 3.7176-14.411 11.622-14.411h7.4376c6.5088 0 11.623 4.6488 11.623 14.411v15.343c0 6.5076 3.2544 13.946 9.762 13.946 7.4388 0 13.948-5.1144 26.965-5.1144 28.824 0 49.744 20.457 49.744 58.113 0 43.701-22.314 65.086-51.139 65.086m-90.19-124.36c7.902 0 11.621 4.6488 11.621 13.482 0 11.158-2.7888 15.806-15.341 19.525-12.088 3.72-18.131 12.088-18.131 22.781v47.884c0 11.623-4.6501 17.666-14.412 17.666h-9.2976c-8.8332 0-13.482-6.5088-13.482-18.595v-86.938c0-11.621 3.7188-18.131 17.665-18.131 14.413 0 19.991 5.1157 25.57 5.1157 6.9745 0 8.8345-2.79 15.808-2.79m-148.76 124.6c18.595 0 17.666-6.0432 31.613-6.0432 9.2976 0 9.2976 2.7888 22.315 2.7888 9.7633 0 16.736-4.1832 16.736-13.016v-92.051c0-9.762-4.1844-14.412-13.018-14.412h-5.1132c-9.7633 0-14.412 4.1844-14.412 13.018v48.814c0 22.317-7.4388 33.474-21.85 33.474-13.948 0-18.596-9.7632-18.596-29.754v-52.534c0-8.8332-6.0445-13.018-13.018-13.018h-7.4388c-6.5088 0-12.088 4.6501-12.088 13.018v75.315c0 21.385 12.088 34.402 34.869 34.402m766.95 67.097c0 1.7144-0.36479 3.1536-1.0919 4.3201-0.72957 1.1666-1.6422 2.0418-2.734 2.6245-1.0931 0.5839-2.2061 0.87523-3.3354 0.87523-2.0418 0-3.8097-0.67479-5.3037-2.0231-1.494-1.3496-2.241-3.2818-2.241-5.7967s0.747-4.4558 2.241-5.8228c1.494-1.3658 3.2619-2.0493 5.3037-2.0493 1.1292 0 2.2422 0.30129 3.3354 0.90138 1.0919 0.60258 2.0044 1.4865 2.734 2.6518 0.72707 1.1666 1.0919 2.607 1.0919 4.3189m5.7967 12.137v-24.601h-5.7967v4.0998c-1.9671-3.0976-4.8281-4.6476-8.583-4.6476-2.1875 0-4.2106 0.51045-6.0694 1.5314-1.8588 1.0209-3.3528 2.4962-4.482 4.4272-1.1304 1.9335-1.6957 4.284-1.6957 7.0529 0 2.7714 0.56523 5.1219 1.6957 7.0529 1.1292 1.9322 2.6232 3.4001 4.482 4.4023 1.8588 1.0022 3.8819 1.5027 6.0694 1.5027 3.7549 0 6.6159-1.5313 8.583-4.5915v3.7711c0 1.8961-0.35483 3.4449-1.0657 4.6488-0.71089 1.2014-1.6309 2.0953-2.7602 2.678-1.1305 0.58266-2.3144 0.87399-3.5545 0.87399-2.114 0-3.8084-0.57395-5.0846-1.7218-1.2749-1.1479-1.9497-2.5597-2.0231-4.2367h-5.8502c0.11081 3.2806 1.3035 5.9498 3.5818 8.0103 2.2783 2.058 5.4581 3.0888 9.5404 3.0888 2.297 0 4.4284-0.4843 6.3968-1.4492 1.9671-0.96612 3.5619-2.4327 4.7833-4.4011s1.8326-4.4658 1.8326-7.4911" fill="#ae368b"/>
</svg>
